<svg id="Layer_1" data-name="Layer 1" xmlns="http://www.w3.org/2000/svg" viewBox="0 0 239.06 226.58"><defs><style>.cls-1{fill:#ffc05b;}</style></defs><path class="cls-1" d="M239.06,87.22a41.37,41.37,0,0,0-4.23,3.14C217.22,107.23,199.71,124.2,182,141c-2.68,2.54-3.18,4.93-2.56,8.3q6.83,37.14,13.43,74.34c.14.79.13,1.61.22,2.85-2.11-1.07-3.88-1.93-5.61-2.86-21-11.25-42.12-22.43-63.07-33.83-3.42-1.86-6-2-9.54-.1C93.64,201.25,72.25,212.55,50.92,224c-1.45.77-2.93,1.5-5.13,2.63,1.87-10.67,3.59-20.69,5.38-30.69,2.8-15.66,5.58-31.32,8.55-46.94.66-3.49-.26-5.75-2.84-8.2C39.18,124,21.65,107,4.06,90.12c-1-1-2.15-2-4.06-3.74,10.13-1.45,19.2-2.78,28.29-4C45.53,80,62.78,77.71,80,75.1c1.77-.26,3.85-2.31,4.72-4.06C95.48,49.2,106,27.26,116.67,5.36c.77-1.6,1.65-3.15,2.81-5.36,1.07,1.91,1.9,3.24,2.59,4.65C132.49,26.1,143,47.51,153.2,69.08c2,4.2,4.29,6.1,9,6.7,25.64,3.24,51.23,6.92,76.83,10.44Z"/></svg>