<?xml version="1.0" encoding="utf-8"?>
<!-- Generator: Adobe Illustrator 25.0.0, SVG Export Plug-In . SVG Version: 6.00 Build 0)  -->
<svg version="1.1" id="Layer_1" xmlns="http://www.w3.org/2000/svg" xmlns:xlink="http://www.w3.org/1999/xlink" x="0px" y="0px"
	 viewBox="0 0 719 440.7" style="enable-background:new 0 0 719 440.7;" xml:space="preserve">
<style type="text/css">
	.st0{clip-path:url(#SVGID_2_);}
	.st1{fill-rule:evenodd;clip-rule:evenodd;fill:#2D5603;}
	.st2{fill:#2D5603;}
</style>
<g>
	<defs>
		<rect id="SVGID_1_" width="719" height="441.2"/>
	</defs>
	<clipPath id="SVGID_2_">
		<use xlink:href="#SVGID_1_"  style="overflow:visible;"/>
	</clipPath>
	<g class="st0">
		<g>
			<path class="st1" d="M29.5,435c2.7-33.5-13.3-70.6-42.2-88.1C18.8,344.6,62.3,428.7,29.5,435L29.5,435z"/>
			<path class="st1" d="M64.5,435c7.2-42.4-4.3-87.7-13.7-126.2C69.8,324.2,103,437.3,64.5,435z"/>
			<path class="st1" d="M95,435c10.3-28.5,22.3-56.1,23.8-85.4C128.1,367.2,119,435.7,95,435z"/>
			<path class="st1" d="M141.9,435c2.8-31.7-2.2-68.8,6.5-96.9C151.1,353,169.3,442,141.9,435z"/>
			<path class="st1" d="M175.6,435c1.3-16.7,3-38.5,14.3-50.2C184.8,396.4,192.3,437,175.6,435z"/>
			<path class="st1" d="M288.1,333c-19.1,20.6-19.4,98,11.1,102.8C286.5,403,279.4,365.7,288.1,333z"/>
			<path class="st1" d="M233.9,333.7c4.8,30.1,23.5,65.8,25.5,102C292.3,436.9,246.2,349.2,233.9,333.7z"/>
			<path class="st1" d="M210.3,353.5c2.1,24.6,13.1,54.6,12.2,82.2C249,435.2,218.9,366.9,210.3,353.5z"/>
			<path class="st1" d="M317.9,355.5c-2.5,14.5-20.2,83.2,4.7,79.5C320.4,409.2,325.8,378.3,317.9,355.5z"/>
			<path class="st1" d="M328.5,363.8c0.4,21.5,6.7,48,6.4,71.9C359.1,437.9,336.4,375.1,328.5,363.8z"/>
		</g>
		<path class="st2" d="M-31.2,426.9c2.6,21.3,789.8-47,760.4,34.4C726.6,440-60.6,508.3-31.2,426.9z"/>
		<path class="st1" d="M25.3,435c2.5-33.5-12.4-70.6-39.3-88.1C15.3,344.6,55.9,428.7,25.3,435L25.3,435z"/>
		<path class="st1" d="M57.9,435c6.7-42.4-4-87.7-12.8-126.2C62.9,324.2,93.7,437.3,57.9,435z"/>
		<path class="st1" d="M86.3,435c9.6-28.5,20.8-56.1,22.2-85.4C117.2,367.2,108.7,435.7,86.3,435z"/>
		<path class="st1" d="M130,435c2.6-31.7-2-68.8,6-96.9C138.7,353,155.5,442,130,435z"/>
		<path class="st1" d="M161.4,435c1.2-16.7,2.8-38.5,13.3-50.2C170,396.4,177,437,161.4,435z"/>
		<path class="st1" d="M288.1,333c-19.1,20.6-19.4,98,11.1,102.8C286.5,403,279.4,365.7,288.1,333z"/>
		<path class="st1" d="M215.8,333.7c4.4,30.1,21.9,65.8,23.7,102C270.2,436.9,227.3,349.2,215.8,333.7z"/>
		<path class="st1" d="M193.8,353.5c1.9,24.6,12.2,54.6,11.4,82.2C229.8,435.2,201.7,366.9,193.8,353.5z"/>
		<path class="st1" d="M317.9,355.5c-2.5,14.5-20.2,83.2,4.7,79.5C320.4,409.2,325.8,378.3,317.9,355.5z"/>
		<path class="st1" d="M328.5,363.8c0.4,21.5,6.7,48,6.4,71.9C359.1,437.9,336.4,375.1,328.5,363.8z"/>
		<path class="st1" d="M33.4,425C36,390.6,20.7,352.5-7,334.5C23.1,332.1,64.8,418.5,33.4,425z"/>
		<path class="st1" d="M66.9,425c6.9-43.5-4.1-90-13.1-129.6C72,311.2,103.7,427.3,66.9,425z"/>
		<path class="st1" d="M96,425c9.8-29.3,21.4-57.6,22.8-87.7C127.7,355.3,119,425.7,96,425z"/>
		<path class="st1" d="M140.9,425c2.7-32.5-2.1-70.7,6.2-99.5C149.8,340.8,167.1,432.2,140.9,425z"/>
		<path class="st1" d="M173.2,425c1.2-17.1,2.9-39.6,13.7-51.5C182,385.4,189.2,427,173.2,425L173.2,425z"/>
		<path class="st1" d="M303.8,320.2c-19.7,19-19.2,103.1,11.4,105.5C302.1,392.1,294.8,353.8,303.8,320.2z"/>
		<path class="st1" d="M248.1,320.9c4.9,30.9,24.1,67.6,26.2,104.8C308.1,426.9,260.7,336.9,248.1,320.9z"/>
		<path class="st1" d="M206.4,341.3c2,25.2,12.6,56.1,11.7,84.4C243.3,427.8,214.4,353.2,206.4,341.3z"/>
		<path class="st1" d="M334.3,343.3c-2.5,14.9-20.7,85.5,4.8,81.6C336.8,398.5,342.5,366.8,334.3,343.3z"/>
		<path class="st1" d="M345.2,351.8c0.4,22,6.9,49.3,6.6,73.9C376.7,428,353.3,363.5,345.2,351.8z"/>
		<path class="st1" d="M53.5,428.1c2.2-29.7-11-62.5-34.8-78C45.4,349.4,80.1,420.2,53.5,428.1z"/>
		<path class="st1" d="M82.3,428.1c5.9-37.5-3.6-77.6-11.3-111.8C87,332,114.2,427.4,82.3,428.1z"/>
		<path class="st1" d="M107.5,428.1c8.5-25.2,18.4-49.7,19.7-75.6C134.4,369.7,128.1,426.8,107.5,428.1z"/>
		<path class="st1" d="M146.1,428.1c2.3-28-1.8-60.9,5.3-85.8C153.6,356.7,169.1,432.6,146.1,428.1z"/>
		<path class="st1" d="M173.9,428.1c1.1-14.8,2.5-34.1,11.8-44.4C181.2,394.6,188.3,428.6,173.9,428.1z"/>
		<path class="st1" d="M288.7,337.8c-16.9,18.2-17.2,86.7,9.8,91C287.2,399.8,280.9,366.7,288.7,337.8z"/>
		<path class="st1" d="M240.6,338.4c4.2,26.6,20.8,58.3,22.6,90.3C292.4,429.8,251.6,352.1,240.6,338.4z"/>
		<path class="st1" d="M202.6,355.9c1.7,21.7,10.8,48.3,10.1,72.8C234.5,428.2,209.6,367.8,202.6,355.9z"/>
		<path class="st1" d="M315,357.7c-2.2,12.8-17.9,73.7,4.2,70.4C317.2,405.2,322,377.9,315,357.7z"/>
		<path class="st1" d="M324.4,365c0.4,19,5.9,42.5,5.7,63.7C351.5,430.7,331.4,375.1,324.4,365z"/>
		<path class="st1" d="M196.5,428.1c-5.9-37.5,3.6-77.6,11.3-111.8C191.9,332,164.7,427.4,196.5,428.1z"/>
		<path class="st1" d="M161.1,337.8c15.7,18.2,16,86.7-9.1,91C162.5,399.8,168.3,366.7,161.1,337.8z"/>
		<path class="st1" d="M314.5,343.4c-4.2,26.6-20.8,58.3-22.6,90.3C262.7,434.8,303.5,357.1,314.5,343.4z"/>
		<path class="st1" d="M363.3,355.9c-1.8,21.7-11.6,48.3-10.8,72.8C329,428.2,355.7,367.8,363.3,355.9z"/>
		<path class="st1" d="M115.5,354.7c2,12.8,16.6,73.7-3.9,70.4C113.5,402.2,109,374.9,115.5,354.7z"/>
		<path class="st1" d="M180.8,361c-0.3,19-5.5,42.5-5.3,63.7C155.5,426.7,174.3,371.1,180.8,361z"/>
		<path class="st1" d="M351.5,435c2.7-33.5-13.3-70.6-42.2-88.1C340.8,344.6,384.3,428.7,351.5,435z"/>
		<path class="st1" d="M386.5,435c7.2-42.4-4.3-87.7-13.7-126.2C391.8,324.2,424.9,437.3,386.5,435z"/>
		<path class="st1" d="M417,435c10.3-28.5,22.3-56.1,23.8-85.4C450.1,367.2,441,435.7,417,435z"/>
		<path class="st1" d="M574.6,440c-2.8-31.7,2.2-68.8-6.5-96.9C565.3,358,547.2,447,574.6,440z"/>
		<path class="st1" d="M540.9,435c-1.3-16.7-3-38.5-14.3-50.2C531.7,396.4,524.2,437,540.9,435L540.9,435z"/>
		<path class="st1" d="M610.1,341c-19.1,20.6-19.4,98,11.1,102.8C608.4,411,601.3,373.7,610.1,341z"/>
		<path class="st1" d="M482.6,333.7c-4.8,30.1-23.5,65.8-25.5,102C424.1,436.9,470.2,349.2,482.6,333.7z"/>
		<path class="st1" d="M506.2,353.5c-2.1,24.6-13.1,54.6-12.2,82.2C467.5,435.2,497.6,366.9,506.2,353.5z"/>
		<path class="st1" d="M639.9,368.5c-2.5,14.5-20.2,83.2,4.7,79.5C642.3,422.2,647.8,391.3,639.9,368.5z"/>
		<path class="st1" d="M650.4,380.8c0.4,21.5,6.7,48,6.4,71.9C681.1,454.9,658.4,392.1,650.4,380.8z"/>
		<path class="st1" d="M351.5,435c2.7-33.5-13.3-70.6-42.2-88.1C340.8,344.6,384.3,428.7,351.5,435z"/>
		<path class="st1" d="M386.5,435c7.2-42.4-4.3-87.7-13.7-126.2C391.8,324.2,424.9,437.3,386.5,435z"/>
		<path class="st1" d="M417,435c10.3-28.5,22.3-56.1,23.8-85.4C450.1,367.2,441,435.7,417,435z"/>
		<path class="st1" d="M574.6,440c-2.8-31.7,2.2-68.8-6.5-96.9C565.3,358,547.2,447,574.6,440z"/>
		<path class="st1" d="M540.9,435c-1.3-16.7-3-38.5-14.3-50.2C531.7,396.4,524.2,437,540.9,435L540.9,435z"/>
		<path class="st1" d="M610.1,341c-19.1,20.6-19.4,98,11.1,102.8C608.4,411,601.3,373.7,610.1,341z"/>
		<path class="st1" d="M482.6,333.7c-4.8,30.1-23.5,65.8-25.5,102C424.1,436.9,470.2,349.2,482.6,333.7z"/>
		<path class="st1" d="M506.2,353.5c-2.1,24.6-13.1,54.6-12.2,82.2C467.5,435.2,497.6,366.9,506.2,353.5z"/>
		<path class="st1" d="M639.9,368.5c-2.5,14.5-20.2,83.2,4.7,79.5C642.3,422.2,647.8,391.3,639.9,368.5z"/>
		<path class="st1" d="M650.4,380.8c0.4,21.5,6.7,48,6.4,71.9C681.1,454.9,658.4,392.1,650.4,380.8z"/>
		<path class="st1" d="M360.2,425c2.7-34.4-13.7-72.5-43.3-90.5C349.1,332.1,393.8,418.5,360.2,425z"/>
		<path class="st1" d="M392.6,425c16.4-28.5-27.2-170.2-10.7-141.5C399.1,305.1,439.8,428.9,392.6,425z"/>
		<path class="st1" d="M427.4,425c10.6-29.3,22.9-57.6,24.5-87.7C461.4,355.3,452.1,425.7,427.4,425z"/>
		<path class="st1" d="M562.9,425c-2.9-32.5,2.2-70.7-6.7-99.5C553.4,340.8,534.8,432.2,562.9,425z"/>
		<path class="st1" d="M528.3,425c-1.3-17.1-3.1-39.6-14.7-51.5C518.8,385.4,511.1,427,528.3,425L528.3,425z"/>
		<path class="st1" d="M625.7,332.2c-19.7,19-19.2,103.1,11.4,105.5C624,404.1,616.7,365.8,625.7,332.2z"/>
		<path class="st1" d="M570,328.9c4.9,30.9,24.1,67.6,26.2,104.8C630.1,435,582.7,344.9,570,328.9z"/>
		<path class="st1" d="M492.7,341.3c-2.1,25.2-13.5,56.1-12.6,84.4C453,427.8,484.1,353.2,492.7,341.3z"/>
		<path class="st1" d="M656.3,360.3c-2.5,14.9-20.7,85.5,4.8,81.6C658.8,415.5,664.5,383.8,656.3,360.3z"/>
		<path class="st1" d="M667.1,371.8c0.4,22,6.9,49.3,6.6,73.9C698.6,448,675.3,383.5,667.1,371.8z"/>
		<path class="st1" d="M381.7,428.1c2.4-29.7-11.8-62.5-37.4-78C373,349.4,410.3,420.2,381.7,428.1z"/>
		<path class="st1" d="M413.7,428.1c6.4-37.5-3.8-77.6-12.1-111.8C418.7,332,448,427.4,413.7,428.1z"/>
		<path class="st1" d="M439.7,428.1c9.1-25.2,19.8-49.7,21.1-75.6C468.6,369.7,461.8,426.8,439.7,428.1z"/>
		<path class="st1" d="M557.3,428.1c-2.5-28,1.9-60.9-5.7-85.8C549.3,356.7,532.7,432.6,557.3,428.1z"/>
		<path class="st1" d="M527.5,428.1c-1.1-14.8-2.7-34.1-12.7-44.4C519.7,394.6,512.1,428.6,527.5,428.1z"/>
		<path class="st1" d="M610.6,345.8c-16.9,18.2-17.2,86.7,9.8,91C609.2,407.8,602.9,374.7,610.6,345.8z"/>
		<path class="st1" d="M562.6,346.4c4.2,26.6,20.8,58.3,22.6,90.3C614.4,437.8,573.5,360.1,562.6,346.4z"/>
		<path class="st1" d="M496.7,355.9c-1.8,21.7-11.6,48.3-10.8,72.8C462.5,428.2,489.2,367.8,496.7,355.9z"/>
		<path class="st1" d="M637,370.7c-2.2,12.8-17.9,73.7,4.2,70.4C639.2,418.2,644,390.9,637,370.7z"/>
		<path class="st1" d="M646.3,382c0.4,19,5.9,42.5,5.7,63.7C673.5,447.7,653.3,392.1,646.3,382z"/>
		<path class="st1" d="M503.2,428.1c6.4-37.5-3.8-77.6-12.1-111.8C508.2,332,537.4,427.4,503.2,428.1z"/>
		<path class="st1" d="M541.3,337.8c-16.9,18.2-17.2,86.7,9.8,91C539.8,399.8,533.5,366.7,541.3,337.8z"/>
		<path class="st1" d="M636.4,361.4c-4.2,26.6-20.8,58.3-22.6,90.3C584.7,452.8,625.5,375.1,636.4,361.4z"/>
		<path class="st1" d="M685.2,375.9c-1.8,21.7-11.6,48.3-10.8,72.8C651,448.2,677.7,387.8,685.2,375.9z"/>
		<path class="st1" d="M590.2,357.7c-2.2,12.8-17.9,73.7,4.2,70.4C592.3,405.2,597.2,377.9,590.2,357.7z"/>
		<path class="st1" d="M520.1,361c0.4,19,5.9,42.5,5.7,63.7C547.2,426.7,527.1,371.1,520.1,361z"/>
		<g>
			<path class="st1" d="M72.4,415.1C161.2,314.3,50.3,95.8,183-5C54.8,101.8,140.3,280,72.4,415.1z"/>
			<path class="st1" d="M188.1,56.5c-38.9,32.4-85.3,88.7-79,139.6C114.7,139.7,145.8,92,188.1,56.5z"/>
		</g>
		<path class="st2" d="M173.4,3.1c11.4,3.6-30.6,61.2-37.7,50.5C125.2,49.7,166.3-6.6,173.4,3.1z"/>
		<path class="st2" d="M177,65.4c8.6,4.8-30.4,46.5-35.9,38.2C132.6,98.8,171.6,57.1,177,65.4z"/>
		<path class="st2" d="M30.3,243.1c-29.9,15.3-27.7,21.8,5,14.5c10.1,20,32.9,50.7,43.5,53.4C127.4,322.7,46.5,241,30.3,243.1z"/>
		<path class="st2" d="M119.7,268.7c16.3-2.5,33-40.9,32.8-54.1C141.1,219.7,110.8,254.6,119.7,268.7z"/>
		<path class="st2" d="M83,296.3c-11.1,3.8,15.5,22.4,17.5,32.7C114.8,323.2,88.3,304.7,83,296.3z"/>
		<path class="st2" d="M125.1,254.3c9,3.1-12.6,18.3-14.3,26.7C99.2,276.3,120.8,261.2,125.1,254.3z"/>
		<g>
			<g>
				<path class="st1" d="M69.3,82.7c-8.4,21.9-13.9,44-12.7,66.9c0.8,35.7,13.8,69,25.4,102.1c16.8,55.6,20.7,115,13.6,173.5
					c4.3-0.5,12.8,3.4,10.6-4c6-69.8-3.3-140.2-31-203.9c-16.1-42.2-22.6-89.8-5.5-134.5C69.4,82.6,69.6,83,69.3,82.7L69.3,82.7z"/>
				<path class="st1" d="M117.8,79.3c-24.2,32.3-44.8,69-46.6,108.4c-1,12-0.5,23.8,0.9,35.5c1.2,0.2,2.4,0.4,3.7,0.5
					c-4.4-33-1.6-67.2,14.1-98.2C97.6,109.4,107.5,94.2,117.8,79.3L117.8,79.3z"/>
			</g>
			<path class="st2" d="M102.2,128.4c-0.9,2.6-2.4,5.1-5.6,8.8c-6.6,4-17.4,7.8-16.4,15.9c-0.1,0.1-0.1,0.2-0.1,0.3
				c-1.3,1.6-2.6,3.3-3.9,5c0.4,0.5,0.9,1,1.5,1.3c1.1-1.6,2.2-3.2,3.4-4.8c9.9-0.5,12.7-10.1,16.7-16.4c3.7-3.3,6.2-5,8.8-5.9
				c-2,0.6-4.6,1.7-7.2,3.1C100.6,133,101.7,130.4,102.2,128.4L102.2,128.4L102.2,128.4z"/>
			<path class="st2" d="M105.1,202.8c0,0.3,0,0.5,0.1,0.7c-10.7,10.5-13,31.7-14,50.2c-0.9,1.5,0,6.1,1,8.7
				c-0.8,2.2-1.6,4.4-2.3,6.7c0.8,0.7,1.7,1.3,2.7,1.7c0.7-2.6,1.5-5.1,2.3-7.6c1.5-0.6,2.2-2.4,4.2-5.3
				c6.1-17.7,12.3-39.2,6.3-54.5c0.1-0.1,0.1-0.2,0.2-0.4c-0.1,0.1-0.2,0.2-0.2,0.2C105.2,203.2,105.2,203,105.1,202.8L105.1,202.8z
				 M105.2,203.8c0.8,8.4-0.4,13-5.3,28C100.8,215.9,101.4,211.2,105.2,203.8z"/>
			<path class="st2" d="M81,104.1c-0.6,2.8-1.9,5.7-4.7,10c-6.4,5.1-17.2,10.4-15.1,18.9c-0.1,0.1-0.1,0.2-0.1,0.3
				c-1.2,1.9-2.3,3.8-3.4,5.8c0.5,0.5,1.1,0.9,1.7,1.2c0.9-1.9,1.9-3.7,3-5.5c10.3-1.7,12-12.3,15.4-19.5c3.4-4,5.8-6,8.4-7.4
				c-2,0.8-4.6,2.3-7.2,4.2C80,109.1,80.8,106.2,81,104.1L81,104.1z"/>
			<path class="st2" d="M42.7,83.9c2,2.1,3.6,4.8,5.5,9.6c0.5,8.2-1.3,20,6.8,23.2c0.1,0.1,0.1,0.2,0.2,0.3c0.9,2.1,1.8,4.1,2.8,6.1
				c0.7-0.1,1.4-0.4,2-0.7c-1-1.8-1.9-3.7-2.8-5.6c4.5-9.4-3.2-16.8-7.1-23.7c-1.3-5.1-1.6-8.3-1.2-11.1c-0.5,2.1-0.7,5.1-0.7,8.3
				C46.2,87.6,44.4,85.4,42.7,83.9L42.7,83.9z"/>
			<path class="st2" d="M39.3,149.2c2.8,1.9,5.3,4.5,8.6,9.4c2.6,9,3.6,22.8,13.5,24.2c0.1,0.1,0.2,0.2,0.3,0.3
				c1.5,2.1,3,4.1,4.6,6.1c0.7-0.3,1.4-0.8,2.1-1.3c-1.6-1.8-3.1-3.6-4.6-5.5c2.6-11.6-7.9-18-14-24.7c-2.8-5.3-3.9-8.8-4.2-12.1
				c0,2.5,0.5,5.8,1.4,9.4C44.2,152.4,41.5,150.4,39.3,149.2L39.3,149.2z"/>
			<path class="st2" d="M104.9,154.4c-1.4,2.3-3.5,4.4-7.3,7.1c-7.1,2.1-18,2.7-19,11c-0.1,0.1-0.1,0.2-0.2,0.2
				c-1.6,1.2-3.2,2.5-4.8,3.8c0.3,0.6,0.6,1.2,1.1,1.8c1.4-1.3,2.9-2.6,4.3-3.8c9.3,2.4,14.2-6.3,19.4-11.4c4.2-2.2,7-3.1,9.6-3.3
				c-2,0-4.6,0.3-7.5,1C102.4,158.5,104,156.3,104.9,154.4L104.9,154.4L104.9,154.4z"/>
			<path class="st2" d="M76.1,86.1c-3.9,3.4-7.8,6.8-11.6,10.4c0.1,0.1,0.3,0.2,0.5,0.2C68.6,93.1,72.4,89.6,76.1,86.1L76.1,86.1z"
				/>
		</g>
		<g>
			<path class="st1" d="M117.8,79.3c-24.2,32.3-44.8,69-46.6,108.4c-1,12-0.5,23.8,0.9,35.5c1.2,0.2,2.4,0.4,3.7,0.5
				c-4.4-33-1.6-67.2,14.1-98.2C97.6,109.4,107.5,94.2,117.8,79.3L117.8,79.3z"/>
		</g>
		<path class="st2" d="M44,200.7c0.1,0.2,0.2,0.4,0.2,0.6c14.5,4,25.2,20.8,33.4,36c1.5,0.8,2.4,5.1,2.5,7.8c1.6,1.5,3.3,3,4.8,4.6
			c-0.5,1-1.2,1.9-2,2.7c-1.7-1.9-3.4-3.6-5.2-5.4c-1.7,0.2-3.1-1.1-6.2-2.5c-12.9-12.2-27.4-27.5-27.6-43.1
			c-0.1-0.1-0.2-0.1-0.3-0.2c0.1,0,0.2,0.1,0.3,0.1C44,201.1,44,200.9,44,200.7L44,200.7z M44.3,201.6c2.6,7.4,5.5,10.8,16.2,21.2
			C53.3,209.8,50.9,206.1,44.3,201.6z"/>
		<path class="st1" d="M701.2,400.7c-4.8,30.1-23.5,65.8-25.5,102C642.7,504,688.8,416.2,701.2,400.7z"/>
		<path class="st1" d="M697,389.4c-4.8,30.1-23.5,65.8-25.5,102C638.6,492.6,684.7,404.9,697,389.4z"/>
		<path class="st1" d="M713.4,409c-8.4,24.1-27.2,51.6-33.4,79.4C653.1,484.6,702.1,418.7,713.4,409z"/>
		<path class="st1" d="M658.4,483.8c9.1-25.2,19.8-49.7,21.1-75.6C687.3,425.4,680.5,482.4,658.4,483.8z"/>
	</g>
</g>
</svg>
