<?xml version="1.0" standalone="no"?>
<!DOCTYPE svg PUBLIC "-//W3C//DTD SVG 20010904//EN"
 "http://www.w3.org/TR/2001/REC-SVG-20010904/DTD/svg10.dtd">
<svg version="1.0" xmlns="http://www.w3.org/2000/svg"
 width="804.000000pt" height="804.000000pt" viewBox="0 0 804.000000 804.000000"
 preserveAspectRatio="xMidYMid meet">
<metadata>
Created by potrace 1.11, written by Peter Selinger 2001-2013
</metadata>
<g transform="translate(0.000000,804.000000) scale(0.100000,-0.100000)"
fill="#000000" stroke="none">
<path d="M5047 8034 c-1 -1 -51 -4 -112 -8 -102 -6 -169 -12 -255 -21 -19 -2
-55 -8 -80 -14 -25 -5 -63 -12 -85 -15 -23 -4 -52 -9 -65 -11 -26 -5 -64 -12
-113 -21 -40 -6 -107 -34 -145 -60 l-32 -22 107 5 c107 5 115 2 71 -23 -96
-53 -175 -87 -209 -91 -22 -3 -75 4 -122 16 -45 11 -95 22 -112 24 -53 7 -178
-48 -439 -192 -70 -39 -138 -71 -150 -71 -11 0 -69 11 -129 24 l-107 24 35
-64 c29 -54 32 -64 17 -65 -9 0 -24 -2 -32 -4 -19 -4 -129 -22 -190 -30 -24
-4 -48 -9 -52 -11 -5 -3 -15 2 -24 10 -14 15 -62 17 -56 3 1 -4 2 -11 2 -16 0
-5 14 -7 30 -5 25 4 32 1 39 -18 11 -29 -2 -40 -78 -69 -44 -16 -78 -21 -156
-20 -62 1 -109 -4 -123 -12 -168 -92 -512 -321 -612 -407 -30 -26 -102 -72
-158 -101 -163 -85 -215 -146 -163 -193 25 -23 108 -54 193 -71 61 -13 77 -22
128 -68 72 -65 168 -123 240 -144 158 -46 294 2 456 164 75 75 109 101 181
137 l89 44 0 -31 c0 -18 3 -55 7 -84 l7 -52 49 32 c27 18 77 49 112 70 34 22
58 42 53 45 -16 12 -74 89 -74 100 0 5 33 27 73 47 39 21 151 81 247 133 637
346 852 417 1405 466 101 9 191 18 230 21 114 11 182 17 200 18 16 0 833 -269
843 -278 1 -1 -18 -35 -42 -76 -24 -41 -191 -332 -371 -648 l-327 -573 -216
-215 c-326 -323 -487 -476 -627 -594 -22 -19 -46 -40 -53 -46 -7 -7 -109 -86
-225 -176 -182 -139 -222 -166 -279 -184 l-68 -21 0 68 c0 197 -74 377 -210
511 -64 63 -170 139 -194 139 -34 0 -371 122 -453 165 -358 182 -423 208 -528
209 -98 0 -149 -34 -201 -137 -38 -73 -107 -360 -102 -422 1 -11 -17 -94 -39
-185 -23 -91 -48 -203 -57 -250 -12 -67 -48 -235 -81 -380 -24 -106 -47 -209
-50 -225 -30 -145 -101 -451 -105 -455 -5 -4 -49 -200 -67 -300 -2 -14 -11
-56 -19 -95 -8 -38 -17 -88 -20 -110 -5 -41 -21 -144 -28 -180 -5 -29 -19
-107 -21 -125 -9 -58 -47 -294 -55 -335 -16 -85 -21 -118 -25 -165 -4 -46 -12
-105 -21 -156 -14 -82 -23 -143 -28 -174 -14 -105 -19 -137 -24 -155 -2 -11
-6 -103 -7 -205 -3 -186 4 -246 45 -383 17 -59 67 -165 101 -214 35 -53 32
-77 -14 -99 -46 -22 -460 -122 -472 -114 -13 9 -92 31 -130 37 -16 3 -48 8
-70 12 -53 10 -391 -1 -403 -13 -2 -3 39 -63 92 -134 53 -71 96 -137 96 -146
0 -10 -5 -26 -10 -36 -6 -11 -12 -45 -15 -77 -4 -57 -4 -57 16 26 l21 84 32
-34 c56 -61 131 -152 206 -253 l75 -98 6 33 c11 51 20 103 21 115 1 8 19 6 57
-7 30 -11 61 -17 68 -15 7 3 10 -1 7 -7 -3 -8 14 -23 38 -37 24 -12 70 -42
103 -65 124 -87 159 -91 215 -26 l36 41 139 -70 c88 -45 156 -73 185 -76 25
-3 88 -11 140 -19 52 -8 118 -17 145 -20 28 -4 61 -8 75 -10 52 -9 166 -19
197 -17 29 1 73 19 111 46 9 7 -13 17 -75 36 -48 14 -108 37 -133 50 l-45 23
27 8 c15 4 45 10 66 13 21 2 101 16 177 30 77 14 154 28 170 30 17 3 98 17
180 31 83 14 166 28 185 31 19 2 46 7 58 10 13 3 43 7 65 10 23 3 59 9 80 14
36 8 40 6 57 -23 l19 -30 -32 -29 c-18 -15 -36 -28 -42 -29 -24 -3 44 -17 85
-18 34 -1 70 11 145 45 55 25 121 55 147 67 76 35 60 65 -49 97 -34 10 -40 16
-32 26 40 49 149 96 666 290 301 113 557 209 568 214 99 45 352 129 494 164
96 24 168 45 160 48 -18 7 -6 11 80 27 72 14 131 48 232 134 69 59 81 66 224
141 101 54 313 191 395 258 53 42 58 44 130 46 93 3 145 10 187 23 43 14 155
135 267 291 49 67 110 140 135 162 40 33 107 95 237 217 l30 29 69 -36 c76
-40 73 -46 34 66 -13 36 -27 66 -31 68 -7 3 -38 100 -85 262 -79 276 -124 346
-298 471 -200 143 -388 259 -775 477 -355 200 -410 232 -410 244 0 5 -3 7 -7
5 -14 -8 -54 12 -47 24 4 8 0 9 -15 4 -12 -4 -21 -2 -21 4 0 6 -4 11 -9 11 -6
0 -25 9 -45 20 l-34 21 50 88 c47 82 55 90 102 110 62 26 121 80 136 126 16
48 16 117 1 203 l-13 73 60 62 c34 34 70 73 82 86 11 14 28 25 38 26 28 3 105
26 139 42 37 17 66 59 210 308 187 324 244 410 347 520 102 110 113 161 56
269 -50 94 -44 140 22 166 103 41 111 76 41 179 -37 56 -47 79 -49 118 -11
240 -16 309 -23 318 -5 5 -21 46 -36 90 -181 522 -480 845 -930 1005 -50 17
-97 33 -105 35 -8 2 -42 10 -75 19 -33 8 -94 20 -135 26 -41 6 -86 13 -100 16
-68 11 -502 27 -513 18z m-375 -403 c11 -4 -28 -21 -108 -48 -140 -47 -137
-50 -46 52 l37 41 50 -19 c28 -10 58 -22 67 -26z m1939 -1074 c-10 -9 -11 -8
-5 6 3 10 9 15 12 12 3 -3 0 -11 -7 -18z m-18 -42 c-3 -9 -8 -14 -10 -11 -3 3
-2 9 2 15 9 16 15 13 8 -4z m-20 -125 c12 -7 52 -28 90 -47 82 -41 88 -51 10
-17 -78 34 -133 73 -132 93 1 14 2 14 5 1 3 -9 15 -22 27 -30z m231 -208 c-9
-45 -19 -80 -21 -78 -3 3 0 28 7 56 7 27 14 74 15 103 7 94 9 103 13 52 2 -27
-4 -87 -14 -133z m-29 -194 c-4 -57 -11 -122 -16 -146 -15 -67 -121 -211 -457
-617 -9 -11 -34 -41 -54 -65 -20 -25 -140 -150 -267 -278 -127 -129 -231 -238
-231 -243 0 -5 -6 -9 -13 -9 -7 0 -23 -10 -37 -23 -14 -12 -54 -47 -90 -77
-35 -30 -70 -60 -78 -67 -7 -7 -34 -29 -60 -50 -26 -21 -49 -40 -52 -43 -27
-27 -106 -84 -132 -94 -47 -20 -128 -31 -128 -18 0 6 4 14 10 17 15 9 50 94
55 134 12 94 13 117 2 131 -10 13 -10 13 3 3 12 -9 25 -3 66 35 28 26 64 58
80 72 33 29 184 161 229 201 17 14 73 64 125 109 159 139 221 193 269 237 40
36 53 59 101 180 l55 138 48 1 c116 4 193 39 222 100 10 21 20 75 24 120 5 61
12 91 27 111 11 15 74 67 140 114 65 47 128 95 139 107 11 11 21 20 23 21 2 1
0 -45 -3 -101z m-652 -201 c27 -18 27 -20 11 -38 -23 -25 -36 -24 -63 5 -19
20 -21 28 -11 45 11 22 15 22 63 -12z m-926 -498 c9 -9 -7 -32 -60 -93 -40
-44 -88 -100 -107 -124 l-35 -43 -17 29 -17 29 107 106 c59 59 109 107 112
107 4 0 11 -5 17 -11z m-1976 -76 c-22 -32 -59 -76 -83 -98 -39 -37 -40 -37
-12 -5 40 44 56 65 94 118 45 62 45 51 1 -15z m-637 -65 c-10 -13 -28 -32 -40
-43 -12 -11 -38 -40 -58 -64 -20 -23 -36 -39 -36 -34 0 10 138 163 147 163 4
0 -2 -10 -13 -22z m-46 -157 c9 -5 37 -29 62 -53 32 -30 105 -73 239 -140 107
-54 189 -98 183 -98 -28 0 -398 197 -431 229 -20 20 -47 44 -61 53 -26 19 -21
25 8 9z m2071 -282 c-51 -96 -103 -161 -147 -183 -48 -24 -93 -29 -99 -11 -2
6 9 16 24 22 16 7 73 53 128 102 55 50 101 90 103 91 1 0 -2 -10 -9 -21z m438
-41 c-3 -8 -6 -5 -6 6 -1 11 2 17 5 13 3 -3 4 -12 1 -19z m-1761 -44 c29 -56
83 -114 109 -114 7 0 17 -5 20 -11 15 -23 -72 24 -98 54 -24 26 -67 106 -67
123 0 13 11 -2 36 -52z m2544 -4 c0 -5 -2 -10 -4 -10 -3 0 -8 5 -11 10 -3 6
-1 10 4 10 6 0 11 -4 11 -10z m-1783 -16 c-3 -3 -12 -4 -19 -1 -8 3 -5 6 6 6
11 1 17 -2 13 -5z m80 -20 c-3 -3 -12 -4 -19 -1 -8 3 -5 6 6 6 11 1 17 -2 13
-5z m1717 -20 c3 -8 2 -12 -4 -9 -6 3 -10 10 -10 16 0 14 7 11 14 -7z m-1591
-11 c-7 -2 -19 -2 -25 0 -7 3 -2 5 12 5 14 0 19 -2 13 -5z m84 -19 c-3 -3 -12
-4 -19 -1 -8 3 -5 6 6 6 11 1 17 -2 13 -5z m1534 -11 c13 -16 12 -17 -3 -4
-10 7 -18 15 -18 17 0 8 8 3 21 -13z m-2414 -29 c-3 -3 -12 -4 -19 -1 -8 3 -5
6 6 6 11 1 17 -2 13 -5z m511 -239 c-3 -3 -9 2 -12 12 -6 14 -5 15 5 6 7 -7
10 -15 7 -18z m-2181 -647 c-3 -8 -6 -5 -6 6 -1 11 2 17 5 13 3 -3 4 -12 1
-19z m10 -50 c-3 -7 -5 -2 -5 12 0 14 2 19 5 13 2 -7 2 -19 0 -25z m3702 -68
c6 0 45 -22 85 -50 89 -61 151 -89 193 -90 26 0 39 9 70 46 21 25 37 49 36 53
-1 4 11 5 27 3 23 -3 31 -12 43 -50 16 -46 16 -122 2 -177 -16 -60 -91 -147
-175 -205 -76 -52 -442 -266 -670 -392 -25 -14 -110 -61 -190 -106 -80 -44
-172 -95 -206 -114 -335 -183 -511 -284 -507 -290 2 -4 -2 -5 -9 -3 -8 3 -78
-24 -156 -60 -164 -75 -215 -98 -222 -99 -3 -1 -45 -21 -94 -44 -49 -23 -90
-42 -92 -42 -2 0 -43 -19 -91 -41 -178 -83 -242 -107 -356 -133 l-28 -7 5 59
c9 100 25 159 85 303 26 63 35 75 53 74 12 -1 29 6 38 14 9 9 36 34 60 55 106
98 102 223 -11 379 -32 45 -28 62 21 71 14 2 48 12 75 21 28 10 55 18 60 19
84 17 252 83 380 151 50 26 162 93 250 148 88 55 213 134 279 175 188 117 435
233 549 256 12 3 56 12 97 21 41 9 115 18 164 20 69 3 96 9 125 27 20 12 39
22 43 22 3 1 10 4 14 9 4 4 15 0 24 -8 9 -8 22 -15 29 -15z m-3670 -25 c0 -5
-4 -3 -9 5 -5 8 -9 22 -9 30 0 16 17 -16 18 -35z m31 -80 c0 -5 -5 -3 -10 5
-5 8 -10 20 -10 25 0 6 5 3 10 -5 5 -8 10 -19 10 -25z m14 -31 c3 -8 2 -12 -4
-9 -6 3 -10 10 -10 16 0 14 7 11 14 -7z m36 -68 c0 -6 -7 -1 -15 10 -8 10 -15
23 -15 28 0 6 7 1 15 -10 8 -10 15 -23 15 -28z m50 -86 c6 -11 8 -20 6 -20 -3
0 -10 9 -16 20 -6 11 -8 20 -6 20 3 0 10 -9 16 -20z m35 -50 c10 -11 16 -20
13 -20 -3 0 -13 9 -23 20 -10 11 -16 20 -13 20 3 0 13 -9 23 -20z m36 -47 c13
-16 12 -17 -3 -4 -10 7 -18 15 -18 17 0 8 8 3 21 -13z m1013 -29 c3 -8 2 -12
-4 -9 -6 3 -10 10 -10 16 0 14 7 11 14 -7z m-919 -74 c38 -38 67 -70 64 -70
-2 0 -36 32 -74 70 -38 39 -67 70 -64 70 2 0 36 -31 74 -70z m939 34 c3 -8 2
-12 -4 -9 -6 3 -10 10 -10 16 0 14 7 11 14 -7z m26 -44 c6 -11 8 -20 6 -20 -3
0 -10 9 -16 20 -6 11 -8 20 -6 20 3 0 10 -9 16 -20z m30 -50 c6 -11 8 -20 6
-20 -3 0 -10 9 -16 20 -6 11 -8 20 -6 20 3 0 10 -9 16 -20z m3908 -527 c2 -20
5 -39 7 -43 2 -3 7 -26 10 -51 l6 -45 -58 -21 c-32 -12 -89 -33 -126 -47 -59
-23 -67 -24 -55 -8 19 26 209 252 211 252 2 0 4 -16 5 -37z m-4749 -28 c0 -5
-4 -3 -9 5 -5 8 -9 22 -9 30 0 16 17 -16 18 -35z m31 -70 c0 -5 -5 -3 -10 5
-5 8 -10 20 -10 25 0 6 5 3 10 -5 5 -8 10 -19 10 -25z m30 -65 c6 -11 8 -20 6
-20 -3 0 -10 9 -16 20 -6 11 -8 20 -6 20 3 0 10 -9 16 -20z m927 -62 c-3 -8
-6 -5 -6 6 -1 11 2 17 5 13 3 -3 4 -12 1 -19z m1763 -228 c0 -11 -128 -74
-445 -220 -33 -15 -109 -51 -170 -80 -60 -29 -137 -65 -170 -80 -33 -15 -100
-47 -150 -70 -49 -23 -144 -66 -210 -96 -66 -31 -129 -60 -140 -65 -15 -7 -30
-5 -60 10 -22 11 -41 15 -43 11 -6 -16 29 -184 43 -214 l15 -28 -36 7 c-66 12
-83 22 -79 47 2 13 6 68 10 123 4 55 8 118 10 140 2 22 6 81 10 130 4 50 9 94
12 98 3 5 16 13 30 18 23 9 31 4 77 -46 38 -40 59 -55 79 -55 31 0 40 13 62
99 18 69 44 118 54 102 5 -7 19 -7 45 0 28 8 46 7 66 -1 l28 -12 -36 -36 c-71
-70 -71 -67 4 -91 37 -12 82 -21 99 -21 20 0 110 39 250 110 191 96 293 142
345 156 8 2 69 19 134 37 132 36 166 42 166 27z m1119 -244 l42 -12 -53 -23
c-29 -13 -73 -33 -98 -44 -118 -52 -513 -227 -514 -227 -1 0 -1 16 -1 36 l0
37 255 128 c276 139 266 136 369 105z m-2752 -139 c-62 -82 -107 -161 -107
-187 0 -9 9 -43 20 -75 28 -80 26 -111 -7 -132 -14 -9 -33 -19 -42 -20 -36 -7
-70 -12 -146 -18 -44 -4 -94 -13 -112 -20 -17 -7 -34 -11 -37 -8 -3 3 8 24 24
47 15 23 36 69 45 102 26 88 135 294 167 315 5 3 31 4 57 1 40 -4 57 1 107 28
32 18 63 36 68 41 5 5 12 7 14 4 2 -2 -21 -37 -51 -78z m-1665 -266 c-21 -37
-54 -91 -68 -110 -2 -2 -17 7 -35 20 l-32 22 73 69 c82 75 106 75 62 -1z
m2896 -48 c12 -26 18 -50 14 -54 -4 -3 -45 -21 -91 -38 -79 -30 -85 -31 -108
-15 -14 8 -23 17 -21 19 12 12 174 134 179 134 3 1 15 -20 27 -46z m-638 -22
c0 -7 -140 -51 -140 -44 0 7 32 67 42 80 7 9 20 7 54 -10 24 -11 44 -23 44
-26z m1228 -8 c-24 -32 -45 -60 -48 -63 -16 -16 -53 -75 -53 -85 0 -6 -5 -12
-11 -12 -21 -1 -161 -14 -186 -18 -14 -2 -65 -7 -115 -10 -49 -4 -92 -9 -94
-11 -2 -2 -11 6 -19 18 -14 19 -13 22 3 34 10 8 30 24 44 36 14 13 56 47 92
75 l67 53 36 -15 c41 -17 63 -15 206 25 58 16 109 29 113 29 4 1 -12 -25 -35
-56z m-548 -207 c0 -2 -9 -6 -20 -9 -11 -3 -18 -1 -14 4 5 9 34 13 34 5z
m-245 -62 c-49 -13 -123 -33 -164 -44 -40 -12 -76 -18 -79 -15 -3 3 3 8 14 11
32 8 164 70 160 75 -3 2 32 2 77 0 l82 -3 -90 -24z m-1170 16 c-3 -5 -12 -10
-18 -10 -7 0 -50 -16 -97 -35 -99 -40 -116 -42 -125 -14 -9 26 -9 26 50 33 28
3 61 8 75 11 14 3 43 8 65 11 22 4 42 8 44 10 8 8 12 4 6 -6z m-1479 -167
c-49 -132 -49 -132 -81 -128 -86 11 -156 17 -213 18 -57 2 -66 -1 -84 -23
l-20 -25 15 26 c18 31 14 39 -22 40 -23 1 67 29 139 44 14 3 75 18 135 34 135
35 139 36 131 14z m-426 -213 c-6 -11 -13 -20 -16 -20 -2 0 0 9 6 20 6 11 13
20 16 20 2 0 0 -9 -6 -20z m-30 -50 c-6 -11 -13 -20 -16 -20 -2 0 0 9 6 20 6
11 13 20 16 20 2 0 0 -9 -6 -20z m-60 -104 c0 -2 -8 -10 -17 -17 -16 -13 -17
-12 -4 4 13 16 21 21 21 13z m-67 -101 c-3 -9 -8 -14 -10 -11 -3 3 -2 9 2 15
9 16 15 13 8 -4z"/>
<path d="M2862 161 c-29 -10 -55 -20 -57 -23 -6 -6 7 -22 32 -39 20 -14 32
-14 108 0 47 8 85 17 85 20 0 8 -95 61 -106 60 -5 0 -33 -9 -62 -18z"/>
</g>
</svg>
