<svg xmlns="http://www.w3.org/2000/svg" viewBox="0 0 679.62 272.4"><defs><style>.cls-1{fill:#5db9f4;}.cls-2{fill:#9e84e2;}.cls-3{fill:#c5b5ee;}.cls-4{fill:#7763aa;}.cls-5{fill:#f4e034;}.cls-6{fill:#f8ed85;}.cls-7{fill:#4e93c5;}.cls-8{fill:#1e0c00;}.cls-9{fill:#00677f;}.cls-10{fill:#00485c;}.cls-11{fill:#fd5e5a;}.cls-12{fill:#3a0049;}.cls-13{fill:#001542;}.cls-14{fill:#fc7575;}.cls-15{fill:#4f005e;}.cls-16{fill:#5279e0;}.cls-17{fill:#b57651;}.cls-18{fill:#904;}.cls-19{fill:#f19e6e;}.cls-20{fill:#2e0a29;}.cls-21{fill:#450f3d;}.cls-22{fill:#340b2e;}.cls-23{fill:#5c1451;}.cls-24{fill:#170053;}.cls-25,.cls-50{fill:#fff;}.cls-26{fill:#0089a9;}.cls-27{fill:#32d3f9;}.cls-28{fill:#2d1175;}.cls-29{fill:#468bb7;}.cls-30{fill:#064655;}.cls-31{fill:#372c52;}.cls-32{fill:#8ab3bc;}.cls-33{fill:#1a1722;}.cls-34{fill:#332f44;}.cls-35{fill:#ff4747;}.cls-36{fill:#cef2fa;}.cls-37{fill:#7f71a4;}.cls-38{fill:#005569;}.cls-39{fill:#000086;}.cls-40{fill:#000065;}.cls-41{fill:#42004a;}.cls-42{fill:#0000bf;}.cls-43{fill:blue;}.cls-44{fill:#70c3f8;}.cls-45{fill:#0a6980;}.cls-46{fill:#1c0f00;}.cls-47{fill:#887ea8;}.cls-48{fill:#30273f;}.cls-49{fill:#40375b;}.cls-50{opacity:0.31;isolation:isolate;}.cls-51{fill:#302944;}.cls-52{fill:#d1c7e5;}.cls-53{fill:#eac733;}.cls-54{fill:#00c9f7;}.cls-55{fill:#dad2e0;}.cls-56{fill:#66a1ad;}.cls-57{fill:#c16400;}.cls-58{fill:#26151a;}</style></defs><title>footer-art-fg</title><g id="Layer_2" data-name="Layer 2"><g id="Layer_1-2" data-name="Layer 1"><g id="oneonone"><path id="Path_585" data-name="Path 585" class="cls-1" d="M640.72,263.59c0,4.87-141.07,8.81-315.08,8.81s-315.07-3.94-315.07-8.81,141.06-8.8,315.07-8.8S640.72,258.73,640.72,263.59Z"/><path id="Path_586" data-name="Path 586" class="cls-2" d="M648.57,186.1a11.05,11.05,0,0,0,14.54-.52A11,11,0,0,0,648.57,186.1Z"/><path id="Path_587" data-name="Path 587" class="cls-2" d="M614.31,250.76a264.17,264.17,0,0,0,2.78-42.7c-.06-7.13-.45-14.26-1-21.36s-1.41-14.18-2.4-21.23a394.86,394.86,0,0,0-8.42-41.85q-2.67-10.34-5.89-20.51c-2.15-6.78-4.46-13.51-7.12-20.13l-.84.35c2.56,6.59,4.78,13.34,6.84,20.13s3.93,13.62,5.62,20.51a389.44,389.44,0,0,1,7.86,41.77c.9,7,1.67,14.06,2.13,21.13s.77,14.14.74,21.21a261.76,261.76,0,0,1-3.28,42.21Z"/><path id="Path_588" data-name="Path 588" class="cls-2" d="M588,52.74c4,2.43,7.25,7.58,8.14,13.87s-.76,12.13-4,15.58c-4-2.42-7.24-7.57-8.13-13.87S584.82,56.19,588,52.74Z"/><path id="Path_589" data-name="Path 589" class="cls-2" d="M611.82,74.75c.5,3.64-1.06,8.12-4.46,11.74S599.6,92,595.93,91.71c-.49-3.64,1.07-8.12,4.47-11.74S608.16,74.49,611.82,74.75Z"/><path id="Path_590" data-name="Path 590" class="cls-2" d="M595.18,91.83c-3.09,2-7.8,2.49-12.53,1s-8.26-4.69-9.59-8.12c3.08-2,7.8-2.49,12.53-1S593.85,88.4,595.18,91.83Z"/><path id="Path_591" data-name="Path 591" class="cls-2" d="M599.81,107.5c-3.09,2-7.8,2.48-12.54,1s-8.25-4.69-9.58-8.11c3.08-2,7.8-2.49,12.53-1S598.47,104.07,599.81,107.5Z"/><path id="Path_592" data-name="Path 592" class="cls-2" d="M604.65,123.75c-3.08,2-7.8,2.49-12.53,1s-8.26-4.69-9.59-8.12c3.09-2,7.8-2.48,12.53-1S603.32,120.33,604.65,123.75Z"/><path id="Path_593" data-name="Path 593" class="cls-2" d="M607.9,138.89c-3.08,2-7.8,2.49-12.53,1s-8.25-4.69-9.58-8.12c3.08-2,7.8-2.48,12.53-.95S606.57,135.46,607.9,138.89Z"/><path id="Path_594" data-name="Path 594" class="cls-2" d="M607.36,135.83c3.08,2,7.8,2.49,12.53,1s8.26-4.69,9.58-8.12c-3.08-2-7.8-2.49-12.53-1S608.69,132.4,607.36,135.83Z"/><path id="Path_595" data-name="Path 595" class="cls-2" d="M616.18,89.16c.49,3.65-1.07,8.12-4.47,11.74s-7.76,5.47-11.42,5.22c-.5-3.64,1.07-8.12,4.46-11.74S612.51,88.91,616.18,89.16Z"/><path id="Path_596" data-name="Path 596" class="cls-2" d="M621.89,105.53c.5,3.64-1.06,8.12-4.46,11.74s-7.76,5.48-11.43,5.22c-.49-3.64,1.08-8.11,4.47-11.74S618.23,105.28,621.89,105.53Z"/><path id="Path_597" data-name="Path 597" class="cls-2" d="M523.26,120.82a148.46,148.46,0,0,1,17.59,11.66,199.5,199.5,0,0,1,63.8,82.86,205.38,205.38,0,0,1,11.68,40.73l-3,.5a202.5,202.5,0,0,0-10.9-40.34A195.15,195.15,0,0,0,583,179.14a202,202,0,0,0-42.65-46.07,149.62,149.62,0,0,0-17.33-11.88Z"/><path id="Path_598" data-name="Path 598" class="cls-2" d="M500.1,103.27c.33,4.7,3.45,9.91,8.65,13.56s11.15,4.84,15.68,3.56c-.33-4.69-3.45-9.9-8.65-13.55S504.63,102,500.1,103.27Z"/><path id="Path_599" data-name="Path 599" class="cls-2" d="M535.21,99.31c-3.47,3.18-5.61,8.85-5.24,15.2s3.13,11.74,6.95,14.5c3.47-3.17,5.6-8.85,5.24-15.2S539,102.07,535.21,99.31Z"/><path id="Path_600" data-name="Path 600" class="cls-2" d="M556,109.86c-4.19,2.14-7.76,7-9.1,13.26s-.1,12.15,2.83,15.82c4.2-2.13,7.76-7,9.1-13.25S558.9,113.53,556,109.86Z"/><path id="Path_601" data-name="Path 601" class="cls-2" d="M570,122.91c-4.19,2.13-7.76,7-9.1,13.25s-.1,12.16,2.84,15.83c4.19-2.14,7.76-7,9.1-13.26S572.9,126.58,570,122.91Z"/><path id="Path_602" data-name="Path 602" class="cls-2" d="M586.07,136.3c-4.6,1-9.3,4.82-12.19,10.49s-3.2,11.72-1.3,16c4.6-1,9.3-4.82,12.19-10.5S588,140.6,586.07,136.3Z"/><path id="Path_603" data-name="Path 603" class="cls-2" d="M597.42,153c-4.2-.18-9.13,2.07-12.9,6.32s-5.42,9.41-4.74,13.56c4.2.17,9.13-2.08,12.9-6.32S598.1,157.18,597.42,153Z"/><path id="Path_604" data-name="Path 604" class="cls-2" d="M605.66,163.57c-4.2-.18-9.13,2.07-12.9,6.32s-5.42,9.41-4.74,13.56c4.2.17,9.13-2.08,12.9-6.32S606.34,167.72,605.66,163.57Z"/><path id="Path_605" data-name="Path 605" class="cls-2" d="M610.37,179.1c-3.6-.15-7.83,1.78-11.06,5.42s-4.64,8.06-4.06,11.62c3.6.15,7.83-1.78,11-5.42S611,182.66,610.37,179.1Z"/><path id="Path_606" data-name="Path 606" class="cls-2" d="M614.93,195.22c-2.62-1.48-6.51-1.65-10.32-.18s-6.59,4.22-7.53,7.07c2.62,1.48,6.51,1.65,10.32.18S614,198.08,614.93,195.22Z"/><path id="Path_607" data-name="Path 607" class="cls-2" d="M616.78,208.53a11,11,0,0,0-15.32.66A11,11,0,0,0,616.78,208.53Z"/><path id="Path_608" data-name="Path 608" class="cls-2" d="M508.8,138.59c4,2.48,10,3,16.05.91s10.45-6.22,12.06-10.64c-4-2.47-10-3-16-.9S510.41,134.17,508.8,138.59Z"/><path id="Path_609" data-name="Path 609" class="cls-2" d="M521.55,149.2c4,2.48,10,3,16.05.91s10.45-6.21,12.06-10.63c-4-2.48-10-3-16-.91S523.16,144.78,521.55,149.2Z"/><path id="Path_610" data-name="Path 610" class="cls-2" d="M535.14,162.29c4,2.48,10,3,16.05.9s10.45-6.21,12.06-10.63c-4-2.47-10-3-16-.9S536.75,157.87,535.14,162.29Z"/><path id="Path_611" data-name="Path 611" class="cls-2" d="M550.46,171c3.25,2,8.16,2.43,13,.73s8.5-5.05,9.82-8.64c-3.26-2-8.16-2.43-13.06-.74S551.77,167.41,550.46,171Z"/><path id="Path_612" data-name="Path 612" class="cls-2" d="M561.93,179.33c2.66,1.72,6.65,2.12,10.6.75s6.84-4.14,7.87-7.14c-2.66-1.72-6.65-2.12-10.6-.75S563,176.34,561.93,179.33Z"/><path id="Path_613" data-name="Path 613" class="cls-2" d="M568.79,190c2.66,1.72,6.66,2.11,10.6.75s6.85-4.14,7.87-7.14c-2.66-1.72-6.65-2.12-10.6-.75S569.82,187,568.79,190Z"/><path id="Path_614" data-name="Path 614" class="cls-2" d="M576.31,199.72c2.16,1.83,5.77,2.72,9.64,2.09s7-2.62,8.49-5c-2.15-1.84-5.76-2.72-9.64-2.1S577.78,197.29,576.31,199.72Z"/><path id="Path_615" data-name="Path 615" class="cls-2" d="M583.57,211.85a11.71,11.71,0,0,0,13.36-9.12,11.7,11.7,0,0,0-13.36,9.12Z"/><path id="Path_616" data-name="Path 616" class="cls-2" d="M591.64,219.13a8.1,8.1,0,0,0,6.13-2.63,3.59,3.59,0,1,0-6.13,2.63Z"/><path id="Path_617" data-name="Path 617" class="cls-2" d="M597,221.05a5,5,0,1,0,1.46-3.9A4.68,4.68,0,0,0,597,221.05Z"/><path id="Path_618" data-name="Path 618" class="cls-2" d="M598.73,224.64a5,5,0,1,0,4.65-5.35,5,5,0,0,0-3.19,1.45A4.69,4.69,0,0,0,598.73,224.64Z"/><path id="Path_619" data-name="Path 619" class="cls-3" d="M661.5,108.83a136.13,136.13,0,0,0-12,15.49,184.9,184.9,0,0,0-31.32,91.81,190.22,190.22,0,0,0,1.88,39.25l2.78-.45a188.46,188.46,0,0,1-2.46-38.69,180.93,180.93,0,0,1,6-38.35,183.07,183.07,0,0,1,14-36.3,180.4,180.4,0,0,1,9.75-16.89,137.48,137.48,0,0,1,11.68-15.6Z"/><path id="Path_620" data-name="Path 620" class="cls-3" d="M676.79,86.3c1.11,4.22-.08,9.72-3.56,14.48s-8.34,7.58-12.7,7.81c-1.11-4.22.08-9.72,3.55-14.48S672.44,86.53,676.79,86.3Z"/><path id="Path_621" data-name="Path 621" class="cls-3" d="M644.85,93.39c4,1.74,7.58,6.1,9.14,11.78s.75,11.26-1.78,14.81c-4-1.75-7.58-6.1-9.14-11.79S642.33,96.94,644.85,93.39Z"/><path id="Path_622" data-name="Path 622" class="cls-3" d="M629.79,108.9c4.32.63,8.92,3.87,12,8.93s3.72,10.65,2.23,14.75c-4.32-.63-8.92-3.87-12-8.93S628.31,113,629.79,108.9Z"/><path id="Path_623" data-name="Path 623" class="cls-3" d="M621.37,124.59c4.32.62,8.92,3.87,12,8.93s3.72,10.64,2.23,14.74c-4.32-.62-8.92-3.87-11.95-8.93S619.88,128.69,621.37,124.59Z"/><path id="Path_624" data-name="Path 624" class="cls-3" d="M611.21,141.19c4.33-.5,9.61,1.46,13.83,5.58s6.32,9.32,5.93,13.7c-4.34.5-9.62-1.46-13.84-5.58S610.82,145.54,611.21,141.19Z"/><path id="Path_625" data-name="Path 625" class="cls-3" d="M606.2,159.29c3.63-1.41,8.63-.9,13.21,1.7s7.58,6.65,8.2,10.49c-3.63,1.41-8.63.9-13.21-1.7S606.84,163.13,606.2,159.29Z"/><path id="Path_626" data-name="Path 626" class="cls-3" d="M601.36,171c3.63-1.41,8.63-.9,13.21,1.7s7.56,6.65,8.2,10.49c-3.64,1.41-8.64.9-13.21-1.7S602,174.89,601.36,171Z"/><path id="Path_627" data-name="Path 627" class="cls-3" d="M601.8,186.1c3.11-1.21,7.4-.77,11.32,1.46s6.48,5.7,7,9c-3.11,1.21-7.4.78-11.32-1.46S602.35,189.39,601.8,186.1Z"/><path id="Path_628" data-name="Path 628" class="cls-3" d="M602.57,201.64c1.85-2.09,5.22-3.4,9-3.25s7,1.75,8.72,4c-1.85,2.08-5.22,3.4-9,3.24S604.25,203.86,602.57,201.64Z"/><path id="Path_629" data-name="Path 629" class="cls-3" d="M605.61,213.89a10.2,10.2,0,1,1,7.64.78A9.27,9.27,0,0,1,605.61,213.89Z"/><path id="Path_630" data-name="Path 630" class="cls-3" d="M679.62,120c-2.78,3.37-7.93,5.62-13.83,5.58s-11-2.33-13.77-5.74c2.78-3.37,7.94-5.62,13.84-5.58S676.89,116.56,679.62,120Z"/><path id="Path_631" data-name="Path 631" class="cls-3" d="M671.59,133.14c-2.78,3.36-7.94,5.61-13.83,5.58s-11-2.33-13.77-5.74c2.78-3.37,7.94-5.62,13.83-5.59S668.85,129.73,671.59,133.14Z"/><path id="Path_632" data-name="Path 632" class="cls-3" d="M663.54,148.73c-2.77,3.37-7.93,5.61-13.83,5.58s-11-2.33-13.76-5.74c2.77-3.37,7.93-5.62,13.83-5.59S660.81,145.33,663.54,148.73Z"/><path id="Path_633" data-name="Path 633" class="cls-3" d="M652.69,161c-2.26,2.73-6.45,4.56-11.25,4.54s-9-1.91-11.2-4.67c2.26-2.74,6.45-4.57,11.25-4.54S650.46,158.23,652.69,161Z"/><path id="Path_634" data-name="Path 634" class="cls-3" d="M645.08,171.76c-1.82,2.3-5.21,3.84-9.08,3.82s-7.25-1.6-9-3.93c1.82-2.3,5.21-3.84,9.08-3.81A11.45,11.45,0,0,1,645.08,171.76Z"/><path id="Path_635" data-name="Path 635" class="cls-3" d="M642.22,183.22c-1.82,2.3-5.21,3.84-9.09,3.82s-7.24-1.6-9-3.93c1.82-2.3,5.21-3.84,9.09-3.82A11.51,11.51,0,0,1,642.22,183.22Z"/><path id="Path_636" data-name="Path 636" class="cls-3" d="M638.48,194c-1.35,2.26-4.26,4.11-7.85,4.72s-6.94-.2-9-1.89c1.34-2.26,4.26-4.11,7.85-4.72S636.47,192.31,638.48,194Z"/><path id="Path_637" data-name="Path 637" class="cls-3" d="M635.7,206.84a10.85,10.85,0,1,1-6.41-4.92A9.85,9.85,0,0,1,635.7,206.84Z"/><path id="Path_638" data-name="Path 638" class="cls-3" d="M630.76,215.65a8.31,8.31,0,1,1-4.13-4.6A7.53,7.53,0,0,1,630.76,215.65Z"/><path id="Path_639" data-name="Path 639" class="cls-3" d="M626.62,219a4.63,4.63,0,1,1-2.43-3A4.35,4.35,0,0,1,626.62,219Z"/><path id="Path_640" data-name="Path 640" class="cls-3" d="M626.16,222.63a4.65,4.65,0,1,1-2.43-3A4.33,4.33,0,0,1,626.16,222.63Z"/><path id="Path_641" data-name="Path 641" class="cls-4" d="M567.18,94.29a147.67,147.67,0,0,1,12.09,17.3,199.18,199.18,0,0,1,10,18.63,207.83,207.83,0,0,1,8,19.57,205,205,0,0,1,5.88,20.32,197.8,197.8,0,0,1,5.12,42,206,206,0,0,1-4.08,42.18l-3-.64a202.75,202.75,0,0,0,4.66-41.53,194.65,194.65,0,0,0-4.42-41.61A201.77,201.77,0,0,0,578.63,112a148.56,148.56,0,0,0-11.77-17.42Z"/><path id="Path_642" data-name="Path 642" class="cls-4" d="M551.66,69.27c-1.42,4.49-.42,10.47,3.07,15.78s8.59,8.6,13.27,9.08c1.42-4.49.42-10.47-3.07-15.78S556.33,69.75,551.66,69.27Z"/><path id="Path_643" data-name="Path 643" class="cls-4" d="M585.78,78.6c-4.4,1.68-8.45,6.18-10.46,12.21s-1.4,12.08,1.14,16c4.4-1.68,8.47-6.17,10.46-12.21S588.31,82.56,585.78,78.6Z"/><path id="Path_644" data-name="Path 644" class="cls-4" d="M601.25,96.11c-4.68.45-9.8,3.7-13.32,9s-4.56,11.27-3.18,15.76c4.69-.45,9.8-3.7,13.33-9S602.64,100.61,601.25,96.11Z"/><path id="Path_645" data-name="Path 645" class="cls-4" d="M609.55,113.45c-4.68.45-9.8,3.7-13.33,9s-4.56,11.27-3.17,15.76c4.69-.45,9.81-3.7,13.33-9S610.94,117.94,609.55,113.45Z"/><path id="Path_646" data-name="Path 646" class="cls-4" d="M619.69,131.87c-4.65-.76-10.43,1.07-15.19,5.28s-7.29,9.73-7.1,14.43c4.64.76,10.42-1.07,15.18-5.28S619.87,136.57,619.69,131.87Z"/><path id="Path_647" data-name="Path 647" class="cls-4" d="M624.16,151.63c-3.84-1.71-9.25-1.42-14.32,1.14s-8.49,6.77-9.38,10.87c3.84,1.7,9.25,1.43,14.31-1.14S623.26,155.74,624.16,151.63Z"/><path id="Path_648" data-name="Path 648" class="cls-4" d="M628.71,164.5c-3.85-1.7-9.26-1.42-14.32,1.14s-8.49,6.77-9.39,10.87c3.84,1.71,9.25,1.43,14.32-1.14S627.81,168.61,628.71,164.5Z"/><path id="Path_649" data-name="Path 649" class="cls-4" d="M627.44,180.7c-3.29-1.45-7.93-1.22-12.27,1s-7.28,5.8-8,9.33c3.29,1.45,7.93,1.22,12.27-1S626.67,184.22,627.44,180.7Z"/><path id="Path_650" data-name="Path 650" class="cls-4" d="M625.81,197.39c-1.89-2.33-5.45-3.93-9.54-4s-7.67,1.5-9.6,3.81c1.9,2.33,5.45,3.93,9.54,4S623.88,199.7,625.81,197.39Z"/><path id="Path_651" data-name="Path 651" class="cls-4" d="M622.69,210.47a11,11,0,0,0-14.5-5A11,11,0,0,0,622.69,210.47Z"/><path id="Path_652" data-name="Path 652" class="cls-4" d="M546.89,105.4c2.81,3.77,8.25,6.46,14.6,6.74s12-2,15.13-5.47c-2.81-3.78-8.25-6.46-14.6-6.73S550,101.88,546.89,105.4Z"/><path id="Path_653" data-name="Path 653" class="cls-4" d="M554.9,120c2.81,3.79,8.25,6.47,14.6,6.74s12-1.94,15.12-5.46c-2.81-3.79-8.25-6.46-14.6-6.74S558,116.49,554.9,120Z"/><path id="Path_654" data-name="Path 654" class="cls-4" d="M562.79,137.22c2.81,3.78,8.25,6.47,14.6,6.74s12-1.94,15.12-5.46c-2.81-3.79-8.24-6.47-14.6-6.74S565.91,133.7,562.79,137.22Z"/><path id="Path_655" data-name="Path 655" class="cls-4" d="M573.88,151c2.29,3.07,6.7,5.25,11.87,5.48s9.76-1.58,12.3-4.44c-2.28-3.07-6.69-5.24-11.87-5.48S576.43,148.15,573.88,151Z"/><path id="Path_656" data-name="Path 656" class="cls-4" d="M581.53,163c1.84,2.57,5.41,4.41,9.59,4.59s7.88-1.35,9.94-3.75c-1.84-2.58-5.41-4.42-9.59-4.59S583.59,160.6,581.53,163Z"/><path id="Path_657" data-name="Path 657" class="cls-4" d="M584,175.49c1.84,2.58,5.41,4.42,9.58,4.59s7.89-1.34,10-3.75c-1.85-2.57-5.41-4.4-9.59-4.59S586.08,173.09,584,175.49Z"/><path id="Path_658" data-name="Path 658" class="cls-4" d="M587.51,187.31c1.34,2.5,4.38,4.66,8.2,5.48s7.49.16,9.74-1.56c-1.33-2.5-4.37-4.66-8.2-5.49S589.77,185.6,587.51,187.31Z"/><path id="Path_659" data-name="Path 659" class="cls-4" d="M589.85,201.28a10.58,10.58,0,0,0,8.6,1.37c3.37-.77,6-2.7,7.18-5a10.57,10.57,0,0,0-8.61-1.38C593.66,197.08,591,199,589.85,201.28Z"/><path id="Path_660" data-name="Path 660" class="cls-4" d="M594.72,211a8,8,0,0,0,6.67-.19,8.13,8.13,0,0,0,4.68-4.74A9,9,0,0,0,594.72,211Z"/><path id="Path_661" data-name="Path 661" class="cls-4" d="M599,214.81a5,5,0,1,0,2.78-3.1A4.68,4.68,0,0,0,599,214.81Z"/><path id="Path_662" data-name="Path 662" class="cls-4" d="M599.31,218.79a5,5,0,1,0,2.79-3.09A4.7,4.7,0,0,0,599.31,218.79Z"/><path id="Path_663" data-name="Path 663" class="cls-2" d="M633.36,208.12c6.64-9.73,13.64-19.23,21.1-28.37l-.12-.1c-7.66,9-14.86,18.36-21.7,28a334.12,334.12,0,0,0-19.09,29.86q-2.1,3.75-4.08,7.58l1.54.87c1.27-2.58,2.58-5.15,3.94-7.68a338.25,338.25,0,0,1,18.4-30.14Z"/><path id="Path_664" data-name="Path 664" class="cls-2" d="M661.88,166.49a9.63,9.63,0,1,0-.9,7.94A9,9,0,0,0,661.88,166.49Z"/><path id="Path_665" data-name="Path 665" class="cls-2" d="M643.58,172.28a11,11,0,1,0,5.17,5.8A9.81,9.81,0,0,0,643.58,172.28Z"/><path id="Path_666" data-name="Path 666" class="cls-2" d="M643,193.9a11.06,11.06,0,0,0,14.42-2A11.06,11.06,0,0,0,643,193.9Z"/><path id="Path_667" data-name="Path 667" class="cls-2" d="M635.61,203.54a11.06,11.06,0,0,0,14.42-2A11.06,11.06,0,0,0,635.61,203.54Z"/><path id="Path_668" data-name="Path 668" class="cls-2" d="M630.61,211.21a11,11,0,0,0,14.41-2A11,11,0,0,0,630.61,211.21Z"/><path id="Path_669" data-name="Path 669" class="cls-2" d="M625.07,219.69a11.06,11.06,0,0,0,14.42-2A11.06,11.06,0,0,0,625.07,219.69Z"/><path id="Path_670" data-name="Path 670" class="cls-2" d="M637.18,180.55a11,11,0,1,0,5.17,5.8A9.81,9.81,0,0,0,637.18,180.55Z"/><path id="Path_671" data-name="Path 671" class="cls-2" d="M631.07,189.07a11,11,0,1,0,5.17,5.8A9.87,9.87,0,0,0,631.07,189.07Z"/><path id="Path_672" data-name="Path 672" class="cls-2" d="M625.25,197.65a11,11,0,1,0,5.17,5.8A9.87,9.87,0,0,0,625.25,197.65Z"/><path id="Path_673" data-name="Path 673" class="cls-2" d="M619.61,206.06a11,11,0,1,0,5.17,5.8A9.84,9.84,0,0,0,619.61,206.06Z"/><path id="Path_674" data-name="Path 674" class="cls-5" d="M637.74,231.64h-44.1c-7.32,3.74-12,9.31-12,15.53,0,6.64,5.3,12.53,13.5,16.27h41.06c8.19-3.73,13.49-9.62,13.49-16.27C649.72,241,645.07,235.38,637.74,231.64Z"/><path id="Path_675" data-name="Path 675" class="cls-6" d="M633.59,234.28c4.35-.5,10.17,2.78,11.68,9.36,2.05,13-11,16.83-18.07,13.52,6.19-1.55,13-4.39,13.16-10.78a12.37,12.37,0,0,0-1.68-6.67,17,17,0,0,0-1.87-2.5A18.3,18.3,0,0,0,633.59,234.28Z"/><rect id="Rectangle_671" data-name="Rectangle 671" class="cls-7" x="590.41" y="228.54" width="48.71" height="3.06"/><path id="Path_676" data-name="Path 676" class="cls-8" d="M129.82,260.7h3.67V182.36H127Z"/><path id="Path_677" data-name="Path 677" class="cls-8" d="M45.6,260.05h3.94l2.58-73.4H45.6Z"/><path id="Path_678" data-name="Path 678" class="cls-8" d="M177.63,254.74h3.67v-74h-6.53Z"/><path id="Path_679" data-name="Path 679" class="cls-8" d="M86.05,257.34l3.94,0,1.89-64.21-6.52.09Z"/><path id="Path_680" data-name="Path 680" class="cls-1" d="M73.42,159.91C75.14,147.34,60.55,70.29,54.09,68c-3.1-1.1-18.09-.59-31.73.17A21.74,21.74,0,0,0,1.83,91.08c0,.71.11,1.42.22,2.13l9,58.52c3.95,25.56,117.82,7.81,117.82,7.81Z"/><path id="Path_681" data-name="Path 681" class="cls-9" d="M159.36,120.81c-19.77-2.18-54.1.4-62.26-2.81s-15-20.88-21-29.84c-8.74-13-11.9-11.12-21.15-13.89L68.82,162l54.06,23.78,54.85-2.21c.89-.06,3-16.9,3-18.92C180.43,152.29,182.28,123.33,159.36,120.81Z"/><path id="Path_682" data-name="Path 682" class="cls-10" d="M129.12,199.11l43.3-10.2a6.8,6.8,0,0,0,5.42-6.73l-.29-7.87c-.27-7.52-7.79-12.73-15.52-10.74l-42.72,11Z"/><path id="Path_683" data-name="Path 683" class="cls-11" d="M189.42,243.57c-.14,1.26-2.31,3.21.73,5.2,1,.67,1.24-1,5.06.88,2.58,1.23,7.16,6.41,9.75,7a14.86,14.86,0,0,0,9-.66c-2.48-1.62-4.44-3.54-7.2-5-8.43-4.43-12.53-38.38-14-36.93-3.1,1.46-8.34,2.81-11.41,3.72C186,223.73,190,238.12,189.42,243.57Z"/><path id="Path_684" data-name="Path 684" class="cls-12" d="M193.4,245c-1-.64-2.53-.47-4-.45,0,1.27-3.52,3.66-.56,5.58s7.29,14,7.29,14l2-.56s-6.52-13.39-3.54-12.24,8.18,10.59,8.18,10.59l13.65-4.1-.86-2.49c-1.44-.93-3.73-1.78-5.11-.61C204.67,259.65,197.78,247,193.4,245Z"/><path id="Path_685" data-name="Path 685" class="cls-13" d="M173.67,146.7c-4.78-7.89-37.1-10.53-64.75-15.74C91,127.58,80,122.05,80,122.05l-5.24,14.1,22.39,15.37,67,5.49s14.75,56.44,22.57,69.85l15.21-3.42C193.06,206,178.07,153.94,173.67,146.7Z"/><path id="Path_686" data-name="Path 686" class="cls-14" d="M183.51,219.67c-3.35.88-6.7,1.82-10,2.9,2.29,6.57,3.79,11.9,3.25,13.53-.43,1.26-.93,2.53-1.41,3.75-1.37,3.44-1,6.12-.12,7.29.56.71,3.14-.64,5.48,2.91,2.87,4.37,4,14.06,4,14.06l15.07-.45s1.85-1.31-1.72-3.68-6.22-2.83-7.8-5.87-3.91-19.61-6-30.13C184,222.92,183.77,221.44,183.51,219.67Z"/><path id="Path_687" data-name="Path 687" class="cls-15" d="M200.29,262.27h0a16,16,0,0,0-8.06-6.26l-2.76,2.77c-4.54-3.77-5.89-11-9.1-15.12a10.16,10.16,0,0,0-5.07-3.82c-1.37,3.44-2.61,6.45-1.69,7.63,1.24,1.6,4.25,17.53,4.25,17.53l2.2-.42s-3.88-12.89-1.83-14.1,5.69,14.68,5.69,14.68l16.68-.86S201.23,263.8,200.29,262.27Z"/><path id="Path_688" data-name="Path 688" class="cls-16" d="M157.84,146.11h.07S157.89,146.13,157.84,146.11Z"/><path id="Path_689" data-name="Path 689" class="cls-11" d="M161.11,125.4c-1-1.23-7-1.36-7-1.36a40.71,40.71,0,0,1-13.3-1.66c-4.14-1.34-25.92-7.45-38.64-15.76-3.73,4.08-9.32,7-11.9,11.59.67.4,1.35.79,2,1.15,25.85,13.58,45.5,11.1,45.5,11.1s8.85,3.4,13.08,3.88,7.35-.74,5.14-2.14-3.5,0-5.54-1.3-1.27-1.18-.22-2.44,7.3,0,7.46,1,2.71,8.61,4,7.1-1.83-8.83-2.66-9.36a32,32,0,0,0-5.2-1.35l6,.94s2.26,7.81,3.3,7.64S162.05,126.64,161.11,125.4Z"/><path id="Path_690" data-name="Path 690" class="cls-17" d="M102,105.93c-1.73-1.14-24.4-47.87-40-47.87-3.36,0-15.33,2.6-15.33,2.6s18.63,44.9,43.47,59.66C92.67,115.75,98.26,110,102,105.93Z"/><path id="Path_691" data-name="Path 691" class="cls-18" d="M157.71,145.64l-46.66-6.34S81.6,128.64,81.55,124c-.88.21-17,10.22-17,10.22-3.65,11.64,1,37.44,9.32,35.79,11.51,3,73,1.79,73,1.79s19.65,44.3,25.11,60c4.08-1.3,10.63-3.8,14.72-4.86C184.2,210.37,162,146,157.71,145.64Z"/><path id="Path_692" data-name="Path 692" class="cls-19" d="M99.63,127.35c-1.13-5.12-16.87.66-16.87-22.95,0-7.83-.53-11.93.14-18.84.65-6.7-24.63-31-24.63-31s-21.9,3.64-21.61,10.69,8.08,44.66,8.34,46.94c.8,7.12,19.87,37,19.34,42.34C73.45,152.74,96.21,137.74,99.63,127.35Z"/><path id="Path_693" data-name="Path 693" class="cls-20" d="M46.69,1c-.79,1.1-10.38,1.64-16.53,11.74-6,9.86.44,26.72,4.6,34.8A17.27,17.27,0,0,0,38,52.09a27.68,27.68,0,0,1,8.21-2.92c4.42-.72,11.45-1.36,16.06-3s-.62-30.72-5.36-37.3S46.69,1,46.69,1Z"/><path id="Path_694" data-name="Path 694" class="cls-21" d="M40.59,1.07S56-3.71,61.24,7c3.23,6.6,4.77,27.36,11,26.92,0,0-2.42,3.3-4.74,3.68,0,0-.9,1.91,3.52,5.08a30.13,30.13,0,0,1-8.71,3.52c-.32.06-3.5,1.7-4.37-1.09-1.06-3.3.11-11.33-.91-14.53C52.68,17,40.59,1.07,40.59,1.07Z"/><path id="Path_695" data-name="Path 695" class="cls-22" d="M47.13,2.22A10.54,10.54,0,0,1,49.93,2s7.6,1.59,9.35,8.06,2.33,10.64,3.9,14.74c2.49,6.44,1.91,18.62-5.39,19.94C56.9,41.24,58,33.63,57,30.53,53.39,19.21,48.6,6.18,47.13,2.22Z"/><path id="Path_696" data-name="Path 696" class="cls-14" d="M44.32,34.41l1.56,21.92S60.48,72.56,67,71.07C67.36,71,60.29,56.55,60.11,56c0,0-1.6-12.84-1.93-16.7S44.32,34.41,44.32,34.41Z"/><path id="Path_697" data-name="Path 697" class="cls-11" d="M44.87,35.19l1,11.92c8.16,5.36,12.5-4.73,12.58-4.78-.84-3.15-.19-1.66-.3-3C57.87,35.46,44.87,35.19,44.87,35.19Z"/><path id="Path_698" data-name="Path 698" class="cls-14" d="M47.12,2.34A14.37,14.37,0,0,1,58.25,8.41c2.88,4.23,2.6,9.83,4.4,14.5,1.5,3.93,2,15.16-3.84,19.2S42.37,37.38,39.91,33a38.69,38.69,0,0,1-4.25-18.79A12.34,12.34,0,0,1,41.81,3.55,9.74,9.74,0,0,1,47.12,2.34Z"/><path id="Path_699" data-name="Path 699" class="cls-21" d="M57.58,29.4c-1.28-.85-2-3-2.08-4.41.64,1.23,1.62,3.5,2.63,4.15l.2.14A4.16,4.16,0,0,1,56,30.72,6.3,6.3,0,0,0,57.58,29.4Z"/><path id="Path_700" data-name="Path 700" class="cls-23" d="M51.91,19.09a4.39,4.39,0,0,0-2.37-.65c-1.52,0-4.27,2.29-4.27,2.29a26.18,26.18,0,0,1,3.79-1.59,6.55,6.55,0,0,1,2.39.42Z"/><path id="Path_701" data-name="Path 701" class="cls-23" d="M56,18.61a4,4,0,0,1,1.61-1.41c1.17-.61,4.14,0,4.14,0a24.32,24.32,0,0,0-3.51.29,6,6,0,0,0-1.71,1.24Z"/><path id="Path_702" data-name="Path 702" class="cls-20" d="M53.05,23a4.07,4.07,0,0,0-3.44-.25c-1.3.55-1.85,1.82-2.66,2.16,1.34.05,1.48-1.45,4.45-1.92A5.7,5.7,0,0,1,53.05,23Z"/><path id="Path_703" data-name="Path 703" class="cls-20" d="M57.42,23.39a4.07,4.07,0,0,1,2.33-2.52c1.33-.49,2.6.07,3.42-.23-.94.95-2.08-.07-4.56,1.62A5.31,5.31,0,0,0,57.42,23.39Z"/><path id="Path_704" data-name="Path 704" class="cls-11" d="M51.15,28.81c.21,1-1,2.16-2.64,2.51s-3.21-.21-3.42-1.25,1-2.16,2.64-2.51S50.93,27.77,51.15,28.81Z"/><path id="Path_705" data-name="Path 705" class="cls-11" d="M63.25,25.64c.17.79-.6,1.61-1.71,1.84s-2.15-.21-2.32-1,.61-1.62,1.72-1.85S63.09,24.85,63.25,25.64Z"/><path id="Path_706" data-name="Path 706" class="cls-24" d="M47.13,2.22S39.85,13.59,41.93,22s11.3,17.9,11.3,17.9l-5.56,4.35,6.41,3.79S35.48,53.2,31.69,53.2s-19.7-18-7.58-41.12C29.84,1.18,41.15-.8,47.13,2.22Z"/><path id="Path_707" data-name="Path 707" class="cls-24" d="M52.73,34.41s7.67-.75,8.51-2.4c0,0-.42,3.66-2.92,4.36S52.73,34.41,52.73,34.41Z"/><path id="Path_708" data-name="Path 708" class="cls-25" d="M61,33.21A7,7,0,0,0,61.23,32c-.84,1.64-8.51,2.4-8.51,2.4.34.27.69.53,1.06.77C55.72,34.93,59.8,34.28,61,33.21Z"/><path id="Path_709" data-name="Path 709" class="cls-26" d="M128.05,198.14l-77-.52A40.76,40.76,0,0,1,12.8,163.13L1.15,87.72C-.42,77.56,9.39,69.06,19.07,72.53a3.57,3.57,0,0,1,2,1.3c4.62,9.15,11.78,41.32,22.69,50.7,12.95,11.12,47.59,5.33,71.83,3.21,0,0,13.37-2,15.6,9.61C133.11,147.15,128.5,186.73,128.05,198.14Z"/><path id="Path_710" data-name="Path 710" class="cls-9" d="M128.05,198.15c-10,.38-73.58,2.3-81.86,1a42.42,42.42,0,0,1-35.7-36.4c0-.19-10.65-72-10.49-77.3.45-9.68,10.12-16.63,19.06-12.93C10.75,69.86,0,76.47,2.45,89c14.29,78.45,11.43,76.53,16.82,86.37A39.15,39.15,0,0,0,54,195.67C62.79,195.91,89.5,196.17,128.05,198.15Z"/><path id="Path_711" data-name="Path 711" class="cls-27" d="M19.07,72.54c1.94.52,2,.49,4.19,5,4.48,9.62,14.29,37.94,21.43,43.6l1,1c10.25,8.83,43.37,4.54,57.68,3.13l11.57-1c10.33-.79,18.42,3.53,19.54,13.76,1.34,12.72-5,50.46-6.45,60.21-.87-31.23,3.24-58.2-1.69-63.86-4-4.95-13.39-2.37-15.6-2.39l-6.6.74c-51.35,5.54-62.93,1.81-72.44-22.63-6-15.47-9.54-35.11-11.26-36.62A6.17,6.17,0,0,0,19.07,72.54Z"/><path id="Path_712" data-name="Path 712" class="cls-28" d="M43.07,3.35a15.51,15.51,0,0,0-3.79,3.1C30.57,15.85,32.48,28,42,34.69l-2.77,3.6C29,29.13,28.3,15.13,38.89,6A16.05,16.05,0,0,1,43.07,3.35Z"/><path id="Path_713" data-name="Path 713" class="cls-28" d="M38.53,2.33c-9.1,6.84-16.18,18.92-11.07,29L28.19,33c.15.16,5.75,12.17,17.87,12.75l-.3,4.54C25.94,47.8,12.32,19.13,38.53,2.33Z"/><path id="Path_714" data-name="Path 714" class="cls-28" d="M47.13,2.22S53,.38,57.42,3.35s-.14,9.91-5.51,12.12S39.3,19.35,40.59,24.9,44.32,32,44.32,32,36,29.35,36,22,38.61,3,47.13,2.22Z"/><path id="Path_715" data-name="Path 715" class="cls-14" d="M124.27,128.48a19.58,19.58,0,0,0-7.16-4.43,19.93,19.93,0,0,0-5.72-.2,29.51,29.51,0,0,0-5.4,0c-6.67.59-39.78-.14-43.52-2.66a8.4,8.4,0,0,1-1.75-1.67c-5,4.19-9.89,8.57-12.09,13.88a9.11,9.11,0,0,0,1,.65c12.29,6.88,44.69-3,53.78-4.56s14.86,3.74,17.33,6.15c.2.2.83.42.83-.76s-2.55-4.66-2.55-4.66a10.3,10.3,0,0,1,4.12,5.33c1.13,3.58,1.35,0,.82-1.49s-3.2-4.16-3.2-4.4c0-.64,4.17,4.72,4.74,6.18s1.08-.94.37-2.36A11.52,11.52,0,0,0,125,132a9,9,0,0,0,1.9,2C127.24,134,126.56,130.8,124.27,128.48Z"/><path id="Path_716" data-name="Path 716" class="cls-17" d="M61.73,120.41c-3.25-15.1-13.89-61.68-21.14-60.61,0,0-8.16-.45-11,9.63-2.74,9.82,6.43,55.58,18.26,64.3C50.09,128.42,56.69,124.6,61.73,120.41Z"/><path id="Path_717" data-name="Path 717" class="cls-8" d="M460.76,268.9h-3.67V190.56h6.53Z"/><path id="Path_718" data-name="Path 718" class="cls-8" d="M544.32,263.59h-4l-2.58-68.74h6.53Z"/><path id="Path_719" data-name="Path 719" class="cls-8" d="M413,260.06h-3.67v-72h6.53Z"/><path id="Path_720" data-name="Path 720" class="cls-8" d="M504.46,266.89l-3.94-.05-1.82-65.95,6.53.07Z"/><path id="Path_721" data-name="Path 721" class="cls-29" d="M516.56,167.29c-1.73-12.56,12.86-89.63,19.32-91.9,3.28-1.17,19.85-.51,34.06.29a19.7,19.7,0,0,1,18.53,20.8c0,.63-.11,1.26-.2,1.88l-9.39,60.74c-4,25.56-117.82,7.82-117.82,7.82Z"/><path id="Path_722" data-name="Path 722" class="cls-30" d="M418.85,124c20.9-2.29,67.14,4.65,75.77,1.26s12.24-25.62,18.6-35.07c9.23-13.68,12.59-11.72,22.36-14.64L520.89,168l-57.15,25.07-58-2.33c-.95-.07-3.2-17.8-3.15-19.94C402.91,157.79,394.62,126.68,418.85,124Z"/><path id="Path_723" data-name="Path 723" class="cls-30" d="M463.49,194l-50.3-.06a7,7,0,0,1-7-5.36l-1.52-7.73c-1.45-7.4,4.94-14.15,13.21-13.93l45.68,1.2Z"/><path id="Path_724" data-name="Path 724" class="cls-31" d="M499,120.09s-3.72,18.34.73,17S501.15,121.73,499,120.09Z"/><path id="Path_725" data-name="Path 725" class="cls-31" d="M422.32,121.23s-4.8,12.12,1.65,28.16c5.6,14,12.84,20.43,16,20.46.48,0,15.16-17,8.59-30.56S422.32,121.23,422.32,121.23Z"/><path id="Path_726" data-name="Path 726" class="cls-14" d="M485.07,68.3c-2.14-3-6.92-3-9-3.2s-4.7-3.82-6.1-4-.11,4.17,2.1,4.92,0,3-1.52,3.31-7.24,1-9.11-1.62-4.6-3.9-4.72-2.82,4.05,4.84,4.05,4.84-6.3-3.79-6.44-2.52S459.72,71,459.72,71s-3.57-.86-4.41-.1,9,4.39,10.81,4.6S478,73,481.3,72c1.38-.43,4.57,6.51,8.8,15.11a30.05,30.05,0,0,1,3.38-6.87C489.34,74.58,485.91,69.5,485.07,68.3Z"/><path id="Path_727" data-name="Path 727" class="cls-32" d="M512.29,99.45c-.47.54-1.13-1.4-1.51-1.29-2.88.87-10.85-9-17.17-17.58-1.37,2.17-4,4.79-4.77,7.25,5.86,11.92,15.11,26.62,23,29.64,0,0,3.12-3.69,6.74-8.89a63.51,63.51,0,0,0-6.29-9.13Z"/><path id="Path_728" data-name="Path 728" class="cls-11" d="M486.94,136.81s-57.47-17.72-66.51-14.55L437,145.58l9.78,9.85,49.54-10Z"/><path id="Path_729" data-name="Path 729" class="cls-33" d="M436.88,254.8l-.18,13.69,1.52,0,1.91-15.61Z"/><path id="Path_730" data-name="Path 730" class="cls-14" d="M503,142.81c-11.51,6.1-61.93,4.08-72.91,6.7s-12.17,13.33-13,20.63c-.64,5.67,8.75,51.77,10.89,75.11-.71,12.48-.88,14.69-3.27,18.8s-3,5,.29,5c4.19,0,7.85-.8,8.66-2.52,1.39-3,2.6-13.16,5.46-13.16,0,0,1.94-3.79,1.46-5.8-.72-2.88-2.63-1.58-2.78-5.14,1.92-23.45,4.76-61.92,3.33-65.06a27.46,27.46,0,0,0-3.79-6.33s61.67,14.16,68.88,12.44c4.1-1,13-14.8,20.66-28.49Z"/><path id="Path_731" data-name="Path 731" class="cls-34" d="M437.81,244.06c-1.26,7.66-6.24,22.87-9.18,22.88-4,0-4.2-.2-4.17-2.87-2.42,4.16-5.16,6.3-1.9,6.3,4.18,0,10.71.25,11.51-1.46,1.4-3,2.16-14.17,5-14.17l-.87,13.8,1.52,0s2.25-19,1.75-20.9C440.8,245.08,438.63,244.53,437.81,244.06Z"/><path id="Path_732" data-name="Path 732" class="cls-33" d="M399.89,223.07l-1.83,13.57,1.51.22,3.78-15.26Z"/><path id="Path_733" data-name="Path 733" class="cls-35" d="M433.43,137.88c1-8.88-8.95-19.41-13.26-14.77C407,137.36,399.52,179,395.61,195.88c-.61,2.67-5.56,29.61-9.09,34.28-2.91,3.84-3.55,4.62-.32,5,4.16.5,7.89.14,8.9-1.46,1.75-2.77,4.17-12.75,7-12.4,0,0,2.38-3.54,2.13-5.58-.29-2.34-1.62-2.16-2-3.74a33,33,0,0,1,1.85-9.79C407.05,195.24,432.43,146.77,433.43,137.88Z"/><path id="Path_734" data-name="Path 734" class="cls-34" d="M402.14,212.57c-2.18,7.45-9,21.88-11.89,21.53-3.94-.46-4.14-.7-3.79-3.35-6,2.91-5.89,5.63-2.65,6,4.15.51,10.6,1.55,11.61-.06,1.74-2.77,3.85-13.81,6.7-13.46l-2.55,13.59,1.5.22s4.53-18.59,4.27-20.53C405,213.88,402.88,213.13,402.14,212.57Z"/><path id="Path_735" data-name="Path 735" class="cls-36" d="M550.15,71.18c-1.31-5.33-11.32-7.47-15.28-4.05,0,0-26.9,18.27-25.5,29.68C510.73,108,514.54,132.22,504,139l-.51-.2L529.61,151c5.79-10.37,8.34-20,10-24.57C543.61,115.76,551.46,76.5,550.15,71.18Z"/><path id="Path_736" data-name="Path 736" class="cls-37" d="M503.27,139.76c-10.33-4-65.2-21.12-80.7-18.4,0,0,24.77,26.79,17.68,48.62,0,0,60.32,17.48,65.79,13.28s20.45-27.39,20.49-27.46l2.88-3.88Z"/><path id="Path_737" data-name="Path 737" class="cls-14" d="M503.05,123.91c-11.22-3.35-22.65-7.5-22.65-7.5a8.42,8.42,0,0,1,1.66-7.22c2.78-3.28,4.34-5,3.1-5.1s-5.25,3.91-5.25,3.91,2.17-4.71,4.53-6.52.25-3.5-4.08,2.63-3.95,3.62-3.78,2.33,5-7.13,4.6-9.49c-.39-2.18-6.6,7.9-7.71,11.21,2.59-15.46-1.1-12-2.8,3-.48,4.3,3.48,10.26,3.57,10.4.29.54,15.92,9,28.71,15.3C503,132.58,503.55,128.12,503.05,123.91Z"/><path id="Path_738" data-name="Path 738" class="cls-38" d="M463.39,87.53c-21.16-2.38-23.5-19.28-23.53-19.45a.65.65,0,0,1,.58-.72h0a.67.67,0,0,1,.75.58c.09.65,2.27,16,22.33,18.29a.66.66,0,0,1,.63.68.65.65,0,0,1-.68.63h-.09Z"/><path id="Path_739" data-name="Path 739" class="cls-39" d="M549.49,37.76s7.67-1.32,8.33,2.75-2,10.32-5,12.31c-2.35,1.54-10.47,6.53-12.72,1.7S540.41,37,549.49,37.76Z"/><path id="Path_740" data-name="Path 740" class="cls-40" d="M553.85,39.32c1.59,4,1.5,8.29-2.57,11.17l.87,1.24C556.19,48.17,556.15,43.64,553.85,39.32Z"/><path id="Path_741" data-name="Path 741" class="cls-14" d="M535,45.69s-.46,6.86-.4,12.45c0,3-1.16,5-1.93,7.32s-9.22,13-6.74,13.72c1.52.46,12.15-6.82,13.94-7.63,2.84-1.29,5.67-3.66,8.22-5l-4-28.36Z"/><path id="Path_742" data-name="Path 742" class="cls-11" d="M544.08,38.21,535,45.69s-.27,4-.37,8.35a19.12,19.12,0,0,0,10-12C543.59,36.21,544.08,38.21,544.08,38.21Z"/><path id="Path_743" data-name="Path 743" class="cls-14" d="M531.4,13.08a11.17,11.17,0,0,0-5.75,4.85c-2.08,3.68-1,9-2.19,12.29s1.22,19.82,8.67,20.25c9.33.53,13-13.08,14-15.76s.54-13.27-3.38-17.08S531.4,13.08,531.4,13.08Z"/><path id="Path_744" data-name="Path 744" class="cls-15" d="M529.43,31.77a55.16,55.16,0,0,1-1.3,7,4.53,4.53,0,0,0,2.55.53,4.22,4.22,0,0,1-3-.35A56.83,56.83,0,0,1,529.43,31.77Z"/><path id="Path_745" data-name="Path 745" class="cls-15" d="M534.59,28.22a9,9,0,0,1,4-.46c2,.29,4.06,3.15,4.06,3.15s-2.48-2.39-3.82-2.54a8.25,8.25,0,0,0-2.84.32Z"/><path id="Path_746" data-name="Path 746" class="cls-15" d="M529.86,27a7,7,0,0,0-2.67-2.26c-1.57-.66-4.31.87-4.31.87s2.83-.95,3.87-.46a6.22,6.22,0,0,1,1.9,1.6Z"/><path id="Path_747" data-name="Path 747" class="cls-25" d="M534.19,41.89c-3.64,1.89-5.1,2-6.46,1.94C529.84,45,533,43.66,534.19,41.89Z"/><path id="Path_748" data-name="Path 748" class="cls-15" d="M535,31.53a1.2,1.2,0,0,0,1.3,1.08,1.18,1.18,0,0,0,1-1.38h0a1.2,1.2,0,0,0-1.3-1.08,1.18,1.18,0,0,0-1,1.37Z"/><path id="Path_749" data-name="Path 749" class="cls-41" d="M540.17,32.27c-4.08-4.28-5.85-1.27-7.25-1.09,1.14.1,2.48-1.05,3.72-.71A16.78,16.78,0,0,1,540.17,32.27Z"/><path id="Path_750" data-name="Path 750" class="cls-15" d="M525.65,30.72c.11.68.6,1.17,1.08,1.06a1.16,1.16,0,0,0,.68-1.39c-.12-.68-.6-1.15-1.08-1.06S525.54,30,525.65,30.72Z"/><path id="Path_751" data-name="Path 751" class="cls-41" d="M529.24,31.13c-3.4-3.88-4.91-.76-6.1-.47,1,0,2.1-1.25,3.14-1A13.43,13.43,0,0,1,529.24,31.13Z"/><path id="Path_752" data-name="Path 752" class="cls-11" d="M535.29,37.65c.35,1.12,1.89,1.66,3.45,1.19s2.53-1.75,2.18-2.89-1.89-1.66-3.44-1.2S534.94,36.52,535.29,37.65Z"/><path id="Path_753" data-name="Path 753" class="cls-42" d="M539.81,17.92c-4.91-5.21-8.72-4.5-9-4.63a1.56,1.56,0,0,1,.27-.4c.85-1.17,3.84-4.42,9.87-3.17,6.19,1.12,9.69,2,13.18,6.9,1.56,2.2,1.75,6.1,1.32,8.61-.78,4.6-2.89,5.22-2.56,10,.33,4.53-9.84,7.38-9.84,7.38.2-.55,1.22-4.94,1.73-6.05a8.79,8.79,0,0,0,.21-7,3.5,3.5,0,0,1-2.47-1.1C540.22,26.18,542.46,24.13,539.81,17.92Z"/><path id="Path_754" data-name="Path 754" class="cls-39" d="M534.18,10.76a13.25,13.25,0,0,0-8.91.47c-4.44,2-7,12.84-5.35,15.49s-8.36,3.85-3.37,5.2C523.64,33.85,538.4,12.72,534.18,10.76Z"/><path id="Path_755" data-name="Path 755" class="cls-43" d="M532.49,12c-6.78-1.5-12.1,3-11.37,8.81a3.25,3.25,0,0,0,1.34,2.53l.65-1.24c-.37-.12-.66-1.1-.73-1.46C521.3,15.51,525.94,11.07,532.49,12Z"/><path id="Path_756" data-name="Path 756" class="cls-14" d="M543.65,32.05s1.41-4.73,3-2.08-1.09,7.49-2.6,6.83S543.65,32.05,543.65,32.05Z"/><path id="Path_757" data-name="Path 757" class="cls-11" d="M543.93,32.79s1.06-2.74,1.7-2.09-.46,5.72-1.28,4.91S543.93,32.79,543.93,32.79Z"/><path id="Path_758" data-name="Path 758" class="cls-44" d="M548.29,67.62s-9.54,3.28-14.89,19.72-6,37.48-11.95,39.43c-2.72.9-13.25-4.56-22.27-7.25,2.65,5.55.81,12.73.73,17,4.73,2.33,9.86,3.58,12.89,4.82,11.35,4.64,14.88,3.5,21.76-4.17S564.33,67.05,548.29,67.62Z"/><path id="Path_759" data-name="Path 759" class="cls-45" d="M461.92,205.54l77-.51a40.76,40.76,0,0,0,38.26-34.49l11.66-75.41c1.57-10.17-8.24-18.67-17.92-15.2a3.61,3.61,0,0,0-2,1.3c-4.62,9.15-11.78,41.33-22.7,50.71-13,11.12-47.59,5.33-71.83,3.21,0,0-13.37-2-15.6,9.61C456.86,154.56,461.47,194.14,461.92,205.54Z"/><path id="Path_760" data-name="Path 760" class="cls-27" d="M566.43,84.84c-5,10-15.32,37.71-22.11,42.83l-1,.88c-9.81,8.23-43.51,3.86-56.7,2.58l-10-.85c-7.54-.62-15,.36-19.47,6.52-3.54,4.66-3.31,10.24-3.15,15.66,1.1,18.2,4.52,35.52,7.79,53.11,1.34-16-.54-50.86,1.1-59.16.56-3,1.68-4.87,4.93-5.86,7.89-2.33,60.1,10.92,79.65-4.08,15.41-13,19.07-52.88,21.93-55.61a6,6,0,0,1,1.37-.9C568.58,80.46,568.59,80.73,566.43,84.84Z"/><path id="Path_761" data-name="Path 761" class="cls-9" d="M570.91,80c8.13-2.49,18.78,4,16.24,16.38-6.82,35.7-9.06,50.29-12.79,73-2.77,18-17.08,32.56-38.36,33-14.73.26-47.79,1.3-74.07,3.14,25,1.42,50.95,1.92,76.06,2.17,13.29.39,29.2-7.68,37.34-22.42,5.33-9.78,5-18.07,7-29.68,1.85-13.5,3.74-25.49,7.7-58.83C591.72,83,579.93,76.05,570.91,80Z"/><path id="Path_762" data-name="Path 762" class="cls-46" d="M329.83,264.6h-16a2,2,0,0,0-2-1.82H299.58a3.89,3.89,0,0,0-4.08-3.64h-4.28c2.17-16,3.18-26.68,3.93-35.66.6-7.66,4.51-19.63-2.43-37.56,2.22-.33,8.3,1.22,8.3-2.7a2.54,2.54,0,0,0-.47-1.43H309c2.81,0,4.77-2.7,3.29-5h91.43c-1.29-1.15-8.76-16.32-28.49-16.32H203.12c-20.67,0-27.78,16.17-27.93,16.32h91.43c-1.48,2.33.5,5,3.29,5h8.42a2.47,2.47,0,0,0-.47,1.43c0,3.93,6.14,2.38,8.3,2.7-2.94,7.58-5,17.77-3.79,26.81,2.46,19.33,1.92,21.69,5.28,46.4h-4.28a3.89,3.89,0,0,0-4.08,3.64H267.1a1.94,1.94,0,0,0-2,1.83H249a2.54,2.54,0,0,0-2.65,2.24h86.09A2.55,2.55,0,0,0,329.83,264.6Z"/><path id="Path_763" data-name="Path 763" class="cls-47" d="M175.21,174.69H403.68c-.41-.37-1.44-2.14-3.29-4.39H178A27.8,27.8,0,0,0,175.21,174.69Z"/><path id="Path_764" data-name="Path 764" class="cls-48" d="M263.92,84.72c-5.52.29-8.48-.84-11.44,1.57a5.06,5.06,0,0,0-1.8,2.16c-.33,1.5-6.2,62.3-6.2,62.3s.33,1.75,2.3.91S263.92,84.72,263.92,84.72Z"/><path id="Path_765" data-name="Path 765" class="cls-49" d="M248.54,152.12l40.65,5.06a3.55,3.55,0,0,0,4-2.41l1.87-8.4,3.15-14.19,1.06-4.74,3.15-14.18,1.31-5.88,3.14-14.18L308,88.3c.41-1.84-1.27-3.54-3.5-3.54H262.14c-4.3,0-7.92,2.72-8.43,6.32l-8.18,57.73a3.12,3.12,0,0,0,2.94,3.3Z"/><path id="Path_766" data-name="Path 766" class="cls-50" d="M284.92,84.56l14.44,42.68,3.15-14.18-9.65-28.5Z"/><path id="Path_767" data-name="Path 767" class="cls-50" d="M274.26,84.68l20.86,61.61,3.15-14.19-16-47.42Z"/><path id="Path_768" data-name="Path 768" class="cls-50" d="M296.2,84.46l7.66,22.62L307,92.91l-2.86-8.45Z"/><path id="Path_769" data-name="Path 769" class="cls-51" d="M205.92,158.34h88l0-7.89-79.9-.19a8.07,8.07,0,0,0-8.07,8.07h0Z"/><path id="Path_770" data-name="Path 770" class="cls-52" d="M291.26,110.25c0,1.6-5.18,2.9-11.58,2.9s-11.57-1.3-11.57-2.9,5.18-2.89,11.57-2.89S291.26,108.66,291.26,110.25Z"/><path id="Path_771" data-name="Path 771" class="cls-53" d="M335.65,120.18a2.09,2.09,0,0,0-2.08-2H320.14a2.07,2.07,0,0,0-2.07,2l0,.36h17.64Z"/><path id="Path_772" data-name="Path 772" class="cls-54" d="M318,120.82l-2.18,37h22l-2.18-37Z"/><path id="Path_773" data-name="Path 773" class="cls-53" d="M327.9,112.07a.64.64,0,0,0-.56-.72h-.88a.65.65,0,0,0-.65.65v.11h2.09Z"/><path id="Path_774" data-name="Path 774" class="cls-54" d="M336.78,146.62l-1.48-.91c5.1-8.3,11.43-21.11,9.53-23.58-2.53-3.3-9.27,1.5-9.33,1.54l-1-1.4c.33-.24,8.16-5.88,11.74-1.2C349.52,125.38,339,143.11,336.78,146.62Z"/><path id="Path_775" data-name="Path 775" class="cls-55" d="M325.82,112.13l.48,3.93h1.11l.49-3.93Z"/><path id="Path_776" data-name="Path 776" class="cls-26" d="M326.86,114c-3.52,0-6.37,1.85-6.45,4.16H333.3C333.22,115.86,330.37,114,326.86,114Z"/><path id="Path_777" data-name="Path 777" class="cls-56" d="M317.57,127.84l-.57,9.65-6.26-14.07h3.31Z"/><path id="Path_778" data-name="Path 778" class="cls-54" d="M368.51,154.5c.52-.17,1.06-.33,1.61-.49,3.41-1,7.27-2.1,7.58-6.66a3.37,3.37,0,0,0-.59-2.36c-1.23-1.57-3.88-1.49-5.37-.92l.47,1.23c1.09-.42,3.1-.48,3.87.5a2.08,2.08,0,0,1,.31,1.46c-.26,3.64-3.36,4.54-6.65,5.49l-1.65.5Z"/><path id="Path_779" data-name="Path 779" class="cls-26" d="M381.51,155.69v0c0,.89-1.54,1.71-4.15,2.37h-32c-2.6-.66-4.15-1.48-4.15-2.37v0Z"/><path id="Path_780" data-name="Path 780" class="cls-53" d="M353.89,142.29h17.89c.06.26.11.54.16.81h-18.2C353.79,142.83,353.84,142.55,353.89,142.29Z"/><path id="Path_781" data-name="Path 781" class="cls-54" d="M371.94,143.2a19,19,0,0,1,.26,3.1,16.31,16.31,0,0,1-2.74,9.34H356.22a16.24,16.24,0,0,1-2.74-9.34,19,19,0,0,1,.26-3.1Z"/><path id="Path_782" data-name="Path 782" class="cls-57" d="M359.56,142.2c.58-.6,1.51-.12,1.9.12h-.78a.81.81,0,0,0-.87.11c-.43.45-.73,3.33-.83,5.15a.17.17,0,0,1-.17.16h0a.16.16,0,0,1-.15-.17h0C358.66,147.08,358.91,142.88,359.56,142.2Z"/><path id="Path_783" data-name="Path 783" class="cls-58" d="M356.58,152.74H361v-3.6a1.49,1.49,0,0,1-1.48-1.49h-1.46a1.49,1.49,0,0,1-1.48,1.49h0Z"/><rect id="Rectangle_672" data-name="Rectangle 672" class="cls-57" x="357.41" y="149.33" width="2.67" height="2.67"/></g></g></g></svg>