<svg xmlns="http://www.w3.org/2000/svg" viewBox="0 0 5114.12 1576.16"><defs><style>.cls-1{fill:#95a6db;}.cls-2{fill:#3a62ad;}.cls-3{fill:#facb32;}.cls-4{fill:#f37a50;}.cls-5{fill:#201d40;}.cls-6{fill:#2c2858;}.cls-7{fill:#e62552;}.cls-8{fill:#c4204a;}.cls-9{fill:#fff;}.cls-10{fill:#de623c;}.cls-11{fill:#eba223;}.cls-12{fill:#7f99eb;}.cls-13{fill:#3f964f;}.cls-14{fill:#0e6a41;}.cls-15{fill:#097a48;}.cls-16{fill:#494c7f;}.cls-17{fill:#f5a3b7;}</style></defs><title>success</title><g id="Layer_2" data-name="Layer 2"><g id="Слой_1" data-name="Слой 1"><path class="cls-1" d="M1227.59,1138.08s17.29,31.37-10.3,87.14c-28.12,56.83-23,96.52-23,96.52l-26,24.52s-4.42-63.14,20.35-107.73C1219.7,1182.76,1227.59,1138.08,1227.59,1138.08Z"/><path class="cls-1" d="M1303.38,1155.73s4.61,26-26.53,62.13c-31.81,36.79-37.16,66.82-37.16,66.82l-21.37,17s9.38-50.59,36.18-79C1288,1187.11,1303.38,1155.73,1303.38,1155.73Z"/><path class="cls-1" d="M1171.85,1197.5s-23.33,16.1-38.35,81.55c-12.25,53.33-.15,81.31-7.86,114l33.06-35.44c2.08-23.2-12.78-38.55-4-87.45C1162.88,1224.37,1171.85,1197.5,1171.85,1197.5Z"/><path class="cls-1" d="M962.39,1394.66S952,1421.11,976,1483.75c19.57,51.12,46.18,58,51.27,69.79l11.56-25.72c-14.14-20.1-30.21-17.75-50.2-63.23C969.93,1421.91,962.39,1394.66,962.39,1394.66Z"/><path class="cls-1" d="M1117.42,1238.19s-16.17,46.19-19.94,75.66c-5.44,41.9,11,64.4,8.54,107.59l-23.26,28s-20.21-45.41-11.43-96.83C1086.05,1266.31,1117.42,1238.19,1117.42,1238.19Z"/><path class="cls-1" d="M1037.2,1259.5a281.52,281.52,0,0,1,1.5,81.92c-11.18,82.45,32.08,145.16,32.08,145.16L1053.46,1503s-53.11-43.82-41.77-112.79C1023.75,1317.32,1037.2,1259.5,1037.2,1259.5Z"/><path class="cls-1" d="M1156.9,1363.44s19.52-6.77,100.37,4.08c51.82,7,36.78-12.77,85.63,2.38-37.27,3-50.14,30.14-98.71,26.45a746.44,746.44,0,0,0-116.69.22Z"/><path class="cls-1" d="M1313.49,1417.14s-32,39.78-103.81,34.16a404.11,404.11,0,0,0-131.47,11.64l21.91-36s29.88-21.38,103.93-8.37C1254.93,1427.48,1313.49,1417.14,1313.49,1417.14Z"/><path class="cls-1" d="M1270.23,1485.07s-32.06,39.79-103.82,34.16a404.12,404.12,0,0,0-131.47,11.65l21.91-36s29.89-21.39,103.93-8.37C1211.66,1495.42,1270.23,1485.07,1270.23,1485.07Z"/><path class="cls-1" d="M1365.12,1286.06s-23,20.59-68.27,15.34c-45.84-5.36-79.65,4.29-79.65,4.29l13-13.43s18.89-13.51,65.7-5.3C1328.1,1292.59,1365.12,1286.06,1365.12,1286.06Z"/><path class="cls-1" d="M1197.58,1327.68s35.37-3.34,87.28,1.59c32.76,3,76.47-16.43,76.47-16.43s-33.93,46.73-82.88,39.16c-56.14-8.7-111.71-1.5-111.71-1.5Z"/><path class="cls-1" d="M1226.74,1297.67s29.66-45.85,79-54.65a266.36,266.36,0,0,0,83.09-30.47s-27.58,47.34-73.74,50.53c-42.61,3.06-72.36,31-72.36,31Z"/><path class="cls-1" d="M1031.26,1554.41l-7.37-3.14c19.37-45.52,106.29-193.22,214.88-266.42l4.48,6.66C1136.17,1363.7,1050.41,1509.48,1031.26,1554.41Z"/><path class="cls-1" d="M348.09,1553.21H598.23c24.19-32.4,35.45-72.31,35.45-72.31s-77.29,45.46-113.49,27.72c70.18-15.43,123.51-68.6,123.51-68.6l11.44-47.58s-97.79,68.27-110.43,54.1c-14.15-15.93,88.16-33.16,113.67-99.68,0,0-15.63-43.73-4.61-79.73,1.43-4.74-55.5,44.56-66.32,31.38-8.74-10.67,43.21-32.23,51.15-53.49,10.12-27.4-10.12-54.07-10.12-54.07s-55.91,36.94-61.21,23.53c-6.4-16.14,41.63-24.34,51.06-46.24-25.94-16.26-44.22-31.59-44.54-44.71-15.51,12.39-36.1,12.78-59.85,11.5-2.23,16.93,22.51,55.2,15.57,59.55-17.72,11.09-33-42.8-33-42.8a62.91,62.91,0,0,0-36.44,42.33c-6.4,23.69,24.56,82.31,14.72,90.61-12.23,10.35-35.6-79-35.6-79s-28.35,15.19-38.47,33.62,58.52,119.88,47.14,124c-23.63,8.55-72.79-108.22-72.79-108.22s-28.35,57.16-25.8,70.64c4.21,22.09,80.57,89.5,63.6,100-12.15,7.57-47.54-45.82-64.79-73.56v80.68a137.43,137.43,0,0,0,18.48,12.5c25.37,14.49,25.49,23,10.63,22-9.19-.61-19.27-5.19-29.11-11.5v29c16.68,6.9,33.91,18.77,29.11,25.75-5.54,8.1-17.57,5.92-29.11,0Zm223.33-291.69c-6.87-12.86,42.36-35.21,46.41-30C626.9,1243.11,578.28,1274.38,571.42,1261.52Zm5.32,90.18c22.58-10.77,39.24-28.28,48-19.19,8,8.3-4.72,26.64-29.34,42.11-19.17,12.05-53.31,25-57.5,12.29C533.82,1374.64,549.94,1364.52,576.74,1351.7Zm-8.52-41.61c2.63,12.66-28.57,25.61-33.41,14.17S566.5,1301.79,568.22,1310.09ZM491.7,1463.28c-5-13.48,28.86-24.17,33.23-14.67,5.63,12.23-28.23,28.16-33.23,14.67Zm11.42-202.73c-13.3,4.45-33-33.82-20.75-41s34.22,36.47,20.75,41Zm-22.23-56.43-.07,0a63.37,63.37,0,1,1,0-.05Z"/><polygon class="cls-2" points="537.14 1225.26 428.75 1553.2 414.15 1553.2 537.14 1225.26"/><polygon class="cls-2" points="541.37 1407.66 462.04 1425.48 461.43 1434.17 541.37 1407.66"/><polygon class="cls-2" points="485.55 1362.82 444.75 1286.28 489.17 1353.14 485.55 1362.82"/><polygon class="cls-2" points="444.45 1484.42 393.24 1434.88 445.24 1470.31 444.45 1484.42"/><path class="cls-1" d="M287,1481.5q35-43.51,13.54-115Q263.12,1431.13,287,1481.5Z"/><path class="cls-1" d="M259,1415.23q25.53-44-3.69-105.48Q230.45,1373.19,259,1415.23Z"/><path class="cls-1" d="M227.85,1349.55q17.84-45-18.2-98.61Q195.08,1314,227.85,1349.55Z"/><path class="cls-1" d="M157.3,1212.82q-.9,54.72,32.47,78.42Q196.57,1250.77,157.3,1212.82Z"/><path class="cls-1" d="M110,1198.2q7.4,45.21,38.33,59.76Q147.94,1223.72,110,1198.2Z"/><path class="cls-1" d="M124.43,1259.19q-12.57-31.85-57.18-42.11Q90.35,1256.67,124.43,1259.19Z"/><path class="cls-1" d="M173.64,1433.44q46.67,59.16,102.91,55.35Q248.75,1439.91,173.64,1433.44Z"/><path class="cls-1" d="M222.77,1373.49q-35-29.91-94.63-13.85Q180.58,1392,222.77,1373.49Z"/><path class="cls-1" d="M111.9,1318.78q45.6,28.21,82.33,12.06Q163.76,1304.79,111.9,1318.78Z"/><path class="cls-1" d="M157.32,1293.64q-30.49-26-82.34-12.05Q120.63,1309.81,157.32,1293.64Z"/><path class="cls-1" d="M298.55,1555.45c-19.59-86.88-21.95-79.9-42.4-130.41q-8.26-20.47-17.66-38.84a389.51,389.51,0,0,0-47.18-69.88q-31.23-38.47-54.31-50.7l-1.45-1.72A1.4,1.4,0,0,0,134,1263a2.37,2.37,0,0,0-1.9,0,4.36,4.36,0,0,0-1.24,1.64,2.39,2.39,0,0,0-.05,1.91l.54,1.31a5.21,5.21,0,0,0,1.64,1.27v.31l1.4.59q22.29,12.43,52.67,49.59a382.11,382.11,0,0,1,46.14,69.49,408.74,408.74,0,0,1,17.72,38.1l1.35,3.39q-31.29-39.9-99.13-35.66,49.49,46.51,99.13,35.66c19.79,49.74,21.57,41.28,40.63,126Z"/><path class="cls-1" d="M160.94,1442.68Q153,1406,106.46,1387,124.42,1434,160.94,1442.68Z"/><path class="cls-1" d="M56.19,1385.15q23.15,35.64,54.93,36.46Q98,1392.59,56.19,1385.15Z"/><path class="cls-1" d="M19.35,1396.25q24.36,25.92,50.61,21.9Q54.89,1396.22,19.35,1396.25Z"/><path class="cls-1" d="M55.11,1429.29q-21.9-15.07-55.11-2.35Q32.06,1442.44,55.11,1429.29Z"/><path class="cls-1" d="M159.67,1530.83q55.72,17.88,90.32-8.95Q210.89,1502.43,159.67,1530.83Z"/><path class="cls-1" d="M168.05,1460.31q-35.55-4.08-67,32.11Q148.89,1490.55,168.05,1460.31Z"/><path class="cls-1" d="M72.87,1473.13q41.64-1.59,58.29-27.93Q100.23,1441.61,72.87,1473.13Z"/><path class="cls-1" d="M91.25,1437.23q-30.91-3.51-58.29,27.93Q74.6,1463.55,91.25,1437.23Z"/><path class="cls-1" d="M295.79,1544.72c-50.3-47.5-48.79-42-83.87-65.66q-14.21-9.61-28.23-17.38a302.63,302.63,0,0,0-60.7-24.57q-36.81-11.27-57-9.13l-1.68-.48a1.07,1.07,0,0,0-1.38.08,1.9,1.9,0,0,0-1.26.79,3.47,3.47,0,0,0-.08,1.6,1.88,1.88,0,0,0,.79,1.25l.92.61a4,4,0,0,0,1.61.1l.13.21,1.16-.22q19.76-1.67,55.44,9.12a297.08,297.08,0,0,1,59.88,24.78,318.09,318.09,0,0,1,27.93,16.87l2.34,1.6q-37.45-12.15-79.35,20,52.07,8.52,79.35-20c34.32,23.47,31.8,17.25,80.82,63.58Z"/><path class="cls-3" d="M3298.17,340.87l-47.54-.38,42.77-20.75a15.83,15.83,0,0,0,8.9-15.18l-4.16-70.74,26.65,65.72a15.86,15.86,0,0,0,14.49,9.89l46.46.58L3344,330.48a15.86,15.86,0,0,0-8.84,15.16l4.16,70.79-26.62-65.67A15.85,15.85,0,0,0,3298.17,340.87Z"/><path class="cls-3" d="M2730.13,1098.7l-40-21.11,45.21,1.18a15.08,15.08,0,0,0,14.17-8.94l27.45-61.6-6.24,67.2a15.06,15.06,0,0,0,7.91,14.7l39,20.82-44.21-1a15.08,15.08,0,0,0-14.1,8.94l-27.47,61.64,6.24-67.15A15.07,15.07,0,0,0,2730.13,1098.7Z"/><path class="cls-3" d="M3473.21,1137.53l-29.82.07,26.69-13.29a10,10,0,0,0,5.49-9.58l-3.07-44.35,17.14,41a10,10,0,0,0,9.15,6.11l29.15.06-26,13.12a9.94,9.94,0,0,0-5.45,9.56l3.07,44.38-17.13-41A9.92,9.92,0,0,0,3473.21,1137.53Z"/><path class="cls-3" d="M3076.05,113.07l-28.56-17.86L3081,98.54a11.23,11.23,0,0,0,11-5.86l23.73-44.26L3107.46,98a11.22,11.22,0,0,0,5.08,11.34l27.84,17.59-32.78-3.11a11.24,11.24,0,0,0-11,5.87L3072.9,174l8.28-49.53A11.24,11.24,0,0,0,3076.05,113.07Z"/><path class="cls-3" d="M1885.22,899.55,1859,885.45l29.8,1a9.94,9.94,0,0,0,9.38-5.83l18.38-40.48-4.43,44.27a9.92,9.92,0,0,0,5.15,9.72L1942.85,908l-29.14-.83a9.91,9.91,0,0,0-9.33,5.83L1886,953.53l4.42-44.23A10,10,0,0,0,1885.22,899.55Z"/><path class="cls-3" d="M4242.42,204.54l-29.75,2.08,25.74-15.06a10,10,0,0,0,4.83-9.93l-6.05-44,19.87,39.81a9.93,9.93,0,0,0,9.54,5.48l29.09-1.91-25.1,14.84a9.94,9.94,0,0,0-4.78,9.91l6,44.07L4252,210A9.94,9.94,0,0,0,4242.42,204.54Z"/><path class="cls-1" d="M2569.5,1479.75q34.17-47.67,7.48-121.44Q2541.52,1428.33,2569.5,1479.75Z"/><path class="cls-1" d="M2536.21,1411.88q24.21-47.69-10-110.42Q2503.86,1369.44,2536.21,1411.88Z"/><path class="cls-1" d="M2499.75,1344.8q16.1-48.19-24.84-102.37Q2463.3,1309.42,2499.75,1344.8Z"/><path class="cls-1" d="M2417.77,1205.49q2.27,57.45,38.64,80.37Q2461.17,1243,2417.77,1205.49Z"/><path class="cls-1" d="M2367.27,1192.92q10.39,47,43.69,60.45Q2408.59,1217.48,2367.27,1192.92Z"/><path class="cls-1" d="M2386,1256.06q-15-32.67-62.44-40.83Q2350.11,1255.39,2386,1256.06Z"/><path class="cls-1" d="M2437.32,1446.38q52.41,59.32,111.18,52Q2516.49,1448.78,2437.32,1446.38Z"/><path class="cls-1" d="M2495.83,1370.21q-38.51-29.32-100.07-9Q2452.64,1392.1,2495.83,1370.21Z"/><path class="cls-1" d="M2376.33,1319.29q49.49,26.94,87.06,7.84Q2429.93,1301.58,2376.33,1319.29Z"/><path class="cls-1" d="M2422.51,1290.27q-33.51-25.45-87.07-7.84Q2385,1309.37,2422.51,1290.27Z"/><path class="cls-1" d="M2585.93,1556.65c-25.62-90-27.69-82.52-52.08-134.31q-9.87-21-20.8-39.72a409.64,409.64,0,0,0-53.56-70.54q-35-38.53-59.93-50l-1.63-1.72a1.47,1.47,0,0,0-1.66-.87,2.49,2.49,0,0,0-2,.06,4.6,4.6,0,0,0-1.2,1.79,2.55,2.55,0,0,0,0,2l.65,1.35a5.48,5.48,0,0,0,1.79,1.22v.34l1.51.53q24.11,11.74,58.14,48.94a401.6,401.6,0,0,1,52.45,70.21,428.43,428.43,0,0,1,20.81,38.92l1.61,3.48q-35.13-40-106.06-31.62,54.63,45.9,106.06,31.62c23.67,51,25,42.05,50,129.79Z"/><path class="cls-1" d="M4954.11,1576.16H289.45c-14.83,0-26.85-7.22-26.85-16.12h0c0-8.9,12-16.12,26.85-16.12H4954.11c14.82,0,26.84,7.22,26.84,16.12h0C4981,1568.94,4968.93,1576.16,4954.11,1576.16Z"/><g id="c"><path class="cls-4" d="M814.86,437.66l-4-26.73s18.72-2.92,17.73-16.08l-19.69-.23s-10.6-9.71,1.57-39.26c2.81-27.78-15.52-13.85-18-22.64-3.68-13-26.93,13-27.65,40.52-.93,35.58,18,64.36,18,64.36Z"/></g><path d="M1099.83,1503.66c6.35-17.59,19.93-19.55,19.93-19.55,26.4,37.13,91.22,14.35,89.07,64.56-98.57-.64-139.54,0-139.54,0,.13-11.53,2.08-38.91,4.36-49.62l5.13,1Z"/><path d="M952.35,1504.63c6.35-17.59,19.93-19.55,19.93-19.55,26.4,37.13,91.22,14.35,89.07,64.57-98.57-.65-139.54,0-139.54,0,.13-11.54,2.08-38.91,4.35-49.63l5.14,1Z"/><path class="cls-5" d="M1165.4,917.29s16,238,9.5,290.87-29.53,120.73-26.92,295.72c-32.13,8.2-78.69,0-78.69,0s-6.9-197.87,27.07-286.25c-13.81-85.84-58.14-282.47-58.14-282.47Z"/><path class="cls-6" d="M1117.63,923.8s-32.32,267.15-48.14,317.82-46.67,93.52-75.31,265.9c-33,1.69-72.37-6.89-72.37-6.89s13.06-211.77,64.49-261.5C988,1152.08,978,925.51,978,925.51Z"/><path class="cls-1" d="M992.93,602.91s-2.37,1.84-135.51-21.09a.2.2,0,0,0-.11,0L810.21,622a.13.13,0,0,0,0,.19C845.3,661,996.64,684.75,996.64,684.75Z"/><polygon class="cls-1" points="1049.52 573.73 1096.31 566.19 1142.7 575.85 1094.91 632.09 1049.52 573.73"/><path class="cls-4" d="M1066.7,601.07c18.5,14.44,38.09,20.63,58.45,6l2.8-72-61-.72Z"/><path class="cls-1" d="M1156.47,600.26h0l-14.32-4.59.55-19.82-36.62,33.66L1095.27,612l-10.69-3-35.06-35.29-.35,19.83-12.14,3.3h0l-51.44,7.06V832.6l-19.2,105.77c60.21,15.65,149.92,16.5,214.08,3.24l-10.61-96.37,20.42-232Z"/><path class="cls-7" d="M1097.47,637.47s-6.43,139.85-17,211.44l18.73,22.67s18.63-17.65,23.67-20.84c11.46-126.2-9.19-212.61-9.19-212.61Z"/><polygon class="cls-8" points="1085.71 613.15 1105.44 608.06 1119.88 613.82 1113.72 638.13 1096.25 638.08 1085.71 613.15"/><path class="cls-9" d="M1105.44,608.06s-15.89,21-30.36,29.38l-37.14-39.39,11.42-24.34Z"/><path class="cls-9" d="M1105.44,608.06s12.57,18.26,28.93,30.35l28.93-36.25-20.6-26.31Z"/><path class="cls-1" d="M777.89,433.53c21.17-4.88,32.26-6.93,48.21-5.41,27,116,49.88,160.9,35.6,192.11-11.91,26-41.29,21-53.83-.49C791.32,591.33,784,488.69,777.89,433.53Z"/><path class="cls-1" d="M1190.28,613.28c31.55,1.17,68.53,149,68.53,149l61.57-65.71,24.56,57.92s-80.26,102.31-115,91.88c-32.46-9.73-49-126.38-49-126.38Z"/><path class="cls-6" d="M1047.86,531.74c-30,3.57-45.74-34.79-45.74-34.79-18.4-3-15.29-21.36-15.29-21.36-8.73-2.68-20.36-12-16.62-28.71,3.17-14.1,17-13.43,18.79-29.95,1.43-13.25-8.08-45.74,34.22-48.24,0,0,1-24.64,26.45-30.52,31.16-7.21,38.86,11.51,52.51,14.87,15.25,3.76,48-10.26,52.32,25,0,0,21.77.52,31.78,16.37,9.32,14.76,3.85,33.63-2.42,40.56,0,0,17.46,6,21.47,22.5,2.69,11.09-1.64,25.42-12.69,32.37a32.08,32.08,0,0,1-13.7,4.84c-7.13,1.16-7.58,20.25-13.87,23.94-10.08,5.93-21,10.1-32.18,13.41Z"/><path class="cls-4" d="M1163.32,458.41c3.46,51.8-25,95.88-63.5,98.45s-72.58-37.32-76-89.12,27.35-85.26,65.88-87.84S1159.86,406.61,1163.32,458.41Z"/><path d="M1065.54,485.05a7.43,7.43,0,1,1,6.92-7.91A7.43,7.43,0,0,1,1065.54,485.05Z"/><path d="M1124.63,481.1a7.43,7.43,0,1,1,6.92-7.91A7.44,7.44,0,0,1,1124.63,481.1Z"/><path class="cls-6" d="M1136.76,466.13a3.57,3.57,0,0,1-3.19-1.54c-2-3-4.38-4.67-7-5.06-4.46-.68-8.62,2.54-8.66,2.58a3.57,3.57,0,0,1-4.46-5.58c.27-.21,6.55-5.18,14.12-4.07,4.64.68,8.63,3.4,11.85,8.09a3.58,3.58,0,0,1-.92,5A3.63,3.63,0,0,1,1136.76,466.13Z"/><path class="cls-6" d="M1050.55,472.25a3.56,3.56,0,0,1-3.16-5.6c4.29-6.16,9.26-9.68,14.76-10.48a17.37,17.37,0,0,1,12.53,3.22,3.57,3.57,0,0,1-4.43,5.6,10.19,10.19,0,0,0-7.16-1.74c-3.44.53-6.76,3.05-9.85,7.48A3.53,3.53,0,0,1,1050.55,472.25Z"/><path class="cls-10" d="M1102.4,484.91c10,6.28,13.23,8.91,17.09,11-2,8.74-15.13,13.89-19,13.15,9-5.23,10-11.57,10-11.57Z"/><path class="cls-4" d="M1036.23,476.25c7.2,10.75,6.58,23.78-1.38,29.11s-20.25.95-27.45-9.79-6.58-23.77,1.38-29.11S1029,465.51,1036.23,476.25Z"/><path class="cls-10" d="M1029.13,496.62a2.31,2.31,0,0,1-.93-.13,2.37,2.37,0,0,1-1.48-3c1.43-4.13,1.25-7.36-.52-9.61-2.75-3.47-8.72-4.19-13-3.76a2.38,2.38,0,0,1-.47-4.74c5.74-.58,13.27.58,17.2,5.55,2,2.48,3.77,6.94,1.29,14.11A2.37,2.37,0,0,1,1029.13,496.62Z"/><path class="cls-9" d="M1073.27,521a2.33,2.33,0,0,1,2.22-3.67,165.48,165.48,0,0,0,43.86,1,2.33,2.33,0,0,1,2.06,3.76c-3.88,5-11.82,12.51-24.36,12.23S1076.91,526.19,1073.27,521Z"/><path class="cls-6" d="M999.3,430.85l82.45-69.13L1175.1,407,1165,473.92c-3-30.75-21.63-20.45-31.55-29.26-10.07-8.93-14.65-23.1-37.65-10.05,0,0-19.12-12.62-28.44,5.88-7.21,14.3-17.43,11.79-27.55,12.73-11.93,1.11-8.85,12.67-16.16,12.43Z"/><path class="cls-3" d="M998.36,218.62a21.57,21.57,0,0,0-4.8-8.19c-17-24.54-56.07-10.07-112.91,6.36-9.5,2.75-7.59-10-11.95-35.42-2.82-16.51-20.73-37.59-38-32.16-28.42,8.94,5.94,22.65-1.81,85.75-4.14,33.71-39.35,26.64-30,56.25l21.22,67.42c3.63,11.53,8.26,22.25,25.12,18.95,16.34-3.2,16.32,9.12,39.09,1.95l114-35.89a22,22,0,0,0,14.46-27.59,21.71,21.71,0,0,0-8.41-11.31,21.62,21.62,0,0,0-3.26-32.94,21.76,21.76,0,0,0-5.54-34.46,21.81,21.81,0,0,0,2.79-18.72Z"/><path class="cls-11" d="M929.56,263.32l54.35-17.11a22.23,22.23,0,0,0,14.88-16,5.79,5.79,0,0,0-11.28-2.61,10.55,10.55,0,0,1-7.07,7.58l-55.65,17.52a10.44,10.44,0,1,1-6.27-19.92l37.19-11.7a5.77,5.77,0,1,0-3.47-11l-37.19,11.71a22,22,0,0,0-14.46,27.59A21.79,21.79,0,0,0,913.24,263a21.7,21.7,0,0,0,11.1,30.53A21.83,21.83,0,0,0,937,324.65a21.77,21.77,0,0,0-1,15.56,22,22,0,0,0,27.66,14.33l34.64-10.9a22.21,22.21,0,0,0,14.88-16,5.75,5.75,0,0,0-4.3-6.93,5.81,5.81,0,0,0-7,4.3,10.56,10.56,0,0,1-7.07,7.59l-34.65,10.91a10.44,10.44,0,1,1-6.27-19.92L995,310.69a22.19,22.19,0,0,0,14.88-16,5.79,5.79,0,0,0-11.27-2.63,10.42,10.42,0,0,1-7.07,7.6l-44.62,14a10.44,10.44,0,1,1-6.27-19.91l51.11-16.09a22.2,22.2,0,0,0,14.88-16,5.75,5.75,0,0,0-4.3-6.93,5.81,5.81,0,0,0-7,4.3,10.42,10.42,0,0,1-7.07,7.59l-52.51,16.53a10.44,10.44,0,1,1-6.27-19.92Z"/><path class="cls-12" d="M831.12,387.62l-35.49,11.17a9.33,9.33,0,0,1-11.71-6.1l-33.2-105.47a9.32,9.32,0,0,1,6.1-11.7l35.49-11.18A9.35,9.35,0,0,1,804,270.45l33.2,105.47A9.34,9.34,0,0,1,831.12,387.62Z"/><path class="cls-4" d="M804.51,396.59c4.77-1.79,7.73-2.64,8.43-9.91s.12-16.54,6.19-13.52,10.34,17.34,9.32,23.21C821.44,400.59,804.51,396.59,804.51,396.59Z"/><path class="cls-9" d="M777.89,433.53l-4.29,26.32L840,452.53l-14.43-25.4S799,426.73,777.89,433.53Z"/><path class="cls-3" d="M1487.94,546.84a21.74,21.74,0,0,0-7.4-6c-24.65-16.89-56,10.51-103.28,46.06-7.91,5.94-10.67-6.69-23.75-28.87-8.51-14.42-32.74-27.77-46.92-16.57-23.39,18.45,13.6,19.06,28.77,80.79,8.1,33-27.32,38.88-8.08,63.26L1371.07,741c7.48,9.48,15.62,17.87,30.21,8.79,14.13-8.8,18.49,2.72,37.23-12.07l93.81-74a22.07,22.07,0,0,0,3.71-30.93,21.77,21.77,0,0,0-11.88-7.58,21.89,21.89,0,0,0-2.9-22.06,21.66,21.66,0,0,0-11.85-7.58A21.76,21.76,0,0,0,1492,565.33a21.81,21.81,0,0,0-4-18.49Z"/><path class="cls-11" d="M1439.5,613.07l44.73-35.31a22.16,22.16,0,0,0,8.23-20.21,5.79,5.79,0,0,0-11.47,1.56,10.51,10.51,0,0,1-3.91,9.6l-45.8,36.15a10.44,10.44,0,1,1-12.93-16.39l30.6-24.15a5.77,5.77,0,1,0-7.15-9.06l-30.61,24.16a22.05,22.05,0,0,0-3.71,30.93,21.82,21.82,0,0,0,16.66,8.22,21.7,21.7,0,0,0,21.22,24.6,21.83,21.83,0,0,0,22.93,24.57,21.74,21.74,0,0,0,4.57,14.9,22,22,0,0,0,30.94,3.58l28.51-22.5a22.18,22.18,0,0,0,8.24-20.21,5.79,5.79,0,0,0-11.47,1.54,10.55,10.55,0,0,1-3.92,9.61l-28.51,22.5a10.44,10.44,0,1,1-12.93-16.39l33.82-26.69a22.2,22.2,0,0,0,8.24-20.22,5.79,5.79,0,0,0-11.47,1.55,10.43,10.43,0,0,1-3.91,9.61l-36.72,29a10.44,10.44,0,1,1-12.94-16.39l42.06-33.2A22.17,22.17,0,0,0,1511,584.2a5.79,5.79,0,0,0-11.47,1.54,10.41,10.41,0,0,1-3.92,9.61l-43.21,34.11a10.44,10.44,0,1,1-12.94-16.39Z"/><path class="cls-12" d="M1391.64,764.23l-29.21,23a9.32,9.32,0,0,1-13.1-1.54l-68.51-86.8a9.34,9.34,0,0,1,1.55-13.11l29.2-23.05a9.33,9.33,0,0,1,13.11,1.55l68.51,86.79A9.33,9.33,0,0,1,1391.64,764.23Z"/><path class="cls-4" d="M719.4,1498l23.27-91.64-57.73-7.95c-2,43.34-5.22,86-4.94,97.57Z"/><path class="cls-4" d="M581.65,1397.86H521.38c2,14.44,9.88,92.66,9.88,92.66,5.1,11.56,50,8.92,50,2.42C577.88,1478.85,581.37,1399.66,581.65,1397.86Z"/><path class="cls-8" d="M680.21,1433.68l59.44,8.77L780.87,1196C772.38,1102.42,690,903.41,690,903.41l-92.81,32.51L595,1023.68l111.78,189.26C692.16,1249.54,682.19,1367.87,680.21,1433.68Z"/><path class="cls-7" d="M634.27,910c-.85-5.78-1.14-7.58-5.95-10.47l-89.14-25.28L518,895.2c-20.09,72.95-7.64,174.44,8.21,255-23.21,69.71-14.13,213.41-4.79,281h63.38c3.68-45.15,2.53-128.89,2.81-169.34h0c8.21-32.51,16.13-67.18,23.21-103.66,9.05-46.59,20.37-91.74,23.49-134C637.1,984,637.94,941.06,634.27,910Z"/><path class="cls-6" d="M676.61,649.45c34.22-7.26,108.33-33.61,81.34-85.21s-43.53-33.5-23.62-88.92-14.48-105.9-54.74-99.87-54.44,36-100.77,21.52S487,421.43,499.51,462.35s17.62,60.49-2,79.48-98,31.56-73.66,86.89S463,682.9,448.5,707.54s6.53,57.87,50.69,59.82,85.91-9.11,108.61-55.59S676.61,649.45,676.61,649.45Z"/><path class="cls-4" d="M556.29,495.78c-4.74,44.63,19.84,83.83,54.89,87.54s67.31-29.44,72-74.07-19.84-83.82-54.89-87.54S561,451.15,556.29,495.78Z"/><path class="cls-4" d="M566.17,549.19l55.34,34.31s4.91,24.45,7.36,32.39c5.06,16.37-14.32,23.53-30.7,13.34a114.72,114.72,0,0,1-27-23.84Z"/><path class="cls-6" d="M697.43,490c-16.21-1.1-28.07-12.07-38.39-29-20.49,43.16-101.82,55.62-106.84,46.52,3.56-31.43,11.2-79.86,70.86-95.07C669.94,400.46,697.43,490,697.43,490Z"/><path d="M665,513.14a6.13,6.13,0,1,0,2.76-8.21A6.13,6.13,0,0,0,665,513.14Z"/><path d="M616.67,507.78a6.63,6.63,0,1,0,3-8.9A6.64,6.64,0,0,0,616.67,507.78Z"/><path class="cls-6" d="M680.79,505.09a2,2,0,0,0,.67-.35,2.3,2.3,0,0,0,.44-3.23,16.18,16.18,0,0,0-15.38-6.14,2.31,2.31,0,0,0,.87,4.53,11.6,11.6,0,0,1,10.84,4.41A2.29,2.29,0,0,0,680.79,505.09Z"/><path class="cls-10" d="M653.71,521.62c1.63,4.54,2.85,9,4.94,12.18a2.44,2.44,0,0,1-.61,3.28c-4.26,3.11-12.72,3.43-17.77,3.32a.65.65,0,0,1-.17-1.27c6-1.81,9-3.74,10.51-4.9a2.91,2.91,0,0,0,1.07-2.4c-.09-2.12-.23-6.44-.09-9.89A1.09,1.09,0,0,1,653.71,521.62Z"/><path class="cls-4" d="M571.08,515.18c6.58,8.25,6.44,19.31-.32,24.69s-17.56,3.06-24.14-5.19-6.43-19.31.32-24.69S564.5,506.93,571.08,515.18Z"/><path class="cls-10" d="M564.35,533a2.4,2.4,0,0,0,.81-.68c3.2-4.26,3.5-9,.8-12.79a11.1,11.1,0,0,0-12.18-4.18,2.31,2.31,0,1,0,1.45,4.38,6.56,6.56,0,0,1,7,2.49c1.51,2.09,1.24,4.69-.74,7.32a2.31,2.31,0,0,0,2.88,3.46Z"/><path class="cls-13" d="M692.82,691.59,677.4,627.2c-8.6-4.74-49.43-14.54-49.43-14.54l-4.84,15.71-45.51-23-53.44,8.14c-8.9,38.57-1.82,50.31.85,96.33,1.48,21.65.82,74.6,5.56,112.16-19.57,44.32-31.65,86-32,98.82,0,0,142.61,31.94,147.35,31.94l10.67-28.08L677.12,947C681,945,703.8,918,703.8,918c-9.19-34.51-14.32-89.6-14.32-89.6Z"/><path class="cls-14" d="M570.59,598.15l-30.49,13c2.69,30.63,78.69,48.52,78.69,48.52l4.34-31.26Z"/><path class="cls-14" d="M623.13,628.37l13.59,18.41S652.28,628.15,646,617s-20.32-14.09-20.32-14.09Z"/><path class="cls-10" d="M636.45,564.24a23.65,23.65,0,0,1-4.43-.42c-10.83-2.09-16.9-11.17-17.15-11.56a2.58,2.58,0,1,1,4.31-2.83h0c.06.07,5.19,7.68,13.87,9.33,5.65,1.07,11.66-.59,17.88-4.93a2.58,2.58,0,1,1,3,4.23C648,562.17,642.16,564.24,636.45,564.24Z"/><path class="cls-3" d="M883.71,663.73A26.49,26.49,0,0,0,880,652.65c-14.45-33.85-65.15-26.1-137.81-20.41-12.14,1-6.66-14-5.6-45.71.69-20.63-15.67-50.52-37.81-48.26-36.51,3.72,1.54,28.82-23.51,103-13.39,39.64-54.11,22.35-50.23,60.41l8.83,86.62c1.51,14.81,4.43,28.9,25.59,29.11,20.52.2,17.42,15.06,46.69,12.08l146.46-14.94a27.17,27.17,0,0,0,24.31-29.7,26.81,26.81,0,0,0-7.33-15.73,26.65,26.65,0,0,0,4.26-40.56,26.81,26.81,0,0,0,1.89-43,26.82,26.82,0,0,0,8-21.89Z"/><path class="cls-11" d="M789.58,700.54l69.83-7.12a27.35,27.35,0,0,0,21.92-15.57,7.13,7.13,0,0,0-13-6A13,13,0,0,1,858,679.28l-71.51,7.29A12.86,12.86,0,1,1,783.84,661l47.79-4.88A7.11,7.11,0,1,0,830.19,642l-47.8,4.87a27.17,27.17,0,0,0-24.3,29.7A26.85,26.85,0,0,0,770,696.1a26.75,26.75,0,0,0,5.8,39.6,26.89,26.89,0,0,0,7.58,40.7,26.84,26.84,0,0,0-5.1,18.52A27.16,27.16,0,0,0,808,819.09l44.52-4.54A27.31,27.31,0,0,0,874.48,799a7.08,7.08,0,0,0-3.46-9.43,7.17,7.17,0,0,0-9.48,3.45,13,13,0,0,1-10.42,7.4L806.6,805A12.86,12.86,0,1,1,804,779.37L856.8,774a27.35,27.35,0,0,0,21.93-15.57,7.13,7.13,0,0,0-13-6,12.82,12.82,0,0,1-10.42,7.41L798,765.69a12.87,12.87,0,1,1-2.61-25.6l65.68-6.69A27.35,27.35,0,0,0,883,717.84a7.13,7.13,0,0,0-12.94-6,12.88,12.88,0,0,1-10.43,7.4l-67.47,6.87a12.86,12.86,0,1,1-2.6-25.59Z"/><path class="cls-12" d="M639.88,826l-45.61,4.65a11.49,11.49,0,0,1-12.6-10.27L567.85,684.88a11.51,11.51,0,0,1,10.27-12.6l45.61-4.65a11.5,11.5,0,0,1,12.6,10.27l13.82,135.52A11.5,11.5,0,0,1,639.88,826Z"/><path class="cls-4" d="M680.91,830.7c-8.59-1.31-17.87-6.2-24.82-1.23L645,809.34c19.31-19.93,54.78-20.47,58.31-20,9.18,1.14,13.56,1.11,14,2.47s.92,9.85-12.49,8.61c-16.83-1.56-8.76,13.9,27.21,8.57,9-1.33,23.82,6.1,16.83,11C741.19,825.29,720,836.64,680.91,830.7Z"/><path class="cls-4" d="M506.6,778.65c-13.35,4.53-21.16,46.49-17.43,49.72,57,22.91,169.65.59,169.65.59l9.72-20.82S581.65,799.92,506.6,778.65Z"/><path class="cls-4" d="M486.83,653.08c-8.75,37.85-6.66,164.5,2.34,175.29l45.74-31s13.6-127.15,15.11-148.8C552.73,611.08,501,591.26,486.83,653.08Z"/><path class="cls-14" d="M486.83,653.08c-8.75,37.85-19.09,144.81-10.09,155.6L542,777.82s6.55-107.58,8.06-129.23C552.73,611.08,501,591.26,486.83,653.08Z"/><path class="cls-15" d="M471.93,808.55l70-30.73s4.86,0,3.45,5.58c0,0,11.18,2.07,13.45,8.4l-48.49,51.84s-16.14-1.49-20.69-14.81C489.43,828.71,472.79,823.7,471.93,808.55Z"/><path id="c-2" data-name="c" class="cls-4" d="M864,641.8a6.75,6.75,0,0,1-.94-1.83l-.28.23c-5.66,4.29-12.75,4.48-15.83.42a6.66,6.66,0,0,1-1.09-2.2c-4.31,1.38-8.56.66-10.76-2.25a7.15,7.15,0,0,1-1.39-4c-4.22,1.66-8.8.85-11.26-2.4-3.09-4.07-1.66-10.34,3.17-14s11.25-3.34,14.33.72a8,8,0,0,1,1.49,3.44c5.33-3.18,11.39-3,14.18.68a7.07,7.07,0,0,1,1.09,2.2c4.31-1.38,8.55-.66,10.75,2.25a7.06,7.06,0,0,1,1.38,3.68c3.67-1.64,7.79-1,9.95,1.84,2.6,3.44,1.4,8.73-2.68,11.83S866.6,645.24,864,641.8Z"/><path class="cls-6" d="M705.36,1496.49c6-15.85,18.94-17.61,18.94-17.61,25.09,33.46,86.69,12.93,84.65,58.18-93.68-.58-132.61,0-132.61,0,.12-10.39,2-35.06,4.13-44.72l4.88.87Z"/><path class="cls-9" d="M676.34,1535.82H809a0,0,0,0,1,0,0v7.86a5.47,5.47,0,0,1-5.47,5.47H681.81a5.47,5.47,0,0,1-5.47-5.47v-7.86A0,0,0,0,1,676.34,1535.82Z"/><path class="cls-6" d="M592,1537.5s-7.52-28.06-8.18-31.66c-.76-4.1-3-13.79-3.42-18.76-.11-1.22-13-9.12-22.88-9.1-13.36,0-25.53,7.76-25.78,9.22-1.57,9.36-1.62,20.37-4.17,29.49-1.9,6.78-7.06,22.59-7.06,22.59Z"/><path class="cls-9" d="M592,1535.32c-1.75,5.57-23.38-.85-39.16-.85-13.25,0-30.39,5.14-32.34,3.14-3.31,5.85-.58,18-.58,18s13.81.71,30.36,0,35.7.34,42.91-1.8C597.75,1546.18,592,1535.32,592,1535.32Z"/><g id="c-3" data-name="c"><polygon id="v-2" class="cls-4" points="3023.04 542.75 3023 542.75 2992.56 542.86 2985.66 608.82 2985.66 614.77 3021.2 633.53 3059.1 614.98 3052.97 542.86 3023.04 542.75"/><path class="cls-4" d="M3106.68,511c-18.74,46.83-63.74,72.85-100.51,58.14s-51.4-64.61-32.66-111.43,63.74-72.85,100.51-58.13S3125.42,464.19,3106.68,511Z"/><path d="M2989.5,473.09a6.89,6.89,0,1,1-1.72-9.59A6.9,6.9,0,0,1,2989.5,473.09Z"/><path d="M3041.09,494.15a7.46,7.46,0,1,1-1.86-10.38A7.46,7.46,0,0,1,3041.09,494.15Z"/><path class="cls-10" d="M3000,484.08c-9.31,7.34-21,16.2-21,16.2s-.12,11.23,13,16.1c-4.75-4.31-8.91-10-4-16.66S3000,484.08,3000,484.08Z"/><path class="cls-5" d="M3054.67,489.66a3.7,3.7,0,0,0,.8-.09,3.44,3.44,0,0,0,2.54-4.15c-1.2-5-6.24-14.58-16.72-14.63a3.44,3.44,0,1,0,0,6.87c7.76,0,10.06,9.27,10.08,9.36A3.43,3.43,0,0,0,3054.67,489.66Z"/><path class="cls-5" d="M2996.71,458.52a2.83,2.83,0,0,0,1.45-.4,2.87,2.87,0,0,0,1-3.92c-.12-.21-3.14-5.25-8.82-6.3-3.89-.72-7.91.55-11.94,3.78a2.86,2.86,0,1,0,3.58,4.47c2.68-2.14,5.14-3,7.31-2.62a8.3,8.3,0,0,1,4.93,3.57A2.86,2.86,0,0,0,2996.71,458.52Z"/><path class="cls-5" d="M3132.27,476c15.85-45.12-22.76-71.06-22.76-71.06s10.36-.93,11.6-15.47A38.25,38.25,0,0,1,3097,389c-51.45-18.63-86.88-18.38-86.88,3.64,0,7.83-35.2,2.92-32.35,55.63,4.73-4.94,13.16-25.84,24.63-28s1.12,13.17,25.09,16.46c24.2,3.32,42-2.55,56.77,11.09,11.57,11.91,14.44,72.47,12.68,76.11C3101,515.56,3125.3,495.87,3132.27,476Z"/><path class="cls-5" d="M2966.42,484.08s-2.19,27.47,1.77,36c4.13-11,13,.66,21.29,1.76,20.09,2.66,56.34-4,59.93,26.09,24.55,7.77,47.55-44.78,47.55-44.78,1.41,58.71-41.56,92-103.38,82.28C2952.84,579,2949.06,522.25,2966.42,484.08Z"/><path class="cls-10" d="M3008.77,540.37a52,52,0,0,0,12.4-4.86,2.29,2.29,0,1,0-2.16-4c-9.51,5.08-18,6.53-25.34,4.3a23.9,23.9,0,0,1-13.2-10.44,2.29,2.29,0,0,0-4.06,2.13,28.16,28.16,0,0,0,15.84,12.67A30.94,30.94,0,0,0,3008.77,540.37Z"/><path class="cls-4" d="M3097.54,503.5c-10.34,5.81-14.87,17.38-10.12,25.84s17,10.61,27.33,4.81,14.87-17.38,10.12-25.84S3107.88,497.7,3097.54,503.5Z"/><path class="cls-10" d="M3099.11,528.85a2.53,2.53,0,0,1-.79-.89c-2.84-5.26-2.38-10.62,1.25-14.34A12.48,12.48,0,0,1,3113.8,511a2.59,2.59,0,0,1-2.34,4.63,7.4,7.4,0,0,0-8.18,1.59c-2,2.07-2.16,5-.4,8.27a2.59,2.59,0,0,1-3.77,3.35Z"/><path d="M2967.48,1483.49c-26.92,37.14-93,14.35-90.84,64.58,100.53-.64,142.31,0,142.31,0-.13-11.54-2.12-38.92-4.44-49.64Z"/><path d="M3126,1483.49c-26.92,37.14-93,14.35-90.84,64.58,100.53-.64,142.31,0,142.31,0-.13-11.54-2.12-38.92-4.44-49.64Z"/><path class="cls-5" d="M2921.71,915.67s-29.15,246.63-22.52,299.56,42.94,112.19,40.28,287.24c32.77,8.21,80.25,0,80.25,0s7-197.94-27.6-286.35c14.08-85.87,59.29-282.57,59.29-282.57Z"/><path class="cls-6" d="M2983,923s33,267.25,49.09,317.94,38.15,89.1,67.35,261.55c33.68,1.69,74.5,4.45,74.5,4.45s-4.55-218.74-57-268.49c-1.78-87.08,8.48-313.73,8.48-313.73Z"/><g id="v"><path id="h-5" class="cls-7" d="M3134.9,619.66s-57.24-20-76.32-10.84c-59.31,28.55-72.92,0-72.92,0-20.8-4.62-69.94-4.62-69.94-4.62-6.22,83-16.53,348.51-16.53,348.51s63.11,16.54,122.81,17c59.7-.39,120.46-16.3,120.46-16.3s-3.19-116-5.84-159.19C3137.48,745.84,3134.9,683.38,3134.9,619.66Z"/></g><g id="c-4" data-name="c"><path class="cls-4" d="M3167.35,873.14l-10.88,13.44s-4-18.33-16.58-15.86v19.64s-7.1,11.32-37,3c-27.15.46-11.6,16.56-19.8,20-12.1,5,15.67,24.5,42.29,22,34.44-3.17,36.73-10.94,36.73-10.94l20.42-14.73Z"/></g><path class="cls-8" d="M3134.9,619.66c52.3,22.5,116.47,74.35,156,156.49,13.54,28.16-50.84,33.85-63.67,22.74s-92.29-94-92.29-94Z"/><path class="cls-8" d="M3159.58,880.92c45.74-61.52,66.18-110.21,80.93-117.71,19.74-10,52.22-9.54,52.21,24.83s-125.48,138.51-125.48,138.51Z"/><polygon class="cls-8" points="2915.72 604.2 2690.22 523.92 2655.08 577.02 2909.89 703.07 2915.72 604.2"/></g><path class="cls-4" d="M2318.33,592.39c4.51,12.85,45.09,20,48.17,16.33,21.54-55.3-1.16-163.77-1.16-163.77l-20.19-9.17S2338.1,519.74,2318.33,592.39Z"/><path class="cls-4" d="M2217.31,700.2c37.84-12.08,145-79.87,149.79-93.41l-44.83-24S2200.17,637,2180.34,647C2146,664.22,2155.57,720,2217.31,700.2Z"/><path class="cls-6" d="M2245.8,495.49c2.85-38.8-8.37-73.07-39.3-90.53-31.36-17.69-70.64-.34-70.64-.34h0s-33.24-11.83-63.37,21.36-7.34,62.4-19.67,86.61c-7.3,14.33-44.42,17.29-34.83,64,2.77,13.47,19,22.53,32.68,23.43,24.1,1.58,46.54-7.73,56.31,1.58,32.2,30.7,103.54,19.6,113.52-8.48,3.1-8.71,67.28,8.14,60.87-51.17C2278.13,511.88,2243.25,530.16,2245.8,495.49Z"/><path class="cls-13" d="M2249.4,817.61c0-32.43,28.11-81,14.64-113.76-9.82-26.34-26.21-70.56-46.29-77.93-9.47-3.48-19.21-5.91-31-9.17,0,0,3.67,21.58-10.21,22.69-26.71,2.15-40.74-32.1-40.74-32.1-14.4-1.37-80,20-83.06,30.57.16,42.49,37.31,99.66,48.59,145.59,4.44,49.61-6.16,76.1-6.22,81.74,0,0,93.79,31.34,156.78-3.34C2251.88,861.9,2249.4,839.52,2249.4,817.61Z"/><path class="cls-4" d="M2174.11,579.29l-41.37-6.2,2.12,34.19s11.31,37.76,34.84,38.29,17-28.82,17-28.82Z"/><path class="cls-4" d="M2094.46,523.76c10.68,44.61,47.74,74,82.78,65.58s54.77-51.35,44.09-96-47.74-74-82.77-65.58S2083.78,479.16,2094.46,523.76Z"/><path d="M2204.91,505.11a6.27,6.27,0,1,0,2.82-8.41A6.27,6.27,0,0,0,2204.91,505.11Z"/><path d="M2155.71,517.24a6.78,6.78,0,1,0,3-9.09A6.77,6.77,0,0,0,2155.71,517.24Z"/><path class="cls-6" d="M2148.21,511.63a2.35,2.35,0,0,0,1.08-1.12c3.4-7.33,12.59-8.76,12.68-8.78a2.35,2.35,0,0,0-.67-4.66c-.48.06-11.79,1.77-16.28,11.46a2.35,2.35,0,0,0,3.19,3.1Z"/><path class="cls-6" d="M2218.58,496a2.39,2.39,0,0,0,.62-.45,2.34,2.34,0,0,0,0-3.33,16.55,16.55,0,0,0-16.43-4,2.36,2.36,0,0,0,1.52,4.47,11.82,11.82,0,0,1,11.6,2.92A2.35,2.35,0,0,0,2218.58,496Z"/><path class="cls-10" d="M2200.88,518.73c3.44,3.53,6.46,7.18,9.74,9.25a2.48,2.48,0,0,1,.82,3.3c-2.66,4.71-10.4,8.58-15.14,10.59a.67.67,0,0,1-.7-1.11c4.79-4.2,6.85-7.29,7.72-9a3,3,0,0,0,0-2.68c-1-1.94-2.94-5.9-4.26-9.18A1.11,1.11,0,0,1,2200.88,518.73Z"/><path class="cls-4" d="M2111.32,524.05c8.51,6.62,11,17.64,5.6,24.61s-16.71,7.24-25.23.62-11-17.64-5.6-24.61S2102.81,517.43,2111.32,524.05Z"/><path class="cls-10" d="M2106.47,546.63a2.41,2.41,0,0,0,.84-.69c3.27-4.35,3.57-9.24.82-13.07a11.37,11.37,0,0,0-12.45-4.28,2.36,2.36,0,1,0,1.48,4.48,6.75,6.75,0,0,1,7.14,2.55c1.53,2.13,1.26,4.79-.76,7.49a2.35,2.35,0,0,0,2.93,3.52Z"/><path class="cls-9" d="M2162.16,554.29a1.87,1.87,0,0,1,1.72-3,133.42,133.42,0,0,0,35.41,0,1.87,1.87,0,0,1,1.72,3c-3,4.1-9.3,10.31-19.42,10.31S2165.19,558.39,2162.16,554.29Z"/><path class="cls-6" d="M2093.6,519.82c41.81-5.6,100.32-48.2,105.12-70.07-8.09-26.26-51.18-39.46-75.51-27.29S2075.89,486.77,2093.6,519.82Z"/><path class="cls-4" d="M2212.85,1448.84c-2.77-27.63,11.48-237.91,11.48-237.91,40.32-184.86,24.48-317.2,24.48-317.2l-69.29,4.87-27.31,104.47,12.95,174.46s-4.86,13.43-7.43,24.16c-13.91,58.24-.05,127.84,8.52,174.23,4,21.49,10.14,66.67,10.3,76.94l-17.41,22.51s63,69.72,72.7,70.16c18.84.85,13.29-17.8,13.29-17.8C2219.23,1501.13,2213.64,1456.75,2212.85,1448.84Z"/><path class="cls-7" d="M2158.07,1500.07l3.46,44.8,8,.37,4.08-41.61c21.43,5.47,36.79,44.37,36.79,44.37,14.76,5.29,52.29,8.92,65.64,2,3.23-13.08-31-22.26-31-22.26-3.09,3.66-21.37,6.47-27.86,2.54-23.91-20.35-35.56-49.94-40.66-77.46C2176.55,1452.86,2138.78,1455.49,2158.07,1500.07Z"/><path class="cls-4" d="M2189.41,907.18l-97.62-13.45c-37.34,84.49-49.51,231.59-59.65,284-40.69,68.23-53.61,275.13-53.61,275.13l-17.41,22.51s63,69.72,72.7,70.16c18.84.85,13.28-17.8,13.28-17.8-25.89-26.6-30.94-61.93-32.62-69.7-2.52-11.69,79-241.22,79-241.22l8.7-21.78c99.59-164.48,115.93-288.83,115.93-288.83Z"/><path class="cls-7" d="M1960,1500.07l3.47,44.8,8,.37,4.07-41.61c21.44,5.47,36.79,44.37,36.79,44.37,14.76,5.29,52.29,8.92,65.65,2,3.22-13.08-31-22.26-31-22.26-3.1,3.66-21.38,6.47-27.87,2.54-23.9-20.35-35.56-49.94-40.65-77.46C1978.53,1452.86,1940.76,1455.49,1960,1500.07Z"/><path class="cls-13" d="M2007.92,1168.13c9.75-32.62,5.72-262.53,91.78-326l147.9,12c34.22,55.39,21.67,199.54,10.14,318.18C2188.11,1197.19,2132.74,1207.17,2007.92,1168.13Z"/><path class="cls-3" d="M2882.62,222.16a54.88,54.88,0,0,0-12.09-20.87C2827.59,138.76,2728.29,175,2583.78,216c-24.16,6.85-19.16-25.59-29.87-90.09-7-41.95-52.15-95.71-96-82.17-72.26,22.33,14.8,57.6-5.73,217.69-11,85.54-100.26,67.12-77,142.44l53,171.46c9.06,29.31,20.66,56.6,63.52,48.44,41.53-7.91,41.31,23.37,99.23,5.47l289.9-89.6a56,56,0,0,0,37.07-69.88,55.16,55.16,0,0,0-21.19-28.81,54.93,54.93,0,0,0-7.84-83.69,55.26,55.26,0,0,0-13.62-87.56,55.34,55.34,0,0,0,7.34-47.49Z"/><path class="cls-11" d="M2707.33,334.74,2845.57,292a56.35,56.35,0,0,0,38-40.35,14.7,14.7,0,0,0-28.6-6.79,26.73,26.73,0,0,1-18,19.16l-141.54,43.74a26.5,26.5,0,1,1-15.66-50.64l94.59-29.23a14.65,14.65,0,1,0-8.65-28L2671,229.15a55.51,55.51,0,0,0-5.14,104.57,55.12,55.12,0,0,0,27.77,77.66,55.44,55.44,0,0,0,31.84,79.18,55.24,55.24,0,0,0-2.79,39.48,56,56,0,0,0,70,36.76l88.11-27.23a56.38,56.38,0,0,0,38-40.34A14.61,14.61,0,0,0,2908,481.57a14.77,14.77,0,0,0-17.75,10.83,26.82,26.82,0,0,1-18.07,19.18l-88.1,27.23a26.5,26.5,0,1,1-15.65-50.64L2873,455.87a56.37,56.37,0,0,0,38-40.36,14.69,14.69,0,0,0-28.58-6.83,26.5,26.5,0,0,1-18.06,19.2L2750.85,463a26.51,26.51,0,1,1-15.66-50.66l130-40.18a56.38,56.38,0,0,0,38-40.34,14.7,14.7,0,0,0-28.59-6.83,26.47,26.47,0,0,1-18.06,19.18L2723,385.4a26.51,26.51,0,1,1-15.66-50.66Z"/><path class="cls-12" d="M2455.74,649l-90.26,27.89a23.7,23.7,0,0,1-29.64-15.64l-82.9-268.23a23.7,23.7,0,0,1,15.64-29.64l90.27-27.9a23.69,23.69,0,0,1,29.63,15.65l82.9,268.23A23.7,23.7,0,0,1,2455.74,649Z"/><path class="cls-4" d="M2441.86,644.23c-9.42.57-20.39-2.5-26.63,4.36l-16.38-18.84c16-25.58,53.5-34.26,57.35-34.59,10-.88,14.66-1.92,15.44-.58s3.24,10.25-11.29,12c-18.23,2.18-6.12,16.76,30.85,2.89,9.26-3.48,26.69,1,20.38,7.8C2504.64,624.72,2484.69,641.62,2441.86,644.23Z"/><path class="cls-4" d="M2251.6,700c-8.79,12.54,11.28,54.32,16.62,54.76,64.7-16.52,149.07-108.35,149.07-108.35l-4.84-24.48S2331,670.46,2251.6,700Z"/><path class="cls-4" d="M2077.66,701.65c38.89,22,176.76,58.75,191.61,52.36l-14.42-55.37s-138.09-59.41-161.49-68.16C2052.88,615.23,2014.1,665.81,2077.66,701.65Z"/><path class="cls-1" d="M4650.92,1510.58c-11.54,5.92-23.57,8.1-29.12,0-4.8-7,12.43-18.85,29.12-25.75v-29c-9.84,6.31-19.92,10.89-29.12,11.5-14.86,1-14.74-7.5,10.63-22a138.17,138.17,0,0,0,18.49-12.5v-80.68c-17.25,27.74-52.64,81.13-64.79,73.56-17-10.47,59.38-77.88,63.6-100,2.55-13.48-25.8-70.64-25.8-70.64s-49.16,116.77-72.79,108.22c-11.38-4.09,57.26-105.55,47.14-124s-38.47-33.62-38.47-33.62-23.37,89.32-35.6,79c-9.84-8.3,21.12-66.92,14.72-90.61a63,63,0,0,0-36.45-42.33s-15.26,53.89-33,42.8c-6.94-4.35,17.8-42.62,15.57-59.55-23.75,1.28-44.34.89-59.85-11.5-.33,13.12-18.61,28.45-44.55,44.71,9.44,21.9,57.47,30.1,51.07,46.24-5.31,13.41-61.21-23.53-61.21-23.53s-20.25,26.67-10.12,54.07c7.93,21.26,59.89,42.82,51.14,53.49-10.81,13.18-67.75-36.12-66.31-31.38,11,36-4.62,79.73-4.62,79.73,25.52,66.52,127.83,83.75,113.67,99.68-12.63,14.17-110.43-54.1-110.43-54.1L4355.3,1440s53.34,53.17,123.51,68.6c-36.2,17.74-113.48-27.72-113.48-27.72s11.25,39.91,35.45,72.31h250.14Zm-269.74-279.07c4-5.2,53.27,17.15,46.41,30S4372.11,1243.11,4381.18,1231.51Zm80,155.4c-4.19,12.7-38.33-.24-57.5-12.29-24.63-15.47-37.32-33.81-29.34-42.11,8.72-9.09,25.39,8.42,48,19.19C4449.07,1364.52,4465.19,1374.64,4461.14,1386.91Zm3.06-62.65c-4.84,11.44-36.05-1.51-33.41-14.17C4432.51,1301.79,4469,1312.83,4464.2,1324.26Zm43.1,139c-5,13.49-38.85-2.44-33.22-14.67,4.37-9.5,38.22,1.19,33.22,14.67Zm-11.42-202.73c-13.46-4.54,8.53-48.19,20.76-41s-7.45,45.46-20.76,41Zm22.27-56.46a4.73,4.73,0,1,1,0,.05l-.06,0Z"/><polygon class="cls-2" points="4461.87 1225.26 4570.25 1553.2 4584.85 1553.2 4461.87 1225.26"/><polygon class="cls-2" points="4457.64 1407.66 4536.97 1425.48 4537.57 1434.17 4457.64 1407.66"/><polygon class="cls-2" points="4513.46 1362.82 4554.26 1286.28 4509.83 1353.14 4513.46 1362.82"/><polygon class="cls-2" points="4554.56 1484.42 4605.77 1434.88 4553.77 1470.31 4554.56 1484.42"/><path class="cls-1" d="M4894.37,1476.9q-35-43.51-13.53-115Q4918.25,1426.55,4894.37,1476.9Z"/><path class="cls-1" d="M4922.42,1410.63q-25.55-44,3.68-105.47Q4950.92,1368.58,4922.42,1410.63Z"/><path class="cls-1" d="M4953.52,1345q-17.85-45,18.19-98.6Q4986.29,1309.4,4953.52,1345Z"/><path class="cls-1" d="M5024.07,1208.22q.89,54.72-32.47,78.42Q4984.8,1246.17,5024.07,1208.22Z"/><path class="cls-1" d="M5071.39,1193.6q-7.38,45.21-38.32,59.76Q5033.43,1219.12,5071.39,1193.6Z"/><path class="cls-1" d="M5056.93,1254.59q12.57-31.85,57.19-42.1Q5091,1252.06,5056.93,1254.59Z"/><path class="cls-1" d="M5018.22,1438.19q-46.67,59.16-102.9,55.35Q4943.12,1444.66,5018.22,1438.19Z"/><path class="cls-1" d="M4958.6,1368.89q35-29.91,94.62-13.85Q5000.8,1387.41,4958.6,1368.89Z"/><path class="cls-1" d="M5069.47,1314.18q-45.61,28.21-82.33,12.06Q5017.6,1300.19,5069.47,1314.18Z"/><path class="cls-1" d="M5024.05,1289q30.49-26,82.33-12Q5060.73,1305.21,5024.05,1289Z"/><path class="cls-1" d="M4882.82,1550.85c19.59-86.88,22-79.9,42.39-130.41q8.28-20.48,17.67-38.84a389.55,389.55,0,0,1,47.17-69.87q31.24-38.49,54.31-50.71l1.46-1.71a1.38,1.38,0,0,1,1.53-.92,2.39,2.39,0,0,1,1.91-.05,4.41,4.41,0,0,1,1.23,1.64,2.44,2.44,0,0,1,.06,1.91l-.54,1.32a5.37,5.37,0,0,1-1.65,1.26v.31l-1.4.59q-22.29,12.44-52.66,49.59a382.23,382.23,0,0,0-46.15,69.5,409.86,409.86,0,0,0-17.71,38.09l-1.35,3.39q31.29-39.89,99.13-35.66-49.48,46.52-99.13,35.66c-19.79,49.74-21.57,41.28-40.64,126Z"/><path class="cls-4" d="M4402.8,437.87s.58,32.85,4,59.59c0,0,27.72-36.37,27.72-36.4-2.54-10.69-5.47-31-4.66-42.78C4430,415.24,4373.39,412.92,4402.8,437.87Z"/><path d="M4631,1483.23c-26,34.73-90,13.42-87.86,60.39,97.24-.6,137.64,0,137.64,0-.12-10.79-2.05-36.39-4.29-46.42Z"/><path d="M4776.44,1484.14c-26,34.73-90,13.42-87.86,60.39,97.23-.6,137.64,0,137.64,0-.13-10.79-2.05-36.39-4.29-46.42Z"/><path class="cls-5" d="M4586,953s-15.79,222.58-9.37,272.07,29.12,112.93,26.55,276.61c31.69,7.67,77.61,0,77.61,0s6.81-185.08-26.69-267.75c13.62-80.3,57.34-264.21,57.34-264.21Z"/><path class="cls-6" d="M4646,959.12s31.87,249.89,47.48,297.29,31.31,78.94,59.56,240.19c32.58,1.57,86.11,2.09,86.11,2.09s-12.88-198.09-63.61-244.61c-1.72-81.43,8.2-293.35,8.2-293.35Z"/><path class="cls-4" d="M4775.77,550.3c-17.28,43.17-58.77,67.17-92.68,53.6S4635.7,544.33,4653,501.15s58.78-67.17,92.69-53.6S4793.05,507.12,4775.77,550.3Z"/><path d="M4667.72,515.32a6.35,6.35,0,1,1-1.59-8.84A6.35,6.35,0,0,1,4667.72,515.32Z"/><path d="M4715.3,534.74a6.88,6.88,0,1,1-1.72-9.57A6.88,6.88,0,0,1,4715.3,534.74Z"/><path class="cls-10" d="M4677.37,525.46c-8.59,6.77-19.33,14.94-19.33,14.94s-.11,10.35,12,14.84c-4.38-4-8.22-9.25-3.67-15.36S4677.37,525.46,4677.37,525.46Z"/><path d="M4727.81,530.61a3.18,3.18,0,0,1-3.08-2.44c-.08-.34-2.21-8.6-9.29-8.63a3.17,3.17,0,0,1,0-6.34c9.67,0,14.32,8.85,15.43,13.5a3.17,3.17,0,0,1-2.35,3.82A3.12,3.12,0,0,1,4727.81,530.61Z"/><path d="M4674.37,501.89a2.63,2.63,0,0,1-2.27-1.29,7.73,7.73,0,0,0-4.59-3.32c-2-.35-4.25.46-6.71,2.43a2.64,2.64,0,0,1-3.3-4.13c3.72-3,7.43-4.15,11-3.48,5.24,1,8,5.61,8.14,5.81a2.63,2.63,0,0,1-.95,3.61A2.6,2.6,0,0,1,4674.37,501.89Z"/><path d="M4763.72,554.8c-12.5-40.17,3.3-61.52,3.3-61.52-10.72-2.14-14.89,1.57-14.89,1.57-5.85-12-1.32-20.63-1.32-20.63-22.18-8.64-33.22,5.72-53.22,10.56-27.4,6.62-61.23-4.31-64.4-37.75a5.71,5.71,0,0,1,8.9-5.27,25.13,25.13,0,0,0,14.92,4.36,26.93,26.93,0,0,1-6-15.43,5.71,5.71,0,0,1,9.43-4.44c5.69,4.74,16.26,9.22,35.1,5.69,12.54-2.35,41.24-22.43,59.12-18.51,14.62,3.2,26.22,15.64,31.21,33.45,0,0,35.93,3.72,39.53,43.26,3.54,38.85-41.46,68.66-41.46,68.66Z"/><path class="cls-4" d="M4758.82,548.1c-9.51,5.39-13.65,16.07-9.24,23.86s15.7,9.73,25.22,4.34,13.65-16.08,9.24-23.86S4768.33,542.71,4758.82,548.1Z"/><path class="cls-10" d="M4760.36,571.47a2.31,2.31,0,0,1-.73-.82c-2.64-4.84-2.23-9.79,1.09-13.23a11.52,11.52,0,0,1,13.12-2.46,2.39,2.39,0,1,1-2.14,4.28,6.84,6.84,0,0,0-7.54,1.5c-1.85,1.92-2,4.62-.34,7.62a2.39,2.39,0,0,1-3.46,3.11Z"/><path class="cls-9" d="M4660,569a2,2,0,0,1,2.13-3,173.42,173.42,0,0,0,18.88,3,168.82,168.82,0,0,0,19.1.42,2,2,0,0,1,1.56,3.38c-3.65,4.1-11,10.17-21.82,9.2S4662.87,573.72,4660,569Z"/><path class="cls-5" d="M4608.83,623.5s-4.85-2.12-127.68-31.82a.11.11,0,0,0-.1,0l-46.47,34.53a.13.13,0,0,0,0,.18c30.35,38.42,169,68.68,169,68.68l5.24-71.57Z"/><polygon class="cls-1" points="4665.22 622 4709.35 617.88 4752.05 629.79 4703.94 679.3 4665.22 622"/><path class="cls-4" d="M4680.52,644.72c18,14.77,23.4,25,59.86,5.24l5.73-58.74-62.2-4.91Z"/><path class="cls-1" d="M4763.38,653.44h0l-13.08-5.18,1.75-18.47-36.28,29.14-10.25,1.63-9.79-3.43L4665.22,622l-1.57,18.49-11.54,2.32h0l-41.62,6.74-4.95,231-16.42,78.59c55.23,18.37,117,23,177.69,14.59l-2-78.9,43.12-225.74Z"/><polygon class="cls-6" points="4697.54 683.89 4671.48 860.25 4685.91 880.31 4704.73 865.85 4711.14 685.35 4697.54 683.89"/><polygon class="cls-6" points="4695.99 663.07 4705.52 660.56 4715.23 664.79 4711.12 685.7 4697.46 684.48 4695.99 663.07"/><path class="cls-6" d="M4664.61,624l-7,212.94-28.2,137.18s-44.59-4.5-72-30.57l35.11-103.27,15.23-217.14Z"/><polygon class="cls-16" points="4664.61 624.01 4657.61 834.09 4625.15 673.01 4664.61 624.01"/><path class="cls-6" d="M4755.38,637.11l-57.91,345.38s76.85,9.44,108.45-11.34l-17.15-113.54,21-192.75Z"/><polygon class="cls-16" points="4755.38 637.11 4721.54 839.54 4782.14 686.81 4755.38 637.11"/><path class="cls-5" d="M4390.06,456c19.28-6.43,29.42-9.32,44.41-9.32,35.44,105.62,60.71,145.41,50.17,175.73-8.78,25.28-36.58,23.26-50.17,4.32C4416.55,601.69,4400.67,506.76,4390.06,456Z"/><path class="cls-3" d="M4669.2,1119a19.19,19.19,0,0,1-.27-8.38c1.15-26.35,37.1-34,87.27-48.48,8.39-2.43.94-11.07-7.78-32.07-5.67-13.65-2.24-37.83,13.18-41.9,25.42-6.72,6.24,19.71,41.77,63.14,19,23.21,41.93,1.34,48.93,27.84l15.94,60.32c2.73,10.32,4.33,20.5-9.81,26-13.71,5.31-7.88,14.49-28.26,19.88l-102,27a19.47,19.47,0,0,1-23.8-13.78,19.2,19.2,0,0,1,.95-12.4,19.1,19.1,0,0,1-13.1-26.13,19.21,19.21,0,0,1-12.11-28.33A19.26,19.26,0,0,1,4669.2,1119Z"/><path class="cls-11" d="M4741.63,1120,4693,1132.81a19.61,19.61,0,0,1-18.62-4.91,5.11,5.11,0,0,1,7.18-7.27,9.3,9.3,0,0,0,8.85,2.33l49.8-13.16a9.22,9.22,0,1,0-4.71-17.82l-33.28,8.79a5.09,5.09,0,1,1-2.6-9.85l33.28-8.79a19.46,19.46,0,0,1,23.8,13.78,19.24,19.24,0,0,1-3,16.11,19.17,19.17,0,0,1,6.11,28,19.28,19.28,0,0,1,5.19,29.22,19.17,19.17,0,0,1,8.09,11.13,19.45,19.45,0,0,1-13.88,23.73l-31,8.2a19.6,19.6,0,0,1-18.63-4.9,5.08,5.08,0,0,1-.06-7.21,5.13,5.13,0,0,1,7.23-.07,9.33,9.33,0,0,0,8.86,2.33l31-8.19a9.21,9.21,0,1,0-4.7-17.82l-36.78,9.72a19.62,19.62,0,0,1-18.63-4.91,5.11,5.11,0,0,1,7.17-7.28,9.2,9.2,0,0,0,8.86,2.34l39.92-10.55a9.22,9.22,0,1,0-4.71-17.82L4702,1160a19.61,19.61,0,0,1-18.64-4.9,5.11,5.11,0,0,1,7.18-7.28,9.16,9.16,0,0,0,8.85,2.33l47-12.41a9.22,9.22,0,1,0-4.71-17.83Z"/><path class="cls-12" d="M4873.7,1166.32l31.76-8.39a8.24,8.24,0,0,0,5.86-10.07l-24.94-94.37a8.24,8.24,0,0,0-10.07-5.86l-31.76,8.39a8.24,8.24,0,0,0-5.86,10.07l24.94,94.37A8.23,8.23,0,0,0,4873.7,1166.32Z"/><g id="c-5" data-name="c"><path class="cls-4" d="M4866.07,1017.91l.58,25.28s-18-.54-18.67,11.79l16.94.52s10.31,13.32-4.46,39.3c-5.9,25.45,12.76,14.68,14,23.14,1.89,12.48,26.52-8.92,30.44-34.34,5.06-32.9-1.66-36.86-1.66-36.86l-7.45-25Z"/></g><path class="cls-5" d="M4809.73,664.86c29.37,3.06,101.86,184.23,101.86,184.23L4906.82,1032l-47.58-7.68-10.8-156.12-50.16-98Z"/><path class="cls-9" d="M4705.52,660.56s-16.42,16.58-31.53,20.82l-17.76-47,9-12.4Z"/><path class="cls-9" d="M4705.52,660.56a79.12,79.12,0,0,0,27.32,26.1l25.93-43.26-6.72-13.61Z"/><path class="cls-4" d="M3994.37,350.47c-.51,8.39,1.75,17.93-1.16,25.94l18.68,9.84c22.78-14.21,25.89-45.13,26.19-48.56.79-8.91,1.7-13.05.51-13.75s-9.13-2.88-10.68,10.06c-1.95,16.23-14.93,5.45-2.57-27.48,3.09-8.25-.93-23.77-7-18.16C4011.75,294.55,3996.7,312.32,3994.37,350.47Z"/><polygon class="cls-4" points="4149.87 1470.84 4147.24 1497.89 4169.88 1504.76 4188.06 1485.35 4191.05 1474.18 4149.87 1470.84"/><polygon class="cls-4" points="4079.2 1493.76 4076.04 1469.17 4124.16 1465.93 4123.58 1493.66 4079.2 1493.76"/><path class="cls-5" d="M4118.23,463.33c-26.31-23.93-73-22.37-80.16,15.1s-4.7,62.41-51.34,56.61c-37.15-4.61-75.34,28.74-75.31,81.16,0,67.06,46.49,40.94,35.73,74.07s-17.68,66.73,30.26,67.81,85.16-39.09,79.53-93.6S4086.21,630,4096.36,603C4110.79,564.66,4118.23,463.33,4118.23,463.33Z"/><path class="cls-14" d="M4222.17,924.63s34.73,220,25.36,314.24-56.48,235.31-56.48,235.31l-41.18-3.34s2.59-14.47,1.27-69.92-9.61-133.59,22.39-170.56c-4-72.09-49.37-305.73-49.37-305.73Z"/><path class="cls-14" d="M4051.33,917.23c-18,64.69-19,244-4.09,347.52s28.8,204.42,28.8,204.42l48.12.68V1218.54c0-44.37,12-181.15,12-181.15l15-112.76Z"/><ellipse class="cls-4" cx="4144.45" cy="537.92" rx="58.23" ry="78.28"/><path class="cls-4" d="M4121.77,600.17v83.18s27.73,14.78,51.76,0c-3.7-18.49-5.89-77.37-5.89-77.37Z"/><path class="cls-17" d="M4072.16,645h138s24.78,55.64,21.41,103.27-9.41,177.24-9.41,177.24S4104.54,937,4050.5,920.32a1926.1,1926.1,0,0,1,1.66-204.71C4054.16,683.86,4072.16,645,4072.16,645Z"/><path class="cls-13" d="M4121.77,645c-3.52-1.65-34.71-2.9-34.71-2.9s-47.9-99.9-64.61-129.61c-11.39-47.71-10.56-126.28-10.56-126.28l-18.68-9.84s-31.28,93.73-23.45,137.08c2.07,11.43,61.06,164.38,61.06,164.38S4016.41,859.39,4009,902.34c51.5,11.51,85,2.95,85,2.95Z"/><path class="cls-13" d="M4169.65,645l26.21,260.25s21.51,6.92,67.72-6.82c1.85-55-17.81-227.77-17.81-227.77s41.2-68.05,66.15-168.32c-1.85-37.8-18.24-124.44-18.24-124.44l-47.86-2.55,17,122.37s-58.74,128.13-64.77,146.62C4177.72,642.89,4169.65,645,4169.65,645Z"/><path class="cls-6" d="M4082.34,537.92c32.15-4.12,62-22,78.92-45.18,10.9,27.06,41.42,45.18,41.42,45.18s22.87-51.76-18.72-79.68C4144.28,431.61,4049.61,449.81,4082.34,537.92Z"/><path d="M4120,554.62a6.19,6.19,0,1,1,6.19-6.19A6.19,6.19,0,0,1,4120,554.62Z"/><path d="M4169.27,554.62a6.19,6.19,0,1,1,6.19-6.19A6.19,6.19,0,0,1,4169.27,554.62Z"/><path class="cls-6" d="M4180.18,542.85a3,3,0,0,1-2.56-1.45c-1.53-2.58-3.38-4.13-5.5-4.6-3.67-.81-7.31,1.64-7.34,1.67a3,3,0,0,1-3.4-4.88c.23-.16,5.73-4,11.95-2.6,3.83.82,7,3.3,9.4,7.37a3,3,0,0,1-2.55,4.49Z"/><path class="cls-6" d="M4108.21,543.16a3,3,0,0,1-2.32-4.84c3.91-4.87,8.23-7.53,12.85-7.89a14.49,14.49,0,0,1,10.24,3.38,3,3,0,0,1-4,4.4,8.56,8.56,0,0,0-5.85-1.84c-2.9.25-5.79,2.16-8.6,5.67A3,3,0,0,1,4108.21,543.16Z"/><path class="cls-10" d="M4150.59,556.55c8,5.78,10.5,8.15,13.59,10.07-2.14,7.15-13.34,10.7-16.53,9.87,7.81-3.85,8.9-9.06,8.9-9.06Z"/><path class="cls-4" d="M4094.91,544c6.68,8.45,7,19.31.74,24.25s-16.75,2.11-23.42-6.34-7-19.32-.74-24.26S4088.24,535.5,4094.91,544Z"/><path class="cls-10" d="M4089.06,562.21a2.07,2.07,0,0,1-.77-.15,2,2,0,0,1-1.06-2.6c1.42-3.35,1.45-6,.1-8-2.09-3-7-4-10.59-3.85a2,2,0,1,1-.13-4c4.8-.16,11,1.22,14,5.56,1.49,2.17,2.75,6,.29,11.8A2,2,0,0,1,4089.06,562.21Z"/><path class="cls-9" d="M4129,587.06a1.8,1.8,0,0,1,1.9-2.71,151.36,151.36,0,0,0,16.81,2.63,149.4,149.4,0,0,0,17,.38,1.81,1.81,0,0,1,1.4,3c-3.25,3.65-9.77,9-19.44,8.19S4131.55,591.23,4129,587.06Z"/><path class="cls-7" d="M4170.42,1501.76c5.62-14.76,17.64-16.41,17.64-16.41,23.36,31.16,80.73,12,78.83,54.19-87.24-.54-123.5,0-123.5,0,.11-9.68,1.84-32.66,3.85-41.65l4.55.81Z"/><path class="cls-9" d="M4143.39,1538.38h123.55a0,0,0,0,1,0,0v7.32a5.09,5.09,0,0,1-5.09,5.09H4148.48a5.09,5.09,0,0,1-5.09-5.09v-7.32A0,0,0,0,1,4143.39,1538.38Z"/><path class="cls-7" d="M4134.16,1539.65s-6.86-25.6-7.47-28.88c-.68-3.74-2.7-12.58-3.11-17.11-.1-1.12-11.88-8.32-20.87-8.31-12.19,0-23.29,7.08-23.51,8.41-1.44,8.54-1.48,18.58-3.81,26.9-1.74,6.19-6.44,20.6-6.44,20.6Z"/><path class="cls-9" d="M4134.16,1537.66c-1.6,5.08-21.33-.78-35.72-.78-12.08,0-27.72,4.69-29.5,2.86-3,5.34-.53,16.4-.53,16.4s12.59.65,27.7,0,32.56.31,39.13-1.64C4139.39,1547.56,4134.16,1537.66,4134.16,1537.66Z"/><path class="cls-3" d="M4498.37,238.15a39.4,39.4,0,0,0-2-17.12c-10.42-53.22-85.86-57.65-192.32-71.79-17.8-2.36-5.3-22.23,6-67.6,7.34-29.5-7-77.61-39.65-81.16-53.76-5.86-6.64,42-65.56,141.22-31.48,53-84.84,15.57-91,71.6L4100,340.85c-2.38,21.81-2.51,43,27.93,49.82,29.5,6.6,20.47,27.06,63.56,31.76l215.66,23.51a40,40,0,0,0,44.16-35.33,39.38,39.38,0,0,0-5.73-24.92,39.27,39.27,0,0,0,18.62-57.14,39.5,39.5,0,0,0,15.92-61.32,39.53,39.53,0,0,0,18.3-29.08Z"/><path class="cls-11" d="M4351.39,262.26l102.84,11.21a40.28,40.28,0,0,0,36.37-15.7,10.51,10.51,0,0,0-16.84-12.57,19.13,19.13,0,0,1-17.28,7.45l-105.29-11.48a19,19,0,1,1,4.1-37.68l70.36,7.67a10.47,10.47,0,1,0,2.28-20.82l-70.38-7.67A40,40,0,0,0,4313.39,218a39.61,39.61,0,0,0,11.1,31.84,39.41,39.41,0,0,0-3.82,58.84,39.63,39.63,0,0,0-1.59,61,39.47,39.47,0,0,0-13,25.11,40,40,0,0,0,35.52,44l65.54,7.15a40.32,40.32,0,0,0,36.38-15.68,10.5,10.5,0,0,0-16.81-12.6,19.2,19.2,0,0,1-17.3,7.46L4343.82,418a18.95,18.95,0,1,1,4.11-37.67l77.76,8.48a40.35,40.35,0,0,0,36.39-15.7,10.51,10.51,0,0,0-16.82-12.6,18.91,18.91,0,0,1-17.3,7.47l-84.41-9.2a19,19,0,1,1,4.1-37.69l96.71,10.55a40.32,40.32,0,0,0,36.38-15.68,10.51,10.51,0,0,0-16.82-12.6,18.91,18.91,0,0,1-17.29,7.45l-99.35-10.83a19,19,0,1,1,4.11-37.68Z"/><path class="cls-12" d="M4099.9,397.37l-67.15-7.32c-12.12-1.33-18.84-9.69-17.82-19l21.75-199.54a17,17,0,0,1,18.68-15l67.15,7.33a16.93,16.93,0,0,1,15,18.67l-21.75,199.54C4114.74,391.36,4106.38,398.07,4099.9,397.37Z"/><path class="cls-3" d="M1333.63,832l44.37.35-39.92,19.37a14.76,14.76,0,0,0-8.3,14.17l3.87,66-24.86-61.34a14.79,14.79,0,0,0-13.53-9.23l-43.37-.54,38.94-19.11a14.81,14.81,0,0,0,8.25-14.15l-3.89-66.07,24.86,61.29A14.77,14.77,0,0,0,1333.63,832Z"/><path class="cls-3" d="M1863.82,124.69l37.34,19.71L1859,143.3a14.06,14.06,0,0,0-13.22,8.34l-25.62,57.49,5.83-62.72a14.07,14.07,0,0,0-7.39-13.71l-36.41-19.44,41.27.89a14.1,14.1,0,0,0,13.16-8.34l25.63-57.54-5.82,62.67A14.06,14.06,0,0,0,1863.82,124.69Z"/><path class="cls-3" d="M1170.26,88.46l27.83-.07-24.92,12.4a9.3,9.3,0,0,0-5.11,8.95l2.86,41.39-16-38.32a9.29,9.29,0,0,0-8.54-5.7l-27.21,0,24.3-12.25a9.26,9.26,0,0,0,5.08-8.92l-2.86-41.42,16,38.28A9.28,9.28,0,0,0,1170.26,88.46Z"/><path class="cls-3" d="M1541,1044.65l26.66,16.67-31.29-3.11a10.46,10.46,0,0,0-10.27,5.48L1503.9,1105l7.73-46.27a10.47,10.47,0,0,0-4.74-10.59l-26-16.41,30.6,2.9a10.47,10.47,0,0,0,10.23-5.48l22.16-41.34-7.72,46.23A10.45,10.45,0,0,0,1541,1044.65Z"/><path class="cls-3" d="M2652.43,310.57,2677,323.73l-27.82-.92a9.29,9.29,0,0,0-8.75,5.44L2623.23,366l4.13-41.31a9.27,9.27,0,0,0-4.81-9.08l-23.91-13,27.2.78a9.3,9.3,0,0,0,8.71-5.44l17.16-37.81-4.13,41.29A9.27,9.27,0,0,0,2652.43,310.57Z"/><path class="cls-3" d="M452.3,959.28l27.76-1.95-24,14.06a9.28,9.28,0,0,0-4.5,9.27l5.64,41.1-18.54-37.15a9.27,9.27,0,0,0-8.91-5.11l-27.15,1.77L426,967.42a9.26,9.26,0,0,0,4.47-9.24L424.82,917l18.53,37.12A9.29,9.29,0,0,0,452.3,959.28Z"/><path class="cls-9" d="M1617.23,1155.47a24.6,24.6,0,1,1,0-34.79A24.59,24.59,0,0,1,1617.23,1155.47Z"/></g></g></svg>