<svg xmlns="http://www.w3.org/2000/svg" width="394.155" height="207.626" viewBox="0 0 394.155 207.626">
  <g id="balloon-01" transform="translate(12.636 3.902)">
    <g id="OBJECTS" transform="translate(-12.568 -3.634)">
      <ellipse id="Ellipse_10" data-name="Ellipse 10" cx="20.349" cy="19.628" rx="20.349" ry="19.628" transform="translate(140.985 70.387)" fill="#f1b466"/>
      <path id="Path_422" data-name="Path 422" d="M173.133,212.236c-1.384-9.472.695-36.525,42.682-42.256s66.946-37.783,83.669-54.7,37.688-30.942,81.059-24.922,49.786-13.577,95.435-12.908V247.377h-303.1Z" transform="translate(-81.891 -40.02)" fill="#e4e4e4"/>
      <path id="Path_423" data-name="Path 423" d="M436.772,176.949H294.35a2.973,2.973,0,0,1,2.447-.805c1.5.205.879-.921,3.126-.432s1.879-1.684,3.62-1.742a8.627,8.627,0,0,1,1.221.058,2.2,2.2,0,0,0,2.031-.831,3.363,3.363,0,0,1,1.9-1.131c2.426-.61,2.668.752,4.515.6s1.579-1.379,2.631-1.921,1.2-2.852,3.878-2.631,2.631,1.837,3.684,1.742.821-1.089,1.631-1.052a2.752,2.752,0,0,1,.526.105,1.005,1.005,0,0,0,1.273-.779,2.631,2.631,0,0,1,2.1-2.136,6.079,6.079,0,0,1,1.61-.21,4.631,4.631,0,0,0,4.383-2.8,10.388,10.388,0,0,1,8.693-6.788,16.934,16.934,0,0,1,10.34,1.71,5.262,5.262,0,0,0,6.257-.942,11.549,11.549,0,0,1,7.735-3.884c6.52-.221,5.478,1.61,9.63,1.168s6.578-4.994,9.819-4.789,5.11,5.052,7.272,4.841c1.889-.179,1.579-3.3,3.831-3.494a1.994,1.994,0,0,0,1.626-.963,5.827,5.827,0,0,1,5.225-3.3,6.151,6.151,0,0,1,4.157,1.389,2.4,2.4,0,0,0,2.631.326,9.6,9.6,0,0,1,10.524,1.126c3.836,3.047,4.062,7.588,3.684,10.572a3.478,3.478,0,0,0,2.326,3.657,5.736,5.736,0,0,1,2.847,2.047c1.689,2.5.089,4.173,1.431,5.341S437.145,172.219,436.772,176.949Z" transform="translate(-139.457 -72.758)" fill="#fff"/>
      <path id="Path_424" data-name="Path 424" d="M312.684,202.743H294.35a2.973,2.973,0,0,1,2.447-.805c1.5.205.879-.921,3.126-.432a1.715,1.715,0,0,0,1.889-.526" transform="translate(-139.457 -98.551)" fill="none" stroke="#0a2a42" stroke-linecap="round" stroke-linejoin="round" stroke-width="0.6"/>
      <line id="Line_2" data-name="Line 2" x1="10.667" transform="translate(177.126 104.192)" fill="none" stroke="#0a2a42" stroke-linecap="round" stroke-linejoin="round" stroke-width="0.6"/>
      <line id="Line_3" data-name="Line 3" x1="50.665" transform="translate(204.158 104.192)" fill="none" stroke="#0a2a42" stroke-linecap="round" stroke-linejoin="round" stroke-width="0.6"/>
      <path id="Path_425" data-name="Path 425" d="M542.316,180.27a4.737,4.737,0,0,1,1.442,1.368c1.689,2.5.089,4.173,1.431,5.341s4.21,1.221,3.8,5.952H531.25" transform="translate(-251.695 -88.739)" fill="none" stroke="#0a2a42" stroke-linecap="round" stroke-linejoin="round" stroke-width="0.6"/>
      <path id="Path_426" data-name="Path 426" d="M522,148.085a9.325,9.325,0,0,1,8.514,1.868,10.347,10.347,0,0,1,3.81,8.093" transform="translate(-247.312 -73.33)" fill="none" stroke="#0a2a42" stroke-linecap="round" stroke-linejoin="round" stroke-width="0.6"/>
      <path id="Path_427" data-name="Path 427" d="M510.24,147.42a4.9,4.9,0,0,1,1.579.926,2.315,2.315,0,0,0,1.768.563" transform="translate(-241.741 -73.175)" fill="none" stroke="#0a2a42" stroke-linecap="round" stroke-linejoin="round" stroke-width="0.6"/>
      <path id="Path_428" data-name="Path 428" d="M370.18,165.626a4.331,4.331,0,0,0,.721-1.189,10.388,10.388,0,0,1,8.656-6.762,16.934,16.934,0,0,1,10.34,1.71,5.262,5.262,0,0,0,6.257-.942,11.549,11.549,0,0,1,7.735-3.884c6.52-.221,5.478,1.61,9.63,1.168s6.578-4.994,9.819-4.789,5.11,5.052,7.272,4.841c1.889-.179,1.579-3.3,3.831-3.494a1.994,1.994,0,0,0,1.626-.963,7.561,7.561,0,0,1,1.231-1.663" transform="translate(-175.383 -74.237)" fill="none" stroke="#0a2a42" stroke-linecap="round" stroke-linejoin="round" stroke-width="0.6"/>
      <path id="Path_429" data-name="Path 429" d="M314.15,191.986a2.2,2.2,0,0,0,2.026-.831,3.362,3.362,0,0,1,1.9-1.131c2.426-.61,2.668.752,4.515.6s1.579-1.379,2.631-1.921,1.2-2.852,3.878-2.631,2.631,1.837,3.684,1.742.821-1.089,1.631-1.052a2.751,2.751,0,0,1,.526.105,1.005,1.005,0,0,0,1.273-.779,2.489,2.489,0,0,1,1.021-1.647" transform="translate(-148.838 -90.715)" fill="none" stroke="#0a2a42" stroke-linecap="round" stroke-linejoin="round" stroke-width="0.6"/>
      <path id="Path_430" data-name="Path 430" d="M659.252,134.6c-14.124-2.168-19.639,5.757-21.544,10a3.242,3.242,0,0,1-3.247,1.921,4.394,4.394,0,0,0-5.025,3.331,2.168,2.168,0,0,1-1.352,1.4,6.8,6.8,0,0,0-3.957,3.436,4.468,4.468,0,0,1-4.257,2.81,6.068,6.068,0,0,0-1.742.205,2.631,2.631,0,0,0-2.1,2.136,1.016,1.016,0,0,1-1.279.784,2.336,2.336,0,0,0-.552-.111c-.805-.053-.589.931-1.626,1.052s-.995-1.547-3.684-1.742-2.826,2.1-3.878,2.657-.81,1.768-2.631,1.921-2.1-1.21-4.515-.6a3.157,3.157,0,0,0-2.052,1.347,1.51,1.51,0,0,1-1.579.674,7.468,7.468,0,0,0-1.579-.116c-1.747.058-1.368,2.226-3.62,1.742s-1.631.642-3.131.431a2.957,2.957,0,0,0-2.447.805h87.063V131.06c-3.536,0-5.467,1.052-6.515,2.131A5.483,5.483,0,0,1,659.252,134.6Z" transform="translate(-276.426 -65.424)" fill="#fff"/>
      <path id="Path_431" data-name="Path 431" d="M619.87,186.62c-.895.668-1.189,1.794-1.884,2.152-1.052.526-.81,1.768-2.631,1.921s-2.1-1.21-4.515-.6" transform="translate(-289.403 -91.748)" fill="none" stroke="#0a2a42" stroke-linecap="round" stroke-linejoin="round" stroke-width="0.6"/>
      <path id="Path_432" data-name="Path 432" d="M638.892,186.732a2.336,2.336,0,0,0-.552-.111c-.805-.053-.589.931-1.626,1.052-.837.079-.974-.968-2.384-1.484" transform="translate(-300.532 -91.544)" fill="none" stroke="#0a2a42" stroke-linecap="round" stroke-linejoin="round" stroke-width="0.6"/>
      <path id="Path_433" data-name="Path 433" d="M652.015,180.91a4.525,4.525,0,0,1-1.421.195,6.067,6.067,0,0,0-1.742.205,4.506,4.506,0,0,0-.552.195" transform="translate(-307.151 -89.042)" fill="none" stroke="#0a2a42" stroke-linecap="round" stroke-linejoin="round" stroke-width="0.6"/>
      <path id="Path_434" data-name="Path 434" d="M672.336,154.63c-.216.395-.395.774-.558,1.126a3.242,3.242,0,0,1-3.247,1.921,4.394,4.394,0,0,0-5.025,3.331,2.168,2.168,0,0,1-1.352,1.4,6.8,6.8,0,0,0-3.957,3.436,4.457,4.457,0,0,1-2.836,2.631" transform="translate(-310.495 -76.591)" fill="none" stroke="#0a2a42" stroke-linecap="round" stroke-linejoin="round" stroke-width="0.6"/>
      <path id="Path_435" data-name="Path 435" d="M719.922,131.91a6.7,6.7,0,0,0-2.978,1.684,5.483,5.483,0,0,1-4.736,1.41c-8.309-1.273-13.64.942-17.008,3.847" transform="translate(-329.371 -65.827)" fill="none" stroke="#0a2a42" stroke-linecap="round" stroke-linejoin="round" stroke-width="0.6"/>
      <line id="Line_4" data-name="Line 4" x2="4.436" transform="translate(374.112 103.229)" fill="none" stroke="#0a2a42" stroke-linecap="round" stroke-linejoin="round" stroke-width="0.6"/>
      <line id="Line_5" data-name="Line 5" x2="19.076" transform="translate(349.532 103.229)" fill="none" stroke="#0a2a42" stroke-linecap="round" stroke-linejoin="round" stroke-width="0.6"/>
      <path id="Path_436" data-name="Path 436" d="M592.054,197.17c-1,.526-1.052,1.979-2.926,1.579-2.247-.489-1.631.642-3.131.432a2.957,2.957,0,0,0-2.447.805h22.975" transform="translate(-276.474 -96.746)" fill="none" stroke="#0a2a42" stroke-linecap="round" stroke-linejoin="round" stroke-width="0.6"/>
      <path id="Path_437" data-name="Path 437" d="M609.632,193.22a3.988,3.988,0,0,0-1.342.595" transform="translate(-288.195 -94.874)" fill="none" stroke="#0a2a42" stroke-linecap="round" stroke-linejoin="round" stroke-width="0.6"/>
      <path id="Path_438" data-name="Path 438" d="M329.5,289.569l30.558-17.129,21.223,8.567,13.161-8.567,23.064,12.8-59.763,19.386Z" transform="translate(-156.11 -132.407)" fill="#81ae9d"/>
      <path id="Path_439" data-name="Path 439" d="M567.54,265.91l22.727-11.24L622.1,266.8,602.15,283.491Z" transform="translate(-268.888 -123.988)" fill="#81ae9d"/>
      <path id="Path_440" data-name="Path 440" d="M182.16,302.929l63.678-30.489L313.9,314.059Z" transform="translate(-86.304 -132.407)" fill="#456266"/>
      <path id="Path_441" data-name="Path 441" d="M282.586,281.286l4.5,3.284,1.847-2.615,14.282,2.673L283.281,272.44,261.19,283.017l7.846-1.231,3.342,5.4,5.652-3.562v2.615Z" transform="translate(-123.746 -132.407)" fill="#fff"/>
      <path id="Path_442" data-name="Path 442" d="M282.45,294.325l5.415-6.815.237,3.252Z" transform="translate(-133.819 -139.547)" fill="#ccdae5"/>
      <path id="Path_443" data-name="Path 443" d="M308.595,291.207l-2-4.757,3.852,2.142Z" transform="translate(-145.256 -139.045)" fill="#ccdae5"/>
      <path id="Path_444" data-name="Path 444" d="M303.17,272.44l4.752,5.625,4.936,1.747.037,1.268,10.209,3.547Z" transform="translate(-143.635 -132.407)" fill="#ccdae5"/>
      <path id="Path_445" data-name="Path 445" d="M219.311,285.138l26.527-12.7L313.9,314.059l-131.74-11.13,32.5-15.56" transform="translate(-86.304 -132.407)" fill="none" stroke="#0a2a42" stroke-linecap="round" stroke-linejoin="round" stroke-width="0.6"/>
      <path id="Path_446" data-name="Path 446" d="M621.03,273.206l48.912-43.066,18.37,16.471v57.869Z" transform="translate(-294.231 -112.366)" fill="#456266"/>
      <path id="Path_447" data-name="Path 447" d="M703.524,230.14,691.91,240.364l4.52-.763-.952,7.178,6.057-7.178,1.989,2.252,2.336-2.252,9.472,1.121Z" transform="translate(-327.812 -112.366)" fill="#fff"/>
      <path id="Path_448" data-name="Path 448" d="M713.98,230.14l2.163,5.888,9.646,4.694Z" transform="translate(-338.268 -112.366)" fill="#ccdae5"/>
      <path id="Path_449" data-name="Path 449" d="M698.69,253.365l4.047-9.325,2.01,2.147Z" transform="translate(-331.024 -118.952)" fill="#ccdae5"/>
      <line id="Line_6" data-name="Line 6" y1="14.661" x2="16.65" transform="translate(330.072 143.301)" fill="none" stroke="#0a2a42" stroke-linecap="round" stroke-linejoin="round" stroke-width="0.6"/>
      <path id="Path_450" data-name="Path 450" d="M669.99,250.526l23.149-20.386,15.25,13.671" transform="translate(-317.427 -112.366)" fill="none" stroke="#0a2a42" stroke-linecap="round" stroke-linejoin="round" stroke-width="0.6"/>
      <path id="Path_451" data-name="Path 451" d="M346.57,296.67l97.361-44.96,97.361,49.3L419.936,315.478Z" transform="translate(-164.197 -122.586)" fill="#456266"/>
      <path id="Path_452" data-name="Path 452" d="M476.794,269.223l2.163,2.631,9.172-9.235,3.289,6.562,4.062-4.92,2.742,3.226,2.368-1.142,2.594,1.584,4.236-3.168,23.748,3.631L498.222,251.71,461.16,268.828l12.519-2.731-1.21,6.257Z" transform="translate(-218.488 -122.586)" fill="#fff"/>
      <path id="Path_453" data-name="Path 453" d="M482.65,285.856l3.936-5.646.389,2.515Z" transform="translate(-228.669 -136.088)" fill="#ccdae5"/>
      <path id="Path_454" data-name="Path 454" d="M531.59,251.71l5.283,6.657h4.936l-5.941,3.668,20.728,5.141,7.941,1.216Z" transform="translate(-251.856 -122.586)" fill="#ccdae5"/>
      <path id="Path_455" data-name="Path 455" d="M346.57,296.67l97.361-44.96,97.361,49.3L419.936,315.478Z" transform="translate(-164.197 -122.586)" fill="none" stroke="#0a2a42" stroke-linecap="round" stroke-linejoin="round" stroke-width="0.6"/>
      <path id="Path_456" data-name="Path 456" d="M518.66,275.392l1.305-10.572,1.615,2.526-.505,2.136,1.647.989Z" transform="translate(-245.73 -128.797)" fill="#ccdae5"/>
      <path id="Path_457" data-name="Path 457" d="M467.435,245.713h-8.52a1.4,1.4,0,0,1-1.389-1.131L455.1,230.9h16.15l-2.426,13.682a1.394,1.394,0,0,1-1.389,1.131Z" transform="translate(-215.617 -112.726)" fill="#b27d59"/>
      <line id="Line_7" data-name="Line 7" y2="14.803" transform="translate(247.561 118.184)" fill="none" stroke="#0a2a42" stroke-linecap="round" stroke-linejoin="round" stroke-width="0.6"/>
      <line id="Line_8" data-name="Line 8" x2="0.874" y2="14.803" transform="translate(244.856 118.184)" fill="none" stroke="#0a2a42" stroke-linecap="round" stroke-linejoin="round" stroke-width="0.6"/>
      <line id="Line_9" data-name="Line 9" x2="1.747" y2="14.803" transform="translate(242.167 118.184)" fill="none" stroke="#0a2a42" stroke-linecap="round" stroke-linejoin="round" stroke-width="0.6"/>
      <line id="Line_10" data-name="Line 10" x1="0.874" y2="14.803" transform="translate(249.387 118.184)" fill="none" stroke="#0a2a42" stroke-linecap="round" stroke-linejoin="round" stroke-width="0.6"/>
      <line id="Line_11" data-name="Line 11" x1="1.747" y2="14.803" transform="translate(251.202 118.184)" fill="none" stroke="#0a2a42" stroke-linecap="round" stroke-linejoin="round" stroke-width="0.6"/>
      <line id="Line_12" data-name="Line 12" x2="3.526" y2="12.129" transform="translate(235.958 106.055)" fill="none" stroke="#0a2a42" stroke-linecap="round" stroke-linejoin="round" stroke-width="0.6"/>
      <path id="Path_458" data-name="Path 458" d="M387.848,43.94c-2.515,2.336-8.072,9.33-8.088,20.938,0,15.939,7.367,22.785,17.823,33.8s18.3,29.437,18.3,29.437l11.6,1.779V39.53Z" transform="translate(-179.922 -22.059)" fill="#f1b466"/>
      <path id="Path_459" data-name="Path 459" d="M384.309,56.25a30.884,30.884,0,0,0-4.552,16.55c0,9.635,2.678,15.95,7.125,21.864" transform="translate(-179.92 -29.981)" fill="none" stroke="#0a2a42" stroke-linecap="round" stroke-linejoin="round" stroke-width="0.6"/>
      <path id="Path_460" data-name="Path 460" d="M401.29,91.784c1.979,2.189,4.162,4.436,6.494,6.894,10.472,11.019,18.3,29.437,18.3,29.437l11.6,1.779V39.53l-23.017,2.563" transform="translate(-190.123 -22.059)" fill="none" stroke="#0a2a42" stroke-linecap="round" stroke-linejoin="round" stroke-width="0.6"/>
      <path id="Path_461" data-name="Path 461" d="M510.1,43.94c2.515,2.336,8.072,9.33,8.088,20.938,0,15.939-7.367,22.785-17.823,33.8s-18.3,29.437-18.3,29.437l-11.577,1.779V39.53Z" transform="translate(-222.908 -22.059)" fill="#f1b466"/>
      <path id="Path_462" data-name="Path 462" d="M553.035,61.71a31.614,31.614,0,0,1,2.978,13.682c0,8.541-2.1,14.476-5.683,19.833" transform="translate(-260.735 -32.568)" fill="none" stroke="#0a2a42" stroke-linecap="round" stroke-linejoin="round" stroke-width="0.6"/>
      <path id="Path_463" data-name="Path 463" d="M525.993,143.6c-1.321,1.4-2.715,2.857-4.168,4.383a67.221,67.221,0,0,0-6.036,7.457" transform="translate(-244.37 -71.366)" fill="none" stroke="#0a2a42" stroke-linecap="round" stroke-linejoin="round" stroke-width="0.6"/>
      <path id="Path_464" data-name="Path 464" d="M497.358,189c-3.052,5.662-4.868,9.935-4.868,9.935" transform="translate(-233.331 -92.875)" fill="none" stroke="#0a2a42" stroke-linecap="round" stroke-linejoin="round" stroke-width="0.6"/>
      <line id="Line_13" data-name="Line 13" y2="14.745" transform="translate(247.561 103.439)" fill="none" stroke="#0a2a42" stroke-linecap="round" stroke-linejoin="round" stroke-width="0.6"/>
      <path id="Path_465" data-name="Path 465" d="M469.066,243.219l-.242,1.363a1.394,1.394,0,0,1-1.389,1.131h-8.52a1.4,1.4,0,0,1-1.389-1.131L455.1,230.9" transform="translate(-215.617 -112.726)" fill="none" stroke="#0a2a42" stroke-linecap="round" stroke-linejoin="round" stroke-width="0.6"/>
      <line id="Line_14" data-name="Line 14" x1="1.379" y2="7.772" transform="translate(254.254 118.184)" fill="none" stroke="#0a2a42" stroke-linecap="round" stroke-linejoin="round" stroke-width="0.6"/>
      <line id="Line_15" data-name="Line 15" x1="3.526" y2="12.129" transform="translate(255.633 106.055)" fill="none" stroke="#0a2a42" stroke-linecap="round" stroke-linejoin="round" stroke-width="0.6"/>
      <path id="Path_466" data-name="Path 466" d="M423.365,115.1s-1.11-10.3-9.646-25.432-20.88-30.379-21.8-44.4,5.7-22.628,14.561-26.116S433.206,15,433.206,15V117.44Z" transform="translate(-185.645 -10.438)" fill="#fff"/>
      <path id="Path_467" data-name="Path 467" d="M480.285,115.1s1.11-10.3,9.646-25.432,20.88-30.379,21.807-44.4-5.7-22.628-14.561-26.116S470.45,15,470.45,15V117.44Z" transform="translate(-222.889 -10.438)" fill="#fff"/>
      <path id="Path_468" data-name="Path 468" d="M444.017,6.33c-23.68,0-29.584,10.124-29.353,26.837s8.756,32.41,14.166,42.1c6.841,12.271,8.3,26.948,9.03,34.9l6.157,2.215,6.152-2.215c.726-7.951,3.215-22.628,10.051-34.9,5.41-9.709,12.913-25.427,13.156-42.1S467.67,6.33,444.017,6.33Z" transform="translate(-196.456 -6.33)" fill="#07785a"/>
      <path id="Path_469" data-name="Path 469" d="M435.1,69.01c1.2,2.3,2.363,4.4,3.415,6.315,6.841,12.271,8.3,26.948,9.03,34.9l6.157,2.215,6.152-2.215c.726-7.951,3.215-22.628,10.051-34.9,5.41-9.709,12.913-25.427,13.156-42.1S477.366,6.39,453.712,6.39" transform="translate(-206.141 -6.358)" fill="none" stroke="#0a2a42" stroke-linecap="round" stroke-linejoin="round" stroke-width="0.6"/>
      <path id="Path_470" data-name="Path 470" d="M435.95,7.22c-16.976,2.168-21.486,11.745-21.286,26.353.132,9.33,2.852,18.36,6.173,26.206" transform="translate(-196.456 -6.752)" fill="none" stroke="#0a2a42" stroke-linecap="round" stroke-linejoin="round" stroke-width="0.6"/>
      <ellipse id="Ellipse_11" data-name="Ellipse 11" cx="11.603" cy="2.615" rx="11.603" ry="2.615" transform="translate(235.958 103.439)" fill="#0a2a42"/>
      <path id="Path_471" data-name="Path 471" d="M565.349,338.751c-9.53-3.657-24.732-7.125-48.139-9.956-102.087-12.35-155.73,36.725-155.73,36.725H565.349Z" transform="translate(-171.262 -158.163)" fill="#81ae9d"/>
      <path id="Path_472" data-name="Path 472" d="M627.441,335.635c-9.256-2.494-21.743-4.825-38.383-6.841-29.358-3.552-54.727-2.026-75.928,1.958" transform="translate(-243.11 -158.162)" fill="none" stroke="#0a2a42" stroke-linecap="round" stroke-linejoin="round" stroke-width="0.6"/>
      <path id="Path_473" data-name="Path 473" d="M462.572,337A200.546,200.546,0,0,0,421,350.976" transform="translate(-199.461 -162.994)" fill="none" stroke="#0a2a42" stroke-linecap="round" stroke-linejoin="round" stroke-width="0.6"/>
      <path id="Path_474" data-name="Path 474" d="M40.179,361.417c-10.851,0-14.634-13.924-5.162-19.028,11.924-6.43,29.81-13.524,56.458-19.691C161.252,306.558,276.5,336.579,311.3,361.417Z" transform="translate(-14.031 -154.059)" fill="#81ae9d"/>
      <path id="Path_475" data-name="Path 475" d="M338.72,326.8c37.888,5.836,74.534,16.539,99.066,27.684" transform="translate(-160.478 -158.162)" fill="none" stroke="#0a2a42" stroke-linecap="round" stroke-linejoin="round" stroke-width="0.6"/>
      <path id="Path_476" data-name="Path 476" d="M87.65,331.585a304.641,304.641,0,0,1,31.321-8.888c25.527-5.9,57.137-5.631,88.663-1.694" transform="translate(-41.527 -154.059)" fill="none" stroke="#0a2a42" stroke-linecap="round" stroke-linejoin="round" stroke-width="0.6"/>
      <path id="Path_477" data-name="Path 477" d="M31.576,374.577a9.92,9.92,0,0,1,3.441-14.787c2.984-1.6,6.315-3.252,10.1-4.92" transform="translate(-14.032 -171.461)" fill="none" stroke="#0a2a42" stroke-linecap="round" stroke-linejoin="round" stroke-width="0.6"/>
      <path id="Path_478" data-name="Path 478" d="M0,367.983H394.045s1.005-13.3-7.036-13.434-8.472,6.094-8.472,6.094.289-20.775-5.883-20.912-5.878,19.107-5.878,19.107-3.589-8.725-11.487-9.14a17.76,17.76,0,0,0-12.919,4.846s.726-22.5-6.257-22.543-4.162,18-4.162,18-11.272-5.9-17.734-1.689a20.233,20.233,0,0,0-8.183,10.246,12.3,12.3,0,0,0-6.53-3.4,6.4,6.4,0,0,0-5.873,2.1s-3.731-8.946-12.419-7.893-9.9,7.2-9.9,7.2-5.531-5.957-13.713-1.052c0,0,.147-17.728-6.841-18.765s-7.036,15.581-7.036,15.581-.753-4.331-3.873-3.847-3.089,4.92-3.089,4.92-.647-10.872-6.209-11.014-5.131,15.308-5.131,15.308a6.892,6.892,0,0,0-9.582.347s-1.258-12.708-7.609-12.95-5.383,16.029-5.383,16.029-7.467-8.946-23.191-2.1a7.278,7.278,0,0,0-6.778-4.394c-5.22-.1-6.672,3.12-6.672,3.12s-.326-4.262-6.409-4.52-6.515,2.91-6.515,2.91-2.152-18.544-8.42-18.334-7.751,10-7.751,10-6.73-1.579-8.777,5.788a13,13,0,0,0-13.834-3.62c-8.883,2.631-9.046,9.335-9.046,9.335s-6.641-7.53-17.8-1.889c0,0-9.619-7.446-17.228.105,0,0-1.221-10.388-5.673-10.424s-5.262,14.129-5.262,14.129-5.057-5.036-13.834.053c0,0,.863-11.43-6.678-12.05s-6.315,13.555-6.315,13.555-5.294-4.931-10.314-1.5c0,0-1.184-13.3-5.062-13.5s-4.652,12.414-4.652,12.414-1.989-6.288-7.051-5.61S0,367.983,0,367.983Z" transform="translate(0 -160.625)" fill="#07785a"/>
      <path id="Path_479" data-name="Path 479" d="M4.625,375.73C2.02,377.309.942,382.476.51,385.8" transform="translate(-0.242 -181.344)" fill="none" stroke="#0a2a42" stroke-linecap="round" stroke-linejoin="round" stroke-width="0.6"/>
      <path id="Path_480" data-name="Path 480" d="M34.047,374.285a6.688,6.688,0,0,0-4.057,1.21s-1.184-13.3-5.062-13.5-4.652,12.408-4.652,12.408-1.205-3.815-4.136-5.183" transform="translate(-7.647 -174.837)" fill="none" stroke="#0a2a42" stroke-linecap="round" stroke-linejoin="round" stroke-width="0.6"/>
      <path id="Path_481" data-name="Path 481" d="M79,374.625a16.276,16.276,0,0,0-5.862,2.158s.863-11.43-6.678-12.05-6.315,13.555-6.315,13.555A11.894,11.894,0,0,0,58,376.777" transform="translate(-27.479 -176.124)" fill="none" stroke="#0a2a42" stroke-linecap="round" stroke-linejoin="round" stroke-width="0.6"/>
      <path id="Path_482" data-name="Path 482" d="M110.988,378.26c-.432,2.673-.563,4.889-.563,4.889a8.167,8.167,0,0,0-2.915-1.668" transform="translate(-50.936 -182.542)" fill="none" stroke="#0a2a42" stroke-linecap="round" stroke-linejoin="round" stroke-width="0.6"/>
      <path id="Path_483" data-name="Path 483" d="M175.964,363.067a14.207,14.207,0,0,0-6.115.526c-8.883,2.631-9.046,9.335-9.046,9.335s-6.641-7.53-17.8-1.889c0,0-9.619-7.446-17.228.105,0,0-1.221-10.388-5.673-10.424-1.463,0-2.531,1.51-3.31,3.557" transform="translate(-55.333 -174.232)" fill="none" stroke="#0a2a42" stroke-linecap="round" stroke-linejoin="round" stroke-width="0.6"/>
      <path id="Path_484" data-name="Path 484" d="M257.029,343.21c-5.541,1.01-6.909,9.93-6.909,9.93s-6.73-1.579-8.777,5.788a11.575,11.575,0,0,0-2.852-2.378" transform="translate(-112.991 -165.937)" fill="none" stroke="#0a2a42" stroke-linecap="round" stroke-linejoin="round" stroke-width="0.6"/>
      <path id="Path_485" data-name="Path 485" d="M290.886,360.909c-3.457.626-3.747,2.757-3.747,2.757s-1.247-10.751-4.6-15.787" transform="translate(-133.861 -168.149)" fill="none" stroke="#0a2a42" stroke-linecap="round" stroke-linejoin="round" stroke-width="0.6"/>
      <path id="Path_486" data-name="Path 486" d="M354.849,357.019a4.211,4.211,0,0,0-.931-.132c-6.357-.242-5.383,16.029-5.383,16.029s-7.467-8.946-23.191-2.1a7.278,7.278,0,0,0-6.783-4.394c-5.22-.1-6.672,3.121-6.672,3.121s-.247-3.263-4.389-4.252" transform="translate(-145.687 -172.415)" fill="none" stroke="#0a2a42" stroke-linecap="round" stroke-linejoin="round" stroke-width="0.6"/>
      <path id="Path_487" data-name="Path 487" d="M430.868,358.443c-1.715,1.337-1.694,4.32-1.694,4.32s-.647-10.872-6.209-11.014-5.131,15.308-5.131,15.308a6.891,6.891,0,0,0-9.582.347,29.675,29.675,0,0,0-2.131-8.156" transform="translate(-192.411 -169.982)" fill="none" stroke="#0a2a42" stroke-linecap="round" stroke-linejoin="round" stroke-width="0.6"/>
      <path id="Path_488" data-name="Path 488" d="M481.367,357.811a12.293,12.293,0,0,0-6.583,1.942s.147-17.728-6.841-18.765-7.036,15.581-7.036,15.581-.526-2.963-2.457-3.71" transform="translate(-217.204 -164.862)" fill="none" stroke="#0a2a42" stroke-linecap="round" stroke-linejoin="round" stroke-width="0.6"/>
      <path id="Path_489" data-name="Path 489" d="M514.259,371.75a8.235,8.235,0,0,0-2.073,3.641,10.441,10.441,0,0,0-3.736-2.347" transform="translate(-240.893 -179.458)" fill="none" stroke="#0a2a42" stroke-linecap="round" stroke-linejoin="round" stroke-width="0.6"/>
      <path id="Path_490" data-name="Path 490" d="M560.084,368.974a17.805,17.805,0,0,0-2.757,5.146,12.3,12.3,0,0,0-6.53-3.41,6.4,6.4,0,0,0-5.873,2.1s-3.731-8.946-12.419-7.893a16.887,16.887,0,0,0-2.1.384" transform="translate(-251.292 -176.183)" fill="none" stroke="#0a2a42" stroke-linecap="round" stroke-linejoin="round" stroke-width="0.6"/>
      <path id="Path_491" data-name="Path 491" d="M601.423,360.21a9.8,9.8,0,0,0-4.531,1.473l-.253.168" transform="translate(-282.675 -173.991)" fill="none" stroke="#0a2a42" stroke-linecap="round" stroke-linejoin="round" stroke-width="0.6"/>
      <path id="Path_492" data-name="Path 492" d="M632.849,334.739c-.874-1.689-2.031-2.773-3.552-2.789-6.962-.068-4.162,18-4.162,18a33.915,33.915,0,0,0-6.315-2.379" transform="translate(-293.184 -160.602)" fill="none" stroke="#0a2a42" stroke-linecap="round" stroke-linejoin="round" stroke-width="0.6"/>
      <path id="Path_493" data-name="Path 493" d="M691.229,361.855a6.751,6.751,0,0,0-5.262,5.746s.289-20.775-5.883-20.912-5.873,19.107-5.873,19.107-3.589-8.725-11.487-9.14a17.76,17.76,0,0,0-12.919,4.846,78.008,78.008,0,0,0-.905-13.9" transform="translate(-307.435 -167.585)" fill="none" stroke="#0a2a42" stroke-linecap="round" stroke-linejoin="round" stroke-width="0.6"/>
      <path id="Path_494" data-name="Path 494" d="M743.754,381.627c-.642-2.6-1.91-5.136-4.4-6.067" transform="translate(-350.288 -181.263)" fill="none" stroke="#0a2a42" stroke-linecap="round" stroke-linejoin="round" stroke-width="0.6"/>
      <line id="Line_16" data-name="Line 16" x2="0.332" y2="15.424" transform="translate(17.213 190.755)" fill="none" stroke="#0a2a42" stroke-linecap="round" stroke-linejoin="round" stroke-width="0.6"/>
      <line id="Line_17" data-name="Line 17" x1="1.368" y2="1.258" transform="translate(17.392 197.675)" fill="none" stroke="#0a2a42" stroke-linecap="round" stroke-linejoin="round" stroke-width="0.6"/>
      <line id="Line_18" data-name="Line 18" x2="1.11" y2="12.277" transform="translate(39.472 193.281)" fill="none" stroke="#0a2a42" stroke-linecap="round" stroke-linejoin="round" stroke-width="0.6"/>
      <line id="Line_19" data-name="Line 19" x2="4.489" y2="2.989" transform="translate(35.609 197.233)" fill="none" stroke="#0a2a42" stroke-linecap="round" stroke-linejoin="round" stroke-width="0.6"/>
      <line id="Line_20" data-name="Line 20" x1="2.647" y2="1.763" transform="translate(39.814 195.291)" fill="none" stroke="#0a2a42" stroke-linecap="round" stroke-linejoin="round" stroke-width="0.6"/>
      <line id="Line_21" data-name="Line 21" x1="5.241" y1="12.44" transform="translate(114.448 193.255)" fill="none" stroke="#0a2a42" stroke-linecap="round" stroke-linejoin="round" stroke-width="0.6"/>
      <line id="Line_22" data-name="Line 22" x2="6.183" transform="translate(110.554 198.685)" fill="none" stroke="#0a2a42" stroke-linecap="round" stroke-linejoin="round" stroke-width="0.6"/>
      <line id="Line_23" data-name="Line 23" x1="2.521" y2="1.815" transform="translate(117.505 198.685)" fill="none" stroke="#0a2a42" stroke-linecap="round" stroke-linejoin="round" stroke-width="0.6"/>
      <line id="Line_24" data-name="Line 24" x1="0.337" y2="19.633" transform="translate(142.322 186.061)" fill="none" stroke="#0a2a42" stroke-linecap="round" stroke-linejoin="round" stroke-width="0.6"/>
      <line id="Line_25" data-name="Line 25" x2="6.273" y2="5.315" transform="translate(136.049 193.313)" fill="none" stroke="#0a2a42" stroke-linecap="round" stroke-linejoin="round" stroke-width="0.6"/>
      <line id="Line_26" data-name="Line 26" y1="0.232" x2="3.631" transform="translate(134.765 195.297)" fill="none" stroke="#0a2a42" stroke-linecap="round" stroke-linejoin="round" stroke-width="0.6"/>
      <line id="Line_27" data-name="Line 27" x1="3.884" y2="3.568" transform="translate(142.538 189.687)" fill="none" stroke="#0a2a42" stroke-linecap="round" stroke-linejoin="round" stroke-width="0.6"/>
      <line id="Line_28" data-name="Line 28" x1="3.021" y1="14.513" transform="translate(208.415 190.792)" fill="none" stroke="#0a2a42" stroke-linecap="round" stroke-linejoin="round" stroke-width="0.6"/>
      <line id="Line_29" data-name="Line 29" x2="3.878" y2="1.689" transform="translate(206.268 197.422)" fill="none" stroke="#0a2a42" stroke-linecap="round" stroke-linejoin="round" stroke-width="0.6"/>
      <line id="Line_30" data-name="Line 30" y1="22.064" transform="translate(250.26 182.82)" fill="none" stroke="#0a2a42" stroke-linecap="round" stroke-linejoin="round" stroke-width="0.6"/>
      <line id="Line_31" data-name="Line 31" x1="4.131" y2="2.794" transform="translate(250.26 187.998)" fill="none" stroke="#0a2a42" stroke-linecap="round" stroke-linejoin="round" stroke-width="0.6"/>
      <line id="Line_32" data-name="Line 32" x2="5.141" y2="2.531" transform="translate(245.119 194.891)" fill="none" stroke="#0a2a42" stroke-linecap="round" stroke-linejoin="round" stroke-width="0.6"/>
      <line id="Line_33" data-name="Line 33" x1="6.525" y1="9.782" transform="translate(279.734 194.486)" fill="none" stroke="#0a2a42" stroke-linecap="round" stroke-linejoin="round" stroke-width="0.6"/>
      <line id="Line_34" data-name="Line 34" x2="3.726" y2="0.3" transform="translate(278.803 198.37)" fill="none" stroke="#0a2a42" stroke-linecap="round" stroke-linejoin="round" stroke-width="0.6"/>
      <line id="Line_35" data-name="Line 35" x1="2.158" y2="3.094" transform="translate(284.102 197.938)" fill="none" stroke="#0a2a42" stroke-linecap="round" stroke-linejoin="round" stroke-width="0.6"/>
      <line id="Line_36" data-name="Line 36" x1="3.894" y1="14.092" transform="translate(319.643 190.792)" fill="none" stroke="#0a2a42" stroke-linecap="round" stroke-linejoin="round" stroke-width="0.6"/>
      <line id="Line_37" data-name="Line 37" x2="8.335" y2="3.268" transform="translate(313.965 197.138)" fill="none" stroke="#0a2a42" stroke-linecap="round" stroke-linejoin="round" stroke-width="0.6"/>
      <line id="Line_38" data-name="Line 38" x1="4.51" y2="3.263" transform="translate(321.127 192.892)" fill="none" stroke="#0a2a42" stroke-linecap="round" stroke-linejoin="round" stroke-width="0.6"/>
      <line id="Line_39" data-name="Line 39" x1="0.474" y1="22.064" transform="translate(336.498 182.82)" fill="none" stroke="#0a2a42" stroke-linecap="round" stroke-linejoin="round" stroke-width="0.6"/>
      <line id="Line_40" data-name="Line 40" x1="2.589" y2="3.057" transform="translate(336.734 190.792)" fill="none" stroke="#0a2a42" stroke-linecap="round" stroke-linejoin="round" stroke-width="0.6"/>
      <line id="Line_41" data-name="Line 41" y1="8.383" x2="1.105" transform="translate(385.162 197.328)" fill="none" stroke="#0a2a42" stroke-linecap="round" stroke-linejoin="round" stroke-width="0.6"/>
      <line id="Line_42" data-name="Line 42" x2="2.768" y2="2.489" transform="translate(382.947 198.954)" fill="none" stroke="#0a2a42" stroke-linecap="round" stroke-linejoin="round" stroke-width="0.6"/>
    </g>
  </g>
</svg>
