<svg xmlns="http://www.w3.org/2000/svg" viewBox="0 0 1348.04 237.21"><title>Asset 1</title><g id="Layer_2" data-name="Layer 2"><g id="Layer_1-2" data-name="Layer 1"><path d="M130.66,106.94c-7.52-6.41-16.5-11.1-24.89-16.49l-1.59-.86-.24-.1-1.66-1-.09-.06c.63-1.25,1.26-2.5,1.88-3.75,4.84-1.49,4.25-5.09,3.4-8.78l-3.61,2c.08.41.15.81.23,1.22.27.42.53.85.79,1.27l-8.3,7.09h0l8.3-7.09c-.26-.42-.52-.85-.79-1.27L103.86,78l-.58,0,.58,0,3.61-2,3.36-3.8c0-1.29,0-2.57.08-3.86l-8.72,9.64c-2.68,2.44-5.29,5-8.1,7.28-.8.66-2.16.64-3.27.93a13.46,13.46,0,0,0,1.37-2.7,20.71,20.71,0,0,0,.31-3.54,12.75,12.75,0,0,0-1.12-.66,12.75,12.75,0,0,1,1.12.66L108,65h0c.71-1.95,1.43-3.9,2.14-5.86,3.74,0,6.24-.53,5.91-5.7-.13-1.93,4.08-4.15,6.32-6.24-.29,2.27.12,5-1,6.71-3.16,5-6.94,9.6-10.47,14.35,0,1.29,0,2.57-.08,3.86,1.26-.52,3.11-.69,3.68-1.62,2.91-4.8,5.19-10,8.31-14.65,1.91-2.84,5.53-4.74,2.19-8.81a2.7,2.7,0,0,1,.61-2.42c4.27-1.29,1.25-3.3.61-5.07l-.39-7.7-.51-1.08c-7-24.42-25.61-26.21-43.1-24.17q2.14,3.22,4.27,6.45-2.13-3.23-4.27-6.45L74.4,8.12,72.48,9h0l-1.2.78,1.12-.08h0l3,0,.3.11c-1.63.85-3.2,2.19-4.91,2.41s-4.09-1.38-5.61-.78c-3.53,1.39-6.72,3.63-10,5.52l-5-1.05c.5.88,1,1.76,1.51,2.65l-6.23,1a3,3,0,0,1,.36,1.11,8.61,8.61,0,0,1-2.83,1.25c-1.45.23-3.31-.41-4.37.28C34,25.09,29.4,28,25.51,31.71c-1.2,1.13-11.72,4.92,0,6.93.24,0,.4.46.61.68,5.48,5.47,10.18,5.07,15-1,1-1.25,2.82-1.86,4.26-2.77.11,1.16.23,2.31.35,3.47L50,36.2l-1.67-2.43-2.84,1.89-.06-.12h0l.06.12,2.84-1.89h0l0,0-.06,0h0c7-3.81,13.71-8.55,21.14-11.14,6.66-2.32,14.14-2.26,21.26-3.25l16.36,5.84L92.54,52.7c-4.87,5.18-9.6,10.5-14.66,15.5-3.51,3.47-7.46,6.49-11.22,9.71l3.29.84-3.29-.84-2.8,1c.39-6.66-2.1-11.83-7.92-15.27-3.08-1.23-6.4-2.07-9.19-3.77C35.42,52.92,33.13,54,31.23,67.42l-1.77,7.69q-2.45,12-4.91,24h0l-2,10.58q-1.26,8.13-2.53,16.27l-.12,2c-1.2,9.12-3.66,18.34,2,27a3.25,3.25,0,0,1-1.39,1.2c-2.87.83-5.78,1.54-8.67,2.29h0a19.59,19.59,0,0,0-4.22-1.05c-2.52-.08-5.06.2-7.6.33l3.9,5.67A7.69,7.69,0,0,0,3.24,165a15.57,15.57,0,0,0-.07,2.27c.25-1.3.5-2.61.74-3.91l3,3.79,3.13,4.4.54-3.25,2.37.92L15.73,171c1.75,1.55,3.49,3,5-.23.07-.54.13-1.08.19-1.61,3-.26,6.21-.28,7.14-3.22-.93,2.94-4.13,3-7.14,3.22-.06.53-.12,1.07-.19,1.61l5.66,3.13c3.76.55,7.51,1.2,11.28,1.57.9.09,1.89-.76,2.84-1.18a34.11,34.11,0,0,1-3.32-1A15,15,0,0,1,35,172.05c6.83-1.28,13.66-2.58,20.5-3.79.19,0,.88,1.05.76,1.26a6.21,6.21,0,0,1-1.52,1.35c.86.08,1.85.47,2.57.18,2-.82,3.93-1.92,5.88-2.91-.17-.28-.27-.68-.51-.79-.8-.4-1.66-.69-2.49-1a16.47,16.47,0,0,1,3.12-2.22c9.06-3.76,18.16-7.43,27.25-11.13h0l6.94-1.86a.51.51,0,0,1-.11-.22.65.65,0,0,1,.13-.42c4,.21,5.78-3.4,8.46-4.91a53,53,0,0,0,10.59-7.25h0c2.09-.3,4.85.12,6.12-1.06,2.54-2.35,4.26-5.59,6.31-8.46l5.81-5.82,2.66,1.49c-.39-1.18-.79-2.37-1.19-3.56C134.5,116.15,134,109.83,130.66,106.94Zm-12.94-66.5h0l1.72.07Zm-41-23.8,2.51-3h0l1.92.79a1,1,0,0,0,.75.27h0Zm10.11-3.15h0l1.57,1.29Zm22.48,41.34a2.33,2.33,0,0,1-1.14-1.06c-.1-.16.24-.6.44-1l1.72,1.2C109.93,54.25,109.49,54.9,109.26,54.83Zm-9.08,32.86h0l-3.27-.12Zm.16-.07,0,0Zm-9.18-24c.19.24.58.64.53.71-1.24,1.62-2.52,3.21-4.17,5.27-.37-.9-.68-1.36-.59-1.46C88.31,66.65,89.74,65.16,91.16,63.66ZM80.69,75.39l-2.6,4.39-1.92,1-.27-.22-.25.24a1.29,1.29,0,0,0-.17-.6c.57-.48,1.15-.93,1.69-1.43C78.36,77.63,79.52,76.5,80.69,75.39Zm1.36,2.3c-.36.17-.72.36-1.08.55C81.33,78.05,81.69,77.86,82.05,77.69Zm12.41,25.12,1.64-1,.16-.16,9.74,1.25c2.13,5.3-1.26,8.25-5,10.59-9.44,6-19.07,11.62-28.62,17.4l-1,2.84,1-2.84c-5.51,2.72-11,5.48-16.55,8.13a25,25,0,0,1-4,1.17,25.74,25.74,0,0,1,.45-4.05c.49-1.82,1.27-3.55,1.93-5.32l.46,0,.44-.11c4.65-3.21,3-6.69.46-10.22a.48.48,0,0,0,.5-.39l2.72-.82C71.74,116,80,102.7,94.46,102.81Zm-13,29.1,1.11.77a2.34,2.34,0,0,0-.23.22,3.16,3.16,0,0,1-.46.41,3.16,3.16,0,0,0,.46-.41,2.34,2.34,0,0,1,.23-.22ZM29.57,162.57h0l-1.26.88Zm0-1.3h0a3.6,3.6,0,0,1-.22-.37,3.6,3.6,0,0,0,.22.37l3.05.13Zm-.37-.63h0l5.73-5.8h0Zm6.65-39.52a21.11,21.11,0,0,1-1.79-1.87h0A21.11,21.11,0,0,0,35.84,121.12Zm-14.53,28.3,3-3c.32-1.13.66-2.25,1-3.37-.33,1.12-.67,2.24-1,3.37a.6.6,0,0,0,.29.63l-1.92,3.37Zm2.51,11.8-4.1-.5-2,0-1.72-.4,9-2.35C24.63,159,24.23,160.12,23.82,161.22Zm25.53-4.35c-.21-.35-.43-.7-.65-1.05l5.76-1ZM55,144.73a3.14,3.14,0,0,0-.52,2.24c1.41,4,1.31,4.17-4.61,4.69a10.84,10.84,0,0,0-2.21.69l1.29-2.18c.39-1.19.69-2.42,1.19-3.55a25,25,0,0,1,2.39-4.37c.26-.35,1.58.25,2.23,0a23.51,23.51,0,0,0,3.23-2C57,141.74,55.89,143.18,55,144.73ZM65.73,156l2.9-2.18c-.12-1.43-.23-2.85-.35-4.27l-3.29,1,1.2-2.19-3.25-.89-1.73-.69c.19,1.26.35,2.53.6,3.79a10.52,10.52,0,0,0,.61,1.64c-.78-.28-2.26-.58-2.25-.84.12-3.62.41-7.25.76-10.86,0-.26,1.2-.7,1.24-.64,4.31,6.25,3.11-1.25,4.64-1.85l1.81-.41h0l1,.68h0l-2,2.18c1.28.29,2.83,1.18,3.79.76,3.29-1.45,6.3-3.53,9.57-5a46.78,46.78,0,0,1,6.68-2l.71-.21c-.05.24,0,.64-.16.71q-12.63,6.42-25.3,12.78l3.25.89,2.09,1.2c.12,1.42.23,2.84.35,4.27L65.73,156l5.16.88h0Zm9.59-1.2,2.92,0-7.35,2.11Zm2-3.18-.93-.67L80,147.82l1,2.23Zm3.4-3.91.14-.06Zm-.67.13h0a2.09,2.09,0,0,0,.59-.1A2.09,2.09,0,0,1,80,147.82Zm5-1.32a1.1,1.1,0,0,0-.31-.3A1.1,1.1,0,0,1,85.05,146.5Zm-.47-.4a1.17,1.17,0,0,0-.36-.08A1.17,1.17,0,0,1,84.58,146.1Zm-1.22.11a3,3,0,0,0-.36.18A3,3,0,0,1,83.36,146.21Zm6.46,6.67-7.88.84-.18.05.18-.05-.59-.7,4.44-3.91a8.64,8.64,0,0,0-.35-1.81,8.64,8.64,0,0,1,.35,1.81c.63.21,1.33.69,1.9.57,1.78-.36,3.51-1,5.27-1.45Zm8.4-7c0-.54-.25-1.44,0-1.56,3.31-1.86,6.67-3.63,10-5.38.23-.11.64.12,3.22.68Zm24.31-16.13,4.77-6.16c.19,1.33.39,2.67.58,4Z"/><path d="M97.77,151.06l-.27.07.13.18Z"/><path d="M904.66,120.48c-1-3.72-.89-3.58-4.69-1.66-4.53,2.3-9.17,4.39-13.87,6.31-.85.34-2.23-.61-3.37-1,.74-.57,1.45-1.19,2.23-1.71,2.88-1.94,5.79-3.84,8.68-5.77.72-.48,1.42-1,2.13-1.5-.47-.42-1-1.21-1.4-1.18-1,.08-2.31.28-2.85.94-3.62,4.47-8.49,6-13.92,6.91-8.74,1.41-17.47,3-26.11,4.92-8.3,1.87-10.82,0-9.81-8.65.13-1.14,2.57-2.63,4.12-2.88,5.33-.85,11.56.27,15.93-2.14,6.78-3.73,12.28-9.8,18.43-14.74a19,19,0,0,1,4.91-2.4,39.09,39.09,0,0,1,4.26-1.22,15.06,15.06,0,0,1-2.7-.2,2.28,2.28,0,0,1,0-1.7c1.53-2.11,3.19-4.12,4.81-6.17h0c1.06-.17,3-.16,3.06-.55,1.11-5.07,2-10.18,2.82-15.31.17-1.08-.72-3-.28-3.27,3.52-2.46,4.27-5.21,1.6-8.71-.41-1.08-.5-2.58-1.28-3.16-5.14-3.86-10.42-7.53-15.65-11.25q-3.42,3.85-6.82,7.72c5.9,3.42,2.2,4.08-1.35,5.2-2.23.71-4.17,2.27-6.36,3.12-1.2.46-2.71.07-4,.39a16.41,16.41,0,0,0-3.78,1.59c-1.34.71-2.6,1.59-3.89,2.4.64-1.21,1.29-2.41,1.91-3.63a13.73,13.73,0,0,0,.52-1.31l-4.23-.2c-3.27,2.42-5,8.76-10.17,6.3-5.69-2.69-3.7,3.85-6.42,4.19.82.69,2.13,1.25,2.36,2.09.57,2.14,1.52,4.79.75,6.56-1.44,3.35-4.13,6.14-6,9.34s-1.7,3.26-3.47.93c-.07-.09-.67,0-.89.24-.91.8-1.77,1.65-2.65,2.48a24.67,24.67,0,0,1,.91-4.06c.84-2.06,2-4,2.93-6,.5-1.08.86-2.22,1.28-3.34a15.24,15.24,0,0,0-2.75,2.82,24.09,24.09,0,0,0-2.72,6.1c-1.17,4.88-2.42,0-3.56.21-.37.06-.52,1.06-.88,1.56-.59.8-1.52,2.32-1.85,2.21-10.35-3.52-5.91,3-4.79,7.08.34,1.25,1.8,2.24,2,3.48.57,3.2,2.16,7.42.76,9.52-3.32,5-2,11.2,3.65,12.63-1.69,5.94,3.39,4.18,6,5.25-1.5,2.23-1.73,3.79,1.49,4.86,1.85.61,3.33,2.35,5,3.59,8.57,6.46,16.53,14.62,29,10.31.69-.24,1.74.58,2.64.95l-.13.15.21-.11h0l0,0,0,0c3.16-1,6.48-1.58,9.43-3,5.6-2.67,11-5.77,16.44-8.8.31-.18.32-1.38.1-2-1.93-4.9,4.49-6.41,4.26-10.59.47,0,1.15-.13,1.37.12,6.43,7.21,5.53-2.93,8.59-3.62C905.81,120.93,904.75,120.83,904.66,120.48ZM840,71.22l-.28-.27c0-.09.07-.21.15-.27s.17,0,.26,0C840.1,70.86,840.05,71,840,71.22Zm-19.94,42.61-.59-.76.68-.44c.18.19.51.43.47.52A2.54,2.54,0,0,1,820.07,113.83Zm5.66,10.67,3,.43,4.67-2.86-4.67,2.86ZM875,85.55h0c-.6-1-1.21-2-1.77-3.06C873.75,83.53,874.36,84.54,875,85.55Zm.67.68-.59-.57h0Zm14.65-16.74.24.39Zm.28,11c-.36-.49-.76-.88-.7-1,1.23-2.16,2.52-4.29,3.79-6.43a11.57,11.57,0,0,1,1.14.91C893.5,76.07,892.13,78.11,890.56,80.48Zm6-16.63a6.68,6.68,0,0,1-.71,2.05c-.28-.76-.56-1.52-.85-2.27.36-.94.71-1.88,1.06-2.82A17.06,17.06,0,0,1,896.56,63.85Zm-3.32-.28h0l-3.12,5.62h0C890.85,67.15,887.47,62.82,893.24,63.57Zm-3.4-7.67c.79,1.09,1.6,2.16,2.31,3.3.08.12-.38.59-.59.9L889,57.83C889.4,56.88,889.62,56.39,889.84,55.9Zm-8,12.5-1.53,1.82,1.08-3.56ZM865.32,67c3.14-3.36,7.19-5.93,11.06-8.5,1-.65,2.85,0,4.31.1-.74.77-1.89,1.42-2.15,2.33-.51,1.8-.41,3.77-.8,5.62-1.23,5.71-5.84,8.56-10.18,11.55-3.46,2.38-7,4.59-10.66,6.73-2,1.18-4.17,2.07-7.37,3.63.09-1.49-.13-2.32.2-2.72C854.85,79.43,859.79,72.93,865.32,67Zm-12.55.66c.12,0,.37.19.62.32a6.08,6.08,0,0,1-1.19.76c-.17.07-.48-.2-.73-.32A12.22,12.22,0,0,1,852.77,67.66Zm-4,4.31a4.82,4.82,0,0,1,1.09-1.38,8.2,8.2,0,0,1,1.37.83L849,73C848.9,72.64,848.62,72.21,848.73,72Zm-3-4.94c.48.65,1.12,1.16,1,1.47-.14.53-.74.94-1.14,1.4l-1.42-1.71Zm-1.62,5.3a5,5,0,0,1-1,1.43c-.38-.31-1.1-.67-1.06-.9a11.52,11.52,0,0,1,1.18-2.43C843.73,71.5,844.18,72,844.09,72.33Zm-2.76-4.26.89.42a3.11,3.11,0,0,1-.62.83c-.11.08-.46-.17-.7-.28Zm.7,61.68-3.39.84h0Z"/><path d="M44.28,19.11c-.09,0-.23.2-.21.25s.2.33.28.32l1-.16a4.34,4.34,0,0,0-.21-.43C45.08,19,44.58,19.07,44.28,19.11Z"/><path d="M434.52,76.62c.36,1.32.71,2.64,1.06,4-.35-1.33-.7-2.65-1.06-4L429.42,75l-1.62-.74h-1.25L419.94,77l-4.58,2.06,9.35,2.75h0c-1,1.41-1.57,3.73-2.56,5.17a3.27,3.27,0,0,1-.42.53,3.27,3.27,0,0,0,.42-.53c1-1.44,1.56-3.76,2.55-5.17l-9.35-2.75-3,8.52c-.11.46-.23.92-.34,1.38q-1.17,4.49-2.33,9-1.1,8.67-2.18,17.34l8.51-1.62-8.51,1.62q-4.71,5.73-9.42,11.46c-.63.76-1.33,1.46-2,2.18h0l-7.82,3.68c-3.53,1.43-7,3.2-10.65,4.1-1.22.3-4.32-1.68-4.29-2.53.34-9.14,1.14-18.26,1.82-27.38h0q.35-3.16.71-6.32,8.61-15.55,17.23-31.08c4.91-4.44,9.45-9.47,14.94-13,2.28-1.46,8-1,9.78.89,3.85,4,5.09,5.24,8,2.19.27-.28.58-.53.87-.8q-1.68-3.33-3.35-6.68c-6.48-6.78-14.77-9.14-23.77-9.38-1.4,0-3.12,1.3-4.2,2.46-1.85,2-2.87,5.39-5,6.33-6.36,2.73-13.11,4.54-19.7,6.72l1.49,0c-.12.38-.24.77-.37,1.15-.65,1.3-1.3,2.6-1.94,3.9l-7.35,10h0l-5.66,8.59L363,82c1.66,1.13,3.93,2,5.32,3.25C366.94,84,364.67,83.13,363,82l-6.29-.21c-1,1.76-2.78,3.56-2.71,5.29.18,4.68,1.21,9.33,1.77,14,.06.45-.8,1.38-1.29,1.42a6.18,6.18,0,0,1-2.31-.72,28.74,28.74,0,0,0,.59,4.16,21,21,0,0,0,1.64,3.38c-1.74.72-4,2.53-5.12,2-4.57-2.37-3.43,1.25-2.9,2.81,2.39,7.06,4.52,14.32,7.9,20.91,5.56,10.86,23.54,19.57,34.09,17.38h0l13.47-6.07,4-2,.77-1c1.24-.11,3.07-.77,3.6-.21,2,2.15,3.33,5,5.43,7,3.87,3.8,7,9.2,13.92,7.52,3.61,2.15,7.15,4.43,10.88,6.34,1,.51,3.19.31,3.75-.41a5.17,5.17,0,0,0,.62-4.19c-1.35-4.19-3.08-8.24-4.67-12.35h0c-2.76-18.36.37-36.16,5.15-53.78C447.89,83.7,444.56,78.45,434.52,76.62Zm-82.45,45c-.64-.93-1.81-1.88-1.76-2.77s1.23-1.87,1.92-2.81c.45,1,.9,2.06,1.55,3.53Zm4.45-26.9a2.74,2.74,0,0,1,1.11-1.16c.08,0,.55.47,1,.89l-1.24,1.31C357.1,95.43,356.45,95,356.52,94.75Zm1.09,10.88c.25-.87.58-1.72.9-2.58l-.18,3.13C358.08,106,357.58,105.74,357.61,105.63Zm.95-2.75c.19-1.17.38-2.35.58-3.53l3.52.68Zm13.36-26.26c.4.78.68,1.08.62,1.23-.7,1.56-1.45,3.09-2.18,4.64a9.68,9.68,0,0,1-1.17-.78C370,80.18,370.78,78.69,371.92,76.62Zm7.36,10.24c-.47-1.15-1-1.8-.91-2.4,0-.39.86-.7,1.33-1a6.15,6.15,0,0,1,.78,1.85C380.51,85.63,379.92,86.05,379.28,86.86Zm17.56-35.29,2.09-1.4h0Zm2.23-1.84h0l-.25.33Zm-3.32,11.84c.07-.09.54.13.83.2-.17.35-.34.7-.5,1-1,2.18-2,4.37-3.05,6.55l-2.81-.14C392.06,66.67,393.88,64.11,395.75,61.57ZM390,69.41l-.74,1.48a6.22,6.22,0,0,1-.42-.66C389.21,69.94,389.6,69.68,390,69.41ZM388.59,73c-2.18,2.48-4,4.55-5.85,6.51A10.83,10.83,0,0,1,381,78.31c2-2,3.9-4.09,5.91-6.07C387,72.12,387.68,72.57,388.59,73Zm48.7,79.06h0ZM420.71,88.19a2.31,2.31,0,0,0,.55-.26,2.31,2.31,0,0,1-.55.26,2.18,2.18,0,0,1-.63.09A2.18,2.18,0,0,0,420.71,88.19Zm-19,56a7.48,7.48,0,0,1,.29-.83,7.87,7.87,0,0,0,.55-1.69,7.87,7.87,0,0,1-.55,1.69,7.48,7.48,0,0,0-.29.83Zm27.85,6.26c.09,1.61.77,3.37,1,5l4.57-.52-4.57.52C430.36,153.83,429.68,152.07,429.59,150.46Zm7.17,1.58v0Z"/><path d="M970.7,53.58h0c-1.79.34-4.35.05-5.25,1.13-5.13,6.17-9.86,12.66-14.74,19.05l-5.88,10.62q-1.79-6.16-3.56-12.32l-2.77-4.24,2.77,4.24c-1.55-3.48-2.39-7.61-4.85-10.24-2.14-2.3-6.09-2.94-9.24-4.31-4.49-1.76-4.47-1.74-8.31.81-.28.19-1.12-.18-1.52-.52-5.22-4.37-3.14.18-3.1,2.47a32.21,32.21,0,0,1-.46,4.13c1.64,12.89,2,26.63,10.75,36.88,6.72,7.87,8.62,14.82,3.5,23.65l4.62,1.23L928,124.93l-.72,1.69,4.78,1.54c.22-.66.44-1.32.65-2h0l3.64-6.69-.93,5.29c-.32,1.78-.63,3.56-1,5.34a38.5,38.5,0,0,1,2.69-4.24,17.6,17.6,0,0,1,2.91-2.33c-.37,1-.75,2-1.12,3l18.34,1.12L939,126.54l-.9,1.27a14.72,14.72,0,0,1,1.28,3.1,27.86,27.86,0,0,1,.11,4.29l-2.22,0,.36-2.75c-.8.4-2,.6-2.34,1.24-3.12,6.9-6.09,13.88-9.1,20.84,2.25.61,4.66,1.44,3.45-2.58l-.15-2.64,4.83,2.26a3.32,3.32,0,0,0,.8,1,9.61,9.61,0,0,0,1.16.84c.21.14.43.27.65.4-.22-.13-.44-.26-.65-.4a9.61,9.61,0,0,1-1.16-.84,3.32,3.32,0,0,1-.8-1l-4.68.38c1.21,4-1.2,3.19-3.45,2.58-.66,2.58-1.48,5.14-1.92,7.76a33.56,33.56,0,0,0-.1,5.5c2-1.62,6.61,2.7,6.8-3,0-.32.07-.63.11-.94a2.13,2.13,0,0,1,.29.61c.46,2.71,1,5.42,1.28,8.15.06.65-.78,1.39-1.2,2.09A15.86,15.86,0,0,1,930,172a8.84,8.84,0,0,1-.07-2.42l-3.21,3c.47.59,1.2,1.12,1.33,1.77a13.13,13.13,0,0,1-.07,3.06l3.35,3.32.55,1.12-.55-1.12L929.7,183h0l-5.28-3.28,3.58-2.25a13.13,13.13,0,0,0,.07-3.06c-.13-.65-.86-1.18-1.33-1.77-3.18-1.44-5.44-1.31-5.43,3,0,.18-1.28.37-2,.55a2.12,2.12,0,0,0-.3-.36,1.59,1.59,0,0,0-.43-.16q.87,7.16,1.76,14.31a6.57,6.57,0,0,1,.8-.7q4-2.55,8-5.06.69,8.3,1.4,16.6c-.2,3.09-.31,6.19-.64,9.27a4.21,4.21,0,0,1-1.28,2.75c-1,.69-2.33.79-3.53,1.15l4,7.21a28,28,0,0,1,.72-3.65,2,2,0,0,1,1.32-.9c2.31,2,4.59,4,6.79,6.09a11.58,11.58,0,0,1,1.39,2.12c0-.88,0-1.76-.1-2.64-.64-5.92-1.31-11.83-2-17.75.76,1.15,1.53,2.29,2.27,3.45.31.48.57,1,.86,1.5.22-.16.57-.28.64-.49,1.12-3.32,2.6-6.57,3.2-10,1.36-7.67,2-15.46,3.46-23.12.75-4.06,2.72-7.88,3.67-11.92,1.27-5.37,1.45-11.07,3.25-16.24,2.22-6.39,5.61-12.37,8.5-18.54l-9.3-.11c-2,3.67-4.16,3.87-6.43,2.85,2.27,1,4.46.82,6.43-2.85l9.3.11c.1-.45.21-.91.31-1.36l7.8-17.9.6-1.73c0-1.48.08-3,.11-4.45.79-2.29,1.24-4.79,2.47-6.81,1.39-2.32,3.52-4.19,5.23-6.34.21-.25-.26-1.45-.32-1.45-1.06.13-2.11.38-3.16.6.66-1.58,1-4.29,2-4.55C986,83.14,988,75.8,992,70.35c.75-1,.72-3.14.25-4.46C988.6,55.7,978.32,57,970.7,53.58ZM921.85,82.16l.07-.12-.07.12Zm6.39,80.72c-.85-.19-2.11-.93-2.2-1.57-.1-.81.8-1.75,1.28-2.63l3.15,2.58C929.43,162.05,928.73,163,928.24,162.88Zm11.23,14.63c.36,2.06,2.07,4.56,2,6.46.09-1.9-1.62-4.4-2-6.46Zm2,6.52a3.4,3.4,0,0,1-.08.46A3.4,3.4,0,0,0,941.45,184Zm-.44,1.21a2.19,2.19,0,0,1-.36.39A2.19,2.19,0,0,0,941,185.24Zm-8.51-37.6c-.28.36-1.37.09-2.09.12.29-.52.59-1,.86-1.54,1-1.92,1.94-3.85,2.91-5.77l2.23,1.43C935.13,143.82,933.92,145.81,932.5,147.64Zm6.71,7.89a4.17,4.17,0,0,0-.47-.47A4.17,4.17,0,0,1,939.21,155.53Zm-6-.59,2.25,5.47c-1-1.53-1.91-3-2.8-4.61C932.57,155.66,933,155.24,933.2,154.94Zm7.11,38.22h0V190l-3.38-.25,3.38.25,1.79-.51Zm1.29,8.28a5,5,0,0,1-.76-1.2c0-.18.37-.65.49-.62.33.08.84.3.89.55S941.92,200.83,941.6,201.44Zm-.05-32.22c.3-.48.6-.95.89-1.43l-3.6-5.47c1.2,1.82,2.4,3.65,3.61,5.47l1.31,1.27Zm18.57-99.69c-.53,1.15-1,2.36-1.45,3.53,0,.24,0,.51,0,.73,0-.22,0-.49,0-.73C959.17,71.89,959.59,70.68,960.12,69.53ZM949.4,85l-.34-.12,2.16-3,1.66-1.73c-.06.55-.13,1.1-.19,1.65,2,.26,4.8-.73,6.26.6-1.46-1.33-4.22-.34-6.26-.6,0,.46-.07.92-.1,1.37.17.57.33,1.14.5,1.71-.17-.57-.33-1.14-.5-1.71-.4.57-.81,1.13-1.21,1.69l-.49,1.74h0a.56.56,0,0,0-.21.66c-.43-.77-.86-1.53-1.28-2.3l-8.91,3.77-.66.28.66-.28h0Zm-14.71-3.86h0l-2.47-3.51Zm-1.37,8a7.11,7.11,0,0,1-1.43-2.06,7.11,7.11,0,0,0,1.43,2.06c.37.39.79.78,1.23,1.17C934.11,89.91,933.69,89.52,933.32,89.13ZM931.6,86c0,.11,0,.23.06.35C931.64,86.25,931.61,86.13,931.6,86Zm4.92,33.15c.05-.25.09-.5.14-.74l.39.24Zm21.73,9,0,.07ZM973.17,71h0L977,64.67Zm10.51,8.67c-.42-.37-1-.66-1.22-1.12-.14-.27.22-.8.35-1.21l1.54,1.17Z"/><path d="M497.65,116.48c-.26-1.06-.53-2.11-.79-3.17h0c.12-.33.22-.66.32-1-.1.34-.2.67-.32,1,.26,1.06.53,2.11.79,3.17l5-.06,21.06-13.48h0l6.12-7.63c.19-1.3.37-2.6.56-3.9a11.53,11.53,0,0,1-.6-2.13,11.53,11.53,0,0,0,.6,2.13l6.84-5.68,1.14-1-1.13-.24h0l1.13.24c3-2.67,5.83-5.78,9.23-7.89,4.65-2.89,5.08-3,2.3-5.09-.42-.31-.36-1.21-.68-1.74-.93-1.51-1.67-3.28-3-4.36-1.79-1.48-4.5-2-6-3.69-3.24-3.67-6.87-3.63-10.15-1.1-4,3.1-7.38,7-11,10.57l-9.94,9.26c.44.25.9.58,1.35.9a6.51,6.51,0,0,0,1.34.79,6.51,6.51,0,0,1-1.34-.79,14.22,14.22,0,0,0-1.35-.89L506,84.35a1,1,0,0,0-.58.57l-.87.78-.12,0c-3.59,2.83-7.15,5.69-10.77,8.47A26.76,26.76,0,0,1,490.58,96a26,26,0,0,1-.32-3.5c.21-5.64.5-11.28.76-16.92.22-2.11.47-4.23.55-6.35a5.57,5.57,0,0,0-1.95-.47,50.12,50.12,0,0,0-1.52,4.83A6.48,6.48,0,0,0,488,75h0l1.5-2L488,75c-.14.32-.29.65-.44,1q-2.54,11.54-5.09,23.06L480,103.88l-3.09-5.64-1.37-.08-1.62,1.57c-.14-.71-.28-1.42-.41-2.13-.45,1.42-.89,2.85-1.34,4.28-.51.94-1.68,2.48-1.44,2.74,4.48,5-1.3,8.18-2,12.2-.1.53-.67,1-1,1.47a6,6,0,0,1-.39-1.94c.82-5.67,1.82-11.32,2.53-17a49,49,0,0,0-.07-6.85c-.66,2.06-1.31,4.13-2,6.18A46.42,46.42,0,0,1,466,103.6c-.24.52-1.12.75-1.73,1.08s-1.92.59-2,1a68.42,68.42,0,0,0-.9,7.13,13.27,13.27,0,0,0,.19,2.34,21.71,21.71,0,0,0,1.33-2.14c.4-.83.65-1.73,1-2.59.41.36,1.25.83,1.19,1.06-.88,3.21-1.88,6.4-2.85,9.59l-.06-.09,0,.17h0l.05,0a9.81,9.81,0,0,1,0,2.23c-.59,2.74-1.87,5.48-1.77,8.18s1.55,5.26,2.42,7.89l1.08,3.26a28.5,28.5,0,0,1,.67-3.18c.4-1.28,1-2.5,1.45-3.75a12.34,12.34,0,0,1,1,1.41c1.43,2.76,1.41,2.75,3.87,1.41.12-.06.92.65,1,1.06.65,4.13,1.2,8.27,1.77,12.4a1.94,1.94,0,0,1,0,.48c-.14,1-.3,1.91-.45,2.86.69-1.06,1.4-2.11,2-3.2a11,11,0,0,0,.68-1.7,3.55,3.55,0,0,1,.67,1c.48,1.62.89,3.25,1.32,4.88.25-1.75.59-3.49.72-5.26.11-1.53-.32-3.15,0-4.62a56.11,56.11,0,0,1,2.2-6.39c.19,1.93.36,3.86.58,5.79.1.88.31,1.75.47,2.63.45-.85.94-1.69,1.34-2.56,2.53-5.41,4.55-11.14,7.74-16.12,2-3.11,5.73-5.08,8.69-7.56Zm24.88-16.73h0Zm7.11-11.63a2.73,2.73,0,0,1,1.09-2.35A2.73,2.73,0,0,0,529.64,88.12Zm7.59-3.59h0c-6-.5-9.41-4.48-13-8.29C527.82,80.05,531.28,84,537.23,84.53ZM516.1,90.26l2.66,0,4.91.79,1.94.29h0l-2,1c0,1.59,0,3.19,0,4.78l2.88-1.93a2,2,0,0,0,.88,0l-3.86,3.82-1,.66-1.63.22a6,6,0,0,1,.09-.83l-.39,0,.39,0,2.65-2c0-1.59,0-3.19,0-4.78h0l2-1-1.94-.29-4.91-.79-2.66,0a6.36,6.36,0,0,1-.14-.76A6.36,6.36,0,0,0,516.1,90.26ZM504.45,100h0c-1,1.56-2.09,3.11-3.12,4.67C502.36,103.12,503.42,101.57,504.45,100Zm-39.94,9.46c-.28-.34-.78-.68-.78-1a6.55,6.55,0,0,1,.67-1.84c.47.67,1,1.08.93,1.4A4.76,4.76,0,0,1,464.51,109.47Zm23.67-25.62c.05-.29.45-.51.7-.76a3.38,3.38,0,0,1,.29,1.12c0,.31-.31.59-.65,1.19A4.75,4.75,0,0,1,488.18,83.85Zm.13,3.86c.17.18.52.49.49.54-.47.66-1,1.3-1.48,1.94ZM487,90.87l-1,2.51a3.17,3.17,0,0,1-.33-.29C486.05,92.34,486.51,91.61,487,90.87Zm-1.11,7.28c-.21.91-.41,1.83-.61,2.74l-.74-1.68Zm-9.55,41,.4.88-.61.86c-.1-.26-.32-.54-.28-.78A4,4,0,0,1,476.3,139.14Zm-.13,8.45a3.1,3.1,0,0,1-.53-1c0-.25.24-.54.38-.82l.68.91C476.48,147.07,476.32,147.33,476.17,147.59Zm9.32-16.75,2.51-2.23-1.71,3.24Z"/><path d="M605.52,209c-6.36,6.93-13,5.44-19,.49-7-5.84-13.17-12.71-19.7-19.13L564,186.41l-5.81-7.59c-3.55-6.31-7-12.68-10.69-18.89-2.35-3.92-5.38-7.44-7.61-11.42-3.44-6.11-6.46-12.45-9.66-18.7-2.49-2.79-5.67-8.31-7.35-7.89-7.32,1.85-14.2,5.43-21.24,8.37-6.12,4.77-.38,8.71.89,13a11.69,11.69,0,0,0,1.92-.4,4.59,4.59,0,0,0,.94-.38A2.12,2.12,0,0,0,506,142a2.12,2.12,0,0,1-.63.49,4.59,4.59,0,0,1-.94.38,11.69,11.69,0,0,1-1.92.4l3,6.87h0c3.92,8.82,7.5,17.81,11.86,26.4,4.17,8.22,8.42,16.59,14,23.87,6.21,8.12,13.93,15.08,21,22.54l5-3.93h0l-5,3.93c7.84,2.92,15.55,6.36,23.6,8.56,3.93,1.07,8.65.44,12.74-.56,3.78-.93,7.19-3.37,10.76-5.15l1-.88,6.41-2.07h0l3.24-1.59c3.3-3.15,7.19-5.9,9.71-9.59,1.72-2.53,1.53-6.37,2.19-9.63l-8.14,1.66C611.08,205.41,607.67,206.61,605.52,209Zm-57.36-40.34h0c-.13.2-.31.42-.46.62C547.85,169,548,168.82,548.16,168.62Zm-3.75-4.07c.35.5.72,1,1.08,1.48h0C545.13,165.53,544.76,165.05,544.41,164.55Z"/><path d="M337,220.43c-.43-.36-.21-1.46-.32-2.22-.22-1.66-.47-3.32-.7-5l-9.08-22.08a1.07,1.07,0,0,0-.23-.86c-.3-1.26-.59-2.52-.89-3.78-1.22-2-2.49-5.78-3.66-5.75a46,46,0,0,0-13.15,2.5c-1.84.6-4.42,3-4.37,4.58.51,16,10.27,28.29,16.94,41.84l1.42-1,.06,0,0,0c1.66.16,3.47.75,4.89.24.65-.23.55-2.57.78-4l-.94-.06c.31-1.21.63-2.42,1-3.63l0,3.68q2.88,3.81,5.77,7.63h0v0h0c1.56,1,3.17,1.87,4.67,2.93a8.07,8.07,0,0,1,1.44,1.76c.36-1,1.31-2.31,1-2.91C339.16,230,341.42,224.12,337,220.43Zm-18.45-.57,1.48-.67c.64-.45,1.43-1.23,2.07-1.69-.64.46-1.43,1.24-2.07,1.69,0,.6.06,1.19.1,1.79l-.09,0,.09.08Zm2.27,1.25h0c.4,1.39.79,2.77,1.18,4.15C321.65,223.88,321.26,222.5,320.86,221.11Zm6.91,3.72-.54-4.34.54,4.34Zm6.76,7.66c-.08-.92-.16-1.84-.23-2.76l-.3-4.11a21.43,21.43,0,0,1,2.4,4.46C336.57,230.66,335.21,231.67,334.53,232.49Z"/><path d="M1169,71.15h0q-4.32-2.87-8.65-5.72c-6.1-4.21-12.34-7.76-19.94-3.68-.5.27-1.07,1.48-.88,1.76,1.36,2,2.91,3.87,4.4,5.78l1.23,14.49a19.9,19.9,0,0,0,5.53-3.26h0a2.9,2.9,0,0,0,.38.23s.37-.33.36-.35l-.24-.31a28.61,28.61,0,0,0,4.9-5.49l-4.58,6.24-6.37,2.93c-.12,1.26-.23,2.52-.35,3.79q-6.68,15.86-13.36,31.7l-7.85-1c.6-2.87,1.21-5.75,1.82-8.62s1.4-5.79,2.09-8.68l0,0h0l1-1.92,0-.12,0,.06-.9,1.85.1-3.9c.28.67.55,1.33.83,2l2.12-4.29,0-.14.84-1.19c1.37-1.95,2.59-4,4.13-5.81,3.64-4.23-.41-6.32-2.44-8.86-.88-1.11-3.46-2.15-3.32-2.61,1.81-5.83-2.6,0-3.21-1.68-.14-.37-2.35.18-3.57,0-3-.34-7.27-2.29-8.8-1-4.65,4-8.25,9.17-12.26,13.9q-5,14-10,28h0l-.54,1,.23,3c0,1.52,0,3-.05,4.58,2.08,6.32,3,13.45,11,15.65l4.32,2.13,1.42.52,16.37,1.53c5.49,2.84,14.63.69,17.36-4,1.78-3,3.75-6,5.63-9,0-.42-.15-.86-.25-1.31.1.45.2.89.25,1.31,3.72,2.46,6.75,1.53,9.31-1.85a71.31,71.31,0,0,1,4.5-5.84c2.34-2.51,5.63-4.39,7.25-7.26,2.65-4.7,4.28-10,6.34-15a82.8,82.8,0,0,0,.81-9.52C1175.71,83.92,1175.43,76.44,1169,71.15ZM1122.87,82.5a1.5,1.5,0,0,0,.25.19h0a1.5,1.5,0,0,1-.25-.19,3,3,0,0,0-.49-.37A3,3,0,0,1,1122.87,82.5Zm12.29,52.11c.36-.2.68-.4,1-.59-.32.19-.64.39-1,.59Zm1.85-1.15a14.73,14.73,0,0,0,2.22-1.82A14.73,14.73,0,0,1,1137,133.46Zm2.32-1.94a4.55,4.55,0,0,0,1.36-2.77A4.55,4.55,0,0,1,1139.33,131.52Zm26.06-59.69-7.16,1.37-1.87,1h0l1.87-1Zm-11.45-3.37c-.11-.27-.22-.54-.34-.81h0C1153.72,67.92,1153.83,68.19,1153.94,68.46Zm-8.82.76c.21,0,.42,0,.64,0C1145.54,69.24,1145.33,69.22,1145.12,69.22Z"/><path d="M794.16,97.57c-.73-.6-1.55-1.09-2.33-1.64-5.27-3.28-10.8-6.23-15.69-10-2-1.52-8.3-.3-5.17-6.23-.47-.13-1-.48-1.42-.36-1.82.58-3.6,1.28-5.4,1.94,1.59-1.08,3.26-2.07,4.75-3.28a20.39,20.39,0,0,0,2.46-2.84h0a79,79,0,0,1,5.47-7.85c2.44-2.8,5.73-4.91,7.92-7.86a48.1,48.1,0,0,0,6.68-11.73c.87-2.32-.23-5.38-.45-8.11.74-2.58,1.47-5.17,2.21-7.75L793.13,29c-.23-.94-.45-1.88-.67-2.82l0-.08c-.62-1.58-1.23-3.16-1.85-4.73l-.11-.05h0l-3.93-7.61c-.58-1.41-.77-3.27-1.8-4.16C775.88,1.93,765.62-1.23,754,.43h0L752.16.34l-4.85.12c-2.41.71-4.83,1.38-7.22,2.15a2.21,2.21,0,0,0-1,1.08c3,3.7-1.71,1.9-2.2,3.07L730.84,8l-.8.65-1.27,1.14c-1.89-.49-3.89-4.42-5.69.21-.1.26-1.74-.15-2.66-.13-1.25,0-2.5.15-3.75.24l1.21,2.62L710,14.47l1.8.72-2.36.39c-1.24.05-2.8-.37-3.65.23-5.95,4.19-11.78,8.56-17.56,13a3.42,3.42,0,0,0-.58,2.53c3.2,1.66,6.51,3.13,9.79,4.65h0l.27,0-.06-.26a.8.8,0,0,0,.61-.2L704,36.65l-.7-.47.7.47,1.08-.6a.42.42,0,0,0,.59-.41l.25-.24a.49.49,0,0,0,.49-.63l5.6-5.91L714.82,27l34.26-13.87-.43-1.38c.15.46.29.92.43,1.38l5.94-1.3L753.21,9,755,11.86l10.46,2.07h0l2.94.71h0l3.79,2a13.23,13.23,0,0,0,1.39,0c.72,0,1.47-.1,2.11-.07-.64,0-1.39,0-2.11.07a13.23,13.23,0,0,1-1.39,0q-1.32,6.63-2.66,13.26h0c-2,3.73-3.6,7.85-6.22,11.12-5.69,7.09-11.93,13.75-17.94,20.59l8,.16,4.77-4.72.24.14.22-.18a2.73,2.73,0,0,1,.47.74l-2.38,3.57,7.12,10,4.9-4.67-3.27-5h0l3.27,5,5.5-6h0l2-2.62h0l13.32-16.87a.48.48,0,0,1-.11-.24.48.48,0,0,0,.11.24c-3.06,5.91-5.68,12.1-9.32,17.62-3.19,4.83-7.53,8.9-11.36,13.31h0c-2.61,2.31-5.1,4.79-7.91,6.84-.85.62-2.57,0-3.89,0h0l6.73-7.65-7.12-10-2.68,2.1-1,.67,1-.67-.64-1.65-8-.16-4.7,6.91h0l-10.31,3.36L730,73.08c-.06,1-.08,2-.19,3,.11-1,.13-2,.18-3h0l.42-1.16a.73.73,0,0,0-.36-.66l-.83-1.08c-.06-.93-.11-1.87-.17-2.8-.55-2-.48-4.89-1.77-5.75-5.86-3.89-12.1-7.2-18.2-10.72h0c-5-1.82-9.59-2.76-9.71,5l3.81.93.34-.35-.34.35-3.81-.93v0l-.52.92-6.3,29.74h.14a.56.56,0,0,0-.19.11l-.07,0v.06a.35.35,0,0,0,0,.26l-3.51,17.83c-1.07,7.36-2.72,14.7-3,22.1-.3,6.69-.72,14.15,1.88,19.93,1.94,4.33-.8,3-1.93,4-2.09,0-4.19,0-6.27.07-1.72.06-3.42.33-5.14.38-2.58.06-5.17,0-7.75,0,.54,1.59.62,3.72,1.71,4.68a95.72,95.72,0,0,0,9,6.29l-3.93.82c.46.57,1,1.68,1.34,1.62a33,33,0,0,0,3.91-1.27,4.46,4.46,0,0,1,1.41,0c.41.83.66,2.27,1.24,2.41,4.37,1.08,8.8,1.91,13.21,2.82h0a71.55,71.55,0,0,0,7.67,1,25.48,25.48,0,0,0,5.25-.92c-1.56-.55-3.14-1-4.64-1.7-.29-.13-.23-1-.33-1.56a1.39,1.39,0,0,0,.69-.45l1.14-.67,4.66,0c.7.85,1.34,2.34,2.12,2.42a32.43,32.43,0,0,0,6-.42c-.25-1-.5-2.07-.74-3.1l2.13-.35.94-.49a17.14,17.14,0,0,1,3.83.65c.77.3,1.27,1.29,1.89,2a16.91,16.91,0,0,0,1.78-3.06,13.55,13.55,0,0,0,.33-3.27l29.54-11.61-7.39,0c1.7-1.11,3.36-2.28,5.12-3.29,1.47-.86,3.06-1.52,4.6-2.27l-.76-.58.76.58L757,147.07c7.77-1.53,14.28-5.49,20.31-10.45,5.13-4.21,12.53-5.34,16-11.77,0-.46-.07-.92-.11-1.38l-3.56.44c-.09-.93-.19-1.86-.29-2.79a3,3,0,0,0-.73.06c0,1,0,1.91-.07,2.86h0c0-1,0-1.9.07-2.86-.3-1.48-.61-3-.91-4.43.3,1.47.61,3,.91,4.43a3,3,0,0,1,.73-.06l1.25-.64,4.09-2.1-1.49,5.09c0,.46.07.92.11,1.38C806.66,115.13,806.88,108.09,794.16,97.57ZM697.45,35.81v0Zm50.69-25.68L743.4,11l-.73-1.07h0Q745.57,5.68,748.14,10.13ZM753,8.68h0l.12.16Zm12.42,52.86-2.6-1.76-2-1.12,2,1.12Zm20.33-38.78a4.15,4.15,0,0,0,.53,1.2A4.15,4.15,0,0,1,785.72,22.76Zm-10.8,23.49h0l2.52,1.9ZM787.15,30h0a32,32,0,0,0,.56-3.5,32,32,0,0,1-.56,3.5l-1.83,4.7Zm2.4,10.71c0-.35.07-.7.1-1h0l1.32-.09h0ZM712.74,165.47c-.28,0-.54-.49-.81-.76a16.14,16.14,0,0,1,2.06-.27c.32,0,.64.25,1.63.69A21.6,21.6,0,0,1,712.74,165.47Zm71.06-38.54v-1h0v1Zm-36.51,18.75-3.54.65,3.54-.65Zm-3.94-.2,3.88-3.08.06,3.28ZM729,141.33a2.76,2.76,0,0,0-1,1.63,29.58,29.58,0,0,0,2.9,2.17c-3.14,2.85-4.35.71-5.32-2.07l-1.09.21a1.58,1.58,0,0,0-.32.75l-4.74,1.51h0l-2.48.25c-1.35-6,1.37-9.55,6.89-11.4a1.89,1.89,0,0,1,.73.07c-.16.91,0,2.4-.54,2.66-4.88,2.52-2.34,4.32.46,6.16l1.09-.21c.26-1.52.45-3.06.78-4.57.24-1.07.76-3,1-3,3.34.37,5.32-1.93,7.64-3.57-.24.77-.47,1.55-.7,2.32,2.08.05,4.3.56,6.22,0s3.45-2.13,5.15-3.26c-.55-1.38-1.1-2.76-1.66-4.14.56,1.38,1.11,2.76,1.66,4.14l7.19-2.91v1.57C744.89,133.53,736.93,137.39,729,141.33Zm1.29,12.36a1.08,1.08,0,0,0-.49.29A1.08,1.08,0,0,1,730.29,153.69ZM692.65,164.4l-.1-.09.1.09Zm.94-10.68c-.37.72-.89,1.44-1.25,2.16.36-.72.88-1.44,1.25-2.16Zm-.62,9.42h0l.1.07Zm39.24-65.75-.59.35.59-.35Zm-3.62-2.65-.1-.07.41-.43-.41.43Zm2.4,1.49h0l0,0Zm-1.91-15.39c.07.21.16.42.25.64-.09-.22-.18-.43-.25-.64Zm-17.28,24-.62-.66.62.66ZM724.66,77.9h0Zm-27.22,31.72,3.17,1.87a20.18,20.18,0,0,1,3.82.19,20.18,20.18,0,0,0-3.82-.19l-3.17-1.87Zm-2.9,32.21.88.44h0Zm1.07.47c.27,0,.53,0,.8,0-.27,0-.53,0-.79,0ZM757,127.25,756,126l-.47.55L756,126h0l1,1.27c.84.54,1.63,1.38,2.54,1.52C758.62,128.62,757.83,127.78,757,127.25Zm4.14-1.81-.45-1.41,5.06-2.13Zm2.55-30.56c4.65-2,9.48,1.47,9.91,7.42h0l0,.22h0l-13.7,11L758,114.72h0l-5.92,3.49h0l-4.91,2.69c-8.12,4-16.23,8-24.37,11.89a29.74,29.74,0,0,1-3.94,1.29,31.42,31.42,0,0,1,.35-4.57c.43-2,1.2-3.91,1.74-5.89.48-1.77.85-3.58,1.27-5.38-.1,1.77-.19,3.54-.29,5.31h0l-.44.93.91-.39c.66-2.09,2.5-4.84,1.76-6.13-2.81-5,2-4.92,3.84-6.16,5.54-3.72,11.41-6.93,17.16-10.35h0l5.32-2h0C754.89,98,759.4,96.69,763.68,94.88ZM746.3,77.07c.05.6.1,1.21.16,1.81l-4.26,1.69Zm4.18,22.37c-.15-1.65-.3-3.3-.44-5l-.06,0,.06,0C750.18,96.14,750.33,97.79,750.48,99.44Zm-7.86-25.78L747.21,69l.65-.72-.65.72q-1.22,2.43-2.41,4.86h0l-2.18-.2c-.59-1.55-1.17-3.09-1.75-4.64C741.45,70.57,742,72.11,742.62,73.66ZM739,76l1.23.58c-.92.72-1.83,1.46-2.8,2.13,0,0-.6-.74-.92-1.13Zm-14.09-4.53a6.76,6.76,0,0,1,1.43.3A6.76,6.76,0,0,0,724.91,71.46Zm-36.68,72a30.59,30.59,0,0,1,1.88-3c.38.47,1.14,1,1,1.38a16.89,16.89,0,0,1-1.55,3.06C688.86,144.16,688.15,143.6,688.23,143.46Zm-4.41,10.82c-.14,0-.38-.66-.57-1l3.63-.56,4.79-.95,4.5,0-4.5,0,.69.91C690.39,157.68,686.69,153.9,683.82,154.28Zm12.44,12.09h0l-1,1.33Zm3.12-.61h0l-1.53.57Zm3.36-12.14.52-.34-.52.34c.11.15.22.35.34.52C703,154,702.85,153.77,702.74,153.62Zm1.24.71c.18-.11.37-.24.55-.33h0C704.35,154.09,704.16,154.22,704,154.33Zm2.63,7.06h0c.14.15.27.34.41.51C706.88,161.73,706.75,161.54,706.61,161.39Zm9.16-10.82.87-1.46,2.92-.93h1.49l-2.59,2.25h0Zm10.41,6.29h0l-1.73-.41c1.25-1.26,6.48-1.63,1-4.47-.15-.08.06-1.49.3-1.55.68-.17,1.87-.26,2.13.11a21.55,21.55,0,0,1,1.63,3.66h0v0Zm5.9-12.35c1-.63,2-1.27,3-1.89.14-.1.4,0,.6,0Zm6.47,7.3c-.1,0-.33-.27-.5-.41,3-1.38,5.91-2.8,8.91-4.09a6.35,6.35,0,0,1,2.2-.16,25.67,25.67,0,0,1-2.75,1.54C743.81,149.79,741.18,150.8,738.55,151.81Zm17.89-12.33c.54.39,1.07.8,1.6,1.21C757.51,140.28,757,139.87,756.44,139.48Zm15.68-2.66c-2.58,1-5.45,1.18-8.2,1.7h0l1.76-1h0c1.84-.91,3.65-1.89,5.53-2.69,1.49-.64,3.06-1.06,4.6-1.58C774.6,134.49,773.59,136.27,772.12,136.82ZM783.8,126h0l1,.07Z"/><path d="M757,147.11l0,0-.12,0H757l0-.07-.08,0Z"/><path d="M868.78,52c1.5-.87,4.05.08,6.12.2q3.4-3.85,6.82-7.72c-4.47-6.14-13.39-6.08-18.22-.18-1.74,2.12-4.35,3.52-6.57,5.25h0c-2.46,2-4.95,3.9-7.33,6-.45.39-.47,1.34-.53,2,0,.17.77.65.89.56,3.21-2.31,6.38-4.68,9.55-7l-1.29-.76,1.29.76,2.11-1.17,1.69-1.27-1.69,1.27.21.22-8.11,9.63,4.23.2C861.53,57.2,864.92,54.17,868.78,52Z"/><path d="M1045,108c.64.55,1.71,1.68,1.86,1.57,2-1.45,3.87-3.08,5.77-4.66l6.75-5.8c2.14-1.56,4.88-2.71,6.26-4.77,1.59-2.38,2-5.57,2.92-8.4l-3.44,3.44-4.75,4.92,3.85-4.66.9-.26,3.44-3.44,21.19-17.46,1.49-4.18L1088,65.76c-.1-.38-.21-.76-.32-1.15-.2-.92-.39-1.84-.59-2.75l-6.73-3.52a.31.31,0,0,0-.12-.48l-1.74-.88c-.08-.69-.15-1.38-.23-2.07-.23-.27-.47-.54-.7-.82-2.9.16-6.83-.84-8.55.66-12.48,11-24.52,22.4-36.7,33.7l-1,.89,0,0-2.92-.8.54-7-.15-.1.15.11c.08-1.83.15-3.66.22-5.48a3.1,3.1,0,0,0,.46-.11c.14-.06.4-.2.38-.24a8.64,8.64,0,0,1-.83-2.5c.09-3.39.37-6.78.49-10.17A6.26,6.26,0,0,0,1028,63c-.81,2.74-1.5,5.52-2.19,8.3a3.73,3.73,0,0,0,0,.94l0,.08-.7,1.75Q1024,79.86,1023,85.64c-.44,1.53-1.3,3.07-1.26,4.59.1,3.92-1.6,6.24-4.4,5.5-.23-.06-.71.81-1.08,1.25-.25.09-.51.21-.77.33.26-.12.52-.24.77-.33.09-1.76.06-5,.29-5,5.37-.44,4-4.85,4.05-7.57.13-3.73-1-7.49-1.54-11.24l-3.21-.24.16.12c0,.52.06,1,.08,1.55l0,.36c.25.73.5,1.45.76,2.18A52.59,52.59,0,0,0,1012,81.6c-.83.94-1.09,2.39-1.61,3.61q.57-5.56,1.15-11.14l-1.69-.39q.26,5.75.52,11.5h0c.4.86.8,1.71,1.18,2.58.7,1.6,2.3,3.53,1.87,4.73-.63,1.76-2.72,3-4.18,4.47l2.77,6.72c2,2.38,4.1,4.74,6.12,7.13-2-2.39-4.08-4.75-6.12-7.13-.92,1.26-1.85,2.51-2.77,3.76h0c-.71,1.62-1.43,3.24-2.14,4.85-.23.33-.47.65-.71,1,.68-7,1.39-14,2-21a7.94,7.94,0,0,0-.64-2.51,17,17,0,0,0-1,2c-1.73,4.7-1.73,4.65-4.85,5.18-.39.07-.89.91-.93,1.42-.29,3.76-.49,7.53-.71,11.29.17,1.34.35,2.67.52,4-.08-1.33-.16-2.67-.25-4h0c.5-2.27.93-4.56,1.52-6.8.17-.61.82-1.08,1.24-1.62.25.64.76,1.31.71,1.92-.35,3.77-.82,7.52-1.24,11.28l-1.74,1.05-.24-1.83.12,1.91h.13a8.14,8.14,0,0,1,0,2.52c-.77,2.28-2.62,4.6-2.39,6.73.37,3.44,2.05,6.75,3.21,10.1a8.07,8.07,0,0,0,.82,1.41,10.61,10.61,0,0,1,.33-1.87c.64-1.8,1.35-3.57,2-5.36l1.68,4.6.77,1.05,0,.05c.14.23.28.45.41.68l.7-.75v0l.51-1.11c.09-.36.18-.72.28-1.08,2.29,2.55,2.05,4.19-.32,7.15-1,1.29,2.5,6.23,4,9.51.53-3.56,1.17-7.12,1.52-10.7a39,39,0,0,0-.26-5.7c.13-.25.26-.51.41-.76,0,0,.35.12.36.2.07,1.78.12,3.57.18,5.36,0,3-.11,6,.11,8.94a18,18,0,0,0,1.38,4.19c.15-1.3.42-2.61.44-3.92.06-2.75,0-5.51,0-8.27q.91-2.53,1.82-5.07c.35,2.63.66,5.26,1.07,7.88a7.39,7.39,0,0,0,.82,1.82,6.36,6.36,0,0,0,.94-1.42c1.28-4,2.51-7.95,3.76-11.93l.21-1.86h0l7.84-7.58a9.17,9.17,0,0,0,2.57-1.72C1038.81,114.83,1039.38,109.34,1045,108ZM1060,95.12c.07-.25.16-.5.25-.74-.09.24-.18.49-.25.74Zm-28.53-2.74c0-.65-.07-1.3-.11-2,0,.66.07,1.31.11,2Zm-6.44,1.08h0l-1.79,1.23Zm-.28-7.77,0,0,0,0c-.09.68-.17,1.36-.26,2,.09-.67.17-1.35.26-2h0Zm7.53,34.25-3.76,1.68-5.28,5.27,1.13.46-1.13-.46,5.28-5.27,3.76-1.68a4.72,4.72,0,0,1,.1-.64c.18-.63.36-1.25.53-1.87-.17.62-.35,1.24-.53,1.87a4.72,4.72,0,0,0-.1.64Zm1.25-5.09.78-4.13-.77.08h0l-.66-.64-2,.83,2-.83,1.45-1.53-1.45,1.53.66.64.77-.08Zm.8-6.2h0l4.77-3.88,2.17-2.15c4.72-4.66,9.63-8.91,17-7.84-7.36-1.07-12.27,3.18-17,7.84l-2.17,2.15Z"/><path d="M792.25,42.23l.18-.32-.29-.35-.34.31Z"/><path d="M238.49,163.4c1.7,0,3.84.71,5-.08.8-.55.54-3.12.24-4.7-1.73-9.27-3.73-18.5-5.36-27.78-.44-2.55.06-5.26.13-7.89l-.28-1.56,1.11-5a.83.83,0,0,0,.26-1.14l-.09-1.66c1.8-7.35,3.55-14.71,5.43-22,1.71-6.65-1.19-12-7.89-14.27-2.26-.75-4.6-1.29-6.87-2-8.3-2.78-15.25.26-17.68,8.51a172.6,172.6,0,0,0-4.74,21.37c-1.35,8.4-.91,17.43-10.46,21.81l6.6-.07,0,0,0,0-6.6.07L179,136.5h0l-6,1.08a13.88,13.88,0,0,0,.9,1.2,13.88,13.88,0,0,1-.9-1.2q-1.38-5.84-2.77-11.65l.24-1.7a9,9,0,0,0,1.36-2.22c2.45-10.17,4.84-20.35,7.24-30.53-.24-1.37-.49-2.73-.73-4.09a1.31,1.31,0,0,0-.35-.75c.58-1.18,1.15-2.35,1.73-3.52l-1.38,4.27c.24,1.36.49,2.72.73,4.09l9.77-17.17h0l7.73-9.6L202,59.44h0c.32-.26.65-.51,1-.76l5.12-3.43c3,.73,6.55.75,9,2.38s3.69,4.9,5.54,7.39c.13.17,1.35-.17,1.35-.26-.12-4,1.19-9.05-.78-11.66-5.92-7.87-15.09-10.19-24.61-10.61a5.71,5.71,0,0,0-4.35,2.21c-.89,1.42-.62,3.57-.84,5.4l-1,.92h0l-2.81.95L184,54c-8.82-.76-13.87,4.23-17.42,11.48l-.1-.08c-.62,0-1.7-.09-1.79.16-.72,1.85-1.25,3.78-1.84,5.68q-2.4,3.9-4.79,7.8l5.4-.87a.56.56,0,0,0,.11.66h0l-2.06,1.67.16-.11-.16.11c-.32,1-.63,1.94-.95,2.92-1.6-.69-3.53-2.27-4.71-1.83-1.45.55-2.75,2.65-3.2,4.32-.32,1.23,1.09,2.82,1.27,4.3a30.78,30.78,0,0,1-.14,5.16l3.9-1.86.09-5.08,3.3-2.66,2-.08-2,.08-3.3,2.66-.09,5.08q-2.36,8.06-4.7,16.11l.09-4.74-1.7-.07-2.22,7.32,2.09,2.19-2.09-2.19-3.47-1.68c0,1.38-.08,2.76,0,4.13s.41,2.45.62,3.67l9.06,19.25,6.17,5.25h0L165.7,146c4.6,3.27,8,9.14,15.15,6.78l-.4-.31.4.31,5.4-.15h0l21.5-10.17,14.47,14.07c4.64,2.25,9.28,4.54,14,6.71A6.26,6.26,0,0,0,238.49,163.4Zm-79.72-43.25h0l-.08-.17.08.17Zm-1-5.75c-.15,0-.29,0-.44,0,.15,0,.29,0,.44,0l1-.93h0Zm-.85.85c0-.29,0-.58.07-.86h0Zm-1.18,8,3-3.12h0l-3,3.12Zm5.94-19.37h0v1.16h0Zm.87-3.7h0l7.76-.16h0Zm15.25-23.08c-2.69,1.69-5.21,3.65-7.79,5.5h.25l-1.86.27-.15-.14,3-5.48-1.26,5.34C172.63,80.77,175.15,78.81,177.84,77.12Zm11.75-8.34-.09,0h0ZM199,58.87h0l3.14-1Zm-5.59-7.51c-.35,2.8,3.35,3,4.55,4.83-1.2-1.81-4.9-2-4.56-4.83l-1-.33Zm-5.8,19,2-1.63h0L186.91,74h0l-6.57,8.32-.62.81h0l.62-.81c.29-2,.57-3.92.86-5.89-.55.11-1.14.14-1.71.21.57-.07,1.16-.1,1.71-.21L185.72,72l1.37-.58.49-1a19.73,19.73,0,0,1-3-1.21A19.73,19.73,0,0,0,187.58,70.41Zm-9,6.39a6.13,6.13,0,0,1,.79-.16A6.13,6.13,0,0,0,178.59,76.8Zm5.66-7.75c-.22-.1-.45-.19-.67-.27C183.8,68.86,184,69,184.25,69.05Zm-4.09-.32a2.9,2.9,0,0,0-.54.43A2.9,2.9,0,0,1,180.16,68.73ZM160.75,84.62l.05,0-.05,0Zm.11.09-.05,0,.05,0Zm.85,14.41.21,1h0c-.21.4-.41.8-.62,1.19a1.08,1.08,0,0,0-.57.73l-.9-.94Zm-4.54,3,.8.77-.68,2.48c-.27-.15-.79-.35-.77-.45C156.68,104,156.94,103.06,157.17,102.13Zm-5.95,20.38-2.29-3.4h0l2.29,3.4a1,1,0,0,1,0,.38A1,1,0,0,0,151.22,122.51Zm2,1.49-1,1.22,1-1.22.77,0ZM162,140.74a.88.88,0,0,0,0,.16A.88.88,0,0,1,162,140.74Zm12.94-.69.66.84Zm1.37,8.06a5.37,5.37,0,0,0,.94,1.62A5.37,5.37,0,0,1,176.3,148.11Zm2.65,3.23.66.52Zm8.57-6.82a7,7,0,0,1,.26,1.8A7,7,0,0,0,187.52,144.52Z"/><path d="M481.42,93.19c.37-.54-1-2.4-.62-2.82,3-3.34,2.13-6.07-.93-8.65,2.2-7.18,4.43-14.35,6.56-21.55.52-1.74.56-3.62,1.05-5.37.37-1.31,1.57-2.49,1.61-3.76a29.29,29.29,0,0,0-.9-5.73c1.05-1.05,2.64-1.92,3.06-3.18,1.11-3.35,1.71-6.86,2.52-10.31l.05,0h0c.5-1,1.39-1.94,1.43-2.94.09-2.06-.86-4.32-.31-6.17.7-2.32,3.35-4.21,3.6-6.46.31-2.85-1-5.87-1.53-8.82-1.1.88-2.08,2-3.33,2.54-.62.25-1.72-1-2.61-1-2.37,0-6.33-.53-6.84.52-2.59,5.36-4.29,11.15-6.3,16.8q-1.57,5.75-3.13,11.49-4.37,19.39-8.67,38.81c-.09.42.55,1,.85,1.5-.35,1.26-.72,2.51-1,3.79,0,.12.71.39,1.09.59.56-1.46,1.12-2.93,1.67-4.39l1.55-4.4c.48,1.45,1,2.9,1.45,4.34h0c0,5-.35,10,.16,15,.2,1.86,2.36,3.51,3.63,5.26l1.37.08A49.83,49.83,0,0,0,481.42,93.19Zm6.44-52.46a3.57,3.57,0,0,0,1.27-.43A3.57,3.57,0,0,1,487.86,40.73Zm1.69-.76c1.31-1.32.21-4,.14-6.06l-1.58-1,1.58,1C489.76,36,490.86,38.65,489.55,40Zm-4.9-23.45c.09,0,.24,0,.24,0,0,.27,0,.54.06.81l-.46-.05C484.54,17.05,484.6,16.78,484.65,16.52Zm-3,9.57c.36-1,.72-2,1.1-3s.74-1.85,1.11-2.77l.12,3.14c.7.36,1.44.64,2.16,1-.72-.33-1.46-.61-2.16-1-.45,1.17-.89,2.35-1.36,3.51-.26.64-.56,1.27-.84,1.9,0-.92-.09-1.85-.13-2.77Zm-6.57,23.55c.23-.59.46-1.18.68-1.77h0C475.53,48.46,475.3,49.05,475.07,49.64Zm-3.71,22.12c-.18-.65-.37-1.3-.48-1.71.31-1.38.49-2.48.81-3.55.63-2.14,1.33-4.26,2-6.38-.18,2.48-.18,5-.59,7.44A19.44,19.44,0,0,1,471.36,71.76Zm1.94,7.45,2.75-2.66c.18,1.12.37,2.24.56,3.36l-3.21-.64h0l-.11-.05-.75-.62Z"/><path d="M1339.31,118.29l-10.18-5.87v1.94c.3.36.61.71.91,1.06l3,1.12c1.18.28,2.36.56,3.53.87,0,0-.13.65-.14.65-1.16-.21-2.31-.46-3.47-.71a1,1,0,0,0,.08-.81l-3-1.12-3.78-.37,2.87-.69v-1.94c-2-.38-4-.89-6-1.09-.77-.07-2.07.35-2.32.91a2.81,2.81,0,0,0,.64,2.48c1.62,1.63,3.46,3,5.22,4.54-2.6-.26-5.2-.59-7.82-.75s-5.39,0-8-.32c-.9-.11-1.67-1.25-2.5-1.92-1.38-4.31-2-4.44-6.15-1.24-3.19-2.48-4.75-10.31-10.82-3.29l3.43.73,7.19,4.62-4.58,1.58h0l-.19-.26-1.58-.07c-1.67.1-3.34.17-5,.43a17.53,17.53,0,0,0,.07,2.44l-1.85,1.86-1.91,0c-.11-.65-.23-1.29-.34-1.94-.72-.86-1.48-2.52-2.14-2.48-6.23.41-12.44,1.12-18.66,1.73a15,15,0,0,1-.69-1.68c1.5-.82,3.07-1.53,4.62-2.26-2.24,0-4.48,0-6.71-.09a8.13,8.13,0,0,1-2.19-.75l-14,2.62c0,.52-.09,1-.14,1.55l13.33-1.93-.21,3.64.23.23.33,0,.74,2.15.94,2.09c0,.83-.09,1.66-.13,2.49,2.38-1.22,4.75-2.48,7.17-3.63a3.81,3.81,0,0,1,1.91-.18c4,.37,8,.79,12,1.2h2l4.4,2.46.39-3.24c1.18.44,2.37.84,3.53,1.32s2.18,1,3.27,1.53l1.8-6.64a2.61,2.61,0,0,1,.19-.86c5,.38,10.07.74,15.1,1.18a8.44,8.44,0,0,1,2.15.81,16.92,16.92,0,0,1-2.41.5c-.63,0-1.27-.26-1.9-.22-2.57.15-5.14.37-7.72.57l4.64,2.86c.89.71,1.76,1.45,2.69,2.1.1.07.59-.43.9-.66l-3.25-1.44c4.76-1.81,9.12,0,9.58,3.87a1.82,1.82,0,0,0,1.24,1.1c3.16.63,6.34,1.16,9.52,1.72l4.86-.21q2.2-6.58,4.42-13.15Zm-45,4.37-1.28,1.2-.36-1.72h0Zm32.78,8.23-.65-.57c.24-.18.52-.55.71-.5s.48.42.71.66Z"/><path d="M1348,131.68a39.83,39.83,0,0,0-1.75-3.67,15.82,15.82,0,0,0-1.86-2.17h0q-2.55-3.78-5.12-7.55l-1,1.06h0q-2.2,6.57-4.42,13.15c1.91-1.49,8.61,7.52,6.43-2.94a29.7,29.7,0,0,1,3.29.55C1345.15,130.54,1346.58,131.15,1348,131.68Zm-9.76-10c0,.25,0,.5,0,.74C1338.29,122.2,1338.28,122,1338.28,121.7Z"/><path d="M314,170.74c.55-.32,1.62.23,2.46.38v-4.35c-1.3.52-1.52.66-1.75.7-3.1.49-6.21.92-9.3,1.46a3.5,3.5,0,0,0-1.7,1,44.22,44.22,0,0,0-3.2,3.51,9.82,9.82,0,0,0-.93,1.83c2.45.05,5.12.74,7.3,0C309.48,174.36,311.58,172.16,314,170.74Z"/><path d="M328.71,224.89h0l0,0Z"/><path d="M928.71,140.56c1.58-4,2.31-8.25,3.39-12.4l-4.78-1.54c-1,3-2.18,5.9-2.9,8.95a85.12,85.12,0,0,0-1.4,9.32c0,.38.56.84.87,1.27C925.54,144.31,927.84,142.72,928.71,140.56Z"/><path d="M1034.68,40.46a4,4,0,0,0-2.86,1.62,17.36,17.36,0,0,0-1.28,5.05c-.09.59.39,1.28.6,1.92.22-.55.43-1.1.64-1.65l1.61-4.16c-.19,1.69,0,3.53-.66,5s-2.29,2.65-3,4.17c-.56,1.12-.41,2.6-.57,3.91,1.06-.31,2.81-.34,3.08-1,1.61-3.91,2.88-8,4.32-12.15C1035.74,42,1035.13,40.41,1034.68,40.46Z"/><path d="M1254.23,128.41l-.9-1.71-2.67,1.7-9.53-2.16,9.53,2.16c.92-1.06,1.66-2.67,2.81-3.07a50.53,50.53,0,0,1,7.61-1.54l-.74-2.15-.33,0-.23-.23-19,.73c-3.81,1-7.62,1.93-11.44,2.8-.58.13-1.27-.26-1.91-.41.54-.49,1-1.33,1.64-1.41,3.84-.48,7.7-.8,11.55-1.18l6-2.24c0-.51.09-1,.14-1.55l-5.4-3.17c.11-1.45.23-2.9.34-4.35l.47-.05c6.37-1,2.75-12.16,11.23-11,0,0,0-.72.16-.88,1.73-1.46,3.51-2.85,5.26-4.29,2-1.63,4-3.28,5.94-4.93h0c.15-.7.29-1.4.44-2.1l3.08-5.65c.41-9.73-5.16-16.51-11.36-23-5-9.06-13.23-11.8-23-11.5L1226.2,47l-13,3.16,3.57,4.64h0l-3.57-4.64-6,2-1,.26-1,.51c-2.62,1-6.45,1.36-7.65,3.29-3,4.79,5.52,18.08,11.72,19.44,2.88.63,6,2.7,8.47,2.12,5-1.16,9.57-3.72,14.33-5.7h0l3.15,1-24.31,22.08,3.11,1.33,3.57-.87,3-1.43h0l-3,1.43-3.57.87-3.11-1.33a.72.72,0,0,0-.78.28c-2.62,1.76-5.2,3.58-7.86,5.28-5.92,3.78-10.33,8.2-8.54,16.17.27,1.21-1,3.71-2.08,4.12-4.31,1.58-4.73,4.8-4.5,8.54.93-.09,1.93-.4,2.82-.4-.89,0-1.89.31-2.82.4l5.28,8.94.22.22,4.66,1.2c6.39,10.86,12.4,12.91,19.33,9.48a14,14,0,0,0,2.46-1.93c-.9,0-1.81.08-2.71,0A5.61,5.61,0,0,1,1215,147c.35-.49.59-1.23,1.07-1.45,3.62-1.65,7.29-3.19,10.93-4.8a20.4,20.4,0,0,0,2-1.13l-2.15-.37-2-.35a15.69,15.69,0,0,1,2.15-.84c6.3-1.48,12.62-2.92,18.93-4.37h0l12.12-2.94.07,0h0l-.06,0h0Zm-19.76-76,.22.11Zm17.62,27.91c-.21-.38-.38-.81-.57-1.21.19.4.36.83.57,1.21L1248.88,84Zm-12.31,5.76h0l.6-4ZM1234,96.21l-1.94,0-2.53-.1-2.26-1-1.11.51L1224,96h0l-3.12-1.6L1224,96l2.17-.45,1.11-.51,2.26,1,2.53.1,1.94,0Zm-7.46,12.65a9.78,9.78,0,0,0,1-.34,6.53,6.53,0,0,0,1.6-.91,6.22,6.22,0,0,1-1.6.91,9.78,9.78,0,0,1-1,.34c-.69.35-1.39.68-2.09,1C1225.18,109.54,1225.88,109.21,1226.57,108.86Zm12.06,8.54a21.54,21.54,0,0,0,2.26-2.1,1,1,0,0,1,.16-.14,1,1,0,0,0-.16.14A21.54,21.54,0,0,1,1238.63,117.4Zm-.3.19a1.19,1.19,0,0,0,.15-.09A1.19,1.19,0,0,1,1238.33,117.59Zm7.9-22.22c.46-.86,1-1.7,1.39-2.56l-1.27-.45c.3-.59.61-1.18.92-1.76l-7-4a1.66,1.66,0,0,1-.14-.13,1.66,1.66,0,0,0,.14.13l7,4,.44-.79h0l-.09,3C1247.19,93.67,1246.69,94.51,1246.23,95.37ZM1248,63.52a2.84,2.84,0,0,1-.72.07h0A2.84,2.84,0,0,0,1248,63.52Zm-11.37-9a3.54,3.54,0,0,0-1.19-1.54A3.54,3.54,0,0,1,1236.67,54.55Zm-18.06,1.31c0-.3.05-.59.07-.89h0l1.45-1.72L1218.68,55C1218.66,55.27,1218.64,55.56,1218.61,55.86Zm13.47,15.34h0a2.32,2.32,0,0,0,0,.46A2.32,2.32,0,0,1,1232.08,71.2Zm-5.28,19.29c2.16-2.22,4.41-4.35,6.63-6.52l3.2-2.61h0l-3.2,2.61,1.82.72c-2.29,2.58-2,7.87-7.52,7.11-.76-.11-1.64.63-2.46,1A14.5,14.5,0,0,1,1226.8,90.49Zm-6.28,4.9-.57,2.06c-.43.58-.85,1.16-1.28,1.73-.27-.25-.53-.51-.79-.77l1.7-1.3-.15-1Zm-9.79,14.8,0,0Zm3.49,11.78a7.42,7.42,0,0,1,.2,1A7.42,7.42,0,0,0,1214.22,122Zm2.47-18-.17.07Zm-.25.11a8.36,8.36,0,0,0-1.44,1A8.36,8.36,0,0,1,1216.44,104Zm-7.36,14.24h0a16.56,16.56,0,0,1-3,.94A16.56,16.56,0,0,0,1209.08,118.28Zm-3.75,1.14a11.27,11.27,0,0,0-1.49.47A11.27,11.27,0,0,1,1205.33,119.42Zm-2.16.77a3.86,3.86,0,0,0-1.12.82A3.86,3.86,0,0,1,1203.17,120.19Zm22.81,5.52-.33-.16.33-.46.33.3Zm13.84.24h0l0,0Z"/><path d="M493.83,58.22a15.16,15.16,0,0,0-3.55,1.87c-.29.26.52,1.75.82,2.67l3-2.79c.75-1.57,1.54-3.14,2.14-4.77A15.89,15.89,0,0,0,494,54.06c.19-1.48.38-3,.56-4.43a22.26,22.26,0,0,0,.36,2.84,1.23,1.23,0,0,0,1.1.37c.49-.33,1.1-.87,1.16-1.37.18-1.71.14-3.44.19-5.16,1.32-4.32,2.67-8.63,3.92-13a11,11,0,0,0,.14-2.7c-.62.79-1.61,1.49-1.82,2.38-1,4.4-1.81,8.84-2.69,13.27C491.71,47,490.47,51.76,493.83,58.22Z"/><path d="M919.66,156.08c0-.2-.43-.35-.66-.52a21.36,21.36,0,0,0-1.27,3.32c-.77,3.91-1.41,7.84-2.14,12,.12.56.27,1.29.42,2a12.49,12.49,0,0,0,1.07-2.13c1-3.45,2.15-6.88,2.94-10.39C920.32,159,919.85,157.5,919.66,156.08Z"/><path d="M1156.25,196.92l-1,.2-3.54.94c-3.16,2.07-6.74,3.71-9.39,6.3-3.84,3.76-8.28,4.51-12,1.68a291.92,291.92,0,0,1-22.92-19.55c-3.66-3.4-6.45-7.74-9.64-11.66l-8.16-13.94L1082.47,148c-3.94-6.65-8.53-13-11.65-20-4.66-10.49-5.37-13.88-18.51-9.84h0a.88.88,0,0,0-.68.38l-3.81.75c-11.84,7.38-11.84,7.38-7.64,16.31l11.76,25.09h0l15,25.88,1.8,2.94c1.64,3.24,3.09,6.59,5,9.68,1.4,2.28,3.58,4.09,5.06,6.33,7.78,11.79,20.19,16.32,32.55,20.91.71.26,1.77-.45,2.67-.71l2,.15,6.33-1.82,13.8-2.31c3.9-1.91,7.71-4.07,11.73-5.68,6.58-2.63,10.45-7.46,12.46-14l-.06-6.55Zm-62-24-1.3-.85h0Zm-1.47-.93-2.39-1.11h0Zm-13.3-3.76-1.83-4,1.83,4c.13.33.25.68.36,1C1079.73,168.89,1079.61,168.54,1079.48,168.21Zm-18.12-40.68a13.39,13.39,0,0,0-.47,2,13.39,13.39,0,0,1,.47-2,11.24,11.24,0,0,1,3.7-5.4h0A11.24,11.24,0,0,0,1061.36,127.53Zm0,30.3c0,.87,0,1.73,0,2.6,0-.87,0-1.73,0-2.6Zm2.16,4.49h0l-1.87,2.78Zm1.09,0h0a55.86,55.86,0,0,1,3.53,4.62A53.87,53.87,0,0,0,1064.6,162.36Z"/><path d="M1302.86,107.34c.91.32,2.37,1,2.65.74a11.43,11.43,0,0,0,1.59-3.27,8.34,8.34,0,0,0-2.45-1c-2.32-.14-4.65,0-8.49,0l-1.46.68c1.06.33,2.13.63,3.17,1C1299.54,106.08,1301.19,106.74,1302.86,107.34Z"/><path d="M1036.16,35.9c.06.88.11,1.49.15,2.11.28-.18.74-.3.8-.53,1.14-4.23,2.22-8.46,3.28-12.71,0-.1-.42-.33-.65-.49-1.16,3.33-2.33,6.66-3.44,10A6.2,6.2,0,0,0,1036.16,35.9Z"/><path d="M1012.28,69.61l3.55,3.27,3.21.24c1.88-5.91,4.56-11.71,5.4-17.77.68-4.82,4.77-8.81,2.56-14.6-.85-2.25,3.51-6,3.8-9.29.38-4.11,6.07-7.81,1.25-12.36l.87-3.06c1.21-.55,3.44-1.09,3.45-1.65,0-4.2-.38-8.41-.65-12.62a13,13,0,0,1-3.19,2.1,3.82,3.82,0,0,1-2.74-.74c-3.31-2.22-6.46-4.33-7.68,1.86q-2.55,6.86-5.08,13.71l-.06.24,3.09,1.7c.27-1,.55-2,.83-3h0c.74-2.23,1.47-4.45,2.22-6.67a.42.42,0,0,1,.36-.23c.13,0,.24.19.35.3l3.8-2.89-3.8,2.89c-.09.55-.17,1.1-.26,1.65a9.18,9.18,0,0,0,1.88,2,9.18,9.18,0,0,1-1.88-2l-2.67,8.77-.84-.78-3.08-1.7q-2.37,9.15-4.76,18.3-1,6-2,12a7.71,7.71,0,0,0,4.29-3.66,7.71,7.71,0,0,1-4.29,3.66l-5.1,22.42c-.17.68-.62,1.43-.46,2a10.67,10.67,0,0,0,1.39,2.41q.57-2.58,1.12-5.18l2.26-4.48c.12,2.43.23,4.85.35,7.27l1.69.39C1011.75,72.58,1012,71.09,1012.28,69.61Zm.56-8.49,0,0Zm-1.2,7.46c.38-1.06,2.61-2.52,2.91-3.56C1014.25,66.06,1012,67.52,1011.64,68.58Zm11.52-29.16Zm.28,0c0-.26,0-.52,0-.78h0C1023.45,38.89,1023.45,39.15,1023.44,39.41Zm2.72-24.25-.06,0Zm-6.76,10c.1,0,.21,0,.21.07a1.4,1.4,0,0,1,0,.41,1.51,1.51,0,0,1-.2.35Zm-4.5,16.31a6.31,6.31,0,0,1,.21,1.71A6.31,6.31,0,0,0,1014.9,41.44Zm-5.52,25h0c.49-3.25.9-6.52,1.51-9.75a9.33,9.33,0,0,1,1.4-2.53,11.05,11.05,0,0,1,.6,3.28,37.41,37.41,0,0,1-1.3,5h0c-.2.4-.39.8-.59,1.19Z"/><path d="M927.71,205.89l-2.45-5.18c-.68,1.21-2,2.53-1.87,3.59.29,1.73,1.59,3.29,2.46,4.91Z"/><path d="M1316.62,106.31a29,29,0,0,0,3.46.35c.18,0,.38-.74.57-1.14-1.13-.32-2.24-.71-3.39-.94-.93-.18-1.89-.15-4-.29l-2.79.62c1.29.34,2.58.69,3.88,1C1315.09,106.08,1315.86,106.21,1316.62,106.31Z"/><path d="M712.71,32.86c1.17-.76,2.85-1.27,3.35-2.34.37-.79-.77-2.3-1.24-3.49l-2.77,1.83Z"/><path d="M927.22,196.84c-.63-2.93-1.11-5.19-1.6-7.44-.91,2.3-2.17,4.55-2.56,6.93-.17,1,1.48,2.32,2.31,3.49Z"/><path d="M1254.23,128.41l3.8,2.34,2.62-.32,1.15-1.82.09-.24c0-.83.09-1.66.13-2.49l-8.69.82Z"/><path d="M1293.44,114.72c.31,0,.85-1.46,1.29-2.25l-3.43-.73-3.19,1.57A40.27,40.27,0,0,0,1293.44,114.72Z"/><path d="M1271.26,131.79a10.47,10.47,0,0,0,1.47,1.58c2.17-1.66,4.26-3.43,6.36-5.18l-3.6-.77C1274.39,128.52,1272.77,130.11,1271.26,131.79Z"/><path d="M502.61,116.42l-5,.06,2.1,5.77C500.7,120.3,501.66,118.36,502.61,116.42Z"/><path d="M1328.25,108.74c-.87-.83-2-2.51-2.55-2.33-1.35.46-2.45,1.71-3.53,2.76-.1.1.62,1,.84,1.38Z"/><path d="M348.93,103.38c.58-1.52,1.16-3,1.73-4.56a3.92,3.92,0,0,0,.06-.9l-.59-2c-.57,2.27-1.15,4.54-1.68,6.83C348.41,102.93,348.76,103.18,348.93,103.38Z"/><path d="M1315.06,110.49a13.17,13.17,0,0,0-2.6,1.76l.84,3.07,3.69-4.11C1316.34,110.94,1315.54,110.31,1315.06,110.49Z"/><path d="M1278,110.68c-1.28-.66-1.84-1.12-2-1a32.69,32.69,0,0,0-2.63,2.1c.5.21,1.09.69,1.5.58A20.59,20.59,0,0,0,1278,110.68Z"/><path d="M920.4,150.57a15.08,15.08,0,0,0,1.1,2.56l1.93-1.5c-.8-.87-1.37-1.5-1.95-2.12C921.1,149.87,920.34,150.32,920.4,150.57Z"/><path d="M1302.16,127.91l0,0h0Z"/><path d="M1302.08,131c0-1,.05-2.05.08-3.08l-1.83,2.69Z"/><path d="M338.55,125.91h0a1.11,1.11,0,0,0-.23-.88c-.29-.65-.57-1.3-.85-1.94L334.94,119c-5.64-9-13.75-15-23.41-19.12h0l-1.09-.76c-2.94-.32-5.9-.54-8.85-.83,3,.29,5.91.51,8.85.83-5.69-3.22-11.4-6.41-17.08-9.67A40,40,0,0,1,290,87a21.88,21.88,0,0,1,3.86-1.35c8.92-1.35,17.89-2.44,26.78-4,2.84-.49,7.06-.93,4.59-6a37.89,37.89,0,0,0-2.07-5.36c-3.36-5.91-6.87-11.73-10.33-17.59-1.93-.79-3.94-2.41-5.77-2.22-8.14.85-16.23,2.22-24.33,3.41-.15.43-.29.83-.43,1.21a12.42,12.42,0,0,1-1.63,3.32,2.36,2.36,0,0,1-1.41,1,2.36,2.36,0,0,0,1.41-1,12.42,12.42,0,0,0,1.63-3.32c.14-.38.28-.78.43-1.21l-10.5,2c-2.19.6-4.67.75-6.48,1.93-2.27,1.48-5.42,3.65-5.67,5.81-.7,5.87-1.18,12.19.28,17.8,3.13,12.1,9.26,22.53,21.48,28h0l5.71,3,19.15,8.7h0l2.55,1.17,1.28.51,1.84-.44,3.92,1.59.92.34,7.33,3.9.41-2.28c-.14.76-.28,1.52-.41,2.28l.08,0a.59.59,0,0,0,.49.56q-1.5,2.42-3,4.81c-14.85,14.08-33.06,22.08-52.21,27.94-13.85,4.23-27.64,10.61-42.83,5.55-.35-.11-2.13,2.28-1.93,2.58,2.47,3.51,6.76,6.54,7.47,10.28,1.11,5.93,4.25,6.43,8.79,6.36.29,0,.87,1.92.84,1.93-5.43,2.57,2.24,2.69.83,4.45,4.6.19,9.2.5,13.81.5,1.48,0,3-.79,4.45-1.26.41-.13,1.13-.43,1.12-.6a17.29,17.29,0,0,0-.53-2.43,24.61,24.61,0,0,0,3.65-.11,74.8,74.8,0,0,0,7.4-1.7c.65-.19,1.09-1.1,1.62-1.68a9.5,9.5,0,0,0-1.88-.28c-5.69.21-11.38.47-17.08.68a18.56,18.56,0,0,1-2.56-.22,10,10,0,0,0,2.36-1.17,15.72,15.72,0,0,0,2-2.45c-.19-.35-.38-.7-.58-1h1.42c3.8-1.1,9.5,2.85,11.08-4.14,1.78-.33,4.9-.3,5.09-1,1.74-6.64,7-3.4,10.8-4.27l1.12-.1-.27,1,4.29-.34c-.68-.58-1.4-1.12-2-1.76-.23-.24-.38-.93-.25-1.05.31-.28.84-.31,1.25-.49,1.68-.72,4.17,3.42,5.56-1.63.65-2.34,5.57-3.51,8.56-5.22h0l-.69,3.21a15.58,15.58,0,0,0,2.5-.68,41.52,41.52,0,0,0,4.39-2.29c2.94-1.81,5.82-3.71,8.72-5.57h0l5.72-6.4h0l6.67-1.28c.51.83,1,1.67,1.52,2.51a7.17,7.17,0,0,0-2.54-.17c-1.88.56-3.68,1.37-5.5,2.08l1.38,2,2-.36c-.29.46-.57.92-.85,1.38q-1,1.33-1.95,2.64l-2.09,2.76a22.28,22.28,0,0,0,3.54-1.18c3.75-1.94,7.45-4,11.17-6-.1-.26-.21-.51-.33-.77s-.25-.51-.36-.77c.11.26.24.52.36.77s.23.51.33.77l4.83-3.61c2.13-7.19,2.71-14.28-1.39-21.07C340.06,128.57,339.31,127.24,338.55,125.91ZM311.88,62.4l.15.05-.15-.05Zm9.22,13.65,0,0ZM266,185.63l.25.33-.3.28c-.09-.11-.24-.22-.24-.32S265.86,185.72,266,185.63Zm-6-12.39a4.13,4.13,0,0,1,1.59-2.09,19.39,19.39,0,0,1,3.31-1.38c-.91-.24-1.83-.44-2.73-.74-.28-.1-.49-.44-.73-.67,1-.39,2.06-1.17,3-1.07a3.66,3.66,0,0,1,2.7,1.69c1.27,3.75-.15,5-7.11,5.32C260.11,174.93,259.78,174,260,173.24Zm-13.19-1.43c.75,1,1.5,2.07,2.26,3.1l-2.76.07C246.49,173.92,246.65,172.86,246.82,171.81Zm-7.33,1.72a12.84,12.84,0,0,1-3.28-1.54,10.39,10.39,0,0,1,2.74-1c.88-.07,1.81.37,3.65.81C241,172.79,240.14,173.65,239.49,173.53ZM246.78,185c-1.36,0-2.73-1.15-4.09-1.79l5.12-1.12,3.29,1.17C249.66,183.91,248.22,185,246.78,185Zm3.7-10.08a3.4,3.4,0,0,1-1.38,0c.37-1.1.75-3.13,1.09-3.12a32.4,32.4,0,0,1,5.64.94C254.05,173.48,252.28,174.26,250.48,174.94Zm5.24-5c-.5-.09-.91-.67-1.35-1a8.06,8.06,0,0,1,2.07-.92c.34-.06.79.59,1.83,1.44A8.46,8.46,0,0,1,255.72,169.94Zm5.32,7.29a16,16,0,0,1-1.51,1.35s-.54-.53-.83-.82l1.52-1.37c2.71-.63,5.41-1.3,8.15-1.8a11.79,11.79,0,0,1,.86,2.23Zm73-55.1-.69.89.69-.89Zm-1.39-.67h0l.45.22Zm-1.12,18a1.25,1.25,0,0,0-.65-.18A1.25,1.25,0,0,1,331.51,139.48Zm-16.27-27.06.17.2h0ZM298.57,152c.68.84,1.14,1.15,1.16,1.49a6.46,6.46,0,0,1-.39,1.69c-.26-.32-.65-.61-.74-1A11.19,11.19,0,0,1,298.57,152Zm15.81,6.62.09-.09Zm6.92-10.68c-2.93,2.36-5.92,4.65-8.89,7l-4.48,2.8c.11.6.22,1.2.34,1.8-.12-.6-.23-1.2-.34-1.8l-1.25.87-1,.14-.45.64.45-.64c-5.61,2.5-11.05,5.56-16.88,7.32-5.24,1.59-10.9,1.8-16.39,2.45-.56.07-1.61-.94-1.77-1.61a2.28,2.28,0,0,1,1.21-1.89,6,6,0,0,1,3.32,0c1.94.55,4.16,2.46,5.6,1.95,4.21-1.49,8.1-3.87,12.08-6q9.21-4.81,18.38-9.71c3.11-1.67,6.13-3.49,9.25-5.14.46-.25,1.22.09,1.84.16A5.9,5.9,0,0,1,321.3,147.93Z"/><path d="M1278.29,115.1a16.39,16.39,0,0,0,3.4,0c-1.58-.93-2-1.42-2.54-1.46a16.13,16.13,0,0,0-2.76.22A8.77,8.77,0,0,0,1278.29,115.1Z"/><path d="M1253.79,133.39a29.5,29.5,0,0,0-4,2l2.64.82,3.47-2.12C1255.18,133.84,1254.35,133.21,1253.79,133.39Z"/><path d="M44.78,172.8c.39.36.77,1,1.16,1a18.48,18.48,0,0,0,3.43-.66c-1.22-.77-1.69-1.31-2.07-1.25A13.53,13.53,0,0,0,44.78,172.8Z"/><path d="M864.07,151.52l2.11-2.39-2.92,1.46Z"/><path d="M747.88,154.86l1.44,1.06,1.44-1.26c-.55-.28-1.1-.76-1.66-.77C748.7,153.89,748.29,154.51,747.88,154.86Z"/><path d="M816.21,104.79l-.68,1.29,1.11.61c.16-.38.49-.8.43-1.15S816.51,105,816.21,104.79Z"/><path d="M1282.94,128.68a14.25,14.25,0,0,0-1.53,1.58c-.14.2.12.69.26,1.4.84-.9,1.45-1.54,2-2.22A6.93,6.93,0,0,0,1282.94,128.68Z"/><path d="M151.22,101.44A25,25,0,0,1,150,97.63a17.16,17.16,0,0,1,.17-3.49,17.54,17.54,0,0,0-1.63,3.35c-.53,2.1-.78,4.29-1.15,6.44l3.76-2.09.22,3,1.7.07C152.48,103.76,151.85,102.6,151.22,101.44Z"/><path d="M489.89,65.39c.7.19,1.4.4,2.11.55a3.43,3.43,0,0,0,.34-.69c-.73-.17-1.44-.34-2.16-.46C490.12,64.78,490,65.18,489.89,65.39Z"/><path d="M481.56,155.43c0,.28.45.53.69.79a6.21,6.21,0,0,0,.41-1.59c0-.33-.39-.65-.84-1.34A11.34,11.34,0,0,0,481.56,155.43Z"/><path d="M460.58,118.52c.53.84,1.06,1.67,1.58,2.51l-.51-3Z"/><path d="M1088.35,123.54l.9-1.31-.71-1.28c-.33.42-.89.82-.93,1.27S1088.08,123.1,1088.35,123.54Z"/><path d="M1283.91,114.65a7.58,7.58,0,0,0-.57-1.93c-.6.58-1.17.91-1.13,1.12a5.53,5.53,0,0,0,.75,1.47C1283.3,115.09,1283.91,114.87,1283.91,114.65Z"/><path d="M1318.15,113.87c-.24.44-.77,1-.65,1.32.21.56.81,1,1.67,1.94.35-1,.75-1.57.6-1.76A9.27,9.27,0,0,0,1318.15,113.87Z"/><path d="M908.08,120.19l-1.21.83,1.37-.41Z"/><path d="M906.64,121.13l0,0-.09,0,.14,0h0l.21-.14-.26.07Z"/><path d="M1302.16,127.86h0l1.15-.31c-.08-.11-.15-.23-.22-.34Z"/><path d="M1261.71,130.53h0c1.47-.1,3-.19,4.42-.33a3.43,3.43,0,0,0,.08-.78l-4.34.29c0-.37,0-.74-.07-1.1l-1.15,1.82Z"/><path d="M1007.29,83.23c-.08-.09-.15-.25-.24-.26s-.2.13-.3.2c.08.09.16.25.25.26S1007.2,83.3,1007.29,83.23Z"/><path d="M97.83,102c4.72,3.73,5.7,3.86,7.09.93l1.08-.06-9.74-1.25Z"/><path d="M771.31,97.82c-1.6-.52-3.2-1.06-4.81-1.57a2.67,2.67,0,0,0-.8,0c1.64.89,3.27,1.79,4.94,2.63A10.36,10.36,0,0,0,771.31,97.82Z"/><path d="M765.7,96.23l-.09,0-.05.06Z"/><polygon points="765.61 96.19 765.39 96.05 765.56 96.24 765.61 96.19"/></g></g></svg>