<svg xmlns="http://www.w3.org/2000/svg" width="880" height="308.9" viewBox="0 0 880 308.9">
  <g id="oneonone" transform="translate(0 -0.001)">
    <path id="Path_584" data-name="Path 584" d="M0,1226.249V1044.273c6.042-.522,22.36-1.381,45.25,1.644,26.863,3.552,68.567,13.332,114.69,39.77,9.792,5.61,18.718,10.884,27.351,15.987,69.132,40.842,100.685,59.484,188.076,19.959,49.767-22.512,86.492-32.263,122.8-32.6,36.924-.329,73.4,9.153,120.3,24.593,47.876,15.76,81.738,1.11,120.955-15.856,37.088-16.046,79.074-34.18,140.583-27.51v155.993Z" transform="translate(0 -917.347)" fill="#e9c8d8"/>
    <path id="Path_585" data-name="Path 585" d="M1010.2,1493.117c0,4.864-141.066,8.807-315.077,8.807s-315.077-3.943-315.077-8.807,141.063-8.807,315.077-8.807S1010.2,1488.253,1010.2,1493.117Z" transform="translate(-269.297 -1229.522)" fill="#5db9f4"/>
    <path id="Path_586" data-name="Path 586" d="M2555.62,1247.746a11.04,11.04,0,0,0,14.539-.525,11.04,11.04,0,0,0-14.539.525Z" transform="translate(-1806.869 -1061.645)" fill="#9e84e2"/>
    <path id="Path_587" data-name="Path 587" d="M2385.007,1069.221a264.947,264.947,0,0,0,2.78-42.7c-.058-7.131-.449-14.256-1.014-21.358s-1.411-14.183-2.4-21.233a392.5,392.5,0,0,0-8.416-41.85q-2.667-10.334-5.89-20.51c-2.156-6.781-4.462-13.507-7.122-20.125l-.837.344c2.556,6.595,4.776,13.347,6.84,20.128s3.928,13.627,5.613,20.516a389.8,389.8,0,0,1,7.868,41.766c.9,7.023,1.67,14.067,2.122,21.131s.775,14.137.743,21.209a261.933,261.933,0,0,1-3.275,42.212Z" transform="translate(-1670.512 -818.461)" fill="#9e84e2"/>
    <path id="Path_588" data-name="Path 588" d="M2340.528,804.16c4.031,2.427,7.242,7.577,8.134,13.871s-.758,12.129-3.955,15.582c-4.03-2.427-7.239-7.577-8.134-13.869S2337.334,807.61,2340.528,804.16Z" transform="translate(-1652.331 -751.42)" fill="#9e84e2"/>
    <path id="Path_589" data-name="Path 589" d="M2393.345,878.543c.492,3.64-1.069,8.116-4.464,11.738s-7.761,5.476-11.427,5.219c-.493-3.643,1.069-8.116,4.468-11.741S2389.679,878.286,2393.345,878.543Z" transform="translate(-1681.337 -803.791)" fill="#9e84e2"/>
    <path id="Path_590" data-name="Path 590" d="M2321.579,914.926c-3.086,2-7.8,2.486-12.531.956s-8.259-4.689-9.588-8.116c3.086-2,7.8-2.489,12.531-.956S2320.25,911.5,2321.579,914.926Z" transform="translate(-1626.219 -823.096)" fill="#9e84e2"/>
    <path id="Path_591" data-name="Path 591" d="M2337.389,967.83c-3.086,2-7.8,2.489-12.531.956s-8.256-4.689-9.588-8.113c3.086-2,7.8-2.489,12.531-.959S2336.057,964.405,2337.389,967.83Z" transform="translate(-1637.4 -860.334)" fill="#9e84e2"/>
    <path id="Path_592" data-name="Path 592" d="M2353.939,1022.735c-3.086,2-7.8,2.486-12.531.956s-8.256-4.689-9.588-8.116c3.086-2,7.8-2.489,12.531-.959S2352.61,1019.308,2353.939,1022.735Z" transform="translate(-1649.104 -898.98)" fill="#9e84e2"/>
    <path id="Path_593" data-name="Path 593" d="M2365.056,1073.869c-3.086,2-7.8,2.486-12.531.959s-8.256-4.692-9.585-8.119c3.083-2,7.8-2.486,12.531-.956S2363.727,1070.433,2365.056,1073.869Z" transform="translate(-1656.969 -934.974)" fill="#9e84e2"/>
    <path id="Path_594" data-name="Path 594" d="M2414.21,1063.516c3.086,2,7.8,2.486,12.531.956s8.256-4.689,9.585-8.116c-3.086-2-7.8-2.489-12.531-.956S2415.539,1060.089,2414.21,1063.516Z" transform="translate(-1706.668 -927.685)" fill="#9e84e2"/>
    <path id="Path_595" data-name="Path 595" d="M2408.213,927.184c.49,3.646-1.072,8.119-4.468,11.741s-7.758,5.473-11.423,5.219c-.5-3.643,1.07-8.116,4.464-11.741S2404.544,926.931,2408.213,927.184Z" transform="translate(-1691.852 -838.024)" fill="#9e84e2"/>
    <path id="Path_596" data-name="Path 596" d="M2425.235,982.463c.493,3.64-1.069,8.116-4.464,11.738s-7.758,5.476-11.427,5.219c-.492-3.643,1.072-8.116,4.468-11.741S2421.569,982.206,2425.235,982.463Z" transform="translate(-1703.157 -876.928)" fill="#9e84e2"/>
    <path id="Path_597" data-name="Path 597" d="M2128.008,1029.52a149.006,149.006,0,0,1,17.59,11.657,199.6,199.6,0,0,1,63.8,82.862,205.565,205.565,0,0,1,11.677,40.729l-2.99.5a202.845,202.845,0,0,0-10.9-40.344,195.353,195.353,0,0,0-19.4-37.086,201.741,201.741,0,0,0-42.652-46.067,149,149,0,0,0-17.333-11.884Z" transform="translate(-1504.561 -908.696)" fill="#9e84e2"/>
    <path id="Path_598" data-name="Path 598" d="M2050.25,973.7c.329,4.695,3.454,9.908,8.652,13.554s11.149,4.84,15.678,3.567c-.329-4.695-3.454-9.908-8.652-13.551S2054.779,972.43,2050.25,973.7Z" transform="translate(-1449.966 -870.427)" fill="#9e84e2"/>
    <path id="Path_599" data-name="Path 599" d="M2157.539,961.25c-3.474,3.177-5.607,8.853-5.245,15.2s3.136,11.744,6.95,14.5c3.471-3.173,5.6-8.853,5.246-15.2S2161.351,964.01,2157.539,961.25Z" transform="translate(-1522.145 -861.941)" fill="#9e84e2"/>
    <path id="Path_600" data-name="Path 600" d="M2217.869,996.86c-4.19,2.136-7.76,7.041-9.1,13.257s-.1,12.152,2.838,15.827c4.194-2.136,7.76-7.044,9.1-13.257S2220.81,1000.532,2217.869,996.86Z" transform="translate(-1561.73 -886.999)" fill="#9e84e2"/>
    <path id="Path_601" data-name="Path 601" d="M2265.71,1040.87c-4.193,2.136-7.76,7.041-9.1,13.256s-.1,12.155,2.836,15.827c4.194-2.136,7.763-7.041,9.1-13.257S2268.65,1044.542,2265.71,1040.87Z" transform="translate(-1595.565 -917.963)" fill="#9e84e2"/>
    <path id="Path_602" data-name="Path 602" d="M2308.512,1086.11c-4.6.991-9.3,4.82-12.19,10.491s-3.206,11.724-1.308,16.028c4.6-.991,9.3-4.82,12.19-10.491S2310.415,1090.411,2308.512,1086.11Z" transform="translate(-1622.254 -949.813)" fill="#9e84e2"/>
    <path id="Path_603" data-name="Path 603" d="M2339.756,1142.725c-4.2-.181-9.127,2.069-12.9,6.315s-5.415,9.41-4.739,13.557c4.2.178,9.127-2.072,12.9-6.318S2340.435,1146.878,2339.756,1142.725Z" transform="translate(-1642.154 -989.701)" fill="#9e84e2"/>
    <path id="Path_604" data-name="Path 604" d="M2367.906,1178.326c-4.2-.178-9.127,2.072-12.9,6.318s-5.417,9.41-4.741,13.557c4.2.178,9.13-2.072,12.9-6.318S2368.583,1182.476,2367.906,1178.326Z" transform="translate(-1662.064 -1014.755)" fill="#9e84e2"/>
    <path id="Path_605" data-name="Path 605" d="M2390.156,1230.859c-3.6-.155-7.822,1.772-11.053,5.415s-4.642,8.063-4.062,11.619c3.6.152,7.824-1.775,11.053-5.414S2390.736,1234.411,2390.156,1230.859Z" transform="translate(-1679.606 -1051.754)" fill="#9e84e2"/>
    <path id="Path_606" data-name="Path 606" d="M2399.4,1282.715c-2.623-1.48-6.51-1.655-10.328-.184s-6.583,4.217-7.53,7.07c2.623,1.48,6.51,1.655,10.328.184S2398.451,1285.571,2399.4,1282.715Z" transform="translate(-1684.283 -1087.491)" fill="#9e84e2"/>
    <path id="Path_607" data-name="Path 607" d="M2411.863,1324a11,11,0,0,0-15.323.661,11,11,0,0,0,15.323-.661Z" transform="translate(-1694.901 -1115.47)" fill="#9e84e2"/>
    <path id="Path_608" data-name="Path 608" d="M2079.91,1065.84c4,2.477,10.045,2.984,16.051.906s10.448-6.213,12.062-10.631c-4-2.477-10.042-2.984-16.051-.906S2081.524,1061.42,2079.91,1065.84Z" transform="translate(-1470.929 -927.25)" fill="#9e84e2"/>
    <path id="Path_609" data-name="Path 609" d="M2123.45,1101.67c4,2.477,10.045,2.987,16.054.909s10.448-6.213,12.062-10.634c-4-2.477-10.045-2.984-16.054-.906S2125.067,1097.252,2123.45,1101.67Z" transform="translate(-1501.721 -952.469)" fill="#9e84e2"/>
    <path id="Path_610" data-name="Path 610" d="M2169.88,1145.86c4,2.477,10.042,2.984,16.052.906s10.444-6.213,12.062-10.631c-4-2.477-10.045-2.984-16.054-.906S2171.492,1141.439,2169.88,1145.86Z" transform="translate(-1534.556 -983.571)" fill="#9e84e2"/>
    <path id="Path_611" data-name="Path 611" d="M2222.26,1180.667c3.255,2.011,8.16,2.428,13.056.734s8.5-5.053,9.812-8.646c-3.252-2.014-8.16-2.427-13.056-.737S2223.574,1177.071,2222.26,1180.667Z" transform="translate(-1571.619 -1009.657)" fill="#9e84e2"/>
    <path id="Path_612" data-name="Path 612" d="M2261.5,1212.97c2.661,1.719,6.653,2.116,10.6.749s6.843-4.144,7.868-7.14c-2.66-1.719-6.653-2.116-10.6-.749S2262.52,1209.974,2261.5,1212.97Z" transform="translate(-1599.386 -1033.638)" fill="#9e84e2"/>
    <path id="Path_613" data-name="Path 613" d="M2284.94,1249.067c2.658,1.719,6.653,2.116,10.6.752s6.843-4.144,7.868-7.14c-2.661-1.719-6.653-2.116-10.6-.749S2285.969,1246.074,2284.94,1249.067Z" transform="translate(-1615.963 -1059.048)" fill="#9e84e2"/>
    <path id="Path_614" data-name="Path 614" d="M2310.63,1288.376c2.156,1.833,5.767,2.719,9.64,2.092s7.026-2.623,8.489-5.033c-2.154-1.833-5.767-2.719-9.643-2.092S2312.093,1285.952,2310.63,1288.376Z" transform="translate(-1634.133 -1088.658)" fill="#9e84e2"/>
    <path id="Path_615" data-name="Path 615" d="M2335.46,1319.393a11.709,11.709,0,0,0,13.362-9.124c-2.428-.691-5.654-.067-8.512,1.883A10.569,10.569,0,0,0,2335.46,1319.393Z" transform="translate(-1651.711 -1107.538)" fill="#9e84e2"/>
    <path id="Path_616" data-name="Path 616" d="M2363.059,1345.493a8.061,8.061,0,0,0,6.12-2.623,3.585,3.585,0,1,0-6.12,2.623Z" transform="translate(-1671.231 -1126.366)" fill="#9e84e2"/>
    <path id="Path_617" data-name="Path 617" d="M2381.352,1360.127a5.02,5.02,0,1,0,1.46-3.9A4.688,4.688,0,0,0,2381.352,1360.127Z" transform="translate(-1684.168 -1139.076)" fill="#9e84e2"/>
    <path id="Path_618" data-name="Path 618" d="M2387.268,1372.264a5.012,5.012,0,1,0,1.454-3.9A4.666,4.666,0,0,0,2387.268,1372.264Z" transform="translate(-1688.351 -1147.62)" fill="#9e84e2"/>
    <path id="Path_619" data-name="Path 619" d="M2494,988.8a137.085,137.085,0,0,0-11.974,15.489A184.964,184.964,0,0,0,2450.7,1096.1a190.749,190.749,0,0,0,1.885,39.257l2.777-.452a187.921,187.921,0,0,1-2.456-38.688,180.953,180.953,0,0,1,5.977-38.356,183.3,183.3,0,0,1,13.988-36.3,181.432,181.432,0,0,1,9.754-16.885,136.774,136.774,0,0,1,11.68-15.6Z" transform="translate(-1732.32 -879.973)" fill="#c5b5ee"/>
    <path id="Path_620" data-name="Path 620" d="M2611.941,917.5c1.11,4.223-.082,9.722-3.558,14.484s-8.349,7.577-12.709,7.807c-1.11-4.22.084-9.719,3.558-14.483S2607.584,917.73,2611.941,917.5Z" transform="translate(-1834.965 -831.199)" fill="#c5b5ee"/>
    <path id="Path_621" data-name="Path 621" d="M2536.616,941.33c4,1.748,7.577,6.105,9.139,11.788s.746,11.252-1.781,14.807c-4-1.749-7.577-6.1-9.136-11.788S2534.089,944.888,2536.616,941.33Z" transform="translate(-1791.58 -847.944)" fill="#c5b5ee"/>
    <path id="Path_622" data-name="Path 622" d="M2489.356,993.75c4.319.624,8.915,3.87,11.948,8.929s3.715,10.645,2.226,14.746c-4.319-.624-8.917-3.87-11.948-8.929S2487.867,997.853,2489.356,993.75Z" transform="translate(-1759.378 -884.846)" fill="#c5b5ee"/>
    <path id="Path_623" data-name="Path 623" d="M2460.456,1046.67c4.319.627,8.915,3.87,11.948,8.932s3.716,10.643,2.227,14.746c-4.319-.626-8.917-3.87-11.948-8.932S2458.967,1050.773,2460.456,1046.67Z" transform="translate(-1738.9 -922.084)" fill="#c5b5ee"/>
    <path id="Path_624" data-name="Path 624" d="M2427.3,1102.643c4.333-.5,9.617,1.457,13.833,5.575s6.315,9.325,5.925,13.7c-4.336.5-9.617-1.457-13.831-5.575S2426.908,1106.988,2427.3,1102.643Z" transform="translate(-1715.909 -961.451)" fill="#c5b5ee"/>
    <path id="Path_625" data-name="Path 625" d="M2410.23,1162.265c3.634-1.407,8.635-.9,13.21,1.7s7.577,6.65,8.206,10.491c-3.634,1.407-8.635.9-13.21-1.7S2410.874,1166.108,2410.23,1162.265Z" transform="translate(-1703.848 -1002.974)" fill="#c5b5ee"/>
    <path id="Path_626" data-name="Path 626" d="M2396.13,1201.935c3.634-1.408,8.635-.9,13.21,1.7s7.562,6.65,8.2,10.491c-3.634,1.408-8.635.9-13.21-1.7S2396.771,1205.781,2396.13,1201.935Z" transform="translate(-1694.588 -1030.895)" fill="#c5b5ee"/>
    <path id="Path_627" data-name="Path 627" d="M2397.67,1253.12c3.115-1.207,7.4-.772,11.322,1.457s6.484,5.7,7.035,8.993c-3.115,1.209-7.4.775-11.324-1.457S2398.221,1256.408,2397.67,1253.12Z" transform="translate(-1695.689 -1067.018)" fill="#c5b5ee"/>
    <path id="Path_628" data-name="Path 628" d="M2400.3,1299.571c1.859-2.081,5.225-3.4,9.017-3.241s7.038,1.749,8.722,3.963c-1.859,2.084-5.225,3.4-9.016,3.243S2401.982,1301.8,2400.3,1299.571Z" transform="translate(-1697.551 -1097.935)" fill="#c5b5ee"/>
    <path id="Path_629" data-name="Path 629" d="M2408.22,1336.3a10.2,10.2,0,1,1,7.638.781A9.279,9.279,0,0,1,2408.22,1336.3Z" transform="translate(-1702.423 -1122.408)" fill="#c5b5ee"/>
    <path id="Path_630" data-name="Path 630" d="M2595.077,1017.723c-2.777,3.369-7.932,5.616-13.831,5.584s-11.03-2.331-13.767-5.744c2.777-3.369,7.936-5.616,13.834-5.583S2592.341,1014.316,2595.077,1017.723Z" transform="translate(-1815.272 -897.753)" fill="#c5b5ee"/>
    <path id="Path_631" data-name="Path 631" d="M2567.515,1062.183c-2.774,3.369-7.933,5.616-13.828,5.581s-11.03-2.331-13.766-5.741c2.774-3.369,7.932-5.619,13.831-5.584S2564.781,1058.782,2567.515,1062.183Z" transform="translate(-1795.744 -929.047)" fill="#c5b5ee"/>
    <path id="Path_632" data-name="Path 632" d="M2539.911,1114.833c-2.774,3.369-7.932,5.616-13.828,5.584s-11.03-2.331-13.764-5.744c2.774-3.369,7.929-5.619,13.828-5.584S2537.178,1111.432,2539.911,1114.833Z" transform="translate(-1776.187 -966.106)" fill="#c5b5ee"/>
    <path id="Path_633" data-name="Path 633" d="M2515.185,1158.9c-2.259,2.739-6.452,4.566-11.249,4.54s-8.969-1.906-11.2-4.663c2.259-2.739,6.455-4.569,11.249-4.54S2512.958,1156.133,2515.185,1158.9Z" transform="translate(-1762.313 -997.904)" fill="#c5b5ee"/>
    <path id="Path_634" data-name="Path 634" d="M2499.607,1197.052c-1.821,2.3-5.21,3.841-9.083,3.821s-7.248-1.6-9.034-3.926c1.822-2.3,5.211-3.841,9.087-3.818A11.493,11.493,0,0,1,2499.607,1197.052Z" transform="translate(-1754.341 -1025.292)" fill="#c5b5ee"/>
    <path id="Path_635" data-name="Path 635" d="M2489.78,1235.745c-1.824,2.3-5.213,3.841-9.086,3.818s-7.248-1.6-9.034-3.922c1.824-2.305,5.213-3.841,9.086-3.821A11.487,11.487,0,0,1,2489.78,1235.745Z" transform="translate(-1747.376 -1052.527)" fill="#c5b5ee"/>
    <path id="Path_636" data-name="Path 636" d="M2480.15,1276.563c-1.344,2.256-4.255,4.109-7.845,4.715s-6.944-.2-8.955-1.888c1.346-2.255,4.258-4.112,7.848-4.715S2478.145,1274.873,2480.15,1276.563Z" transform="translate(-1741.488 -1082.561)" fill="#c5b5ee"/>
    <path id="Path_637" data-name="Path 637" d="M2476.341,1312.11a10.864,10.864,0,1,1-6.414-4.916A9.873,9.873,0,0,1,2476.341,1312.11Z" transform="translate(-1740.453 -1105.273)" fill="#c5b5ee"/>
    <path id="Path_638" data-name="Path 638" d="M2469.476,1341.526a8.313,8.313,0,1,1-4.13-4.6A7.513,7.513,0,0,1,2469.476,1341.526Z" transform="translate(-1738.533 -1125.871)" fill="#c5b5ee"/>
    <path id="Path_639" data-name="Path 639" d="M2465.015,1357.6a4.651,4.651,0,1,1-2.439-2.987A4.334,4.334,0,0,1,2465.015,1357.6Z" transform="translate(-1738.207 -1138.648)" fill="#c5b5ee"/>
    <path id="Path_640" data-name="Path 640" d="M2463.435,1370.034a4.651,4.651,0,1,1-2.439-2.987A4.334,4.334,0,0,1,2463.435,1370.034Z" transform="translate(-1737.087 -1147.399)" fill="#c5b5ee"/>
    <path id="Path_641" data-name="Path 641" d="M2278.38,939.53a148.222,148.222,0,0,1,12.082,17.3,197.4,197.4,0,0,1,9.952,18.625,209.351,209.351,0,0,1,7.985,19.569,206.991,206.991,0,0,1,5.872,20.321,197.139,197.139,0,0,1,5.12,41.984,205.485,205.485,0,0,1-4.08,42.174l-2.964-.635a202.75,202.75,0,0,0,4.663-41.527,195.247,195.247,0,0,0-4.424-41.617,201.647,201.647,0,0,0-22.765-58.508A148.137,148.137,0,0,0,2278.06,939.8Z" transform="translate(-1611.012 -845.237)" fill="#7763aa"/>
    <path id="Path_642" data-name="Path 642" d="M2224.922,860c-1.413,4.485-.419,10.471,3.074,15.78s8.591,8.6,13.271,9.075c1.419-4.488.423-10.471-3.072-15.783S2229.6,860.478,2224.922,860Z" transform="translate(-1573.082 -790.726)" fill="#7763aa"/>
    <path id="Path_643" data-name="Path 643" d="M2314.87,891.41c-4.4,1.679-8.451,6.178-10.456,12.216s-1.4,12.073,1.139,16.028c4.395-1.679,8.466-6.175,10.456-12.213S2317.4,895.37,2314.87,891.41Z" transform="translate(-1628.906 -812.811)" fill="#7763aa"/>
    <path id="Path_644" data-name="Path 644" d="M2354.526,950.56c-4.68.449-9.8,3.7-13.326,8.99s-4.561,11.269-3.174,15.763c4.683-.449,9.8-3.7,13.33-8.99S2355.917,955.06,2354.526,950.56Z" transform="translate(-1653.09 -854.449)" fill="#7763aa"/>
    <path id="Path_645" data-name="Path 645" d="M2382.865,1009.06c-4.683.449-9.8,3.7-13.333,8.99s-4.558,11.269-3.17,15.763c4.686-.446,9.806-3.7,13.329-8.99S2384.253,1013.557,2382.865,1009.06Z" transform="translate(-1673.129 -895.612)" fill="#7763aa"/>
    <path id="Path_646" data-name="Path 646" d="M2404.854,1070.949c-4.645-.764-10.427,1.069-15.188,5.28s-7.286,9.725-7.1,14.425c4.642.766,10.424-1.067,15.186-5.281S2405.043,1075.649,2404.854,1070.949Z" transform="translate(-1684.985 -939.077)" fill="#7763aa"/>
    <path id="Path_647" data-name="Path 647" d="M2416.721,1135.662c-3.838-1.708-9.25-1.425-14.314,1.142s-8.492,6.764-9.387,10.87c3.841,1.7,9.25,1.425,14.315-1.142S2415.826,1139.768,2416.721,1135.662Z" transform="translate(-1692.38 -984.029)" fill="#7763aa"/>
    <path id="Path_648" data-name="Path 648" d="M2429.831,1179.117c-3.841-1.7-9.252-1.422-14.314,1.142s-8.492,6.764-9.387,10.87c3.838,1.708,9.25,1.425,14.315-1.142S2428.936,1183.223,2429.831,1179.117Z" transform="translate(-1700.942 -1014.615)" fill="#7763aa"/>
    <path id="Path_649" data-name="Path 649" d="M2433.732,1234.253c-3.29-1.457-7.927-1.221-12.269.979s-7.285,5.8-8.043,9.325c3.29,1.457,7.927,1.221,12.269-.979S2432.965,1237.774,2433.732,1234.253Z" transform="translate(-1706.108 -1053.55)" fill="#7763aa"/>
    <path id="Path_650" data-name="Path 650" d="M2430.99,1283.519c-1.894-2.331-5.449-3.928-9.541-3.96s-7.67,1.5-9.6,3.815c1.895,2.331,5.45,3.928,9.538,3.958S2429.061,1285.83,2430.99,1283.519Z" transform="translate(-1704.995 -1086.132)" fill="#7763aa"/>
    <path id="Path_651" data-name="Path 651" d="M2431.565,1322.569a10.99,10.99,0,0,0-14.495-5.006,11,11,0,0,0,14.495,5.006Z" transform="translate(-1708.695 -1112.103)" fill="#7763aa"/>
    <path id="Path_652" data-name="Path 652" d="M2210,969.116c2.812,3.774,8.25,6.467,14.6,6.738s12-1.944,15.125-5.461c-2.812-3.788-8.247-6.464-14.6-6.738S2213.121,965.6,2210,969.116Z" transform="translate(-1562.924 -863.718)" fill="#7763aa"/>
    <path id="Path_653" data-name="Path 653" d="M2237.34,1018.436c2.812,3.788,8.25,6.467,14.6,6.737s12-1.944,15.125-5.461c-2.812-3.788-8.25-6.464-14.6-6.738S2240.464,1014.918,2237.34,1018.436Z" transform="translate(-1582.259 -898.432)" fill="#7763aa"/>
    <path id="Path_654" data-name="Path 654" d="M2264.3,1076.577c2.812,3.774,8.25,6.464,14.6,6.738s12-1.944,15.122-5.461c-2.81-3.788-8.247-6.467-14.6-6.738S2267.418,1073.059,2264.3,1076.577Z" transform="translate(-1601.325 -939.355)" fill="#7763aa"/>
    <path id="Path_655" data-name="Path 655" d="M2302.25,1125.634c2.288,3.069,6.7,5.245,11.872,5.479s9.76-1.582,12.3-4.441c-2.288-3.069-6.7-5.246-11.872-5.482S2304.8,1122.773,2302.25,1125.634Z" transform="translate(-1628.184 -974.62)" fill="#7763aa"/>
    <path id="Path_656" data-name="Path 656" d="M2328.44,1167.846c1.842,2.576,5.412,4.412,9.585,4.59s7.886-1.343,9.943-3.75c-1.845-2.576-5.415-4.412-9.588-4.59S2330.5,1165.439,2328.44,1167.846Z" transform="translate(-1646.724 -1004.839)" fill="#7763aa"/>
    <path id="Path_657" data-name="Path 657" d="M2337,1210.025c1.842,2.576,5.412,4.412,9.585,4.59s7.886-1.343,9.943-3.75c-1.844-2.576-5.411-4.409-9.584-4.59S2339.04,1207.618,2337,1210.025Z" transform="translate(-1652.777 -1034.53)" fill="#7763aa"/>
    <path id="Path_658" data-name="Path 658" d="M2348.89,1254.344c1.332,2.5,4.371,4.663,8.2,5.484s7.49.152,9.739-1.562c-1.329-2.5-4.371-4.663-8.2-5.487S2351.143,1252.63,2348.89,1254.344Z" transform="translate(-1661.192 -1067.034)" fill="#7763aa"/>
    <path id="Path_659" data-name="Path 659" d="M2356.88,1293.536a10.6,10.6,0,0,0,8.609,1.372c3.363-.766,6.026-2.7,7.172-4.954a10.6,10.6,0,0,0-8.606-1.376C2360.695,1289.342,2358.028,1291.286,2356.88,1293.536Z" transform="translate(-1666.851 -1092.258)" fill="#7763aa"/>
    <path id="Path_660" data-name="Path 660" d="M2373.59,1325.853a8.028,8.028,0,0,0,6.665-.192,8.131,8.131,0,0,0,4.686-4.741,8.953,8.953,0,0,0-11.351,4.934Z" transform="translate(-1678.685 -1114.818)" fill="#7763aa"/>
    <path id="Path_661" data-name="Path 661" d="M2388.29,1343.5a5.012,5.012,0,1,0,2.783-3.092A4.682,4.682,0,0,0,2388.29,1343.5Z" transform="translate(-1689.098 -1128.693)" fill="#7763aa"/>
    <path id="Path_662" data-name="Path 662" d="M2389.33,1356.969a5.015,5.015,0,1,0,2.783-3.089A4.671,4.671,0,0,0,2389.33,1356.969Z" transform="translate(-1689.833 -1138.176)" fill="#7763aa"/>
    <path id="Path_663" data-name="Path 663" d="M2445.337,1259.155c6.645-9.733,13.641-19.234,21.107-28.372l-.122-.1c-7.656,8.981-14.863,18.359-21.705,27.976a337.208,337.208,0,0,0-19.088,29.867q-2.1,3.754-4.08,7.577.772.434,1.544.874,1.9-3.879,3.934-7.687a336.652,336.652,0,0,1,18.409-30.133Z" transform="translate(-1711.798 -1051.033)" fill="#9e84e2"/>
    <path id="Path_664" data-name="Path 664" d="M2581.7,1188.43a9.626,9.626,0,1,0-.9,7.947A8.989,8.989,0,0,0,2581.7,1188.43Z" transform="translate(-1819.641 -1021.942)" fill="#9e84e2"/>
    <path id="Path_665" data-name="Path 665" d="M2536.654,1207.94a11.045,11.045,0,1,0,5.173,5.8A9.851,9.851,0,0,0,2536.654,1207.94Z" transform="translate(-1792.892 -1035.663)" fill="#9e84e2"/>
    <path id="Path_666" data-name="Path 666" d="M2536.39,1272.126a11.041,11.041,0,0,0,14.411-1.984,11.042,11.042,0,0,0-14.411,1.984Z" transform="translate(-1793.242 -1078.23)" fill="#9e84e2"/>
    <path id="Path_667" data-name="Path 667" d="M2511.17,1304.7a11.047,11.047,0,0,0,14.411-1.988,11.038,11.038,0,0,0-14.411,1.988Z" transform="translate(-1775.372 -1101.159)" fill="#9e84e2"/>
    <path id="Path_668" data-name="Path 668" d="M2494,1330.625a11.037,11.037,0,0,0,14.408-1.984,11.037,11.037,0,0,0-14.408,1.984Z" transform="translate(-1763.206 -1119.412)" fill="#9e84e2"/>
    <path id="Path_669" data-name="Path 669" d="M2475,1359.256a11.042,11.042,0,0,0,14.411-1.985,11.042,11.042,0,0,0-14.411,1.985Z" transform="translate(-1749.742 -1139.567)" fill="#9e84e2"/>
    <path id="Path_670" data-name="Path 670" d="M2514.7,1235.88a11.04,11.04,0,1,0,5.173,5.8A9.855,9.855,0,0,0,2514.7,1235.88Z" transform="translate(-1777.337 -1055.329)" fill="#9e84e2"/>
    <path id="Path_671" data-name="Path 671" d="M2493.716,1264.63a11.045,11.045,0,1,0,5.173,5.8A9.874,9.874,0,0,0,2493.716,1264.63Z" transform="translate(-1762.467 -1075.564)" fill="#9e84e2"/>
    <path id="Path_672" data-name="Path 672" d="M2473.741,1293.62a11.04,11.04,0,1,0,5.173,5.8A9.85,9.85,0,0,0,2473.741,1293.62Z" transform="translate(-1748.311 -1095.968)" fill="#9e84e2"/>
    <path id="Path_673" data-name="Path 673" d="M2454.391,1322a11.038,11.038,0,1,0,5.173,5.8A9.843,9.843,0,0,0,2454.391,1322Z" transform="translate(-1734.6 -1115.943)" fill="#9e84e2"/>
    <path id="Path_674" data-name="Path 674" d="M2382.141,1404.88h-44.1c-7.323,3.745-11.975,9.308-11.975,15.53,0,6.641,5.3,12.531,13.5,16.267h41.058c8.194-3.727,13.492-9.617,13.492-16.267C2394.116,1414.188,2389.465,1408.625,2382.141,1404.88Z" transform="translate(-1644.213 -1173.24)" fill="#f4e034"/>
    <path id="Path_675" data-name="Path 675" d="M2488.7,1416.716c4.348-.507,10.17,2.771,11.674,9.36,2.054,13-10.969,16.823-18.068,13.519,6.19-1.553,12.962-4.392,13.161-10.782a12.392,12.392,0,0,0-1.679-6.676,17.917,17.917,0,0,0-1.868-2.5A18.97,18.97,0,0,0,2488.7,1416.716Z" transform="translate(-1754.922 -1182.431)" fill="#f8ed85"/>
    <rect id="Rectangle_671" data-name="Rectangle 671" width="48.713" height="3.06" transform="translate(690.595 228.538)" fill="#4e93c5"/>
    <path id="Path_676" data-name="Path 676" d="M778.736,691.252h3.672V612.91H775.88Z" transform="translate(-548.735 -430.553)" fill="#1e0c00"/>
    <path id="Path_677" data-name="Path 677" d="M500.24,701.036h3.943l2.585-73.4H500.24Z" transform="translate(-354.461 -440.982)" fill="#1e0c00"/>
    <path id="Path_678" data-name="Path 678" d="M942.056,681.71h3.672v-74H939.2Z" transform="translate(-664.242 -426.97)" fill="#1e0c00"/>
    <path id="Path_679" data-name="Path 679" d="M634.467,714.01l3.94-.05,1.888-64.211-6.525.082Z" transform="translate(-448.229 -456.665)" fill="#1e0c00"/>
    <path id="Path_680" data-name="Path 680" d="M421.559,944.781c1.725-12.563-12.866-89.622-19.324-91.9-3.107-1.1-18.091-.583-31.732.172a21.748,21.748,0,0,0-20.312,25.033l9.034,58.516c3.949,25.557,117.817,7.813,117.817,7.813Z" transform="translate(-247.959 -784.873)" fill="#5db9f4"/>
    <path id="Path_681" data-name="Path 681" d="M633.841,921.536c-19.77-2.18-54.093.405-62.261-2.812s-14.993-20.871-21.023-29.835C541.814,875.906,538.65,877.768,529.4,875l13.9,87.717L597.367,986.5l54.845-2.212c.895-.061,3.028-16.9,2.981-18.922C654.913,953.018,656.767,924.063,633.841,921.536Z" transform="translate(-374.301 -800.728)" fill="#00677f"/>
    <path id="Path_682" data-name="Path 682" d="M759.339,1212.327l43.3-10.2a6.8,6.8,0,0,0,5.423-6.726l-.291-7.868c-.271-7.527-7.793-12.735-15.524-10.748L749.53,1187.76Z" transform="translate(-530.035 -1013.218)" fill="#00485c"/>
    <path id="Path_683" data-name="Path 683" d="M969.646,1377.189c-.134,1.253-2.308,3.206.731,5.2,1.023.664,1.239-.962,5.065.874,2.576,1.233,7.154,6.411,9.748,7.029a14.826,14.826,0,0,0,9.011-.661c-2.483-1.615-4.441-3.535-7.207-4.992-8.425-4.435-12.531-38.383-13.988-36.934-3.1,1.457-8.343,2.809-11.406,3.724C966.19,1357.344,970.229,1371.737,969.646,1377.189Z" transform="translate(-680.044 -1133.614)" fill="#fd5e5a"/>
    <path id="Path_684" data-name="Path 684" d="M988.937,1449.4c-1-.647-2.53-.475-3.96-.455.038,1.268-3.526,3.66-.562,5.584,3.042,1.976,7.285,14.037,7.285,14.037l2.005-.56s-6.516-13.385-3.541-12.239,8.183,10.59,8.183,10.59l13.644-4.1-.857-2.492c-1.437-.932-3.73-1.781-5.114-.609C1000.206,1464.088,993.317,1451.4,988.937,1449.4Z" transform="translate(-695.351 -1204.437)" fill="#3a0049"/>
    <path id="Path_685" data-name="Path 685" d="M696,1060c-4.782-7.886-37.106-10.532-64.756-15.737-17.937-3.38-28.932-8.914-28.932-8.914l-5.245,14.1,22.387,15.369,66.994,5.49s14.746,56.445,22.573,69.85l15.209-3.415C715.391,1119.307,700.395,1067.243,696,1060Z" transform="translate(-422.144 -913.3)" fill="#001542"/>
    <path id="Path_686" data-name="Path 686" d="M944.671,1363.81c-3.354.874-6.7,1.821-10.051,2.894,2.282,6.574,3.788,11.9,3.246,13.531-.426,1.262-.927,2.535-1.411,3.756-1.367,3.436-1.032,6.12-.114,7.286.557.714,3.136-.641,5.473,2.914,2.876,4.371,3.969,14.058,3.969,14.058l15.075-.452s1.848-1.306-1.719-3.678-6.219-2.829-7.8-5.866-3.908-19.618-5.951-30.13C945.166,1367.054,944.93,1365.582,944.671,1363.81Z" transform="translate(-660.973 -1144.138)" fill="#fc7575"/>
    <path id="Path_687" data-name="Path 687" d="M961.027,1455.446h0a15.978,15.978,0,0,0-8.063-6.263l-2.763,2.774c-4.54-3.771-5.89-11-9.092-15.122a10.165,10.165,0,0,0-5.076-3.826c-1.367,3.439-2.608,6.455-1.69,7.632,1.241,1.6,4.249,17.535,4.249,17.535l2.2-.428s-3.876-12.881-1.827-14.093,5.686,14.673,5.686,14.673l16.687-.857S961.963,1456.973,961.027,1455.446Z" transform="translate(-660.552 -1193.172)" fill="#4f005e"/>
    <path id="Path_688" data-name="Path 688" d="M881.38,1119.94h.073C881.479,1119.958,881.432,1119.958,881.38,1119.94Z" transform="translate(-623.358 -973.83)" fill="#5279e0"/>
    <path id="Path_689" data-name="Path 689" d="M721.258,1004.692c-.947-1.236-6.944-1.367-6.944-1.367a40.535,40.535,0,0,1-13.3-1.658c-4.144-1.341-25.922-7.452-38.639-15.757-3.73,4.08-9.325,7.017-11.9,11.59.667.4,1.341.787,2.02,1.145,25.843,13.586,45.5,11.1,45.5,11.1s8.847,3.4,13.076,3.885,7.352-.743,5.138-2.139-3.5-.023-5.537-1.3-1.268-1.183-.224-2.445,7.3,0,7.463.991,2.713,8.614,3.963,7.1-1.833-8.833-2.664-9.354a32.09,32.09,0,0,0-5.2-1.355l5.963.938s2.253,7.816,3.3,7.647S722.2,1005.927,721.258,1004.692Z" transform="translate(-459.967 -879.288)" fill="#fd5e5a"/>
    <path id="Path_690" data-name="Path 690" d="M556.682,869.532c-1.731-1.131-24.4-47.862-40.041-47.862-3.363,0-15.331,2.594-15.331,2.594s18.63,44.907,43.468,59.665C547.36,879.353,552.952,873.612,556.682,869.532Z" transform="translate(-354.508 -763.606)" fill="#b57651"/>
    <path id="Path_691" data-name="Path 691" d="M652.392,1063.281l-46.656-6.344s-29.451-10.657-29.506-15.337c-.874.213-17.013,10.226-17.013,10.226-3.643,11.633,1,37.435,9.325,35.786,11.514,3.04,72.945,1.792,72.945,1.792s19.65,44.3,25.114,60.032c4.08-1.308,10.628-3.8,14.725-4.861C678.885,1128.011,656.638,1063.655,652.392,1063.281Z" transform="translate(-394.498 -917.641)" fill="#904"/>
    <path id="Path_692" data-name="Path 692" d="M530.24,882.081c-1.122-5.12-16.867.661-16.867-22.952,0-7.822-.533-11.922.137-18.84.65-6.7-24.622-30.969-24.622-30.969s-21.9,3.643-21.614,10.689,8.078,44.663,8.335,46.944c.8,7.122,19.872,36.96,19.341,42.337C504.065,907.472,526.821,892.476,530.24,882.081Z" transform="translate(-330.43 -754.733)" fill="#f19e6e"/>
    <path id="Path_693" data-name="Path 693" d="M457.865,629.77c-.793,1.1-10.38,1.644-16.532,11.744-6,9.856.44,26.717,4.6,34.8a17.425,17.425,0,0,0,3.252,4.517,27.668,27.668,0,0,1,8.209-2.914c4.415-.723,11.453-1.367,16.063-3.039,4.706-1.708-.621-30.724-5.365-37.3S457.865,629.77,457.865,629.77Z" transform="translate(-310.99 -628.743)" fill="#2e0a29"/>
    <path id="Path_694" data-name="Path 694" d="M483.06,627.32s15.428-4.782,20.65,5.881c3.229,6.595,4.773,27.364,10.975,26.918,0,0-2.428,3.3-4.741,3.681,0,0-.9,1.912,3.514,5.082a30.19,30.19,0,0,1-8.708,3.514c-.315.067-3.5,1.7-4.371-1.087-1.058-3.3.111-11.327-.906-14.524C495.154,643.252,483.06,627.32,483.06,627.32Z" transform="translate(-342.288 -626.25)" fill="#450f3d"/>
    <path id="Path_695" data-name="Path 695" d="M505.51,633.26a10.283,10.283,0,0,1,2.795-.242s7.609,1.585,9.354,8.063,2.331,10.64,3.9,14.74c2.492,6.44,1.912,18.613-5.388,19.936-.889-3.48.175-11.094-.81-14.186C511.773,650.25,506.976,637.217,505.51,633.26Z" transform="translate(-358.196 -631.036)" fill="#340b2e"/>
    <path id="Path_696" data-name="Path 696" d="M495.88,744.33l1.553,21.92s14.6,16.229,21.142,14.74c.344-.079-6.729-14.521-6.912-15.058,0,0-1.6-12.846-1.923-16.7S495.88,744.33,495.88,744.33Z" transform="translate(-351.372 -709.919)" fill="#fc7575"/>
    <path id="Path_697" data-name="Path 697" d="M497.76,747l1.035,11.925c8.16,5.353,12.5-4.73,12.578-4.788-.833-3.15-.187-1.652-.291-3C510.754,747.274,497.76,747,497.76,747Z" transform="translate(-352.704 -711.811)" fill="#fd5e5a"/>
    <path id="Path_698" data-name="Path 698" d="M477.616,634.247a14.4,14.4,0,0,1,11.132,6.064c2.873,4.229,2.6,9.838,4.392,14.507,1.507,3.928,1.979,15.154-3.835,19.2s-16.445-4.736-18.9-9.156a38.656,38.656,0,0,1-4.249-18.785,12.347,12.347,0,0,1,6.149-10.622A9.739,9.739,0,0,1,477.616,634.247Z" transform="translate(-330.311 -631.904)" fill="#fc7575"/>
    <path id="Path_699" data-name="Path 699" d="M536.315,716.4c-1.279-.848-1.982-2.987-2.075-4.409.635,1.236,1.612,3.5,2.623,4.15l.207.14a4.179,4.179,0,0,1-2.384,1.44A6.121,6.121,0,0,0,536.315,716.4Z" transform="translate(-378.553 -687.003)" fill="#450f3d"/>
    <path id="Path_700" data-name="Path 700" d="M505.771,690.185a4.372,4.372,0,0,0-2.375-.647c-1.515-.023-4.266,2.291-4.266,2.291a25.85,25.85,0,0,1,3.788-1.594,6.44,6.44,0,0,1,2.387.42Z" transform="translate(-353.675 -671.094)" fill="#5c1451"/>
    <path id="Path_701" data-name="Path 701" d="M535.84,686.032a4.006,4.006,0,0,1,1.614-1.41c1.166-.609,4.141.032,4.141.032a24.73,24.73,0,0,0-3.517.291,5.751,5.751,0,0,0-1.708,1.244Z" transform="translate(-379.687 -667.424)" fill="#5c1451"/>
    <path id="Path_702" data-name="Path 702" d="M511,703.871a4.052,4.052,0,0,0-3.433-.251c-1.306.548-1.848,1.815-2.658,2.159,1.338.052,1.477-1.457,4.444-1.918A5.479,5.479,0,0,1,511,703.871Z" transform="translate(-357.771 -680.886)" fill="#2e0a29"/>
    <path id="Path_703" data-name="Path 703" d="M540.83,699.821a4.075,4.075,0,0,1,2.331-2.524c1.329-.487,2.591.076,3.418-.227-.944.95-2.081-.067-4.561,1.62A5.5,5.5,0,0,0,540.83,699.821Z" transform="translate(-383.223 -676.431)" fill="#2e0a29"/>
    <path id="Path_704" data-name="Path 704" d="M504.49,721.824c.216,1.037-.965,2.159-2.64,2.509s-3.206-.21-3.421-1.247.967-2.159,2.64-2.509S504.274,720.786,504.49,721.824Z" transform="translate(-353.16 -693.014)" fill="#fd5e5a"/>
    <path id="Path_705" data-name="Path 705" d="M550.976,711.63c.163.787-.6,1.612-1.716,1.845s-2.148-.219-2.314-1.008.606-1.612,1.719-1.845S550.812,710.843,550.976,711.63Z" transform="translate(-387.54 -685.99)" fill="#fd5e5a"/>
    <path id="Path_706" data-name="Path 706" d="M438.665,630.774s-7.285,11.365-5.2,19.79,11.3,17.9,11.3,17.9l-5.563,4.348,6.411,3.788s-18.6,5.146-22.387,5.146-19.7-18.01-7.577-41.116C421.375,629.731,432.688,627.752,438.665,630.774Z" transform="translate(-291.351 -628.55)" fill="#170053"/>
    <path id="Path_707" data-name="Path 707" d="M524.73,738.505s7.667-.752,8.506-2.4c0,0-.42,3.663-2.914,4.357S524.73,738.505,524.73,738.505Z" transform="translate(-371.815 -704.094)" fill="#170053"/>
    <path id="Path_708" data-name="Path 708" d="M532.954,737.3a7.518,7.518,0,0,0,.262-1.189c-.839,1.644-8.507,2.4-8.507,2.4a10.463,10.463,0,0,0,1.058.769C527.709,739.021,531.789,738.371,532.954,737.3Z" transform="translate(-371.801 -704.094)" fill="#fff"/>
    <path id="Path_709" data-name="Path 709" d="M474.206,992.437l-76.99-.519a40.761,40.761,0,0,1-38.263-34.486L347.3,882.022c-1.568-10.168,8.247-18.668,17.928-15.195a3.589,3.589,0,0,1,2.017,1.3c4.622,9.148,11.776,41.32,22.69,50.7,12.951,11.123,47.594,5.33,71.829,3.206,0,0,13.373-1.97,15.605,9.617C479.265,941.448,474.652,981.031,474.206,992.437Z" transform="translate(-245.971 -794.297)" fill="#0089a9"/>
    <path id="Path_710" data-name="Path 710" d="M471.841,991.9c-9.99.376-73.583,2.3-81.859,1.014a42.415,42.415,0,0,1-35.7-36.4c-.026-.184-10.651-72.027-10.491-77.3.449-9.678,10.118-16.631,19.056-12.924-8.311-2.684-19.082,3.925-16.611,16.445,14.294,78.447,11.432,76.535,16.826,86.37a39.151,39.151,0,0,0,34.679,20.312C406.584,989.652,433.293,989.92,471.841,991.9Z" transform="translate(-243.606 -793.745)" fill="#00677f"/>
    <path id="Path_711" data-name="Path 711" d="M409.22,868.75c1.941.513,2.008.492,4.188,4.972,4.479,9.617,14.294,37.937,21.428,43.6l1.023.959c10.255,8.824,43.369,4.54,57.68,3.127l11.566-1.02c10.337-.787,18.421,3.532,19.545,13.758,1.338,12.717-4.989,50.459-6.449,60.21-.874-31.231,3.235-58.2-1.693-63.855-3.978-4.954-13.385-2.375-15.6-2.39l-6.6.74c-51.351,5.537-62.929,1.807-72.435-22.629-5.971-15.477-9.541-35.113-11.26-36.622A6.05,6.05,0,0,0,409.22,868.75Z" transform="translate(-289.966 -796.207)" fill="#32d3f9"/>
    <path id="Path_712" data-name="Path 712" d="M462.845,637.75a15.591,15.591,0,0,0-3.788,3.1c-8.708,9.4-6.8,21.547,2.7,28.235l-2.768,3.608c-10.185-9.162-10.919-23.165-.321-32.254A15.865,15.865,0,0,1,462.845,637.75Z" transform="translate(-319.591 -634.398)" fill="#2d1175"/>
    <path id="Path_713" data-name="Path 713" d="M440.768,634.25c-9.1,6.834-16.185,18.922-11.074,29.019l.731,1.684c.152.152,5.755,12.17,17.867,12.75L448,682.241C428.176,679.714,414.555,651.044,440.768,634.25Z" transform="translate(-302.053 -631.918)" fill="#2d1175"/>
    <path id="Path_714" data-name="Path 714" d="M478.407,632.51s5.892-1.839,10.293,1.128-.143,9.908-5.511,12.12-12.61,3.882-11.324,9.424S475.6,662.3,475.6,662.3s-8.34-2.664-8.34-10S469.886,633.274,478.407,632.51Z" transform="translate(-331.092 -630.286)" fill="#2d1175"/>
    <path id="Path_715" data-name="Path 715" d="M583.74,1038.6a19.55,19.55,0,0,0-7.154-4.43,20.232,20.232,0,0,0-5.723-.2,29.522,29.522,0,0,0-5.4-.035c-6.673.583-39.784-.143-43.526-2.667a8.587,8.587,0,0,1-1.749-1.661c-5.036,4.188-9.891,8.568-12.091,13.88a10.045,10.045,0,0,0,.973.647c12.292,6.877,44.692-3.048,53.784-4.564s14.862,3.739,17.331,6.155c.2.2.822.417.822-.758s-2.547-4.663-2.547-4.663a10.255,10.255,0,0,1,4.118,5.33c1.137,3.582,1.349-.052.828-1.489s-3.206-4.159-3.206-4.406c0-.635,4.176,4.727,4.738,6.187s1.087-.947.376-2.366a11.3,11.3,0,0,0-.895-1.407,9.117,9.117,0,0,0,1.906,1.993C586.716,1044.137,586.031,1040.92,583.74,1038.6Z" transform="translate(-359.288 -910.122)" fill="#fc7575"/>
    <path id="Path_716" data-name="Path 716" d="M476.356,887.881c-3.241-15.1-13.883-61.684-21.137-60.615,0,0-8.16-.443-10.963,9.637-2.736,9.815,6.432,55.576,18.26,64.292C464.717,895.886,471.317,892.068,476.356,887.881Z" transform="translate(-314.447 -767.468)" fill="#b57651"/>
    <path id="Path_717" data-name="Path 717" d="M1907.212,716h-3.672V637.66h6.528Z" transform="translate(-1346.264 -447.1)" fill="#1e0c00"/>
    <path id="Path_718" data-name="Path 718" d="M2185.715,721.132h-3.943l-2.582-68.742h6.525Z" transform="translate(-1541.215 -457.538)" fill="#1e0c00"/>
    <path id="Path_719" data-name="Path 719" d="M1743.892,704.452h-3.672V632.46h6.528Z" transform="translate(-1230.757 -444.392)" fill="#1e0c00"/>
    <path id="Path_720" data-name="Path 720" d="M2051.421,739.1l-3.943-.047L2045.66,673.1l6.528.076Z" transform="translate(-1446.777 -472.213)" fill="#1e0c00"/>
    <path id="Path_721" data-name="Path 721" d="M1971.189,969.527c-1.725-12.56,12.866-89.622,19.324-91.9,3.284-1.166,19.848-.51,34.061.291A19.7,19.7,0,0,1,2042.9,900.6l-9.384,60.746c-3.952,25.557-117.82,7.813-117.82,7.813Z" transform="translate(-1354.449 -802.241)" fill="#468bb7"/>
    <path id="Path_722" data-name="Path 722" d="M1729.6,927.611c20.9-2.293,67.134,4.645,75.768,1.256s12.24-25.621,18.6-35.066c9.232-13.679,12.586-11.718,22.363-14.641l-14.693,92.423-57.156,25.062-57.972-2.331c-.95-.061-3.206-17.8-3.156-19.939C1713.654,961.378,1705.369,930.272,1729.6,927.611Z" transform="translate(-1210.563 -803.588)" fill="#064655"/>
    <path id="Path_723" data-name="Path 723" d="M1782.221,1216.572l-50.3-.064a7,7,0,0,1-7.026-5.353l-1.521-7.737c-1.457-7.4,4.939-14.148,13.207-13.93l45.677,1.209Z" transform="translate(-1218.548 -1022.542)" fill="#064655"/>
    <path id="Path_724" data-name="Path 724" d="M2043.184,1031.66s-3.716,18.342.731,17S2045.341,1033.3,2043.184,1031.66Z" transform="translate(-1444.004 -911.568)" fill="#372c52"/>
    <path id="Path_725" data-name="Path 725" d="M1780.395,1034.69s-4.8,12.123,1.644,28.16c5.6,13.956,12.843,20.425,16.028,20.463.475,0,15.154-17.054,8.585-30.567S1780.395,1034.69,1780.395,1034.69Z" transform="translate(-1257.89 -913.458)" fill="#372c52"/>
    <path id="Path_726" data-name="Path 726" d="M1924.445,839.657c-2.136-3.028-6.921-2.97-9.016-3.206s-4.7-3.815-6.1-3.972-.114,4.167,2.1,4.916.018,2.987-1.524,3.313-7.239,1.026-9.107-1.623-4.607-3.9-4.727-2.821,4.057,4.837,4.057,4.837-6.3-3.788-6.443-2.518,5.415,3.788,5.415,3.788-3.576-.851-4.415-.1,8.976,4.395,10.809,4.6,11.881-2.547,15.183-3.57c1.381-.428,4.567,6.519,8.8,15.113a29.932,29.932,0,0,1,3.383-6.869C1928.72,845.938,1925.29,840.852,1924.445,839.657Z" transform="translate(-1339.192 -771.355)" fill="#fc7575"/>
    <path id="Path_727" data-name="Path 727" d="M2035.18,916.823c-.472.545-1.134-1.4-1.512-1.288-2.882.874-10.847-8.976-17.167-17.575-1.373,2.165-3.981,4.791-4.771,7.247,5.86,11.916,15.113,26.618,23,29.643,0,0,3.121-3.692,6.735-8.894a64.605,64.605,0,0,0-6.283-9.133Z" transform="translate(-1422.706 -817.376)" fill="#8ab3bc"/>
    <path id="Path_728" data-name="Path 728" d="M1844.1,1052.214s-57.467-17.715-66.507-14.553l16.552,23.328,9.78,9.847,49.541-10Z" transform="translate(-1256.98 -915.405)" fill="#fd5e5a"/>
    <path id="Path_729" data-name="Path 729" d="M1834.1,853.523l-.175,13.691,1.524.041,1.909-15.614Z" transform="translate(-1297.041 -598.723)" fill="#1a1722"/>
    <path id="Path_730" data-name="Path 730" d="M1851.676,1100.07c-11.508,6.1-61.923,4.08-72.907,6.7s-12.167,13.324-12.986,20.624c-.641,5.674,8.742,51.77,10.884,75.116-.705,12.473-.874,14.684-3.267,18.8s-2.964,5.01.291,5.01c4.185,0,7.848-.807,8.655-2.521,1.393-2.964,2.6-13.16,5.461-13.16,0,0,1.944-3.788,1.457-5.8-.714-2.879-2.623-1.577-2.774-5.141,1.917-23.45,4.759-61.92,3.328-65.062a27.641,27.641,0,0,0-3.788-6.333s61.667,14.166,68.876,12.446c4.1-.979,13.015-14.8,20.661-28.495Z" transform="translate(-1248.495 -957.256)" fill="#fc7575"/>
    <path id="Path_731" data-name="Path 731" d="M1797.1,1447.5c-1.259,7.661-6.242,22.87-9.18,22.879-3.963,0-4.2-.2-4.176-2.873-2.416,4.164-5.158,6.3-1.9,6.3,4.185,0,10.71.251,11.517-1.457,1.4-2.964,2.156-14.172,5.018-14.172l-.874,13.8,1.521.041s2.25-19,1.749-20.9C1800.091,1448.52,1797.912,1447.966,1797.1,1447.5Z" transform="translate(-1259.103 -1203.439)" fill="#332f44"/>
    <path id="Path_732" data-name="Path 732" d="M1703.737,749.635,1701.91,763.2l1.51.224,3.783-15.267Z" transform="translate(-1203.666 -526.56)" fill="#1a1722"/>
    <path id="Path_733" data-name="Path 733" d="M1703.019,1050.589c1-8.885-8.958-19.411-13.265-14.769-13.21,14.242-20.647,55.853-24.555,72.767-.615,2.669-5.569,29.608-9.092,34.277-2.914,3.844-3.549,4.619-.318,5.012,4.156.5,7.889.146,8.9-1.457,1.749-2.771,4.167-12.747,7.011-12.4,0,0,2.387-3.541,2.139-5.586-.291-2.331-1.629-2.151-2.04-3.739a32.881,32.881,0,0,1,1.848-9.783C1676.631,1107.946,1702.019,1059.474,1703.019,1050.589Z" transform="translate(-1169.401 -912.706)" fill="#ff4747"/>
    <path id="Path_734" data-name="Path 734" d="M1666.095,1343.53c-2.177,7.449-8.979,21.877-11.893,21.53-3.937-.463-4.141-.7-3.789-3.354-5.965,2.914-5.884,5.627-2.652,6.021,4.153.507,10.6,1.547,11.61-.058,1.749-2.774,3.85-13.807,6.7-13.461l-2.547,13.589,1.5.221s4.531-18.587,4.269-20.527C1668.913,1344.833,1666.832,1344.09,1666.095,1343.53Z" transform="translate(-1163.772 -1130.957)" fill="#332f44"/>
    <path id="Path_735" data-name="Path 735" d="M2108.165,851.878c-1.309-5.33-11.319-7.469-15.279-4.054,0,0-26.9,18.272-25.5,29.678,1.355,11.144,5.17,35.416-5.391,42.212l-.513-.2,26.14,12.155c5.793-10.375,8.343-19.98,10.045-24.569C2101.62,896.459,2109.471,857.2,2108.165,851.878Z" transform="translate(-1457.831 -780.695)" fill="#cef2fa"/>
    <path id="Path_736" data-name="Path 736" d="M1865.266,1052.39c-10.334-3.99-65.2-21.122-80.7-18.406,0,0,24.771,26.79,17.68,48.623,0,0,60.323,17.485,65.785,13.28s20.455-27.393,20.492-27.463l2.879-3.879Z" transform="translate(-1261.811 -912.628)" fill="#7f71a4"/>
    <path id="Path_737" data-name="Path 737" d="M1981.927,979.311c-11.223-3.351-22.646-7.5-22.646-7.5a8.4,8.4,0,0,1,1.661-7.221c2.774-3.273,4.336-4.954,3.095-5.1s-5.245,3.917-5.245,3.917,2.165-4.712,4.529-6.522.251-3.5-4.08,2.623-3.949,3.622-3.788,2.331,5.027-7.128,4.607-9.483c-.391-2.183-6.6,7.9-7.717,11.211,2.591-15.466-1.1-12-2.792,3-.484,4.3,3.474,10.255,3.567,10.395.291.542,15.917,9,28.71,15.305C1981.9,987.981,1982.431,983.525,1981.927,979.311Z" transform="translate(-1378.694 -855.402)" fill="#fc7575"/>
    <path id="Path_738" data-name="Path 738" d="M1868.03,873.76c-21.16-2.381-23.506-19.277-23.529-19.449a.656.656,0,0,1,.583-.723.685.685,0,0,1,.758.583c.085.653,2.267,16.028,22.323,18.292a.656.656,0,1,1-.146,1.3Z" transform="translate(-1304.455 -786.23)" fill="#005569"/>
    <path id="Path_739" data-name="Path 739" d="M2194.448,755.327s7.673-1.314,8.334,2.751-1.988,10.319-5.018,12.307c-2.346,1.539-10.462,6.534-12.715,1.7S2185.365,754.57,2194.448,755.327Z" transform="translate(-1544.774 -717.568)" fill="#000086"/>
    <path id="Path_740" data-name="Path 740" d="M2227.863,761.18c1.591,4.022,1.5,8.291-2.573,11.173l.874,1.236C2230.2,770.03,2230.16,765.5,2227.863,761.18Z" transform="translate(-1573.827 -721.858)" fill="#000065"/>
    <path id="Path_741" data-name="Path 741" d="M2146.434,764.839s-.466,6.857-.4,12.449c.035,3.025-1.166,5.044-1.927,7.315-.784,2.378-9.223,12.962-6.743,13.723,1.518.463,12.146-6.825,13.936-7.632,2.847-1.285,5.668-3.66,8.218-4.986l-4-28.358Z" transform="translate(-1511.259 -719.145)" fill="#fc7575"/>
    <path id="Path_742" data-name="Path 742" d="M2177.784,756.546l-9.086,7.489s-.271,3.978-.367,8.346a19.116,19.116,0,0,0,9.993-12.015C2177.3,754.55,2177.784,756.546,2177.784,756.546Z" transform="translate(-1533.523 -718.34)" fill="#fd5e5a"/>
    <path id="Path_743" data-name="Path 743" d="M2137.277,671.15a11.132,11.132,0,0,0-5.747,4.843c-2.081,3.681-.979,9-2.191,12.295s1.218,19.816,8.667,20.25c9.325.528,13.041-13.087,14.026-15.763s.539-13.274-3.378-17.077S2137.277,671.15,2137.277,671.15Z" transform="translate(-1505.692 -658.065)" fill="#fc7575"/>
    <path id="Path_744" data-name="Path 744" d="M2146.484,735.28a55.519,55.519,0,0,1-1.306,6.962,4.452,4.452,0,0,0,2.559.533,4.2,4.2,0,0,1-2.987-.35A57.257,57.257,0,0,1,2146.484,735.28Z" transform="translate(-1516.869 -703.506)" fill="#4f005e"/>
    <path id="Path_745" data-name="Path 745" d="M2168.22,721.832a8.878,8.878,0,0,1,3.99-.466c2,.291,4.06,3.156,4.06,3.156s-2.474-2.392-3.818-2.544a7.954,7.954,0,0,0-2.833.323Z" transform="translate(-1533.451 -693.607)" fill="#4f005e"/>
    <path id="Path_746" data-name="Path 746" d="M2135.24,713.1a7.107,7.107,0,0,0-2.672-2.261c-1.573-.659-4.307.874-4.307.874s2.83-.953,3.864-.463a6.365,6.365,0,0,1,1.9,1.6Z" transform="translate(-1505.194 -686.072)" fill="#4f005e"/>
    <path id="Path_747" data-name="Path 747" d="M2151.277,770c-3.648,1.885-5.1,2-6.467,1.935C2146.923,773.063,2150.073,771.766,2151.277,770Z" transform="translate(-1516.9 -728.108)" fill="#fff"/>
    <path id="Path_748" data-name="Path 748" d="M2169.8,731.068a1.2,1.2,0,0,0,1.3,1.087,1.189,1.189,0,0,0,.962-1.381,1.207,1.207,0,0,0-1.3-1.084,1.186,1.186,0,0,0-.962,1.378Z" transform="translate(-1534.578 -699.542)" fill="#4f005e"/>
    <path id="Path_749" data-name="Path 749" d="M2169.786,731.438c-4.08-4.284-5.849-1.271-7.256-1.093,1.139.1,2.48-1.055,3.721-.708A16.591,16.591,0,0,1,2169.786,731.438Z" transform="translate(-1529.43 -699.163)" fill="#42004a"/>
    <path id="Path_750" data-name="Path 750" d="M2137.712,728.249c.111.676.6,1.166,1.081,1.058a1.153,1.153,0,0,0,.676-1.393c-.114-.676-.6-1.151-1.081-1.061S2137.6,727.57,2137.712,728.249Z" transform="translate(-1511.879 -697.527)" fill="#4f005e"/>
    <path id="Path_751" data-name="Path 751" d="M2135.257,728.377c-3.4-3.885-4.907-.766-6.1-.475.959,0,2.1-1.247,3.139-1.005A13.177,13.177,0,0,1,2135.257,728.377Z" transform="translate(-1505.833 -697.244)" fill="#42004a"/>
    <path id="Path_752" data-name="Path 752" d="M2170.49,747.986c.347,1.128,1.892,1.664,3.445,1.195s2.532-1.748,2.186-2.891-1.888-1.661-3.445-1.195S2170.143,746.858,2170.49,747.986Z" transform="translate(-1535.015 -710.34)" fill="#fd5e5a"/>
    <path id="Path_753" data-name="Path 753" d="M2164.034,667.117c-4.91-5.208-8.713-4.5-9.034-4.631a1.429,1.429,0,0,1,.265-.4c.857-1.166,3.844-4.415,9.87-3.173,6.19,1.122,9.69,2.011,13.181,6.9,1.565,2.2,1.749,6.1,1.326,8.617-.784,4.6-2.894,5.214-2.559,9.946.323,4.532-9.844,7.379-9.844,7.379.2-.551,1.224-4.94,1.731-6.05a8.786,8.786,0,0,0,.21-6.994,3.525,3.525,0,0,1-2.474-1.1C2164.451,675.373,2166.692,673.33,2164.034,667.117Z" transform="translate(-1524.045 -649.197)" fill="#0000bf"/>
    <path id="Path_754" data-name="Path 754" d="M2120.7,661.808a13.242,13.242,0,0,0-8.909.466c-4.447,2-6.971,12.846-5.351,15.495s-8.367,3.847-3.372,5.2C2110.159,684.894,2124.917,663.77,2120.7,661.808Z" transform="translate(-1486.334 -651.046)" fill="#000086"/>
    <path id="Path_755" data-name="Path 755" d="M2133.393,666.792c-6.778-1.5-12.094,2.99-11.365,8.81a3.269,3.269,0,0,0,1.341,2.532l.647-1.247c-.364-.111-.656-1.1-.728-1.457C2122.208,670.278,2126.85,665.842,2133.393,666.792Z" transform="translate(-1500.724 -654.771)" fill="blue"/>
    <path id="Path_756" data-name="Path 756" d="M2198.245,729.212s1.411-4.733,2.978-2.078-1.084,7.492-2.6,6.825S2198.245,729.212,2198.245,729.212Z" transform="translate(-1554.411 -697.161)" fill="#fc7575"/>
    <path id="Path_757" data-name="Path 757" d="M2199.987,733.443s1.058-2.731,1.7-2.084-.46,5.723-1.279,4.908S2199.987,733.443,2199.987,733.443Z" transform="translate(-1555.871 -700.657)" fill="#fd5e5a"/>
    <path id="Path_758" data-name="Path 758" d="M2095.85,853.57s-9.532,3.278-14.889,19.711-6.053,37.485-11.948,39.432c-2.722.9-13.251-4.555-22.273-7.248,2.652,5.554.816,12.732.731,17,4.727,2.331,9.859,3.584,12.889,4.823,11.351,4.642,14.88,3.5,21.766-4.17S2111.889,853,2095.85,853.57Z" transform="translate(-1447.38 -785.945)" fill="#70c3f8"/>
    <path id="Path_759" data-name="Path 759" d="M1909.829,1017.188l76.987-.516a40.767,40.767,0,0,0,38.266-34.486l11.657-75.41c1.571-10.168-8.239-18.671-17.922-15.2a3.576,3.576,0,0,0-2.016,1.3c-4.619,9.148-11.779,41.323-22.7,50.707-12.951,11.123-47.594,5.327-71.829,3.206,0,0-13.373-1.973-15.605,9.617C1904.772,966.2,1909.383,1005.782,1909.829,1017.188Z" transform="translate(-1347.726 -811.643)" fill="#0a6980"/>
    <path id="Path_760" data-name="Path 760" d="M2004.1,898.418c-4.986,9.961-15.32,37.709-22.11,42.838l-.953.874c-9.818,8.23-43.509,3.861-56.7,2.582l-9.981-.854c-7.545-.621-15.011.367-19.472,6.519-3.544,4.663-3.311,10.243-3.147,15.661,1.1,18.2,4.514,35.527,7.784,53.111,1.346-15.967-.536-50.861,1.1-59.158.56-2.975,1.682-4.867,4.937-5.857,7.883-2.331,60.1,10.917,79.641-4.08,15.416-13.021,19.073-52.883,21.938-55.608a5.912,5.912,0,0,1,1.364-.906C2006.251,894.038,2006.263,894.312,2004.1,898.418Z" transform="translate(-1337.49 -813.581)" fill="#32d3f9"/>
    <path id="Path_761" data-name="Path 761" d="M2027.614,890.882c8.128-2.489,18.779,3.972,16.232,16.386-6.816,35.7-9.051,50.29-12.781,73.05-2.774,18-17.086,32.563-38.362,33.029-14.734.256-47.792,1.3-74.072,3.144,24.957,1.413,50.952,1.918,76.06,2.165,13.292.391,29.2-7.676,37.342-22.422,5.324-9.78,4.954-18.068,7.049-29.681,1.851-13.5,3.742-25.484,7.7-58.831C2048.419,893.941,2036.634,886.977,2027.614,890.882Z" transform="translate(-1356.517 -810.926)" fill="#00677f"/>
    <path id="Path_762" data-name="Path 762" d="M1093.792,1264.738h-16.028a1.947,1.947,0,0,0-2.04-1.821h-12.175a3.9,3.9,0,0,0-4.08-3.646h-4.284c2.171-15.984,3.177-26.676,3.928-35.658.606-7.664,4.514-19.63-2.43-37.561,2.226-.326,8.3,1.224,8.3-2.7a2.45,2.45,0,0,0-.472-1.425h8.416c2.806,0,4.773-2.707,3.293-5.033h91.426c-1.288-1.148-8.757-16.319-28.495-16.319H967.089c-20.676,0-27.781,16.168-27.929,16.319h91.426c-1.483,2.331.5,5.033,3.293,5.033h8.416a2.452,2.452,0,0,0-.472,1.425c0,3.931,6.143,2.381,8.3,2.7-2.94,7.577-4.954,17.776-3.788,26.81,2.457,19.33,1.923,21.693,5.28,46.4h-4.284a3.889,3.889,0,0,0-4.08,3.646h-12.19a1.945,1.945,0,0,0-2.04,1.821H1013a2.554,2.554,0,0,0-2.652,2.244h86.085A2.533,2.533,0,0,0,1093.792,1264.738Z" transform="translate(-663.782 -1000.133)" fill="#1c0f00"/>
    <path id="Path_763" data-name="Path 763" d="M939.2,1205.929h228.471c-.411-.364-1.44-2.136-3.284-4.389h-222.4A27.75,27.75,0,0,0,939.2,1205.929Z" transform="translate(-663.81 -1031.242)" fill="#887ea8"/>
    <path id="Path_764" data-name="Path 764" d="M1196.675,911.229c-5.517.291-8.486-.845-11.438,1.565a5.05,5.05,0,0,0-1.8,2.162c-.335,1.5-6.2,62.3-6.2,62.3s.323,1.748,2.3.909S1196.675,911.229,1196.675,911.229Z" transform="translate(-832.57 -826.507)" fill="#30273f"/>
    <path id="Path_765" data-name="Path 765" d="M1183.463,978.638l40.65,5.059a3.534,3.534,0,0,0,4-2.407l1.871-8.4,3.153-14.192,1.058-4.741,3.153-14.18,1.306-5.875,3.141-14.177,1.087-4.9c.411-1.842-1.265-3.541-3.5-3.541h-42.311c-4.3,0-7.921,2.713-8.434,6.315l-8.183,57.73A3.129,3.129,0,0,0,1183.463,978.638Z" transform="translate(-834.743 -826.52)" fill="#40375b"/>
    <path id="Path_766" data-name="Path 766" d="M1315.36,285.02,1329.8,327.7l3.153-14.18-9.652-28.5Z" transform="translate(-930.255 -200.456)" fill="#fff" opacity="0.31"/>
    <path id="Path_767" data-name="Path 767" d="M1278.9,285.02l20.857,61.614,3.153-14.192-16.042-47.422Z" transform="translate(-904.457 -200.339)" fill="#fff" opacity="0.31"/>
    <path id="Path_768" data-name="Path 768" d="M1353.93,285.02l7.661,22.626,3.153-14.177-2.868-8.448Z" transform="translate(-957.547 -200.563)" fill="#fff" opacity="0.31"/>
    <path id="Path_769" data-name="Path 769" d="M1045.1,1141.845h88.008l-.032-7.889-79.895-.187a8.072,8.072,0,0,0-8.075,8.075Z" transform="translate(-738.994 -983.505)" fill="#302944"/>
    <path id="Path_770" data-name="Path 770" d="M1281.05,991.8c0,1.6-5.181,2.894-11.575,2.894S1257.9,993.4,1257.9,991.8s5.181-2.894,11.575-2.894S1281.05,990.207,1281.05,991.8Z" transform="translate(-889.607 -881.547)" fill="#d1c7e5"/>
    <path id="Path_771" data-name="Path 771" d="M1446.095,1027.615a2.078,2.078,0,0,0-2.075-1.955h-13.432a2.078,2.078,0,0,0-2.075,1.955l-.023.364h17.634Z" transform="translate(-1010.264 -907.439)" fill="#eac733"/>
    <path id="Path_772" data-name="Path 772" d="M1423.183,407.37l-2.183,37h21.99l-2.183-37Z" transform="translate(-1004.957 -286.551)" fill="#00c9f7"/>
    <path id="Path_773" data-name="Path 773" d="M1457.222,1003.176a.647.647,0,0,0-.644-.726h-.8a.65.65,0,0,0-.644.726v.035h2.084Z" transform="translate(-1029.136 -891.108)" fill="#eac733"/>
    <path id="Path_774" data-name="Path 774" d="M1486.975,1055.865l-1.483-.909c5.1-8.3,11.429-21.11,9.529-23.581-2.526-3.293-9.267,1.5-9.325,1.547l-1.026-1.4c.329-.242,8.16-5.884,11.744-1.206C1499.713,1034.63,1489.137,1052.357,1486.975,1055.865Z" transform="translate(-1050.008 -909.247)" fill="#00c9f7"/>
    <path id="Path_775" data-name="Path 775" d="M1455.16,378.81l.487,3.925h1.11l.487-3.925Z" transform="translate(-1029.161 -266.677)" fill="#dad2e0"/>
    <path id="Path_776" data-name="Path 776" d="M1443.059,1011.4c-3.515,0-6.367,1.851-6.449,4.156H1449.5C1449.424,1013.251,1446.571,1011.4,1443.059,1011.4Z" transform="translate(-1016.017 -897.389)" fill="#0089a9"/>
    <path id="Path_777" data-name="Path 777" d="M1410.448,421.148l-.568,9.643-6.26-14.061h3.313Z" transform="translate(-992.699 -293.305)" fill="#66a1ad"/>
    <path id="Path_778" data-name="Path 778" d="M1599.91,1122.313c.519-.169,1.061-.326,1.612-.484,3.407-.988,7.268-2.1,7.577-6.662a3.351,3.351,0,0,0-.583-2.36c-1.238-1.577-3.887-1.489-5.371-.924l.466,1.227c1.093-.414,3.1-.475,3.87.507a2.1,2.1,0,0,1,.309,1.457c-.256,3.643-3.36,4.543-6.647,5.493-.562.163-1.119.323-1.652.5Z" transform="translate(-1131.219 -967.814)" fill="#00c9f7"/>
    <path id="Path_779" data-name="Path 779" d="M1547.776,1152.26v.035c0,.895-1.548,1.716-4.15,2.375H1511.64c-2.6-.659-4.15-1.48-4.15-2.375v-.035Z" transform="translate(-1066.079 -996.566)" fill="#0089a9"/>
    <path id="Path_780" data-name="Path 780" d="M1550.565,1107h17.887c.061.268.111.542.157.819h-18.2C1550.457,1107.542,1550.506,1107.268,1550.565,1107Z" transform="translate(-1096.487 -964.714)" fill="#eac733"/>
    <path id="Path_781" data-name="Path 781" d="M1567.971,1109.81a18.444,18.444,0,0,1,.259,3.092,16.317,16.317,0,0,1-2.736,9.343h-13.245a16.3,16.3,0,0,1-2.739-9.343,18.445,18.445,0,0,1,.262-3.092Z" transform="translate(-1095.849 -966.605)" fill="#00c9f7"/>
    <path id="Path_782" data-name="Path 782" d="M1568.246,1105.9c.583-.6,1.515-.125,1.9.114h-.778a.825.825,0,0,0-.874.114c-.431.449-.731,3.325-.831,5.149a.163.163,0,0,1-.163.155h0a.161.161,0,0,1-.155-.172C1567.349,1110.78,1567.594,1106.577,1568.246,1105.9Z" transform="translate(-1108.504 -963.696)" fill="#c16400"/>
    <path id="Path_783" data-name="Path 783" d="M1560.22,1130.121h4.432v-3.608a1.483,1.483,0,0,1-1.483-1.483h-1.457a1.483,1.483,0,0,1-1.483,1.483Z" transform="translate(-1103.458 -977.376)" fill="#26151a"/>
    <rect id="Rectangle_672" data-name="Rectangle 672" width="2.669" height="2.669" transform="translate(460.264 151.998) rotate(180)" fill="#c16400"/>
  </g>
</svg>
