<svg xmlns="http://www.w3.org/2000/svg" width="171.031" height="159.645" viewBox="0 0 171.031 159.645">
  <g id="parrot" transform="translate(0 0.003)">
    <path id="Path_495" data-name="Path 495" d="M43.29,191.73c2.22-6.1,7.53-12,12.73-16.82,6-5.58,12.83-10.51,19.6-15.55S91,150.89,96.46,144.77c.72-.8,2.31-.1,1.7.77-1.2,1.75-1.57,3.67-2.43,5.52l-.9,2c-.26,1.18-.5,2.36-.8,3.54a95.217,95.217,0,0,1-3.28,10.9c-1.35,3.52-2.21,7.15-3.61,10.67-1.52,3.84-3.55,7.57-5.41,11.31-2.85,5.73-7.63,11.73-14.44,15.08a26.24,26.24,0,0,1-19.87,1.16C40.46,203.29,41.58,196.4,43.29,191.73Z" transform="translate(-42 -47.5)" fill="#5b7866"/>
    <path id="Path_496" data-name="Path 496" d="M107.24,148.64c2.3-1.8,5.26-.62,7.47.55.54.29,1.14.68,1.66,1h0a41.63,41.63,0,0,1,9.92,6.31c3.43,3.14,5.76,10.16.67,13.16-6.22,3.67-6.46-7.63-7-9.48-.2-.73-.59-1.4-.86-2.11-.33-.9-1.4-1.23-1.09-.23.43,1.37,1,2.69,1.32,4.09.48,2.06,1.39,6.13-.57,7.88-1.56,1.4-3.27,1.17-5,.1-2.16-1.34-1.77-4.95-1.77-6.79a14.429,14.429,0,0,0-.18-2.93c-.14-.76-.62-1.79-.86-.23s.25,3.34.08,5a3.85,3.85,0,0,1-3.5,3.71c-2.23.14-2.69-2.47-2.77-3.6-.08-1.33.61-2.48,1.06-3.74,1-2.63,0-4.38-1.1-6.76C103.88,152.52,105.37,150.1,107.24,148.64Z" transform="translate(-42 -47.5)" fill="#e65f25"/>
    <path id="Path_497" data-name="Path 497" d="M87.31,151.34a43.451,43.451,0,0,0,3.88-12.08c1.24-8,.32-16.53-1.09-24.44-1.32-7.46-2.5-15.11-2.13-22.64.35-7.1,2.92-13.94,6.44-20.44a63.43,63.43,0,0,1,13.53-16.59c5.33-4.84,12.82-7.53,21-7.65,7.3-.1,14.87,2.33,15.79,8.49.44,2.87-1.15,6.11-1.81,8.89-.87,3.68-1.79,7.34-2.53,11-2,10.06-.13,20.26-1.16,30.36-.45,4.41-.73,8.85-1.13,13.27-.44,4.87-2.29,9.67-4.27,14.28-3.27,7.6-10.06,14.6-18.93,18.79-4.34,2-9.87,4.23-15,4.63-3,.23-5.71.48-8.69.44a30.188,30.188,0,0,1-3.06-.36,1.83,1.83,0,0,1-.71-.1h0a.94.94,0,0,1-.43-.11.86.86,0,0,1-.82-.74,11.378,11.378,0,0,1-.33-1.58C85.87,153.6,86.78,152.44,87.31,151.34Z" transform="translate(-42 -47.5)" fill="#36443b"/>
    <path id="Path_498" data-name="Path 498" d="M69.6,135.61c.2-3.69.38-7.39.9-11.07a91.4,91.4,0,0,1,6.26-22C79.12,96.75,81,90,87.31,85.89c2-1.27,5.44-.92,7.68-.42a7,7,0,0,1,3.59,2.08,10.79,10.79,0,0,1,2.6,3.19c2,3.06,2.36,6.63,2.68,10a47.46,47.46,0,0,1-3.15,21.94,39,39,0,0,1-5.17,9c-2.19,2.89-4.93,5.13-7.64,7.7a24.07,24.07,0,0,1-8.46,4.77c-3.15.84-5.23,1.37-7.65-.89C69.74,141.3,69.48,138,69.6,135.61Z" transform="translate(-42 -47.5)" fill="#5b7866"/>
    <path id="Path_499" data-name="Path 499" d="M114.69,78.48a46.53,46.53,0,0,1,1.66-10.37c.77-2.76,1.89-6,4.3-8.23,3-2.75,7.78-4,12.33-4.17,5.83-.19,10.79,1.13,16.28,2.35a.83.83,0,0,1,.34.16.71.71,0,0,1,.64.67,1.411,1.411,0,0,0,0,.2h0c0,3.17-1.22,6.09-2,9.2a60.67,60.67,0,0,0-1.76,12.39c-.09,1.7-.56,3.38-.63,5.08s.09,3.42.11,5.13c.05,4.07-.13,8.08-.42,12.14-.51,7.29-.86,14.42-3,21.57-1.64,5.52-5.14,11.05-13.43,10.81-7.84-.23-11.23-5.48-12.55-10.88a61.168,61.168,0,0,1-1.89-9.78c-.31-4.06-.11-8.15-.11-12.22C114.55,94.54,114.3,86.49,114.69,78.48Z" transform="translate(-42 -47.5)" fill="#f0dac3"/>
    <path id="Path_500" data-name="Path 500" d="M136.15,83.51A10.85,10.85,0,0,1,137.89,78c.65-.94,2.24-.12,3,.19,5.82,2.52,10.76,5.73,16.06,8.88s10.32,6.3,15.13,9.75c2.53,1.8,5.27,3.41,7.77,5.21,1.42,1,3.37,1.8,4.79,2.86a7.531,7.531,0,0,1,1.25-.06c1,0,1,1.11,0,1.16h-.12c.35.74-1.1,1.31-1.74.59a1.8,1.8,0,0,0-.2-.19c-.95.26-1.94.57-2.72.73-1.1.23-2.12.63-3.22.87a56.679,56.679,0,0,1-5.7.54c-6,.64-10.36-1.21-15.2-3.62-5.38-2.68-10.18-6.36-15.07-9.52-1.93-1.25-4.18-2.52-5-4.42C135.8,88.51,136,86,136.15,83.51Z" transform="translate(-42 -47.5)" fill="#e66021"/>
    <path id="Path_501" data-name="Path 501" d="M137.76,71.38A58.751,58.751,0,0,1,140,63.92c.76-2.17,1.39-4.47,2.33-6.6a1.13,1.13,0,0,1,1.3-.57A131.71,131.71,0,0,1,173,67.18c4.32,2.15,8.8,4.2,13,6.52A99.153,99.153,0,0,1,196.69,81a43,43,0,0,1,14.23,17.6,23.44,23.44,0,0,1,2.11,10,29.688,29.688,0,0,1-.57,4.86,6.809,6.809,0,0,1-.47,1.38c-.38,2.18-1.35,5.09-3.87,5.11-5.09,0-10.61-2-15.09-3.7-11.08-4.3-21-10.65-30.24-17-4.89-3.35-9.91-6.65-14.65-10.13-3.27-2.4-7.35-4.36-9-7.75-.62-1.27-1.91-2.9-2-4.28a22.64,22.64,0,0,1,.62-5.71Z" transform="translate(-42 -47.5)" fill="#f8ad1c"/>
    <path id="Path_502" data-name="Path 502" d="M129.27,65.18a6.29,6.29,0,0,1,3.46.42,1.32,1.32,0,0,1,.2.12,2.11,2.11,0,0,1,.79.53A2.33,2.33,0,0,1,134,69c-1.07,2-4.51,2.42-6.38.83a2.68,2.68,0,0,1-1-2.53C126.82,66.19,128,65.52,129.27,65.18Z" transform="translate(-42 -47.5)" fill="#3f2322"/>
    <path id="Path_503" data-name="Path 503" d="M129.71,67.17a.41.41,0,0,1,.07-.11,1.38,1.38,0,0,1,.89-.86,2,2,0,0,1,1.34,0h.06a1.481,1.481,0,0,1,.13.08l.16.09a1.41,1.41,0,0,1,.51.94c.08.51-.49.94-1.08,1.14h-.08a1.84,1.84,0,0,1-.38.08h0a1.87,1.87,0,0,1-.53,0,1,1,0,0,1-.24-.07,1.389,1.389,0,0,1-.26-.1l-.09-.05a.94.94,0,0,1-.5-1.14Z" transform="translate(-42 -47.5)" fill="#643e39"/>
    <path id="Path_504" data-name="Path 504" d="M130.45,66.79c1.29,0,1.29,1.56,0,1.56S129.15,66.79,130.45,66.79Z" transform="translate(-42 -47.5)" fill="#f6e1d0"/>
    <path id="Path_505" data-name="Path 505" d="M127.68,66.59c.92,0,.92,1.1,0,1.1S126.76,66.59,127.68,66.59Z" transform="translate(-42 -47.5)" fill="#f6e1d0"/>
    <path id="Path_506" data-name="Path 506" d="M128.65,68.3c.74,0,.74.89,0,.89S127.91,68.3,128.65,68.3Z" transform="translate(-42 -47.5)" fill="#f6e1d0"/>
    <path id="Path_507" data-name="Path 507" d="M119.27,78.24a7.73,7.73,0,0,1,5.37-1.74,2.726,2.726,0,0,1,.7.06,4.17,4.17,0,0,1,3.16.85,4.46,4.46,0,0,1,2.32,2.43,4.41,4.41,0,0,1-.74,3.83,7.74,7.74,0,0,1-2.93,2.49,7.47,7.47,0,0,1-5.92.23,6,6,0,0,1-3.46-3.33C117.08,81.34,117.88,79.57,119.27,78.24Z" transform="translate(-42 -47.5)" fill="#f38c6b"/>
    <path id="Path_508" data-name="Path 508" d="M94.6,95.26c.17-.71,1.68-.71,1.85,0S96.2,97,97.63,97.09A1.84,1.84,0,0,0,99,96.6c.22-.23.58-.6,1-.39h.09a.55.55,0,0,1,.35.48c-.06,1.48-2.12,2-3.72,1.79a2.78,2.78,0,0,1-1.89-1.1,2.44,2.44,0,0,1-.23-2.12Z" transform="translate(-42 -47.5)" fill="#36443b"/>
    <path id="Path_509" data-name="Path 509" d="M84.48,92.39c.43-.28,1.13-.21,1.28.26.25.73,0,1.61,1.22,1.89a3.12,3.12,0,0,0,2.39-.72c.47-.39,1.42,0,1.19.54-.58,1.29-2.71,1.92-4.34,1.56S82.91,93.4,84.48,92.39Z" transform="translate(-42 -47.5)" fill="#36443b"/>
    <path id="Path_510" data-name="Path 510" d="M87,99.57c.29-.33,1.13-.36,1.22.12a2.33,2.33,0,0,0,1.22,1.91c1.07.56,2.35-.6,3.1-1.06.43-.27,1,0,.92.42-.36,1.53-2.63,2.61-4.53,2.15a3.79,3.79,0,0,1-2.06-1.39A1.55,1.55,0,0,1,87,99.57Z" transform="translate(-42 -47.5)" fill="#36443b"/>
    <path id="Path_511" data-name="Path 511" d="M79.38,99.35c.39-.18.86,0,1.26-.22a2,2,0,0,0,.82-.73.74.74,0,0,1,.88-.3c.8.34.3,1.28-.1,1.7a2.9,2.9,0,0,1-2.64.81.81.81,0,0,1-.62-.48.62.62,0,0,1,.4-.78Z" transform="translate(-42 -47.5)" fill="#36443b"/>
    <path id="Path_512" data-name="Path 512" d="M98.49,100.83a.48.48,0,0,1,.77.08c.42.8.21,1.79,1.07,2.43a5.558,5.558,0,0,0,.56.11,9.56,9.56,0,0,1,1,.3.6.6,0,0,1,.31.92c-.16.29-.62.34-1,.31-1.32-.15-2.43-.55-2.92-1.56a2.25,2.25,0,0,1,.21-2.59Z" transform="translate(-42 -47.5)" fill="#36443b"/>
    <path id="Path_513" data-name="Path 513" d="M89.77,106.11a.84.84,0,0,1,1.1-.11c.9.84,1.1,2,2.78,2.09,1.31.08,2-1.2,3-1.59.35-.14.79,0,.8.35,0,1.56-2.31,2.91-4.19,2.85C91.1,109.62,88.82,107.8,89.77,106.11Z" transform="translate(-42 -47.5)" fill="#36443b"/>
    <path id="Path_514" data-name="Path 514" d="M79.89,103c.42-.31,1.22-.11,1.19.38a1.78,1.78,0,0,0,1.31,2.06c1,.25,1.83-.57,2.46-1a.62.62,0,0,1,.89.18c.36.67-.46,1.32-1,1.75a3.74,3.74,0,0,1-2.87.64,3.39,3.39,0,0,1-2.32-1.46,1.59,1.59,0,0,1,.34-2.55Z" transform="translate(-42 -47.5)" fill="#36443b"/>
    <path id="Path_515" data-name="Path 515" d="M100.57,107.48a.49.49,0,0,1,.71.14c.19.51.11,1,.44,1.49s1,.94,1.08,1.56-.91.8-1.39.45C100.13,110.19,99.13,108.59,100.57,107.48Z" transform="translate(-42 -47.5)" fill="#36443b"/>
    <path id="Path_516" data-name="Path 516" d="M93.46,112.09a.87.87,0,0,1,.83.08c.79.54.42,1.73,1.6,2,1.36.35,2.25-.61,3-1.29.33-.3.87,0,.78.35a3.66,3.66,0,0,1-4.36,2.46C93.73,115.46,91.59,113,93.46,112.09Z" transform="translate(-42 -47.5)" fill="#36443b"/>
    <path id="Path_517" data-name="Path 517" d="M81.29,109.81a1,1,0,0,1,1.41,0c.59.67.42,2.11,1.5,2.46,1.29.42,2-.29,2.88-.86a.61.61,0,0,1,.81.08c.42.64-.13,1.37-.74,1.83a4.24,4.24,0,0,1-3,.64,3.48,3.48,0,0,1-2.54-1.37,2.66,2.66,0,0,1-.32-2.78Z" transform="translate(-42 -47.5)" fill="#36443b"/>
    <path id="Path_518" data-name="Path 518" d="M74.68,110.7a.86.86,0,0,1,.67-.52,2.77,2.77,0,0,0,1.42-.56,4.93,4.93,0,0,0,.8-1.09.81.81,0,0,1,1.18,0c.36.61-.06,1.44-.5,2a3.6,3.6,0,0,1-2.64,1.16,1,1,0,0,1-.93-.56.51.51,0,0,1,0-.43Z" transform="translate(-42 -47.5)" fill="#36443b"/>
    <path id="Path_519" data-name="Path 519" d="M97.31,118.22a.54.54,0,0,1,.78.16c.33.78.37,1.54,1.18,2.12a.63.63,0,0,1,.26.74.71.71,0,0,1-.26.34,1.23,1.23,0,0,1-1.19.12C96.74,121,96,119.22,97.31,118.22Z" transform="translate(-42 -47.5)" fill="#36443b"/>
    <path id="Path_520" data-name="Path 520" d="M85.42,116.91a1,1,0,0,1,1.43,0c.68.82.5,1.72,2,2A3.39,3.39,0,0,0,92,118a.54.54,0,0,1,.79.17c.28.66-.37,1.25-1,1.7a4.61,4.61,0,0,1-2.91.64C86.73,120.43,84.27,118.64,85.42,116.91Z" transform="translate(-42 -47.5)" fill="#36443b"/>
    <path id="Path_521" data-name="Path 521" d="M75.14,114.26a1,1,0,0,1,1.39,0c.62.92.34,2,1.93,2.29a4,4,0,0,0,1.86-.13c.55-.19.87-.57,1.44-.73.28-.08.67.13.63.37-.26,1.65-2.55,2.37-4.5,2.08C75.7,117.82,74.12,115.91,75.14,114.26Z" transform="translate(-42 -47.5)" fill="#36443b"/>
    <path id="Path_522" data-name="Path 522" d="M89.29,123.62a.92.92,0,0,1,1.36-.28c.64.61.72,1.5,1.77,1.82a3.19,3.19,0,0,0,3.35-1,.73.73,0,0,1,1.08.22c.48,1.64-2.34,2.51-4,2.47C90.8,126.85,88.66,125.28,89.29,123.62Z" transform="translate(-42 -47.5)" fill="#36443b"/>
    <path id="Path_523" data-name="Path 523" d="M77.69,120.83a.93.93,0,0,1,1.22-.13c.69.51.88,1.37,1.37,2,.73,1,2.11.19,2.87-.28.53-.32,1.19,0,1.09.49-.27,1.45-2.83,2.28-4.45,1.65C78.34,124,76.87,122,77.69,120.83Z" transform="translate(-42 -47.5)" fill="#36443b"/>
    <path id="Path_524" data-name="Path 524" d="M71.78,121.32c.29-.45,1.09-.57,1.56-.91.29-.21.51-.65,1-.57h.05a.51.51,0,0,1,.39.3c.39,1-1.53,2.42-2.75,1.93a.49.49,0,0,1-.25-.75Z" transform="translate(-42 -47.5)" fill="#36443b"/>
    <path id="Path_525" data-name="Path 525" d="M91.07,129.79a.56.56,0,0,1,1-.2,15.144,15.144,0,0,1,.75,1.51c.2.35.48,1.18-.32,1.28a1.29,1.29,0,0,1-1.42-.89C90.73,130.9,91,130.38,91.07,129.79Z" transform="translate(-42 -47.5)" fill="#36443b"/>
    <path id="Path_526" data-name="Path 526" d="M81,127.67a1,1,0,0,1,1.3-.13c.64.56.5,1.44,1.38,1.85s3.41.47,3.57-.61a.55.55,0,0,1,.88-.28c.63.53.36,1.2-.18,1.73a4.44,4.44,0,0,1-3,1,5,5,0,0,1-3.33-1,2.1,2.1,0,0,1-.62-2.56Z" transform="translate(-42 -47.5)" fill="#36443b"/>
    <path id="Path_527" data-name="Path 527" d="M72.65,125.61a1,1,0,0,1,1.13,0c.58.38.41,1.08.88,1.54.65.62,1.91.08,2.6-.24.41-.19,1,.13.85.5-.55,1.18-2.77,1.86-4.21,1.25C72.8,128.2,71.5,126.45,72.65,125.61Z" transform="translate(-42 -47.5)" fill="#36443b"/>
    <path id="Path_528" data-name="Path 528" d="M83.61,134.71a.93.93,0,0,1,1,0c.58.45.57,1.1,1.26,1.51a1.08,1.08,0,0,0,1.61-.2.74.74,0,0,1,1.19.12c.27.55-.17,1.09-.72,1.43a2.81,2.81,0,0,1-2.26.35C84.35,137.58,81.94,135.75,83.61,134.71Z" transform="translate(-42 -47.5)" fill="#36443b"/>
    <path id="Path_529" data-name="Path 529" d="M73.94,132.06a.91.91,0,0,1,1.45.15c.39.75,0,1.51,1,2a2.58,2.58,0,0,0,1.15.17,2.326,2.326,0,0,0,1.33-.62c.42-.27,1,0,.86.39a2,2,0,0,1-1.24,1.49,4.35,4.35,0,0,1-2.67.11C74.05,135.31,72.71,133.39,73.94,132.06Z" transform="translate(-42 -47.5)" fill="#36443b"/>
    <path id="Path_530" data-name="Path 530" d="M76.07,137.65a.78.78,0,0,1,1.15,0c.66.78.65,1.93,2,2.23s2-.5,3.12-.74c.37-.08.85.21.68.52-.8,1.5-2.67,2.09-4.68,1.7C76.5,141,75.12,139,76.07,137.65Z" transform="translate(-42 -47.5)" fill="#36443b"/>
    <path id="Path_531" data-name="Path 531" d="M71.38,137.11h0a2.46,2.46,0,0,0,.39-.22,6.647,6.647,0,0,1,.77-.48c.51-.22,1,.14.9.54a2.12,2.12,0,0,1-2.31,1.52C70.18,138.17,70.41,137.18,71.38,137.11Z" transform="translate(-42 -47.5)" fill="#36443b"/>
    <path id="Path_532" data-name="Path 532" d="M59.41,196.68c2.23-4.43,6.15-8.5,9.28-12.57Q74.17,177,79.44,169.8c1.78-2.43,3.59-4.84,5.48-7.23s3.75-5,6.42-6.9a.67.67,0,0,1,.12-.06l.14-.24c.2-.36,1-.1.83.27-2.16,4.74-3.8,9.63-5.88,14.39C84.36,175,82,180,79.66,185c-2.93,6.14-8.06,18.69-18.87,18.8C55.21,203.84,58.12,199.23,59.41,196.68Zm4,5.46c5.09-1.26,7.91-5.49,10.19-8.9,3-4.41,5-9.14,7.17-13.8,1.93-4.1,3.87-8.2,5.65-12.34,1.16-2.7,2.15-5.47,3.37-8.16-2.5,3-5.07,5.93-7.37,9-2.94,4-5.92,7.94-8.88,11.91-2.84,3.8-5.8,7.53-8.71,11.3a43.111,43.111,0,0,0-4.41,6.54A18.479,18.479,0,0,0,59.27,201c-.6,2.05,2.45,1.57,4.16,1.14Z" transform="translate(-42 -47.5)" fill="#36443b"/>
    <path id="Path_533" data-name="Path 533" d="M46.83,191.83a40.51,40.51,0,0,1,3.3-6.54c2.66-4.45,6.62-8.48,10.69-12.2,8.65-7.9,18.13-15.69,29.2-21.6.65-.34,1.47.47.85.85l-1.68,1a.226.226,0,0,1,.17.36c-1.48,2.3-3.74,4.3-5.62,6.3-2,2.22-4.13,4.4-6.08,6.67-4.07,4.73-8,9.51-11.89,14.35a144.563,144.563,0,0,1-11.1,12.81c-.51.51-7.34,7.43-8.74,4C45.1,195.81,46.09,193.8,46.83,191.83ZM49,197a8.53,8.53,0,0,0,3.13-2.49q3.27-3.25,6.25-6.64c3.54-4,6.78-8.22,10.17-12.32,3-3.63,6-7.26,9.14-10.83,3.31-3.77,7.19-7.18,10.67-10.83A205.859,205.859,0,0,0,65.6,170.57c-8.09,6.71-14.6,14.37-17.9,23.19C47.49,194.33,46.08,198,49,197Z" transform="translate(-42 -47.5)" fill="#36443b"/>
    <path id="Path_534" data-name="Path 534" d="M47.61,199.11a3.14,3.14,0,0,1,1.45-1.43,20.63,20.63,0,0,0,3-2.4c.33-.26.82.07.63.38a12.75,12.75,0,0,1-1.85,2.28c-1.42,1.38-2.23,2.49-1.12,4.26.75,1.21,3.17.8,4.44.53,1.53-.33,2.64-1.34,4-1.93a.62.62,0,0,1,.58.06h0a.27.27,0,0,1,0,.44c-2.18,1.89-6.91,4.48-10.07,2a4,4,0,0,1-1.06-4.19Z" transform="translate(-42 -47.5)" fill="#36443b"/>
    <path id="Path_535" data-name="Path 535" d="M122.36,167.4c.34-1,2-1.1,3.06-.92a2.08,2.08,0,0,1,1.85,1.68c.09.28-.13.43-.25.66-.21.38-1.08.19-1-.22a.78.78,0,0,0-.15-.71,1,1,0,0,0-.78-.41c-.5-.09-1.22-.08-1.46.33a.51.51,0,0,1-.32.21.55.55,0,0,1-.71-.08.49.49,0,0,1-.24-.54Z" transform="translate(-42 -47.5)" fill="#f8ad1c"/>
    <path id="Path_536" data-name="Path 536" d="M123.91,165.12c.41-.6,1.69-.56,2.42-.42s1.55.78,1.32,1.45a.5.5,0,0,1-.8.08,1.34,1.34,0,0,0-1.18-.64,10.108,10.108,0,0,1-1.45.11.38.38,0,0,1-.31-.58Z" transform="translate(-42 -47.5)" fill="#f8ad1c"/>
    <path id="Path_537" data-name="Path 537" d="M125.27,163.49a2.86,2.86,0,0,1,1.85.07c.45.17.87.58.55.94a.43.43,0,0,1-.55.06,2,2,0,0,0-1.39-.22C125.1,164.45,124.62,163.71,125.27,163.49Z" transform="translate(-42 -47.5)" fill="#f8ad1c"/>
    <path id="Path_538" data-name="Path 538" d="M125.22,162.51a1.37,1.37,0,0,1,2.11.1c.25.28-.24.61-.59.46a1.75,1.75,0,0,0-1-.09C125.37,163,125,162.77,125.22,162.51Z" transform="translate(-42 -47.5)" fill="#f8ad1c"/>
    <path id="Path_539" data-name="Path 539" d="M115.54,167.13a2.27,2.27,0,0,1,2.53,1c.39.58-.72,1.09-1.13.51a.88.88,0,0,0-1-.48c-.5.12-.58.43-1,.61a.7.7,0,0,1-.7-.07C113.28,168,114.82,167.31,115.54,167.13Z" transform="translate(-42 -47.5)" fill="#f8ad1c"/>
    <path id="Path_540" data-name="Path 540" d="M116.18,165.46a3.429,3.429,0,0,1,1.24.19,2.18,2.18,0,0,1,.57.35.38.38,0,0,1,.12.17.36.36,0,0,1,0,.1h0c.22.26-.22.62-.56.44a1.349,1.349,0,0,1-.25-.18,2.71,2.71,0,0,0-1.14-.18c-.44,0-.61.3-1,.35a.56.56,0,0,1-.56-.18C114.1,165.82,115.49,165.5,116.18,165.46Z" transform="translate(-42 -47.5)" fill="#f8ad1c"/>
    <path id="Path_541" data-name="Path 541" d="M115.55,164.46a2,2,0,0,1,2.26.09.28.28,0,0,1,.11.33l-.09.16a.44.44,0,0,1-.59.05,1.55,1.55,0,0,0-.95.11C115.71,165.5,115,164.82,115.55,164.46Z" transform="translate(-42 -47.5)" fill="#f8ad1c"/>
    <path id="Path_542" data-name="Path 542" d="M117.42,163.27c.3.29-.09.78-.56.55a.86.86,0,0,0-.75,0,.42.42,0,0,1-.53-.31C115.52,162.61,116.89,162.77,117.42,163.27Z" transform="translate(-42 -47.5)" fill="#f8ad1c"/>
    <path id="Path_543" data-name="Path 543" d="M105.53,165.93c.19-.91,1.9-1,2.74-.7s1.94,1.37,1.06,2c-.3.22-.92,0-.75-.34s-.84-.79-1.13-.86,0-.09-.26,0l-.28.1c-.22.08-.27.28-.51.37a.67.67,0,0,1-.63-.07h-.07A.43.43,0,0,1,105.53,165.93Z" transform="translate(-42 -47.5)" fill="#f8ad1c"/>
    <path id="Path_544" data-name="Path 544" d="M106.64,164a2.27,2.27,0,0,1,2.06-.54c.69.11,1.45.62,1.29,1.21-.09.32-.6.29-.81.08a1.24,1.24,0,0,0-1.52-.14C107.14,165,106.17,164.48,106.64,164Z" transform="translate(-42 -47.5)" fill="#f8ad1c"/>
    <path id="Path_545" data-name="Path 545" d="M108.35,162c.84-.16,1.89.29,1.78,1a.47.47,0,0,1-.85.09c-.17-.39-.66-.16-1-.16C107.55,162.92,107.73,162.07,108.35,162Z" transform="translate(-42 -47.5)" fill="#f8ad1c"/>
    <path id="Path_546" data-name="Path 546" d="M108.2,161a1.11,1.11,0,0,1,1.2,0c.51.29.08.92-.5.67-.24-.1-.49,0-.7-.24a.24.24,0,0,1,0-.43Z" transform="translate(-42 -47.5)" fill="#f8ad1c"/>
  </g>
</svg>
