<svg xmlns="http://www.w3.org/2000/svg" width="473.34" height="179.173" viewBox="0 0 473.34 179.173">
  <g id="success" transform="translate(0 -46.331)">
    <path id="Path_1027" data-name="Path 1027" d="M473.34,314h0Z" transform="translate(0 -88.496)" fill="#fff"/>
    <path id="Path_785" data-name="Path 785" d="M1344.457,1432.81s1.817,3.3-1.082,9.157c-2.955,5.971-2.417,10.141-2.417,10.141l-2.732,2.577s-.465-6.634,2.139-11.319A37.529,37.529,0,0,0,1344.457,1432.81Z" transform="translate(-1145.696 -1266.901)" fill="#95a6db"/>
    <path id="Path_786" data-name="Path 786" d="M1397.467,1450.47s.484,2.732-2.788,6.528a16.44,16.44,0,0,0-3.9,7.021l-2.245,1.786s.986-5.316,3.8-8.3A32.229,32.229,0,0,0,1397.467,1450.47Z" transform="translate(-1188.451 -1282.706)" fill="#95a6db"/>
    <path id="Path_787" data-name="Path 787" d="M1300.705,1492.24s-2.451,1.692-4.029,8.568c-1.287,5.6-.016,8.543-.826,11.978l3.474-3.724c.219-2.438-1.343-4.05-.42-9.188A59.813,59.813,0,0,1,1300.705,1492.24Z" transform="translate(-1109.732 -1320.087)" fill="#95a6db"/>
    <path id="Path_788" data-name="Path 788" d="M1130.605,1689.39s-1.093,2.78,1.431,9.362c2.056,5.371,4.852,6.094,5.387,7.333l1.214-2.7c-1.484-2.111-3.174-1.864-5.274-6.643A60.729,60.729,0,0,1,1130.605,1689.39Z" transform="translate(-967.581 -1496.522)" fill="#95a6db"/>
    <path id="Path_789" data-name="Path 789" d="M1244.4,1532.93a51.141,51.141,0,0,0-2.1,7.949c-.572,4.4,1.156,6.767.9,11.3l-2.444,2.942a19.624,19.624,0,0,1-1.2-10.174C1241.108,1535.885,1244.4,1532.93,1244.4,1532.93Z" transform="translate(-1061.298 -1356.502)" fill="#95a6db"/>
    <path id="Path_790" data-name="Path 790" d="M1183.159,1554.24a29.581,29.581,0,0,1,.158,8.607,23.546,23.546,0,0,0,3.371,15.252l-1.82,1.723s-5.58-4.6-4.389-11.85C1181.75,1560.315,1183.159,1554.24,1183.159,1554.24Z" transform="translate(-1010.585 -1375.572)" fill="#95a6db"/>
    <path id="Path_791" data-name="Path 791" d="M1300.8,1656.309s2.051-.712,10.547.429c5.444.735,3.864-1.342,9,.25-3.916.315-5.268,3.167-10.372,2.779a78.606,78.606,0,0,0-12.261.022Z" transform="translate(-1108.587 -1466.721)" fill="#95a6db"/>
    <path id="Path_792" data-name="Path 792" d="M1273.142,1709.4s-3.369,4.18-10.909,3.589a42.452,42.452,0,0,0-13.813,1.223l2.3-3.782s3.14-2.246,10.92-.88A38.767,38.767,0,0,0,1273.142,1709.4Z" transform="translate(-1066.152 -1514.172)" fill="#95a6db"/>
    <path id="Path_793" data-name="Path 793" d="M1229.872,1777.334s-3.369,4.181-10.907,3.589a42.476,42.476,0,0,0-13.815,1.224l2.3-3.782s3.141-2.248,10.92-.881A38.767,38.767,0,0,0,1229.872,1777.334Z" transform="translate(-1029.199 -1574.966)" fill="#95a6db"/>
    <path id="Path_794" data-name="Path 794" d="M1402.952,1579.229s-2.417,2.163-7.173,1.611a23.529,23.529,0,0,0-8.369.452l1.366-1.411s1.985-1.42,6.9-.558A24.514,24.514,0,0,0,1402.952,1579.229Z" transform="translate(-1186.419 -1397.771)" fill="#95a6db"/>
    <path id="Path_795" data-name="Path 795" d="M1340.2,1609.139a53.752,53.752,0,0,1,9.171.167c3.442.315,8.036-1.726,8.036-1.726s-3.566,4.91-8.709,4.115a47.36,47.36,0,0,0-11.736-.157Z" transform="translate(-1142.48 -1423.308)" fill="#95a6db"/>
    <path id="Path_796" data-name="Path 796" d="M1397,1516.232s3.116-4.816,8.3-5.741a28.024,28.024,0,0,0,8.73-3.2s-2.9,4.974-7.748,5.309a13.608,13.608,0,0,0-7.6,3.257Z" transform="translate(-1194.37 -1333.555)" fill="#95a6db"/>
    <path id="Path_797" data-name="Path 797" d="M1194.875,1607.913l-.775-.33c2.035-4.783,11.168-20.3,22.577-27.993l.471.7C1205.9,1587.875,1196.886,1603.192,1194.875,1607.913Z" transform="translate(-1020.015 -1398.259)" fill="#95a6db"/>
    <path id="Path_798" data-name="Path 798" d="M2606.233,1458.893c-1.212.622-2.477.851-3.059,0-.5-.736,1.306-1.981,3.059-2.706v-3.047a6.828,6.828,0,0,1-3.059,1.208c-1.561.1-1.549-.787,1.117-2.312a14.323,14.323,0,0,0,1.942-1.312v-8.477c-1.812,2.914-5.531,8.524-6.808,7.728-1.786-1.1,6.24-8.182,6.682-10.507.268-1.416-2.711-7.422-2.711-7.422s-5.165,12.269-7.648,11.371c-1.2-.43,6.016-11.09,4.953-13.029s-4.042-3.532-4.042-3.532-2.455,9.385-3.74,8.3c-1.034-.872,2.219-7.031,1.546-9.521a6.613,6.613,0,0,0-3.828-4.449s-1.6,5.663-3.468,4.5c-.729-.458,1.87-4.478,1.636-6.257-2.495.134-4.658.093-6.288-1.208-.033,1.378-1.955,2.989-4.68,4.7.991,2.3,6.037,3.162,5.365,4.858-.557,1.409-6.432-2.472-6.432-2.472s-2.127,2.8-1.063,5.681c.834,2.234,6.293,4.5,5.373,5.62-1.136,1.385-7.117-3.8-6.967-3.3,1.156,3.782-.484,8.377-.484,8.377,2.68,6.988,13.43,8.8,11.943,10.473-1.328,1.489-11.6-5.684-11.6-5.684l1.2,5s5.6,5.587,12.977,7.208c-3.8,1.864-11.925-2.912-11.925-2.912a26.47,26.47,0,0,0,3.725,7.6h26.282Zm-28.342-29.322c.42-.546,5.6,1.8,4.876,3.152S2576.938,1430.79,2577.891,1429.571Zm8.406,16.328c-.44,1.334-4.028-.025-6.042-1.291-2.587-1.625-3.921-3.552-3.083-4.425.917-.956,2.668.885,5.044,2.016,2.808,1.347,4.5,2.41,4.076,3.7Zm.322-6.583c-.509,1.2-3.782-.159-3.51-1.489.177-.872,4.015.287,3.506,1.489Zm4.53,14.6c-.526,1.417-4.083-.258-3.492-1.542C2588.115,1451.381,2591.673,1452.5,2591.148,1453.921Zm-1.2-21.3c-1.416-.477.9-5.063,2.18-4.308S2591.345,1433.089,2589.948,1432.62Zm2.34-5.932a.5.5,0,1,1,0,.005h-.007Z" transform="translate(-2177.454 -1253.844)" fill="#95a6db"/>
    <path id="Path_799" data-name="Path 799" d="M2694.88,1519.99l11.388,34.458h1.534Z" transform="translate(-2285.965 -1344.921)" fill="#3a62ad"/>
    <path id="Path_800" data-name="Path 800" d="M2690.65,1702.4l8.335,1.872.064.913Z" transform="translate(-2282.179 -1508.165)" fill="#3a62ad"/>
    <path id="Path_801" data-name="Path 801" d="M2743.23,1589.062l4.287-8.042-4.667,7.025Z" transform="translate(-2328.895 -1399.539)" fill="#3a62ad"/>
    <path id="Path_802" data-name="Path 802" d="M2786.872,1734.825l5.381-5.205-5.463,3.723Z" transform="translate(-2368.218 -1532.525)" fill="#3a62ad"/>
    <path id="Path_803" data-name="Path 803" d="M518.291,1463.416h26.282a26.467,26.467,0,0,0,3.725-7.6s-8.12,4.776-11.924,2.913c7.374-1.621,12.977-7.208,12.977-7.208l1.2-5s-10.275,7.173-11.6,5.684c-1.487-1.675,9.263-3.485,11.943-10.473,0,0-1.642-4.595-.484-8.377.15-.5-5.831,4.682-6.967,3.3-.919-1.121,4.539-3.387,5.373-5.62,1.063-2.879-1.063-5.681-1.063-5.681s-5.874,3.882-6.431,2.472c-.672-1.7,4.374-2.557,5.365-4.858-2.724-1.708-4.646-3.319-4.68-4.7-1.63,1.3-3.793,1.342-6.288,1.208-.234,1.779,2.365,5.8,1.636,6.257-1.862,1.165-3.467-4.5-3.467-4.5a6.613,6.613,0,0,0-3.829,4.449c-.672,2.489,2.581,8.648,1.547,9.52-1.285,1.088-3.741-8.3-3.741-8.3s-2.978,1.6-4.042,3.533,6.149,12.6,4.953,13.029c-2.483.9-7.648-11.371-7.648-11.371s-2.979,6.006-2.711,7.422c.442,2.321,8.466,9.4,6.682,10.507-1.277.8-4.995-4.814-6.807-7.728v8.477a14.334,14.334,0,0,0,1.942,1.312c2.666,1.524,2.679,2.417,1.117,2.312a6.822,6.822,0,0,1-3.059-1.208v3.047c1.753.725,3.563,1.972,3.059,2.706-.582.851-1.846.622-3.059,0Zm23.465-30.647c-.721-1.351,4.451-3.7,4.876-3.152C547.586,1430.834,542.477,1434.119,541.757,1432.769Zm.559,9.475c2.372-1.132,4.123-2.973,5.043-2.016.841.872-.5,2.8-3.083,4.425-2.014,1.266-5.6,2.627-6.042,1.291-.432-1.289,1.265-2.352,4.086-3.7Zm-.9-4.372c.276,1.33-3,2.691-3.51,1.489S541.24,1437,541.42,1437.872Zm-8.04,16.094c-.525-1.416,3.032-2.54,3.492-1.542C537.463,1453.708,533.907,1455.383,533.38,1453.966Zm1.2-21.3c-1.4.468-3.467-3.553-2.18-4.308S536,1432.189,534.58,1432.665Zm-2.336-5.929h-.007a6.658,6.658,0,1,1-6.66-6.661,6.658,6.658,0,0,1,6.66,6.661Z" transform="translate(-442.09 -1253.889)" fill="#95a6db"/>
    <path id="Path_804" data-name="Path 804" d="M597.292,1519.99,585.9,1554.448H584.37Z" transform="translate(-499.896 -1344.921)" fill="#3a62ad"/>
    <path id="Path_805" data-name="Path 805" d="M640.039,1702.4l-8.335,1.872-.064.913Z" transform="translate(-540.665 -1508.165)" fill="#3a62ad"/>
    <path id="Path_806" data-name="Path 806" d="M619.247,1589.062l-4.287-8.042,4.667,7.025Z" transform="translate(-550.346 -1399.539)" fill="#3a62ad"/>
    <path id="Path_807" data-name="Path 807" d="M568.831,1734.825l-5.381-5.205,5.464,3.723Z" transform="translate(-504.248 -1532.525)" fill="#3a62ad"/>
    <path id="Path_808" data-name="Path 808" d="M3026.266,1652.383q-3.677-4.572-1.421-12.083Q3028.775,1647.092,3026.266,1652.383Z" transform="translate(-2580.492 -1452.59)" fill="#95a6db"/>
    <path id="Path_809" data-name="Path 809" d="M3063.065,1594.6q-2.685-4.623.387-11.083Q3066.061,1590.19,3063.065,1594.6Z" transform="translate(-2614.344 -1401.776)" fill="#95a6db"/>
    <path id="Path_810" data-name="Path 810" d="M3099.539,1535.1q-1.876-4.729,1.911-10.361Q3102.982,1531.365,3099.539,1535.1Z" transform="translate(-2647.55 -1349.172)" fill="#95a6db"/>
    <path id="Path_811" data-name="Path 811" d="M3145.426,1486.62q.092,5.747-3.412,8.24Q3141.3,1490.607,3145.426,1486.62Z" transform="translate(-2686.024 -1315.057)" fill="#95a6db"/>
    <path id="Path_812" data-name="Path 812" d="M3188.407,1472q-.776,4.75-4.027,6.279Q3184.417,1474.681,3188.407,1472Z" transform="translate(-2724.032 -1301.974)" fill="#95a6db"/>
    <path id="Path_813" data-name="Path 813" d="M3208.24,1495.315q1.321-3.347,6.009-4.425Q3211.822,1495.049,3208.24,1495.315Z" transform="translate(-2745.385 -1318.879)" fill="#95a6db"/>
    <path id="Path_814" data-name="Path 814" d="M3077.443,1716.59q-4.9,6.216-10.812,5.816Q3069.551,1717.269,3077.443,1716.59Z" transform="translate(-2618.655 -1520.864)" fill="#95a6db"/>
    <path id="Path_815" data-name="Path 815" d="M3109.91,1629.874q3.677-3.142,9.942-1.455Q3114.343,1631.82,3109.91,1629.874Z" transform="translate(-2657.387 -1441.43)" fill="#95a6db"/>
    <path id="Path_816" data-name="Path 816" d="M3147.1,1588.205q-4.793,2.965-8.651,1.267Q3141.652,1586.736,3147.1,1588.205Z" transform="translate(-2682.928 -1405.51)" fill="#95a6db"/>
    <path id="Path_817" data-name="Path 817" d="M3175.36,1552.316q3.2-2.732,8.65-1.261Q3179.216,1554.015,3175.36,1552.316Z" transform="translate(-2715.961 -1372.261)" fill="#95a6db"/>
    <path id="Path_818" data-name="Path 818" d="M3034.13,1567.342c2.058-9.128,2.306-8.4,4.455-13.7q.868-2.15,1.855-4.081a40.986,40.986,0,0,1,4.956-7.343,20.954,20.954,0,0,1,5.707-5.327l.153-.181a.147.147,0,0,1,.161-.1.252.252,0,0,1,.2,0,.443.443,0,0,1,.129.172.252.252,0,0,1,.007.2l-.057.139a.575.575,0,0,1-.173.132v.033l-.146.062a21.685,21.685,0,0,0-5.534,5.21,40.1,40.1,0,0,0-4.849,7.3,42.891,42.891,0,0,0-1.861,4l-.142.356q3.288-4.192,10.416-3.747-5.2,4.888-10.416,3.747c-2.079,5.226-2.266,4.337-4.27,13.239Z" transform="translate(-2589.569 -1359.778)" fill="#95a6db"/>
    <path id="Path_819" data-name="Path 819" d="M316.113,1663.083q3.678-4.571,1.422-12.083Q313.6,1657.8,316.113,1663.083Z" transform="translate(-282.024 -1462.166)" fill="#95a6db"/>
    <path id="Path_820" data-name="Path 820" d="M282.757,1605.363q2.685-4.623-.387-11.083Q279.763,1600.946,282.757,1605.363Z" transform="translate(-251.615 -1411.406)" fill="#95a6db"/>
    <path id="Path_821" data-name="Path 821" d="M244.993,1545.83q1.876-4.722-1.911-10.36Q241.55,1542.1,244.993,1545.83Z" transform="translate(-217.119 -1358.775)" fill="#95a6db"/>
    <path id="Path_822" data-name="Path 822" d="M194.72,1497.34q-.092,5.75,3.413,8.24Q198.845,1501.329,194.72,1497.34Z" transform="translate(-174.258 -1324.651)" fill="#95a6db"/>
    <path id="Path_823" data-name="Path 823" d="M147.42,1482.73q.775,4.748,4.026,6.279Q151.409,1485.411,147.42,1482.73Z" transform="translate(-131.931 -1311.576)" fill="#95a6db"/>
    <path id="Path_824" data-name="Path 824" d="M110.7,1506.034q-1.321-3.347-6.009-4.424Q107.119,1505.77,110.7,1506.034Z" transform="translate(-93.69 -1328.473)" fill="#95a6db"/>
    <path id="Path_825" data-name="Path 825" d="M211.09,1718q4.9,6.216,10.812,5.816Q218.983,1718.677,211.09,1718Z" transform="translate(-188.911 -1522.126)" fill="#95a6db"/>
    <path id="Path_826" data-name="Path 826" d="M175.533,1640.576q-3.677-3.145-9.943-1.455Q171.1,1642.524,175.533,1640.576Z" transform="translate(-148.191 -1451.007)" fill="#95a6db"/>
    <path id="Path_827" data-name="Path 827" d="M149.34,1598.925q4.792,2.964,8.65,1.261Q154.79,1597.454,149.34,1598.925Z" transform="translate(-133.649 -1415.101)" fill="#95a6db"/>
    <path id="Path_828" data-name="Path 828" d="M121.08,1563.023q-3.2-2.732-8.65-1.267Q117.226,1564.722,121.08,1563.023Z" transform="translate(-100.617 -1381.841)" fill="#95a6db"/>
    <path id="Path_829" data-name="Path 829" d="M185.745,1578.067c-2.058-9.129-2.306-8.4-4.454-13.7q-.87-2.151-1.857-4.082a40.962,40.962,0,0,0-4.956-7.341,20.949,20.949,0,0,0-5.706-5.327l-.153-.181a.145.145,0,0,0-.161-.1.256.256,0,0,0-.2-.006.465.465,0,0,0-.129.173.253.253,0,0,0-.006.2l.057.139a.536.536,0,0,0,.173.132v.034l.147.062a21.683,21.683,0,0,1,5.533,5.209,40.192,40.192,0,0,1,4.849,7.3,43.1,43.1,0,0,1,1.861,4l.142.356q-3.286-4.192-10.416-3.748,5.2,4.887,10.416,3.748c2.079,5.226,2.266,4.337,4.27,13.239Z" transform="translate(-150.441 -1369.374)" fill="#95a6db"/>
    <path id="Path_830" data-name="Path 830" d="M153.714,1687.608q-.841-3.858-5.724-5.848Q149.877,1686.693,153.714,1687.608Z" transform="translate(-132.441 -1489.694)" fill="#95a6db"/>
    <path id="Path_831" data-name="Path 831" d="M97.72,1679.89q2.432,3.745,5.772,3.831Q102.108,1680.672,97.72,1679.89Z" transform="translate(-87.452 -1488.021)" fill="#95a6db"/>
    <path id="Path_832" data-name="Path 832" d="M60.88,1691q2.56,2.723,5.318,2.3Q64.614,1691,60.88,1691Z" transform="translate(-54.483 -1497.963)" fill="#95a6db"/>
    <path id="Path_833" data-name="Path 833" d="M47.32,1716.677q-2.3-1.585-5.79-.247Q44.9,1718.063,47.32,1716.677Z" transform="translate(-37.166 -1520.173)" fill="#95a6db"/>
    <path id="Path_834" data-name="Path 834" d="M201.2,1810.469q5.856,1.879,9.49-.946Q206.582,1807.485,201.2,1810.469Z" transform="translate(-180.06 -1603.293)" fill="#95a6db"/>
    <path id="Path_835" data-name="Path 835" d="M149.62,1754.677q-3.735-.43-7.04,3.373Q147.608,1757.854,149.62,1754.677Z" transform="translate(-127.599 -1554.91)" fill="#95a6db"/>
    <path id="Path_836" data-name="Path 836" d="M114.4,1742.548q4.375-.169,6.125-2.935Q117.275,1739.237,114.4,1742.548Z" transform="translate(-102.38 -1541.434)" fill="#95a6db"/>
    <path id="Path_837" data-name="Path 837" d="M80.615,1731.685q-3.248-.369-6.125,2.934Q78.865,1734.447,80.615,1731.685Z" transform="translate(-66.663 -1534.34)" fill="#95a6db"/>
    <path id="Path_838" data-name="Path 838" d="M127.676,1734.365c-5.285-4.991-5.126-4.413-8.812-6.9q-1.492-1.01-2.966-1.826a31.794,31.794,0,0,0-6.378-2.581,16.254,16.254,0,0,0-5.989-.96l-.177-.05a.112.112,0,0,0-.145.008.2.2,0,0,0-.132.083.359.359,0,0,0-.008.167.2.2,0,0,0,.083.133l.1.064a.425.425,0,0,0,.169.01l.014.022.122-.024a16.847,16.847,0,0,1,5.825.959,31.206,31.206,0,0,1,6.292,2.6,33.47,33.47,0,0,1,2.937,1.772l.246.168q-3.936-1.277-8.337,2.1,5.471.9,8.337-2.1c3.606,2.466,3.341,1.813,8.492,6.68Z" transform="translate(-92.233 -1525.729)" fill="#95a6db"/>
    <path id="Path_839" data-name="Path 839" d="M1964.746,1665.81q3.591-5.01.786-12.76Q1961.807,1660.407,1964.746,1665.81Z" transform="translate(-1681.786 -1464.001)" fill="#95a6db"/>
    <path id="Path_840" data-name="Path 840" d="M1925.378,1607.8q2.546-5.01-1.051-11.6Q1921.979,1603.343,1925.378,1607.8Z" transform="translate(-1647.507 -1413.124)" fill="#95a6db"/>
    <path id="Path_841" data-name="Path 841" d="M1881.31,1547.926q1.692-5.063-2.61-10.756Q1877.48,1544.209,1881.31,1547.926Z" transform="translate(-1608.927 -1360.296)" fill="#95a6db"/>
    <path id="Path_842" data-name="Path 842" d="M1824.06,1500.23q.237,6.036,4.06,8.444Q1828.621,1504.173,1824.06,1500.23Z" transform="translate(-1562.229 -1327.237)" fill="#95a6db"/>
    <path id="Path_843" data-name="Path 843" d="M1773.57,1487.66q1.093,4.939,4.591,6.352Q1777.91,1490.24,1773.57,1487.66Z" transform="translate(-1518.891 -1315.988)" fill="#95a6db"/>
    <path id="Path_844" data-name="Path 844" d="M1736.412,1514.251q-1.576-3.433-6.562-4.291Q1732.64,1514.181,1736.412,1514.251Z" transform="translate(-1481.064 -1335.945)" fill="#95a6db"/>
    <path id="Path_845" data-name="Path 845" d="M1843.62,1741.12q5.507,6.234,11.681,5.469Q1851.939,1741.372,1843.62,1741.12Z" transform="translate(-1577.383 -1542.817)" fill="#95a6db"/>
    <path id="Path_846" data-name="Path 846" d="M1812.564,1649.493q-4.044-3.083-10.514-.946Q1808.028,1651.788,1812.564,1649.493Z" transform="translate(-1542.062 -1459.188)" fill="#95a6db"/>
    <path id="Path_847" data-name="Path 847" d="M1782.62,1607.524q5.2,2.831,9.148.824Q1788.251,1605.667,1782.62,1607.524Z" transform="translate(-1525.717 -1422.578)" fill="#95a6db"/>
    <path id="Path_848" data-name="Path 848" d="M1750.887,1571.534q-3.519-2.675-9.147-.824Q1746.943,1573.542,1750.887,1571.534Z" transform="translate(-1490.729 -1389.635)" fill="#95a6db"/>
    <path id="Path_849" data-name="Path 849" d="M1819.482,1585.293c-2.692-9.456-2.909-8.671-5.473-14.112q-1.036-2.206-2.184-4.173a43.017,43.017,0,0,0-5.628-7.412q-3.677-4.048-6.3-5.254l-.171-.181a.152.152,0,0,0-.174-.091.263.263,0,0,0-.21.006.485.485,0,0,0-.125.188.267.267,0,0,0,.005.21l.068.142a.574.574,0,0,0,.188.128v.036l.158.056a22.779,22.779,0,0,1,6.109,5.142,42.179,42.179,0,0,1,5.512,7.376,45.431,45.431,0,0,1,2.186,4.091l.169.366q-3.694-4.2-11.144-3.322,5.739,4.823,11.144,3.322c2.486,5.359,2.626,4.413,5.253,13.637Z" transform="translate(-1537.518 -1375.404)" fill="#95a6db"/>
    <path id="Path_850" data-name="Path 850" d="M602.879,1842.874H169.772c-1.377,0-2.492-.8-2.492-1.778h0c0-.981,1.116-1.776,2.492-1.777H602.879c1.376,0,2.492.8,2.492,1.777h0C605.371,1842.078,604.256,1842.874,602.879,1842.874Z" transform="translate(-149.704 -1630.699)" fill="#95a6db"/>
    <g id="c" transform="translate(57.895 80.498)">
      <path id="Path_851" data-name="Path 851" d="M556.267,631.31l-.42-2.809s1.967-.307,1.863-1.688l-2.069-.025s-1.114-1.02.165-4.124c.3-2.92-1.631-1.455-1.891-2.38-.387-1.366-2.83,1.366-2.9,4.259A13.027,13.027,0,0,0,552.9,631.3Z" transform="translate(-551.007 -619.922)" fill="#f37a50"/>
    </g>
    <path id="Path_852" data-name="Path 852" d="M858.669,1776.814a2.914,2.914,0,0,1,2.094-2.054c2.774,3.9,9.584,1.508,9.36,6.784-10.358-.068-14.662,0-14.662,0a39.308,39.308,0,0,1,.458-5.215l.539.105Z" transform="translate(-731.621 -1572.922)"/>
    <path id="Path_853" data-name="Path 853" d="M711.229,1777.793a2.909,2.909,0,0,1,2.094-2.053c2.774,3.9,9.585,1.507,9.359,6.783-10.357-.068-14.661,0-14.661,0a39.5,39.5,0,0,1,.457-5.215l.54.105Z" transform="translate(-605.525 -1573.799)"/>
    <path id="Path_854" data-name="Path 854" d="M837.793,1207.94s1.681,25.007,1,30.562-3.1,12.685-2.829,31.071c-3.376.861-8.268,0-8.268,0s-.725-20.79,2.844-30.075c-1.451-9.02-6.109-29.679-6.109-29.679Z" transform="translate(-705.097 -1065.658)" fill="#201d40"/>
    <path id="Path_855" data-name="Path 855" d="M728.595,1214.45s-3.4,28.07-5.058,33.393-4.9,9.826-7.912,27.939a34.3,34.3,0,0,1-7.605-.724s1.372-22.252,6.776-27.476c.183-9.148-.874-32.953-.874-32.953Z" transform="translate(-605.017 -1071.484)" fill="#2c2858"/>
    <path id="Path_856" data-name="Path 856" d="M615.582,874.682s-.249.193-14.238-2.215a.011.011,0,0,0-.012,0l-4.949,4.218a.014.014,0,0,0,0,.02c3.688,4.079,19.589,6.573,19.589,6.573Z" transform="translate(-509.69 -765.432)" fill="#95a6db"/>
    <path id="Path_857" data-name="Path 857" d="M835.74,857.633l4.915-.793,4.874,1.015-5.02,5.909Z" transform="translate(-715.235 -751.449)" fill="#95a6db"/>
    <path id="Path_858" data-name="Path 858" d="M852.91,832c1.944,1.518,4,2.168,6.141.63l.294-7.565-6.409-.077Z" transform="translate(-730.257 -722.945)" fill="#f37a50"/>
    <path id="Path_859" data-name="Path 859" d="M772.572,867.142h0l-1.5-.482.058-2.084-3.848,3.538-1.136.26-1.123-.315-3.684-3.708-.037,2.083-1.276.346h0l-5.4.742V891.55L752.6,902.664c6.326,1.645,15.752,1.734,22.493.341l-1.115-10.127,2.146-24.376Z" transform="translate(-642.835 -758.17)" fill="#95a6db"/>
    <path id="Path_860" data-name="Path 860" d="M868.466,928.12s-.676,14.694-1.786,22.217c.357.431,1.968,2.381,1.968,2.381s1.958-1.854,2.487-2.188c1.2-13.26-.966-22.34-.966-22.34Z" transform="translate(-742.206 -815.239)" fill="#e62552"/>
    <path id="Path_861" data-name="Path 861" d="M871.92,899.245l2.073-.535,1.517.606-.647,2.553-1.835-.005Z" transform="translate(-746.813 -788.919)" fill="#c4204a"/>
    <path id="Path_862" data-name="Path 862" d="M831.242,867.978a14.28,14.28,0,0,1-3.19,3.087l-3.9-4.138,1.2-2.557Z" transform="translate(-705.572 -758.188)" fill="#fff"/>
    <path id="Path_863" data-name="Path 863" d="M891.65,869.884a15.42,15.42,0,0,0,3.04,3.189l3.04-3.809-2.165-2.764Z" transform="translate(-763.462 -760.094)" fill="#fff"/>
    <path id="Path_864" data-name="Path 864" d="M564.1,718.9a14.246,14.246,0,0,1,5.067-.569c2.837,12.188,5.24,16.907,3.74,20.185-1.251,2.732-4.338,2.206-5.656-.052C565.511,735.48,564.746,724.694,564.1,718.9Z" transform="translate(-504.83 -627.445)" fill="#95a6db"/>
    <path id="Path_865" data-name="Path 865" d="M968.113,903.93c3.311.123,7.2,15.663,7.2,15.663l6.469-6.9,2.581,6.087s-8.433,10.749-12.083,9.654c-3.411-1.023-5.148-13.28-5.148-13.28Z" transform="translate(-826.828 -793.591)" fill="#95a6db"/>
    <path id="Path_866" data-name="Path 866" d="M763.935,647.657c-3.152.375-4.806-3.656-4.806-3.656a1.9,1.9,0,0,1-1.607-2.244,2.485,2.485,0,0,1-1.746-3.016c.334-1.481,1.786-1.412,1.974-3.152.15-1.392-.849-4.8,3.6-5.069a3.546,3.546,0,0,1,2.779-3.207c3.274-.758,4.083,1.209,5.517,1.564,1.6.394,5.049-1.079,5.5,2.627a4.4,4.4,0,0,1,3.339,1.719,3.876,3.876,0,0,1-.254,4.263,3.7,3.7,0,0,1,2.256,2.363,3.242,3.242,0,0,1-1.333,3.4,3.378,3.378,0,0,1-1.44.507c-.749.122-.8,2.129-1.457,2.522a15.029,15.029,0,0,1-3.381,1.408Z" transform="translate(-645.356 -545.885)" fill="#2c2858"/>
    <path id="Path_867" data-name="Path 867" d="M824.455,678.668c.365,5.443-2.627,10.074-6.672,10.345s-7.626-3.922-7.985-9.365,2.874-8.958,6.922-9.228S824.091,673.226,824.455,678.668Z" transform="translate(-692.541 -584.602)" fill="#f37a50"/>
    <path id="Path_868" data-name="Path 868" d="M844.659,762.416a.781.781,0,1,1,.727-.831A.78.78,0,0,1,844.659,762.416Z" transform="translate(-722.94 -665.55)"/>
    <path id="Path_869" data-name="Path 869" d="M903.75,758.466a.781.781,0,1,1,.726-.831A.781.781,0,0,1,903.75,758.466Z" transform="translate(-773.565 -662.016)"/>
    <path id="Path_870" data-name="Path 870" d="M901.028,744.4a.375.375,0,0,1-.335-.162,1.1,1.1,0,0,0-.735-.532,1.358,1.358,0,0,0-.91.271.375.375,0,0,1-.469-.585,2.107,2.107,0,0,1,1.484-.429,1.829,1.829,0,0,1,1.245.85.376.376,0,0,1-.1.525A.369.369,0,0,1,901.028,744.4Z" transform="translate(-769.601 -649.524)" fill="#2c2858"/>
    <path id="Path_871" data-name="Path 871" d="M833.343,748.355a.369.369,0,0,1-.238-.067.374.374,0,0,1-.094-.525,2.35,2.35,0,0,1,1.552-1.1,1.836,1.836,0,0,1,1.317.337.375.375,0,0,1-.467.588,1.076,1.076,0,0,0-.752-.183,1.654,1.654,0,0,0-1.035.787A.373.373,0,0,1,833.343,748.355Z" transform="translate(-713.474 -652.833)" fill="#2c2858"/>
    <path id="Path_872" data-name="Path 872" d="M886.9,775.57c1.051.659,1.39.936,1.8,1.156a2.261,2.261,0,0,1-2,1.382,1.935,1.935,0,0,0,1.044-1.216Z" transform="translate(-759.629 -678.718)" fill="#de623c"/>
    <path id="Path_873" data-name="Path 873" d="M792.138,756.118c.757,1.128.692,2.5-.145,3.059s-2.128.1-2.884-1.029-.694-2.5.146-3.059S791.382,754.99,792.138,756.118Z" transform="translate(-675.388 -660.176)" fill="#f37a50"/>
    <path id="Path_874" data-name="Path 874" d="M798.631,768.157a.228.228,0,0,1-.1-.013.25.25,0,0,1-.154-.315,1.034,1.034,0,0,0-.056-1.009,1.619,1.619,0,0,0-1.366-.4.25.25,0,1,1-.049-.5,2.074,2.074,0,0,1,1.807.582,1.473,1.473,0,0,1,.136,1.484A.248.248,0,0,1,798.631,768.157Z" transform="translate(-682.473 -670.075)" fill="#de623c"/>
    <path id="Path_875" data-name="Path 875" d="M859.06,808.361a.244.244,0,0,1,.233-.388,17.387,17.387,0,0,0,4.608.105.244.244,0,0,1,.217.394,3.055,3.055,0,0,1-5.058-.111Z" transform="translate(-735.604 -707.714)" fill="#fff"/>
    <path id="Path_876" data-name="Path 876" d="M785.51,659.643l8.667-7.263,9.808,4.761-1.066,7.027c-.315-3.231-2.273-2.148-3.315-3.074s-1.539-2.427-3.956-1.051c0,0-2.009-1.326-2.988.618-.758,1.5-1.831,1.238-2.894,1.337-1.255.117-.931,1.33-1.7,1.306Z" transform="translate(-671.437 -568.471)" fill="#2c2858"/>
    <path id="Path_877" data-name="Path 877" d="M604.66,446.376a2.266,2.266,0,0,0-.5-.86c-1.786-2.578-5.891-1.058-11.864.669-1,.289-.8-1.051-1.255-3.722-.3-1.735-2.179-3.95-3.993-3.38-2.986.94.624,2.381-.19,9.01-.435,3.542-4.134,2.8-3.152,5.911l2.231,7.083c.38,1.211.867,2.339,2.638,2,1.717-.336,1.715.958,4.107.2l11.978-3.77a2.317,2.317,0,0,0,1.519-2.905,1.815,1.815,0,0,1-.249-3,2.434,2.434,0,0,1-.36-3.608,2.68,2.68,0,0,1-.907-3.631Z" transform="translate(-498.487 -377.504)" fill="#facb32"/>
    <path id="Path_878" data-name="Path 878" d="M688.948,506.063l5.711-1.8a2.33,2.33,0,0,0,1.563-1.681.608.608,0,1,0-1.185-.274,1.107,1.107,0,0,1-.743.8l-5.847,1.842a1.1,1.1,0,1,1-.659-2.092l3.907-1.23a.606.606,0,1,0-.365-1.156l-3.908,1.23a2.3,2.3,0,0,0-.19,4.329,6.756,6.756,0,0,1,1.066,5.156,2.084,2.084,0,0,1,1.33,2.955,2.318,2.318,0,0,0,2.906,1.507l3.64-1.146a2.333,2.333,0,0,0,1.564-1.681.6.6,0,0,0-.452-.728.612.612,0,0,0-.735.452,1.11,1.11,0,0,1-.743.8l-3.641,1.146a1.1,1.1,0,1,1-.659-2.092l4.319-1.36a2.331,2.331,0,0,0,1.563-1.681.608.608,0,0,0-1.184-.276,1.1,1.1,0,0,1-.743.8l-4.688,1.471a1.1,1.1,0,1,1-.659-2.093l5.37-1.68a2.333,2.333,0,0,0,1.564-1.681.608.608,0,0,0-1.185-.276,1.1,1.1,0,0,1-.743.8l-5.52,1.74a1.1,1.1,0,1,1-.655-2.09Z" transform="translate(-586.741 -432.492)" fill="#eba223"/>
    <path id="Path_879" data-name="Path 879" d="M544.99,567.565l-3.729,1.175a.982.982,0,0,1-1.23-.641l-3.488-11.082a.981.981,0,0,1,.641-1.23l3.729-1.174a.98.98,0,0,1,1.23.641l3.488,11.082a.979.979,0,0,1-.641,1.229Z" transform="translate(-480.127 -480.936)" fill="#7f99eb"/>
    <path id="Path_880" data-name="Path 880" d="M590.72,665.752c.5-.188.813-.276.886-1.041s.013-1.738.65-1.419a3.017,3.017,0,0,1,.979,2.438A4.675,4.675,0,0,1,590.72,665.752Z" transform="translate(-528.653 -578.181)" fill="#f37a50"/>
    <path id="Path_881" data-name="Path 881" d="M560.261,718.45l-.451,2.764,6.974-.768-1.516-2.67A18.313,18.313,0,0,0,560.261,718.45Z" transform="translate(-500.99 -626.996)" fill="#fff"/>
    <path id="Path_882" data-name="Path 882" d="M2628.23,713.45s.061,3.452.42,6.261c0,0,2.914-3.821,2.913-3.825a18.946,18.946,0,0,1-.49-4.495C2631.087,711.074,2625.141,710.828,2628.23,713.45Z" transform="translate(-2250.171 -621.111)" fill="#f37a50"/>
    <path id="Path_883" data-name="Path 883" d="M2785.333,1778c-2.731,3.649-9.456,1.41-9.23,6.345,10.216-.063,14.461,0,14.461,0a35.165,35.165,0,0,0-.45-4.877Z" transform="translate(-2358.649 -1575.822)"/>
    <path id="Path_884" data-name="Path 884" d="M2930.774,1778.88c-2.732,3.649-9.456,1.41-9.231,6.345,10.217-.063,14.462,0,14.462,0a34.992,34.992,0,0,0-.451-4.877Z" transform="translate(-2488.807 -1576.609)"/>
    <path id="Path_885" data-name="Path 885" d="M2809.244,1247.78s-1.658,23.386-.985,28.587,3.06,11.865,2.79,29.064c3.331.806,8.156,0,8.156,0s.716-19.446-2.806-28.133c1.431-8.437,6.026-27.761,6.026-27.761Z" transform="translate(-2387.287 -1101.313)" fill="#201d40"/>
    <path id="Path_886" data-name="Path 886" d="M2879,1253.86s3.35,26.256,4.989,31.236,3.291,8.294,6.259,25.237c3.422.165,9.047.218,9.047.218s-1.354-20.813-6.684-25.7c-.18-8.556.863-30.822.863-30.822Z" transform="translate(-2450.739 -1106.754)" fill="#2c2858"/>
    <path id="Path_887" data-name="Path 887" d="M2892.156,749.651c-1.816,4.536-6.176,7.057-9.739,5.632s-4.979-6.259-3.164-10.8,6.175-7.058,9.738-5.632S2893.971,745.119,2892.156,749.651Z" transform="translate(-2450.258 -645.504)" fill="#f37a50"/>
    <path id="Path_888" data-name="Path 888" d="M2890.381,801.132a.667.667,0,1,1-.167-.929A.667.667,0,0,1,2890.381,801.132Z" transform="translate(-2459.837 -700.656)"/>
    <path id="Path_889" data-name="Path 889" d="M2937.1,819.811a.723.723,0,1,1,.117-.54A.723.723,0,0,1,2937.1,819.811Z" transform="translate(-2501.552 -717.294)"/>
    <path id="Path_890" data-name="Path 890" d="M2893.081,820.2c-.9.711-2.031,1.57-2.031,1.57a1.751,1.751,0,0,0,1.26,1.559c-.46-.42-.863-.973-.384-1.614S2893.081,820.2,2893.081,820.2Z" transform="translate(-2461.523 -718.659)" fill="#de623c"/>
    <path id="Path_891" data-name="Path 891" d="M2946.923,809.769a.332.332,0,0,1-.324-.256c-.009-.036-.233-.9-.976-.907a.333.333,0,0,1,0-.666,1.772,1.772,0,0,1,1.621,1.418.333.333,0,0,1-.247.4A.318.318,0,0,1,2946.923,809.769Z" transform="translate(-2510.064 -707.687)"/>
    <path id="Path_892" data-name="Path 892" d="M2891.394,787.7a.278.278,0,0,1-.239-.136.807.807,0,0,0-.482-.349.908.908,0,0,0-.705.255.278.278,0,0,1-.347-.434,1.417,1.417,0,0,1,1.156-.367,1.389,1.389,0,0,1,.855.612.278.278,0,0,1-.24.42Z" transform="translate(-2460.15 -688.633)"/>
    <path id="Path_893" data-name="Path 893" d="M2879.854,722.551c-1.312-4.221.343-6.466.343-6.466-1.127-.225-1.565.165-1.565.165a2.506,2.506,0,0,1-.139-2.168c-2.329-.908-3.49.6-5.592,1.11-2.878.7-6.434-.453-6.767-3.966a.6.6,0,0,1,.936-.554,2.639,2.639,0,0,0,1.568.458,2.823,2.823,0,0,1-.63-1.621.6.6,0,0,1,.989-.466,4.282,4.282,0,0,0,3.688.6c1.317-.247,4.333-2.358,6.212-1.945a4.629,4.629,0,0,1,3.279,3.515,4.825,4.825,0,0,1,4.153,4.545c.372,4.082-4.356,7.214-4.356,7.214Z" transform="translate(-2439.223 -617.927)"/>
    <path id="Path_894" data-name="Path 894" d="M2981.981,840.112a1.737,1.737,0,1,0,2.65.456A1.921,1.921,0,0,0,2981.981,840.112Z" transform="translate(-2541.865 -736.192)" fill="#f37a50"/>
    <path id="Path_895" data-name="Path 895" d="M2991.173,850.484a.251.251,0,0,1-.077-.086,1.135,1.135,0,0,1,.115-1.39,1.21,1.21,0,0,1,1.379-.258.252.252,0,1,1-.226.45.713.713,0,0,0-.792.158.638.638,0,0,0-.036.8.252.252,0,0,1-.365.327Z" transform="translate(-2550.896 -744.109)" fill="#de623c"/>
    <path id="Path_896" data-name="Path 896" d="M2892.734,861.052a.21.21,0,0,1,.225-.315,14.979,14.979,0,0,0,3.993.356.21.21,0,0,1,.164.355,2.654,2.654,0,0,1-4.382-.4Z" transform="translate(-2463.003 -754.932)" fill="#fff"/>
    <path id="Path_897" data-name="Path 897" d="M2685.867,889.754s-.51-.223-13.416-3.343a.012.012,0,0,0-.01,0l-4.883,3.633a.014.014,0,0,0,0,.019c3.188,4.037,17.757,7.216,17.757,7.216l.551-7.52Z" transform="translate(-2261.51 -777.911)" fill="#201d40"/>
    <path id="Path_898" data-name="Path 898" d="M2898.23,913.053l4.637-.433,4.487,1.251-5.055,5.2Z" transform="translate(-2467.948 -801.368)" fill="#95a6db"/>
    <path id="Path_899" data-name="Path 899" d="M2913.53,887.187c1.892,1.552,2.459,2.627,6.291.551l.6-6.173-6.535-.515Z" transform="translate(-2481.641 -773.115)" fill="#f37a50"/>
    <path id="Path_900" data-name="Path 900" d="M2840.4,920.043h0l-1.374-.544.184-1.941-3.812,3.061-1.076.171-1.03-.359-3.206-3.691-.165,1.943-1.213.244h0l-4.372.708-.526,24.271-1.725,8.257a41.553,41.553,0,0,0,18.67,1.533l-.21-8.29,4.531-23.72Z" transform="translate(-2399.809 -805.055)" fill="#95a6db"/>
    <path id="Path_901" data-name="Path 901" d="M2907.229,978.63l-2.739,18.53,1.517,2.108,1.977-1.519.673-18.965Z" transform="translate(-2473.552 -860.442)" fill="#2c2858"/>
    <path id="Path_902" data-name="Path 902" d="M2929.01,955.555l1-.265,1.019.446-.431,2.2-1.436-.128Z" transform="translate(-2495.494 -839.554)" fill="#2c2858"/>
    <path id="Path_903" data-name="Path 903" d="M2801.692,917.953l-.735,22.374L2798,954.741s-4.686-.473-7.565-3.212l3.686-10.854,1.6-22.815Z" transform="translate(-2371.476 -806.057)" fill="#2c2858"/>
    <path id="Path_904" data-name="Path 904" d="M2862.306,918.75l-.736,22.073L2858.16,923.9Z" transform="translate(-2432.089 -806.854)" fill="#494c7f"/>
    <path id="Path_905" data-name="Path 905" d="M2936.575,931.85l-6.085,36.289s8.074.992,11.394-1.192l-1.8-11.93,2.206-20.252Z" transform="translate(-2496.819 -818.577)" fill="#2c2858"/>
    <path id="Path_906" data-name="Path 906" d="M2958.106,931.85l-3.557,21.269,6.367-16.047Z" transform="translate(-2518.351 -818.577)" fill="#494c7f"/>
    <path id="Path_907" data-name="Path 907" d="M2623.07,742.349a13.329,13.329,0,0,1,4.667-.979c3.724,11.1,6.378,15.278,5.271,18.464-.923,2.656-3.843,2.444-5.271.454C2625.854,757.662,2624.186,747.688,2623.07,742.349Z" transform="translate(-2244.728 -648.111)" fill="#201d40"/>
    <path id="Path_908" data-name="Path 908" d="M2901.667,1295.756a2.013,2.013,0,0,1-.03-.882c.121-2.767,3.9-3.566,9.17-5.093.882-.255.1-1.163-.817-3.37-.6-1.434-.235-3.975,1.385-4.4,2.672-.706.656,2.071,4.389,6.634,2,2.439,4.406.141,5.141,2.925l1.675,6.338c.287,1.084.455,2.154-1.031,2.732-1.44.559-.827,1.524-2.969,2.09l-10.717,2.837a2.046,2.046,0,0,1-2.5-1.448,1.6,1.6,0,0,0-1.227-2.355,2.149,2.149,0,0,0-1.432-2.862,2.364,2.364,0,0,0-1.035-3.137Z" transform="translate(-2470.966 -1131.848)" fill="#facb32"/>
    <path id="Path_909" data-name="Path 909" d="M2913.079,1380.255l-5.11,1.35a2.06,2.06,0,0,1-1.958-.515.537.537,0,0,1,.754-.764.978.978,0,0,0,.93.245l5.233-1.383a.969.969,0,1,0-.495-1.872l-3.5.923a.535.535,0,1,1-.274-1.035l3.5-.923a2.044,2.044,0,0,1,2.5,1.448,2.111,2.111,0,0,0,.668,3.019,2.111,2.111,0,0,0,.655,3.023,1.838,1.838,0,0,0,.4,2.834,2.044,2.044,0,0,1-1.458,2.493l-3.258.862a2.061,2.061,0,0,1-1.958-.516.537.537,0,0,1,.754-.764.981.981,0,0,0,.931.245l3.257-.86a.969.969,0,1,0-.495-1.872l-3.865,1.021a2.061,2.061,0,0,1-1.957-.516.537.537,0,1,1,.753-.765.966.966,0,0,0,.931.246l4.2-1.109a.969.969,0,1,0-.5-1.872l-4.806,1.269a2.06,2.06,0,0,1-1.958-.515.537.537,0,0,1,.753-.765.966.966,0,0,0,.931.245l4.938-1.3a.969.969,0,1,0-.495-1.873Z" transform="translate(-2474.769 -1216.25)" fill="#eba223"/>
    <path id="Path_910" data-name="Path 910" d="M3075.141,1354.594l3.337-.881a.866.866,0,0,0,.616-1.058l-2.62-9.915a.865.865,0,0,0-1.059-.616l-3.337.881a.865.865,0,0,0-.615,1.058l2.62,9.916A.866.866,0,0,0,3075.141,1354.594Z" transform="translate(-2622.954 -1185.718)" fill="#7f99eb"/>
    <g id="c-2" data-name="c" transform="translate(449.485 153.283)">
      <path id="Path_911" data-name="Path 911" d="M3082.9,1312.65l.063,2.656s-1.891-.057-1.962,1.238l1.78.055s1.083,1.4-.47,4.129c-.619,2.674,1.341,1.543,1.471,2.432.2,1.311,2.787-.937,3.2-3.609.531-3.457-.175-3.872-.175-3.872l-.781-2.627Z" transform="translate(-3081 -1312.65)" fill="#f37a50"/>
    </g>
    <path id="Path_912" data-name="Path 912" d="M3032.493,959.6c3.087.322,10.7,19.357,10.7,19.357l-.5,19.215-5-.807-1.133-16.4-5.271-10.3Z" transform="translate(-2587.028 -843.412)" fill="#201d40"/>
    <path id="Path_913" data-name="Path 913" d="M2894.429,920.773a9.648,9.648,0,0,1-3.313,2.189l-1.866-4.938.946-1.3Z" transform="translate(-2459.912 -805.037)" fill="#fff"/>
    <path id="Path_914" data-name="Path 914" d="M2938.54,927.762a8.316,8.316,0,0,0,2.871,2.743l2.723-4.545-.706-1.43Z" transform="translate(-2504.023 -812.026)" fill="#fff"/>
    <path id="Path_915" data-name="Path 915" d="M2262.342,588.566a9.8,9.8,0,0,1-.122,2.726l1.963,1.035c2.395-1.494,2.72-4.742,2.753-5.1.082-.936.178-1.366.053-1.445s-.959-.3-1.123,1.057c-.21,1.705-1.568.573-.271-2.887.325-.867-.1-2.5-.73-1.908C2264.168,582.69,2262.587,584.557,2262.342,588.566Z" transform="translate(-1937.312 -505.411)" fill="#f37a50"/>
    <path id="Path_916" data-name="Path 916" d="M2416.536,1765.57l-.276,2.843,2.378.722,1.91-2.04.314-1.174Z" transform="translate(-2069.29 -1564.698)" fill="#f37a50"/>
    <path id="Path_917" data-name="Path 917" d="M2345.391,1763.594l-.331-2.584,5.056-.34-.062,2.914Z" transform="translate(-2008.194 -1560.313)" fill="#f37a50"/>
    <path id="Path_918" data-name="Path 918" d="M2202.161,743.836c-2.766-2.514-7.67-2.352-8.423,1.587s-.495,6.557-5.4,5.948c-3.9-.484-7.915,3.02-7.913,8.527,0,7.046,4.885,4.3,3.755,7.783s-1.857,7.011,3.179,7.125,8.948-4.107,8.356-9.835,3.076-3.627,4.142-6.46C2201.378,754.483,2202.161,743.836,2202.161,743.836Z" transform="translate(-1862.909 -648.823)" fill="#201d40"/>
    <path id="Path_919" data-name="Path 919" d="M2403.477,1219.37s3.65,23.116,2.665,33.017-5.935,24.724-5.935,24.724l-4.326-.352a47.71,47.71,0,0,0,.133-7.345c-.139-5.826-1.011-14.036,2.351-17.921-.42-7.574-5.186-32.123-5.186-32.123Z" transform="translate(-2047.173 -1075.887)" fill="#0e6a41"/>
    <path id="Path_920" data-name="Path 920" d="M2307.4,1212c-1.891,6.8-2,25.637-.43,36.514s3.026,21.479,3.026,21.479l5.057.071v-26.408c0-4.662,1.261-19.034,1.261-19.034l1.576-11.848Z" transform="translate(-1972.799 -1069.292)" fill="#0e6a41"/>
    <ellipse id="Ellipse_12" data-name="Ellipse 12" cx="6.118" cy="8.225" rx="6.118" ry="8.225" transform="translate(340.272 94.625)" fill="#f37a50"/>
    <path id="Path_921" data-name="Path 921" d="M2390.78,894.9v8.741s2.913,1.553,5.438,0c-.389-1.943-.619-8.13-.619-8.13Z" transform="translate(-2047.244 -785.51)" fill="#f37a50"/>
    <path id="Path_922" data-name="Path 922" d="M2320.04,939.78h14.5s2.6,5.846,2.25,10.851-.99,18.623-.99,18.623-12.359,1.2-18.037-.55a202.278,202.278,0,0,1,.175-21.509A25.319,25.319,0,0,1,2320.04,939.78Z" transform="translate(-1980.774 -825.674)" fill="#f5a3b7"/>
    <path id="Path_923" data-name="Path 923" d="M2253.616,699.384a31.265,31.265,0,0,0-3.647-.3s-5.032-10.5-6.789-13.618c-1.2-5.013-1.109-13.267-1.109-13.267l-1.963-1.034s-3.287,9.848-2.464,14.4c.218,1.2,6.417,17.273,6.417,17.273s-1.515,19.072-2.292,23.585a20.977,20.977,0,0,0,8.931.315Z" transform="translate(-1913.219 -585.278)" fill="#3f964f"/>
    <path id="Path_924" data-name="Path 924" d="M2438.66,698.435l2.754,27.342s2.26.727,7.116-.717c.193-5.779-1.872-23.932-1.872-23.932a70.164,70.164,0,0,0,6.949-17.687c-.193-3.971-1.917-13.074-1.917-13.074l-5.029-.268,1.786,12.856s-6.171,13.464-6.806,15.406A10.381,10.381,0,0,0,2438.66,698.435Z" transform="translate(-2085.551 -584.33)" fill="#3f964f"/>
    <path id="Path_925" data-name="Path 925" d="M2345.3,751.264a12.475,12.475,0,0,0,8.292-4.746,11.655,11.655,0,0,0,4.353,4.746s2.4-5.437-1.965-8.369C2351.81,740.095,2341.862,742.006,2345.3,751.264Z" transform="translate(-2005.364 -648.414)" fill="#2c2858"/>
    <path id="Path_926" data-name="Path 926" d="M2383.46,838.281a.65.65,0,1,1,.65-.65A.65.65,0,0,1,2383.46,838.281Z" transform="translate(-2041.519 -733.675)"/>
    <path id="Path_927" data-name="Path 927" d="M2432.75,838.281a.65.65,0,1,1,.651-.65A.65.65,0,0,1,2432.75,838.281Z" transform="translate(-2083.749 -733.675)"/>
    <path id="Path_928" data-name="Path 928" d="M2431.492,826.7a.316.316,0,0,1-.269-.152.934.934,0,0,0-.578-.483,1.125,1.125,0,0,0-.771.176.315.315,0,0,1-.357-.513,1.74,1.74,0,0,1,1.261-.274,1.524,1.524,0,0,1,.987.775.315.315,0,0,1-.269.472Z" transform="translate(-2081.154 -723.328)" fill="#2c2858"/>
    <path id="Path_929" data-name="Path 929" d="M2374.572,826.482a.307.307,0,0,1-.194-.068.315.315,0,0,1-.049-.439,1.959,1.959,0,0,1,1.351-.829,1.522,1.522,0,0,1,1.075.355.315.315,0,0,1-.42.462.9.9,0,0,0-.616-.193,1.381,1.381,0,0,0-.9.6A.316.316,0,0,1,2374.572,826.482Z" transform="translate(-2033.861 -723.081)" fill="#2c2858"/>
    <path id="Path_930" data-name="Path 930" d="M2416.969,851.29c.84.607,1.1.855,1.427,1.058a1.882,1.882,0,0,1-1.737,1.037,1.6,1.6,0,0,0,.936-.952Z" transform="translate(-2070.404 -746.482)" fill="#de623c"/>
    <path id="Path_931" data-name="Path 931" d="M2338.943,830.842a1.587,1.587,0,1,1-2.462-.666A1.845,1.845,0,0,1,2338.943,830.842Z" transform="translate(-2000.856 -727.358)" fill="#f37a50"/>
    <path id="Path_932" data-name="Path 932" d="M2345.2,840.343a.214.214,0,0,1-.081-.016.21.21,0,0,1-.112-.273.857.857,0,0,0,.011-.841,1.349,1.349,0,0,0-1.113-.4.21.21,0,1,1-.014-.42,1.732,1.732,0,0,1,1.471.584,1.236,1.236,0,0,1,.031,1.24A.21.21,0,0,1,2345.2,840.343Z" transform="translate(-2007.855 -734.935)" fill="#de623c"/>
    <path id="Path_933" data-name="Path 933" d="M2397.761,879.334a.19.19,0,0,1,.2-.286,15.652,15.652,0,0,0,1.766.277,15.947,15.947,0,0,0,1.786.04.189.189,0,0,1,.146.315,2.443,2.443,0,0,1-2.041.861A2.406,2.406,0,0,1,2397.761,879.334Z" transform="translate(-2053.593 -771.32)" fill="#fff"/>
    <path id="Path_934" data-name="Path 934" d="M2415.24,1781.814a2.542,2.542,0,0,1,1.854-1.724c2.454,3.274,8.482,1.261,8.284,5.694-9.167-.057-12.977,0-12.977,0a31.54,31.54,0,0,1,.4-4.376l.478.085Z" transform="translate(-2063.657 -1577.692)" fill="#e62552"/>
    <path id="Path_935" data-name="Path 935" d="M2412.4,1833.12h12.987v.769a.535.535,0,0,1-.535.535h-11.916a.535.535,0,0,1-.535-.535v-.769Z" transform="translate(-2063.655 -1625.151)" fill="#fff"/>
    <path id="Path_936" data-name="Path 936" d="M2344.812,1785.794s-.721-2.689-.784-3.033c-.073-.393-.285-1.322-.328-1.8a3.892,3.892,0,0,0-2.193-.873,3.828,3.828,0,0,0-2.47.884,28.371,28.371,0,0,1-.4,2.826c-.182.65-.677,2.165-.677,2.165Z" transform="translate(-2001.639 -1577.692)" fill="#e62552"/>
    <path id="Path_937" data-name="Path 937" d="M2343.479,1831.7c-.168.534-2.24-.082-3.752-.082-1.271,0-2.914.492-3.1.3a3.2,3.2,0,0,0-.057,1.723s1.324.068,2.91,0a31.622,31.622,0,0,0,4.113-.172A2.094,2.094,0,0,0,2343.479,1831.7Z" transform="translate(-2000.247 -1623.808)" fill="#fff"/>
    <path id="Path_938" data-name="Path 938" d="M470.334,1699.468l2.445-9.627-6.066-.841c-.21,4.554-.549,9.036-.519,10.252Z" transform="translate(-417.21 -1496.173)" fill="#f37a50"/>
    <path id="Path_939" data-name="Path 939" d="M313.923,1688.51H307.59c.21,1.518,1.038,9.736,1.038,9.736.536,1.215,5.254.937,5.254.255C313.526,1697.02,313.893,1688.7,313.923,1688.51Z" transform="translate(-275.271 -1495.735)" fill="#f37a50"/>
    <path id="Path_940" data-name="Path 940" d="M390.118,1249.776l6.246.923,4.33-25.9c-.892-9.829-9.544-30.74-9.544-30.74l-9.753,3.416-.239,9.221,11.745,19.886C391.374,1230.428,390.326,1242.862,390.118,1249.776Z" transform="translate(-341.111 -1053.237)" fill="#c4204a"/>
    <path id="Path_941" data-name="Path 941" d="M307.028,1168.657c-.089-.607-.12-.8-.63-1.1l-9.366-2.656-2.23,2.2c-2.111,7.67-.8,18.33.863,26.793-2.439,7.323-1.485,22.423-.5,29.525h6.668c.386-4.744.265-13.543.294-17.794h0c.863-3.415,1.695-7.059,2.439-10.892.951-4.9,2.14-9.638,2.468-14.079A70.217,70.217,0,0,0,307.028,1168.657Z" transform="translate(-262.848 -1027.141)" fill="#e62552"/>
    <path id="Path_942" data-name="Path 942" d="M232.465,694.451c3.6-.764,11.382-3.532,8.546-8.954s-4.574-3.52-2.482-9.342-1.521-11.128-5.752-10.494-5.72,3.783-10.588,2.261-9.652,2.57-8.333,6.87,1.851,6.356-.21,8.351-10.3,3.316-7.739,9.13,4.114,5.693,2.59,8.282.686,6.081,5.326,6.285,9.027-.956,11.412-5.84A13.854,13.854,0,0,1,232.465,694.451Z" transform="translate(-183.836 -580.311)" fill="#2c2858"/>
    <path id="Path_943" data-name="Path 943" d="M341.976,719.888c-.5,4.69,2.085,8.808,5.767,9.2s7.072-3.094,7.565-7.784-2.085-8.807-5.767-9.2S342.473,715.2,341.976,719.888Z" transform="translate(-305.99 -621.895)" fill="#f37a50"/>
    <path id="Path_944" data-name="Path 944" d="M352.38,839.84l5.815,3.605s.516,2.57.774,3.4c.531,1.721-1.506,2.472-3.227,1.4a12.061,12.061,0,0,1-2.837-2.5Z" transform="translate(-315.355 -736.235)" fill="#f37a50"/>
    <path id="Path_945" data-name="Path 945" d="M353.669,710.242c-1.7-.116-2.949-1.269-4.034-3.047-2.152,4.534-10.7,5.844-11.226,4.887.374-3.3,1.177-8.391,7.445-9.988C350.781,700.836,353.669,710.242,353.669,710.242Z" transform="translate(-302.853 -612.859)" fill="#2c2858"/>
    <path id="Path_946" data-name="Path 946" d="M450.624,795.869a.644.644,0,1,0,.29-.864A.644.644,0,0,0,450.624,795.869Z" transform="translate(-403.217 -696.051)"/>
    <path id="Path_947" data-name="Path 947" d="M402.258,789.846a.7.7,0,1,0-.037-.533.7.7,0,0,0,.037.533Z" transform="translate(-359.927 -690.592)"/>
    <path id="Path_948" data-name="Path 948" d="M452.664,786.85a.249.249,0,0,0,.163-.2.242.242,0,0,0-.047-.179,1.7,1.7,0,0,0-1.615-.647.243.243,0,0,0,.091.476,1.218,1.218,0,0,1,1.139.47A.243.243,0,0,0,452.664,786.85Z" transform="translate(-403.596 -687.878)" fill="#2c2858"/>
    <path id="Path_949" data-name="Path 949" d="M427.332,811.621a6.476,6.476,0,0,0,.519,1.279.256.256,0,0,1-.064.345,3.5,3.5,0,0,1-1.867.349.068.068,0,0,1-.018-.133,3.265,3.265,0,0,0,1.1-.515.3.3,0,0,0,.112-.251c-.009-.224-.024-.678-.009-1.04a.115.115,0,0,1,.223-.033Z" transform="translate(-381.109 -710.912)" fill="#de623c"/>
    <path id="Path_950" data-name="Path 950" d="M331.068,798.588a1.676,1.676,0,1,1-2.536-.546A1.851,1.851,0,0,1,331.068,798.588Z" transform="translate(-293.528 -698.555)" fill="#f37a50"/>
    <path id="Path_951" data-name="Path 951" d="M339.793,807.441a.241.241,0,0,0,.085-.071,1.1,1.1,0,0,0,.084-1.344,1.169,1.169,0,0,0-1.279-.436.243.243,0,0,0,.152.46.693.693,0,0,1,.736.262.622.622,0,0,1-.079.77.243.243,0,0,0,.3.362Z" transform="translate(-302.96 -705.541)" fill="#de623c"/>
    <path id="Path_952" data-name="Path 952" d="M305.249,905.061l-1.62-6.766a43.036,43.036,0,0,0-5.194-1.528l-.505,1.649L293.148,896l-5.615.854c-.935,4.053-.191,5.287.089,10.121.157,2.275.086,7.839.584,11.785-2.056,4.658-3.325,9.036-3.357,10.383,0,0,14.984,3.356,15.482,3.356l1.122-2.95L303.6,931.9a36.383,36.383,0,0,0,2.8-3.047,72.7,72.7,0,0,1-1.5-9.414Z" transform="translate(-254.921 -786.494)" fill="#3f964f"/>
    <path id="Path_953" data-name="Path 953" d="M329.514,888.81l-3.2,1.366c.283,3.214,8.268,5.094,8.268,5.094l.456-3.288Z" transform="translate(-292.024 -780.06)" fill="#0e6a41"/>
    <path id="Path_954" data-name="Path 954" d="M409.34,896.206l1.428,1.935s1.635-1.958.971-3.13a3.516,3.516,0,0,0-2.135-1.481Z" transform="translate(-366.33 -784.284)" fill="#0e6a41"/>
    <path id="Path_955" data-name="Path 955" d="M402.968,840.593a2.492,2.492,0,0,1-.466-.044,3.03,3.03,0,0,1-1.8-1.214.272.272,0,0,1,.454-.3h0a2.5,2.5,0,0,0,1.456.98,2.46,2.46,0,0,0,1.879-.518.271.271,0,1,1,.31.445A3.2,3.2,0,0,1,402.968,840.593Z" transform="translate(-358.558 -735.407)" fill="#de623c"/>
    <path id="Path_956" data-name="Path 956" d="M438.152,842a2.788,2.788,0,0,0-.4-1.164c-1.518-3.557-6.845-2.742-14.48-2.144-1.276.1-.7-1.471-.588-4.8.073-2.167-1.645-5.307-3.973-5.07-3.836.391.162,3.027-2.47,10.822-1.407,4.166-5.685,2.349-5.278,6.347l.925,9.105c.159,1.557.465,3.038,2.689,3.06,2.156.021,1.83,1.582,4.906,1.268l15.389-1.569a2.856,2.856,0,0,0,2.554-3.121,2.237,2.237,0,0,1,.445-3.68,3,3,0,0,1,.466-4.444,3.307,3.307,0,0,1-.195-4.609Z" transform="translate(-367.763 -726.363)" fill="#facb32"/>
    <path id="Path_957" data-name="Path 957" d="M547.489,938.728l7.337-.749a2.871,2.871,0,0,0,2.3-1.635.75.75,0,0,0-1.362-.627,1.366,1.366,0,0,1-1.094.776l-7.514.767a1.351,1.351,0,1,1-.274-2.689l5.021-.512a.747.747,0,1,0-.151-1.486l-5.022.512a2.854,2.854,0,0,0-2.553,3.12,2.945,2.945,0,0,1,.616,4.273,2.942,2.942,0,0,1,.633,4.269,2.564,2.564,0,0,1,.868,3.9,2.855,2.855,0,0,0,3.132,2.541l4.677-.477a2.876,2.876,0,0,0,2.3-1.635.746.746,0,0,0-.365-.992.753.753,0,0,0-1,.363,1.366,1.366,0,0,1-1.095.777l-4.678.477a1.352,1.352,0,0,1-.274-2.691l5.549-.565a2.876,2.876,0,0,0,2.3-1.636.752.752,0,0,0-1.366-.63,1.346,1.346,0,0,1-1.095.778l-6.024.615a1.351,1.351,0,0,1-.274-2.689l6.9-.7a2.874,2.874,0,0,0,2.3-1.635.749.749,0,0,0-1.36-.63,1.351,1.351,0,0,1-1.1.778l-7.088.723a1.351,1.351,0,1,1-.274-2.689Z" transform="translate(-465.486 -819.219)" fill="#eba223"/>
    <path id="Path_958" data-name="Path 958" d="M361.575,974.87l-4.792.489a1.208,1.208,0,0,1-1.324-1.079l-1.452-14.239a1.209,1.209,0,0,1,1.079-1.325l4.792-.489a1.208,1.208,0,0,1,1.324,1.08l1.452,14.238A1.209,1.209,0,0,1,361.575,974.87Z" transform="translate(-316.805 -842.177)" fill="#7f99eb"/>
    <path id="Path_959" data-name="Path 959" d="M434.992,1084.259c-.9-.138-1.878-.651-2.608-.129l-1.164-2.115c2.03-2.1,5.756-2.152,6.127-2.1.965.121,1.425.118,1.471.259s.1,1.035-1.312.9c-1.768-.164-.92,1.461,2.859.9.946-.14,2.5.641,1.768,1.156C441.326,1083.7,439.1,1084.882,434.992,1084.259Z" transform="translate(-385.911 -951.074)" fill="#f37a50"/>
    <path id="Path_960" data-name="Path 960" d="M276.38,1069.31c-1.4.476-2.224,4.884-1.833,5.224,5.989,2.407,17.825.061,17.825.061l1.021-2.188A111.23,111.23,0,0,1,276.38,1069.31Z" transform="translate(-245.613 -941.595)" fill="#f37a50"/>
    <path id="Path_961" data-name="Path 961" d="M268,908.2c-.919,3.976-.7,17.283.246,18.418l4.806-3.257s1.429-13.36,1.588-15.635C274.93,903.785,269.494,901.7,268,908.2Z" transform="translate(-239.317 -793.676)" fill="#f37a50"/>
    <path id="Path_962" data-name="Path 962" d="M260.866,908.2c-.919,3.976-2,15.214-1.06,16.348l6.853-3.242s.688-11.3.847-13.578C267.795,903.787,262.359,901.7,260.866,908.2Z" transform="translate(-232.182 -793.678)" fill="#0e6a41"/>
    <path id="Path_963" data-name="Path 963" d="M258.14,1071.7l7.355-3.229s.511,0,.362.586c0,0,1.175.218,1.414.883l-5.1,5.447a2.655,2.655,0,0,1-2.174-1.555C259.979,1073.817,258.23,1073.292,258.14,1071.7Z" transform="translate(-231.017 -940.843)" fill="#097a48"/>
    <path id="c-3" data-name="c" d="M611.565,906.878a.741.741,0,0,1-.1-.192l-.028.023a1.21,1.21,0,0,1-1.664.044.693.693,0,0,1-.115-.231,1,1,0,0,1-1.129-.235.747.747,0,0,1-.147-.42,1,1,0,0,1-1.183-.252,1.172,1.172,0,0,1,1.84-1.4.841.841,0,0,1,.156.36,1.138,1.138,0,0,1,1.49.073.707.707,0,0,1,.115.231,1,1,0,0,1,1.13.235.742.742,0,0,1,.145.387.865.865,0,0,1,1.051.194.992.992,0,0,1-1.559,1.179Z" transform="translate(-519.747 -793.541)" fill="#f37a50"/>
    <path id="Path_964" data-name="Path 964" d="M465.6,1771.381a2.728,2.728,0,0,1,1.99-1.851c2.636,3.516,9.109,1.358,8.9,6.114-9.844-.061-13.934,0-13.934,0a34.192,34.192,0,0,1,.434-4.7l.514.092Z" transform="translate(-413.95 -1568.242)" fill="#2c2858"/>
    <path id="Path_965" data-name="Path 965" d="M462.532,1826.47h13.94v.826a.575.575,0,0,1-.575.574H463.1a.575.575,0,0,1-.575-.574v-.826Z" transform="translate(-413.932 -1619.199)" fill="#fff"/>
    <path id="Path_966" data-name="Path 966" d="M314.242,1774.885s-.79-2.948-.86-3.327c-.08-.431-.315-1.449-.359-1.971a4.259,4.259,0,0,0-2.4-.957,4.2,4.2,0,0,0-2.709.969,30.923,30.923,0,0,1-.438,3.1c-.2.713-.742,2.373-.742,2.373Z" transform="translate(-274.502 -1567.437)" fill="#2c2858"/>
    <path id="Path_967" data-name="Path 967" d="M312.769,1825.239c-.184.585-2.457-.09-4.115-.089-1.392,0-3.193.539-3.4.329a3.48,3.48,0,0,0-.062,1.891s1.451.074,3.191,0a34.587,34.587,0,0,0,4.508-.189A2.278,2.278,0,0,0,312.769,1825.239Z" transform="translate(-273.029 -1618.018)" fill="#fff"/>
    <g id="c-4" data-name="c" transform="translate(255.862 85.788)">
      <path id="v-2" d="M2015.977,837.49h0l-3.2.012-.724,6.929v.626l3.733,1.971,3.982-1.949-.643-7.578Z" transform="translate(-1977.315 -819.92)" fill="#f37a50"/>
      <path id="Path_968" data-name="Path 968" d="M2006.579,702.355c-1.969,4.92-6.7,7.654-10.561,6.109s-5.4-6.789-3.432-11.708,6.7-7.654,10.561-6.108S2008.547,697.436,2006.579,702.355Z" transform="translate(-1959.129 -688.12)" fill="#f37a50"/>
      <path id="Path_969" data-name="Path 969" d="M2004.652,758.142a.724.724,0,1,1-.181-1.008A.724.724,0,0,1,2004.652,758.142Z" transform="translate(-1969.514 -747.891)"/>
      <path id="Path_970" data-name="Path 970" d="M2055.312,778.4a.782.782,0,1,1,.129-.586A.783.783,0,0,1,2055.312,778.4Z" transform="translate(-2014.754 -765.938)"/>
      <path id="Path_971" data-name="Path 971" d="M2007.547,778.82c-.978.771-2.207,1.7-2.207,1.7a1.9,1.9,0,0,0,1.366,1.691c-.5-.452-.936-1.051-.42-1.749S2007.547,778.82,2007.547,778.82Z" transform="translate(-1971.31 -767.415)" fill="#de623c"/>
      <path id="Path_972" data-name="Path 972" d="M2066,767.5a.332.332,0,0,0,.084-.01.36.36,0,0,0,.268-.435,1.933,1.933,0,0,0-1.758-1.538.361.361,0,1,0,0,.723c.815,0,1.057.974,1.059.983A.361.361,0,0,0,2066,767.5Z" transform="translate(-2024.012 -755.512)" fill="#201d40"/>
      <path id="Path_973" data-name="Path 973" d="M2005.743,743.581a.3.3,0,0,0,.153-.042.3.3,0,0,0,.1-.412,1.484,1.484,0,0,0-.927-.662,1.54,1.54,0,0,0-1.255.4.3.3,0,0,0,.376.47.989.989,0,0,1,.768-.275.868.868,0,0,1,.518.375A.3.3,0,0,0,2005.743,743.581Z" transform="translate(-1969.848 -734.861)" fill="#201d40"/>
      <path id="Path_974" data-name="Path 974" d="M2020.255,680.832a6.509,6.509,0,0,0-2.392-7.466s1.089-.1,1.219-1.625a4.016,4.016,0,0,1-2.53-.055c-5.407-1.958-9.13-1.931-9.13.382,0,.823-3.7.306-3.4,5.845.5-.519,1.383-2.715,2.588-2.942s.118,1.384,2.637,1.729c2.542.349,4.413-.268,5.964,1.165,1.216,1.25,1.517,7.615,1.333,8C2016.968,684.984,2019.522,682.915,2020.255,680.832Z" transform="translate(-1970.116 -670.271)" fill="#201d40"/>
      <path id="Path_975" data-name="Path 975" d="M1984.037,778.82s-.23,2.886.186,3.783c.434-1.156,1.366.069,2.237.185,2.111.279,5.919-.42,6.3,2.741,2.579.816,5-4.7,5-4.7.148,6.169-4.366,9.666-10.862,8.645C1982.61,788.79,1982.213,782.832,1984.037,778.82Z" transform="translate(-1951.324 -767.415)" fill="#201d40"/>
      <path id="Path_976" data-name="Path 976" d="M2005.955,820.587a5.5,5.5,0,0,0,1.3-.511.241.241,0,0,0-.227-.42,3.485,3.485,0,0,1-2.663.452,2.512,2.512,0,0,1-1.387-1.1.241.241,0,0,0-.427.224,2.963,2.963,0,0,0,1.665,1.331A3.25,3.25,0,0,0,2005.955,820.587Z" transform="translate(-1968.792 -803.268)" fill="#de623c"/>
      <path id="Path_977" data-name="Path 977" d="M2113.175,795.324a1.884,1.884,0,1,0,2.872.505A2.083,2.083,0,0,0,2113.175,795.324Z" transform="translate(-2066.685 -781.878)" fill="#f37a50"/>
      <path id="Path_978" data-name="Path 978" d="M2123.133,806.572a.263.263,0,0,1-.083-.094,1.232,1.232,0,0,1,.132-1.508,1.312,1.312,0,0,1,1.5-.273.272.272,0,1,1-.246.486.779.779,0,0,0-.859.168.7.7,0,0,0-.042.869.272.272,0,0,1-.4.352Z" transform="translate(-2076.479 -790.463)" fill="#de623c"/>
      <path id="Path_979" data-name="Path 979" d="M1912.527,1778.23c-2.829,3.9-9.771,1.508-9.544,6.785,10.562-.067,14.952,0,14.952,0a38.848,38.848,0,0,0-.466-5.216Z" transform="translate(-1879.703 -1661.816)"/>
      <path id="Path_980" data-name="Path 980" d="M2071.048,1778.23c-2.829,3.9-9.772,1.508-9.545,6.785,10.563-.067,14.953,0,14.953,0a38.688,38.688,0,0,0-.466-5.216Z" transform="translate(-2021.567 -1661.816)"/>
      <path id="Path_981" data-name="Path 981" d="M1927.058,1210.41s-3.063,25.909-2.366,31.478,4.512,11.789,4.232,30.182c3.443.862,8.432,0,8.432,0s.736-20.8-2.9-30.087c1.479-9.022,6.229-29.69,6.229-29.69Z" transform="translate(-1899.043 -1153.657)" fill="#201d40"/>
      <path id="Path_982" data-name="Path 982" d="M2009.36,1217.71s3.467,28.08,5.158,33.406,4.007,9.362,7.076,27.481c3.539.178,7.827.468,7.827.468s-.478-22.983-5.989-28.21c-.186-9.15.891-32.964.891-32.964Z" transform="translate(-1974.907 -1160.19)" fill="#2c2858"/>
      <g id="v" transform="translate(25.649 24.026)">
        <path id="h-5" d="M1950.337,900.564s-6.015-2.1-8.02-1.14c-6.232,3-7.662,0-7.662,0a50.611,50.611,0,0,0-7.349-.484c-.654,8.721-1.737,36.618-1.737,36.618a60.913,60.913,0,0,0,12.9,1.786,59.053,59.053,0,0,0,12.657-1.713s-.335-12.195-.614-16.726C1950.607,913.822,1950.337,907.26,1950.337,900.564Z" transform="translate(-1925.57 -898.94)" fill="#e62552"/>
      </g>
      <g id="c-5" data-name="c" transform="translate(44.665 52.006)">
        <path id="Path_983" data-name="Path 983" d="M2115.712,1165.509l-1.144,1.412s-.42-1.926-1.742-1.666v2.063s-.746,1.19-3.887.315c-2.853.048-1.218,1.74-2.081,2.1-1.271.525,1.646,2.574,4.443,2.312,3.618-.333,3.859-1.149,3.859-1.149l2.146-1.548Z" transform="translate(-2106.552 -1165.231)" fill="#f37a50"/>
      </g>
      <path id="Path_984" data-name="Path 984" d="M2161.29,914.4c5.494,2.364,12.237,7.812,16.386,16.441,1.422,2.96-5.342,3.558-6.69,2.39s-9.7-9.877-9.7-9.877Z" transform="translate(-2110.874 -888.749)" fill="#c4204a"/>
      <path id="Path_985" data-name="Path 985" d="M2186,1065.259c4.806-6.463,6.953-11.579,8.5-12.367,2.074-1.051,5.487-1,5.486,2.609s-13.184,14.553-13.184,14.553Z" transform="translate(-2132.988 -1012.158)" fill="#c4204a"/>
      <path id="Path_986" data-name="Path 986" d="M1708.846,827.1l-23.694-8.435-3.692,5.579,26.773,13.244Z" transform="translate(-1681.46 -803.069)" fill="#c4204a"/>
    </g>
    <path id="Path_987" data-name="Path 987" d="M1344.71,746.966c.474,1.35,4.738,2.1,5.061,1.716,2.263-5.81-.122-17.207-.122-17.207l-2.121-.965A107.249,107.249,0,0,1,1344.71,746.966Z" transform="translate(-1151.395 -638.392)" fill="#f37a50"/>
    <path id="Path_988" data-name="Path 988" d="M1193,889.866c3.976-1.269,15.235-8.392,15.739-9.815l-4.71-2.522s-12.829,5.7-14.912,6.749C1185.5,886.09,1186.519,891.951,1193,889.866Z" transform="translate(-1014.193 -769.965)" fill="#f37a50"/>
    <path id="Path_989" data-name="Path 989" d="M1066.9,702.1c.3-4.077-.879-7.677-4.129-9.512-3.3-1.859-7.422-.036-7.422-.036h0s-3.493-1.243-6.658,2.244-.771,6.556-2.067,9.1c-.767,1.506-4.667,1.817-3.66,6.724.291,1.414,2,2.367,3.434,2.462,2.532.166,4.89-.813,5.917.166,3.383,3.226,10.879,2.059,11.929-.891.325-.915,7.068.855,6.394-5.376C1070.3,703.818,1066.631,705.739,1066.9,702.1Z" transform="translate(-890.128 -603.704)" fill="#2c2858"/>
    <path id="Path_990" data-name="Path 990" d="M1099.784,924.116c0-3.407,2.953-8.511,1.537-11.954-1.031-2.766-2.754-7.413-4.864-8.187-.995-.366-2.018-.621-3.257-.964,0,0,.386,2.267-1.073,2.384-2.805.225-4.281-3.373-4.281-3.373-1.513-.145-8.406,2.1-8.727,3.212.017,4.463,3.92,10.471,5.105,15.3a25.533,25.533,0,0,1-.653,8.588s9.854,3.293,16.473-.351C1100.044,928.77,1099.784,926.418,1099.784,924.116Z" transform="translate(-921.86 -791.878)" fill="#3f964f"/>
    <path id="Path_991" data-name="Path 991" d="M1163.468,868.451l-4.348-.651.223,3.592s1.189,3.968,3.661,4.023,1.786-3.028,1.786-3.028Z" transform="translate(-992.522 -761.257)" fill="#f37a50"/>
    <path id="Path_992" data-name="Path 992" d="M1118.245,731.3c1.122,4.687,5.016,7.775,8.7,6.891s5.755-5.4,4.632-10.087-5.016-7.775-8.7-6.891S1117.123,726.611,1118.245,731.3Z" transform="translate(-956.201 -629.935)" fill="#f37a50"/>
    <path id="Path_993" data-name="Path 993" d="M1230.7,791.733a.659.659,0,1,0,.3-.883A.659.659,0,0,0,1230.7,791.733Z" transform="translate(-1054.368 -692.33)"/>
    <path id="Path_994" data-name="Path 994" d="M1181.444,803.212a.712.712,0,1,0,.315-.955A.712.712,0,0,0,1181.444,803.212Z" transform="translate(-1012.144 -702.532)"/>
    <path id="Path_995" data-name="Path 995" d="M1171.537,793.318a.255.255,0,0,0,.114-.118,1.888,1.888,0,0,1,1.331-.922.248.248,0,0,0-.071-.491,2.357,2.357,0,0,0-1.71,1.2.248.248,0,0,0,.335.327Z" transform="translate(-1003.339 -693.229)" fill="#2c2858"/>
    <path id="Path_996" data-name="Path 996" d="M1229.421,783.14a.237.237,0,0,0,.065-.047.248.248,0,0,0,0-.351,1.741,1.741,0,0,0-1.726-.42.248.248,0,0,0,.161.47,1.241,1.241,0,0,1,1.218.307A.247.247,0,0,0,1229.421,783.14Z" transform="translate(-1051.673 -684.692)" fill="#2c2858"/>
    <path id="Path_997" data-name="Path 997" d="M1222.351,813.187a6.652,6.652,0,0,0,1.023.972.26.26,0,0,1,.086.347,3.575,3.575,0,0,1-1.591,1.113.07.07,0,0,1-.074-.117,3.382,3.382,0,0,0,.811-.946.316.316,0,0,0,0-.282c-.105-.2-.309-.62-.448-.965a.117.117,0,0,1,.191-.123Z" transform="translate(-1046.723 -712.353)" fill="#de623c"/>
    <path id="Path_998" data-name="Path 998" d="M1112.567,814.5a1.713,1.713,0,1,1-2.651.065A1.9,1.9,0,0,1,1112.567,814.5Z" transform="translate(-950.372 -713.108)" fill="#f37a50"/>
    <path id="Path_999" data-name="Path 999" d="M1121.8,824.811a.257.257,0,0,0,.087-.073,1.121,1.121,0,0,0,.086-1.373,1.2,1.2,0,0,0-1.308-.45.248.248,0,0,0,.155.471.709.709,0,0,1,.75.268.634.634,0,0,1-.08.786.248.248,0,0,0,.309.371Z" transform="translate(-959.968 -721.045)" fill="#de623c"/>
    <path id="Path_1000" data-name="Path 1000" d="M1188.189,846.3a.2.2,0,0,1,.181-.315,14.015,14.015,0,0,0,3.721,0,.2.2,0,0,1,.182.315,2.465,2.465,0,0,1-4.083,0Z" transform="translate(-1017.591 -741.734)" fill="#fff"/>
    <path id="Path_1001" data-name="Path 1001" d="M1114.384,723.344c4.393-.588,10.541-5.064,11.045-7.362-.85-2.759-5.377-4.146-7.934-2.867S1112.521,719.872,1114.384,723.344Z" transform="translate(-952.889 -622.395)" fill="#2c2858"/>
    <path id="Path_1002" data-name="Path 1002" d="M1184.66,1246.8c-.291-2.9,1.206-25,1.206-25,4.236-19.424,2.573-33.328,2.573-33.328l-7.281.512-2.869,10.976,1.366,18.332s-.511,1.411-.781,2.538c-1.462,6.119,0,13.432.9,18.307.42,2.258,1.065,7,1.082,8.084l-1.829,2.365s6.62,7.326,7.639,7.372c1.979.089,1.4-1.871,1.4-1.871C1185.331,1252.29,1184.741,1247.627,1184.66,1246.8Z" transform="translate(-1008.263 -1048.234)" fill="#f37a50"/>
    <path id="Path_1003" data-name="Path 1003" d="M1179.54,1752.525l.364,4.707.847.039.428-4.372c2.251.575,3.865,4.662,3.865,4.662,1.551.556,5.494.937,6.9.21.339-1.374-3.257-2.339-3.257-2.339a3.623,3.623,0,0,1-2.927.267,13.807,13.807,0,0,1-4.272-8.139S1177.513,1747.841,1179.54,1752.525Z" transform="translate(-1008.527 -1548.581)" fill="#e62552"/>
    <path id="Path_1004" data-name="Path 1004" d="M1011.488,1189.883l-10.257-1.413c-3.924,8.878-5.2,24.333-6.269,29.84-4.275,7.169-5.633,28.908-5.633,28.908l-1.829,2.365s6.62,7.325,7.639,7.372c1.98.089,1.4-1.871,1.4-1.871a14.13,14.13,0,0,1-3.427-7.322c-.265-1.228,8.3-25.345,8.3-25.345l.914-2.289c10.464-17.282,12.181-30.347,12.181-30.347Z" transform="translate(-843.038 -1048.234)" fill="#f37a50"/>
    <path id="Path_1005" data-name="Path 1005" d="M981.514,1752.525l.365,4.707.846.039.428-4.372c2.253.575,3.866,4.662,3.866,4.662,1.552.556,5.494.937,6.9.21.338-1.374-3.257-2.339-3.257-2.339a3.626,3.626,0,0,1-2.928.267,13.8,13.8,0,0,1-4.271-8.139S979.488,1747.841,981.514,1752.525Z" transform="translate(-839.129 -1548.581)" fill="#e62552"/>
    <path id="Path_1006" data-name="Path 1006" d="M1034.3,1171.123c1.024-3.427.6-27.584,9.644-34.253l15.54,1.261c3.6,5.821,2.277,20.967,1.065,33.432C1053.233,1174.176,1047.415,1175.225,1034.3,1171.123Z" transform="translate(-882.923 -1002.056)" fill="#3f964f"/>
    <path id="Path_1007" data-name="Path 1007" d="M1451.428,355.244a5.763,5.763,0,0,0-1.27-2.2c-4.51-6.57-14.945-2.764-30.129,1.54-2.538.72-2.013-2.689-3.138-9.466-.735-4.413-5.478-10.057-10.087-8.634-7.593,2.346,1.554,6.052-.6,22.873-1.156,8.988-10.535,7.052-8.09,14.966l5.569,18.014c.952,3.081,2.171,5.948,6.674,5.091,4.365-.831,4.341,2.456,10.426.574l30.46-9.413a5.884,5.884,0,0,0,3.9-7.342,5.8,5.8,0,0,0-2.226-3.027,5.772,5.772,0,0,0-.824-8.793,5.806,5.806,0,0,0-1.431-9.2A5.811,5.811,0,0,0,1451.428,355.244Z" transform="translate(-1187.138 -285.57)" fill="#facb32"/>
    <path id="Path_1008" data-name="Path 1008" d="M1665.968,508.22l14.53-4.49a5.922,5.922,0,0,0,3.993-4.24,1.544,1.544,0,1,0-3.005-.713,2.809,2.809,0,0,1-1.891,2.013l-14.872,4.6a2.785,2.785,0,1,1-1.644-5.321l9.938-3.071a1.54,1.54,0,0,0-.909-2.942l-9.94,3.071a5.884,5.884,0,0,0-3.9,7.341,5.816,5.816,0,0,0,3.355,3.646,5.793,5.793,0,0,0,2.918,8.161,5.825,5.825,0,0,0,3.346,8.319,5.8,5.8,0,0,0-.294,4.148,5.884,5.884,0,0,0,7.355,3.862l9.258-2.861a5.924,5.924,0,0,0,3.993-4.239,1.535,1.535,0,0,0-1.138-1.856,1.552,1.552,0,0,0-1.865,1.138,2.82,2.82,0,0,1-1.9,2.015l-9.258,2.861a2.785,2.785,0,0,1-1.645-5.321l10.982-3.395a5.92,5.92,0,0,0,3.993-4.24,1.544,1.544,0,0,0-3-.718,2.781,2.781,0,0,1-1.9,2.016l-11.922,3.685a2.788,2.788,0,0,1-1.657-5.324l13.659-4.222a5.924,5.924,0,0,0,3.993-4.239,1.544,1.544,0,1,0-3-.718,2.781,2.781,0,0,1-1.9,2.015l-14.031,4.336a2.785,2.785,0,1,1-1.646-5.322Z" transform="translate(-1414.768 -426.718)" fill="#eba223"/>
    <path id="Path_1009" data-name="Path 1009" d="M1299.688,662.24l-9.484,2.932a2.49,2.49,0,0,1-3.114-1.645l-8.71-28.184a2.49,2.49,0,0,1,1.648-3.111l9.485-2.931a2.489,2.489,0,0,1,3.113,1.643l8.711,28.184a2.489,2.489,0,0,1-1.648,3.113Z" transform="translate(-1091.892 -547.716)" fill="#7f99eb"/>
    <path id="Path_1010" data-name="Path 1010" d="M1429.749,893.992c-.99.06-2.142-.263-2.8.458l-1.721-1.98c1.681-2.688,5.621-3.6,6.026-3.635,1.051-.091,1.54-.2,1.622-.06s.34,1.077-1.186,1.261c-1.915.23-.643,1.761,3.241.3.973-.365,2.8.105,2.141.821C1436.343,891.939,1434.249,893.715,1429.749,893.992Z" transform="translate(-1219.361 -779.969)" fill="#f37a50"/>
    <path id="Path_1011" data-name="Path 1011" d="M1276.035,924.853c-.923,1.318,1.186,5.707,1.746,5.754,6.8-1.736,15.663-11.384,15.663-11.384l-.509-2.572A120.972,120.972,0,0,1,1276.035,924.853Z" transform="translate(-1090.658 -804.975)" fill="#f37a50"/>
    <path id="Path_1012" data-name="Path 1012" d="M1073.915,930.208c4.086,2.312,18.572,6.173,20.132,5.5l-1.515-5.818s-14.505-6.239-16.964-7.161C1071.315,921.131,1067.241,926.443,1073.915,930.208Z" transform="translate(-914.251 -810.155)" fill="#f37a50"/>
    <path id="Path_1013" data-name="Path 1013" d="M2410.019,319.763a4.123,4.123,0,0,0-.21-1.8c-1.094-5.593-9.021-6.057-20.207-7.543-1.869-.248-.557-2.336.631-7.1.771-3.1-.736-8.155-4.166-8.528-5.649-.616-.7,4.413-6.889,14.837-3.308,5.569-8.914,1.637-9.561,7.524l-1.456,13.4c-.249,2.292-.264,4.518,2.935,5.235,3.1.693,2.151,2.843,6.678,3.337l22.659,2.47a4.2,4.2,0,0,0,4.64-3.712,4.14,4.14,0,0,0-.6-2.618,4.125,4.125,0,0,0,1.955-6,4.151,4.151,0,0,0,1.669-6.44,4.155,4.155,0,0,0,1.923-3.055Z" transform="translate(-2016.853 -248.409)" fill="#facb32"/>
    <path id="Path_1014" data-name="Path 1014" d="M2579.361,485.524l10.806,1.178a4.234,4.234,0,0,0,3.822-1.65,1.1,1.1,0,0,0-1.77-1.321,2.009,2.009,0,0,1-1.814.783l-11.064-1.206a2,2,0,1,1,.432-3.959l7.393.806a1.1,1.1,0,1,0,.239-2.188l-7.394-.806a4.17,4.17,0,0,0-3.474,7.057,4.14,4.14,0,0,0-.4,6.182,4.164,4.164,0,0,0-.166,6.409,4.148,4.148,0,0,0-1.366,2.639,4.2,4.2,0,0,0,3.731,4.623l6.887.751a4.237,4.237,0,0,0,3.819-1.648,1.1,1.1,0,1,0-1.767-1.324,2.014,2.014,0,0,1-1.818.783l-6.886-.75a1.993,1.993,0,1,1,.438-3.962l8.169.89a4.234,4.234,0,0,0,3.823-1.649,1.1,1.1,0,1,0-1.767-1.324,1.987,1.987,0,0,1-1.818.785l-8.869-.967a2,2,0,1,1,.432-3.96l10.16,1.108a4.234,4.234,0,0,0,3.823-1.649,1.1,1.1,0,1,0-1.766-1.323,1.99,1.99,0,0,1-1.818.783l-10.439-1.138a2,2,0,1,1,.427-3.956Z" transform="translate(-2200.287 -411.637)" fill="#eba223"/>
    <path id="Path_1015" data-name="Path 1015" d="M2292.777,476.472l-7.055-.769a1.867,1.867,0,0,1-1.873-2l2.286-20.966a1.786,1.786,0,0,1,1.963-1.576l7.055.77a1.779,1.779,0,0,1,1.576,1.962l-2.285,20.966A1.754,1.754,0,0,1,2292.777,476.472Z" transform="translate(-1953.702 -388.389)" fill="#7f99eb"/>
    <path id="Path_1016" data-name="Path 1016" d="M1461.458,1053.353l4.661.037-4.194,2.035a1.554,1.554,0,0,0-.873,1.489l.408,6.935-2.613-6.445a1.554,1.554,0,0,0-1.42-.97l-4.557-.057,4.09-2.008a1.554,1.554,0,0,0,.867-1.487l-.407-6.942,2.611,6.44A1.552,1.552,0,0,0,1461.458,1053.353Z" transform="translate(-1242.793 -920.68)" fill="#facb32"/>
    <path id="Path_1017" data-name="Path 1017" d="M1991.693,340.76l3.923,2.071-4.434-.116a1.479,1.479,0,0,0-1.39.876l-2.692,6.042.613-6.59a1.477,1.477,0,0,0-.775-1.442l-3.827-2.043,4.336.094a1.48,1.48,0,0,0,1.383-.876l2.694-6.046-.613,6.585A1.478,1.478,0,0,0,1991.693,340.76Z" transform="translate(-1696.537 -282.407)" fill="#facb32"/>
    <path id="Path_1018" data-name="Path 1018" d="M1325.508,333.552l2.924-.007-2.617,1.3a.974.974,0,0,0-.538.939l.3,4.349-1.681-4.025a.974.974,0,0,0-.9-.6l-2.859-.005,2.553-1.287a.975.975,0,0,0,.535-.937l-.3-4.352,1.681,4.023A.974.974,0,0,0,1325.508,333.552Z" transform="translate(-1130.017 -279.007)" fill="#facb32"/>
    <path id="Path_1019" data-name="Path 1019" d="M1688.179,1278.243l2.8,1.75-3.288-.327a1.1,1.1,0,0,0-1.079.576l-2.327,4.341.813-4.862a1.1,1.1,0,0,0-.5-1.113l-2.732-1.724,3.215.3a1.1,1.1,0,0,0,1.075-.576l2.328-4.344-.812,4.858A1.1,1.1,0,0,0,1688.179,1278.243Z" transform="translate(-1439.494 -1123.229)" fill="#facb32"/>
    <path id="Path_1020" data-name="Path 1020" d="M2805.262,549.9l2.577,1.384-2.922-.1a.974.974,0,0,0-.92.57l-1.8,3.97.433-4.34a.974.974,0,0,0-.5-.954l-2.514-1.366,2.858.082a.974.974,0,0,0,.915-.572l1.8-3.973-.434,4.338A.975.975,0,0,0,2805.262,549.9Z" transform="translate(-2379.691 -472.016)" fill="#facb32"/>
    <path id="Path_1021" data-name="Path 1021" d="M608.8,1205.938l2.918-.21-2.522,1.477a.974.974,0,0,0-.474.974l.594,4.318-1.949-3.9a.974.974,0,0,0-.935-.537l-2.853.186,2.461-1.45a.974.974,0,0,0,.469-.971l-.593-4.323,1.947,3.9A.974.974,0,0,0,608.8,1205.938Z" transform="translate(-516.665 -1059.895)" fill="#facb32"/>
    <path id="Path_1022" data-name="Path 1022" d="M2603.926,1226.372a3.313,3.313,0,1,1-3.312-3.312,3.313,3.313,0,0,1,3.312,3.312Z" transform="translate(-2223.739 -1079.19)" fill="#fff"/>
    <path id="Path_1023" data-name="Path 1023" d="M1484.328,1412.627a2.585,2.585,0,1,1,0-3.655A2.585,2.585,0,0,1,1484.328,1412.627Z" transform="translate(-1267.308 -1244.891)" fill="#fff"/>
    <path id="Path_1024" data-name="Path 1024" d="M2656.532,1162.9a1.786,1.786,0,1,1-1.786,1.786A1.786,1.786,0,0,1,2656.532,1162.9Zm0-.761a2.543,2.543,0,1,0,2.543,2.543A2.543,2.543,0,0,0,2656.532,1162.14Z" transform="translate(-2249.372 -1024.671)" fill="#fff"/>
    <path id="Path_1025" data-name="Path 1025" d="M1144.7,514.083a2.537,2.537,0,1,1-2.536,2.537A2.537,2.537,0,0,1,1144.7,514.083Zm0-1.083a3.62,3.62,0,1,0,2.562,1.059A3.621,3.621,0,0,0,1144.7,513Z" transform="translate(-976.882 -443.736)" fill="#fff"/>
    <path id="Path_1026" data-name="Path 1026" d="M154.3,742.413a2.278,2.278,0,1,1-2.278,2.277A2.278,2.278,0,0,1,154.3,742.413Zm0-.973a3.251,3.251,0,1,0,3.25,3.25,3.251,3.251,0,0,0-3.25-3.25Z" transform="translate(-135.179 -648.174)" fill="#fff"/>
  </g>
</svg>
