<svg xmlns="http://www.w3.org/2000/svg" viewBox="0 0 4800.61 1764.89"><defs><style>.cls-1{fill:#e3eaff;}.cls-2{fill:#95a6db;}.cls-3{fill:#3a62ad;}.cls-4{fill:#facb32;}.cls-5{fill:#f37a50;}.cls-6{fill:#201d40;}.cls-7{fill:#2c2858;}.cls-8{fill:#e62552;}.cls-9{fill:#c4204a;}.cls-10{fill:#fff;}.cls-11{fill:#de623c;}.cls-12{fill:#eba223;}.cls-13{fill:#7f99eb;}.cls-14{fill:#3f964f;}.cls-15{fill:#0e6a41;}.cls-16{fill:#097a48;}.cls-17{fill:#494c7f;}.cls-18{fill:#f5a3b7;}</style></defs><title>Success</title><g id="Layer_2" data-name="Layer 2"><g id="Слой_1" data-name="Слой 1"><path class="cls-1" d="M217.91,1732.62c-592.9-310.26,243.86-401.21-44-663.34C-18.78,893.77,45.58,590.51,362.74,506.68c391.16-103.4,927.63,97.07,1256.56-134.06C1856.65,205.85,2070.47,45.75,2440.07,7c642.55-67.42,677.85,375.83,1170.75,386.5,302.23,6.54,603-91.87,848.3,84.61,352.23,253.46,421.93,638.82,255.28,962.52-61.34,119.16-185.87,290.58-185.87,290.58Z"/><path class="cls-2" d="M1357.39,1324.37s17.29,31.38-10.3,87.15c-28.13,56.82-23,96.52-23,96.52l-26,24.52s-4.41-63.15,20.36-107.73C1349.5,1369.05,1357.39,1324.37,1357.39,1324.37Z"/><path class="cls-2" d="M1433.18,1342s4.61,26-26.53,62.13c-31.82,36.79-37.17,66.82-37.17,66.82l-21.37,17s9.38-50.59,36.18-79C1417.77,1373.41,1433.18,1342,1433.18,1342Z"/><path class="cls-2" d="M1301.65,1383.8s-23.33,16.1-38.36,81.55c-12.25,53.33-.15,81.31-7.85,114l33.06-35.44c2.08-23.2-12.78-38.55-4-87.45C1292.68,1410.67,1301.65,1383.8,1301.65,1383.8Z"/><path class="cls-2" d="M1092.19,1581s-10.4,26.46,13.62,89.1c19.57,51.12,46.18,58,51.28,69.79l11.55-25.73c-14.13-20.09-30.2-17.74-50.2-63.22C1099.73,1608.21,1092.19,1581,1092.19,1581Z"/><path class="cls-2" d="M1247.22,1424.49s-16.18,46.19-20,75.66c-5.44,41.89,11,64.4,8.55,107.59l-23.26,28s-20.22-45.41-11.44-96.83C1215.85,1452.61,1247.22,1424.49,1247.22,1424.49Z"/><path class="cls-2" d="M1167,1445.8a281.52,281.52,0,0,1,1.51,81.92c-11.19,82.44,32.08,145.16,32.08,145.16l-17.33,16.4s-53.11-43.81-41.77-112.78C1153.55,1503.62,1167,1445.8,1167,1445.8Z"/><path class="cls-2" d="M1286.7,1549.74s19.52-6.78,100.37,4.08c51.81,7,36.78-12.77,85.63,2.38-37.27,3-50.15,30.14-98.72,26.45a746.31,746.31,0,0,0-116.68.21Z"/><path class="cls-2" d="M1443.29,1603.43s-32.06,39.79-103.81,34.17A404.15,404.15,0,0,0,1208,1649.24l21.91-36s29.89-21.38,103.94-8.37C1384.72,1613.78,1443.29,1603.43,1443.29,1603.43Z"/><path class="cls-2" d="M1400,1671.37s-32,39.78-103.81,34.16a404.16,404.16,0,0,0-131.48,11.65l21.91-36s29.89-21.39,103.94-8.38C1341.46,1681.71,1400,1671.37,1400,1671.37Z"/><path class="cls-2" d="M1494.91,1472.36s-23.05,20.59-68.26,15.33c-45.85-5.35-79.65,4.29-79.65,4.29l13-13.42s18.89-13.52,65.7-5.31C1457.89,1478.89,1494.91,1472.36,1494.91,1472.36Z"/><path class="cls-2" d="M1327.38,1514s35.36-3.34,87.27,1.59c32.76,3,76.48-16.43,76.48-16.43s-33.93,46.73-82.89,39.16c-56.13-8.7-111.7-1.5-111.7-1.5Z"/><path class="cls-2" d="M1356.53,1484s29.66-45.84,79-54.64a266.91,266.91,0,0,0,83.1-30.47s-27.59,47.34-73.75,50.53c-42.61,3.06-72.35,31-72.35,31Z"/><path class="cls-2" d="M1161.06,1740.71l-7.38-3.14c19.37-45.52,106.29-193.22,214.88-266.42l4.49,6.66C1266,1550,1180.2,1695.78,1161.06,1740.71Z"/><path class="cls-2" d="M477.88,1739.5H728c24.2-32.39,35.46-72.3,35.46-72.3s-77.29,45.45-113.49,27.72c70.18-15.43,123.51-68.6,123.51-68.6l11.44-47.58s-97.8,68.27-110.43,54.1c-14.16-15.94,88.16-33.17,113.67-99.68,0,0-15.63-43.73-4.62-79.74,1.44-4.73-55.5,44.57-66.31,31.39-8.75-10.67,43.21-32.24,51.15-53.5,10.12-27.39-10.13-54.06-10.13-54.06s-55.9,36.93-61.21,23.53c-6.4-16.14,41.63-24.34,51.07-46.24-25.94-16.26-44.22-31.59-44.55-44.71-15.51,12.39-36.1,12.77-59.85,11.5-2.23,16.93,22.52,55.19,15.57,59.55-17.72,11.09-33-42.81-33-42.81a63,63,0,0,0-36.45,42.34c-6.4,23.69,24.56,82.31,14.72,90.61-12.23,10.35-35.59-79-35.59-79s-28.35,15.19-38.47,33.61,58.51,119.89,47.13,124c-23.63,8.55-72.79-108.22-72.79-108.22s-28.34,57.16-25.79,70.64c4.21,22.09,80.56,89.5,63.6,100-12.15,7.58-47.55-45.82-64.8-73.55v80.68a137.16,137.16,0,0,0,18.49,12.49c25.37,14.5,25.49,23,10.63,22-9.19-.6-19.28-5.18-29.12-11.5v29c16.69,6.9,33.92,18.77,29.12,25.75-5.55,8.1-17.58,5.91-29.12,0Zm223.33-291.68c-6.86-12.86,42.36-35.21,46.41-30C756.69,1429.41,708.08,1460.67,701.21,1447.82Zm5.33,90.18c22.58-10.77,39.24-28.29,48-19.2,8,8.31-4.72,26.65-29.34,42.12-19.18,12-53.32,25-57.51,12.29C663.61,1560.94,679.73,1550.81,706.54,1538ZM698,1496.39c2.64,12.65-28.56,25.61-33.4,14.17S696.29,1488.09,698,1496.39ZM621.5,1649.58c-5-13.48,28.85-24.17,33.23-14.68,5.62,12.23-28.23,28.17-33.23,14.68Zm11.42-202.74c-13.3,4.46-33-33.81-20.76-41s34.22,36.47,20.76,41Zm-22.23-56.43-.07,0a6.68,6.68,0,1,1,4.25-8.47,6.68,6.68,0,0,1-4.25,8.47Z"/><polygon class="cls-3" points="666.93 1411.55 558.55 1739.5 543.95 1739.5 666.93 1411.55"/><polygon class="cls-3" points="671.17 1593.96 591.84 1611.78 591.23 1620.47 671.17 1593.96"/><polygon class="cls-3" points="615.34 1549.12 574.54 1472.58 618.97 1539.44 615.34 1549.12"/><polygon class="cls-3" points="574.24 1670.72 523.03 1621.18 575.03 1656.61 574.24 1670.72"/><path class="cls-2" d="M284,1657.58q35-43.5,13.53-115Q260.15,1607.23,284,1657.58Z"/><path class="cls-2" d="M256,1591.32q25.53-44-3.69-105.48Q227.48,1549.28,256,1591.32Z"/><path class="cls-2" d="M224.88,1525.63q17.84-45-18.2-98.6Q192.12,1490.09,224.88,1525.63Z"/><path class="cls-2" d="M154.33,1388.9q-.9,54.72,32.47,78.42Q193.6,1426.86,154.33,1388.9Z"/><path class="cls-2" d="M107,1374.29q7.4,45.2,38.32,59.76Q145,1399.81,107,1374.29Z"/><path class="cls-2" d="M121.46,1435.28q-12.57-31.85-57.19-42.11Q87.39,1432.76,121.46,1435.28Z"/><path class="cls-2" d="M170.67,1609.53q46.67,59.16,102.91,55.35Q245.79,1616,170.67,1609.53Z"/><path class="cls-2" d="M219.8,1549.58q-35-29.92-94.63-13.85Q177.61,1568.1,219.8,1549.58Z"/><path class="cls-2" d="M108.93,1494.87q45.6,28.22,82.33,12.05Q160.79,1480.86,108.93,1494.87Z"/><path class="cls-2" d="M154.35,1469.73q-30.49-26-82.34-12.06Q117.66,1485.89,154.35,1469.73Z"/><path class="cls-2" d="M295.58,1731.54c-19.59-86.89-21.95-79.9-42.4-130.41q-8.27-20.48-17.66-38.85a390,390,0,0,0-47.18-69.87q-31.23-38.48-54.31-50.7l-1.45-1.72a1.39,1.39,0,0,0-1.54-.91,2.44,2.44,0,0,0-1.91-.06,4.56,4.56,0,0,0-1.23,1.65,2.37,2.37,0,0,0-.05,1.9l.54,1.32a5.18,5.18,0,0,0,1.64,1.26v.32l1.4.59q22.29,12.43,52.67,49.58a382.53,382.53,0,0,1,46.14,69.5A408.56,408.56,0,0,1,248,1603.23l1.34,3.4Q218,1566.73,150.17,1571q49.49,46.51,99.12,35.67c19.8,49.74,21.58,41.28,40.64,126Z"/><path class="cls-2" d="M162.06,1629q-8-36.72-54.48-55.67Q125.52,1620.28,162.06,1629Z"/><path class="cls-2" d="M57.3,1571.45q23.16,35.64,54.94,36.46Q99.06,1578.88,57.3,1571.45Z"/><path class="cls-2" d="M20.46,1582.55q24.38,25.92,50.62,21.89Q56,1582.53,20.46,1582.55Z"/><path class="cls-2" d="M56.23,1615.58q-21.91-15.07-55.12-2.34Q33.17,1628.74,56.23,1615.58Z"/><path class="cls-2" d="M160.79,1717.13q55.72,17.88,90.32-9Q212,1688.73,160.79,1717.13Z"/><path class="cls-2" d="M169.17,1646.61q-35.55-4.09-67,32.1Q150,1676.85,169.17,1646.61Z"/><path class="cls-2" d="M74,1659.43q41.63-1.61,58.29-27.94Q101.35,1627.92,74,1659.43Z"/><path class="cls-2" d="M92.36,1623.53q-30.91-3.51-58.29,27.93Q75.72,1649.86,92.36,1623.53Z"/><path class="cls-2" d="M296.9,1731c-50.29-47.5-48.79-42-83.86-65.66q-14.22-9.61-28.23-17.38a303.49,303.49,0,0,0-60.7-24.58q-36.83-11.25-57-9.12l-1.68-.48a1.09,1.09,0,0,0-1.39.08,1.88,1.88,0,0,0-1.25.79,3.42,3.42,0,0,0-.08,1.59,1.86,1.86,0,0,0,.79,1.26l.92.61a3.93,3.93,0,0,0,1.6.1l.13.21,1.16-.23q19.75-1.65,55.45,9.12a297.37,297.37,0,0,1,59.87,24.79A315.18,315.18,0,0,1,210.57,1669l2.35,1.6q-37.47-12.15-79.36,20,52.07,8.54,79.36-20c34.32,23.47,31.8,17.25,80.82,63.58Z"/><path class="cls-4" d="M3162.43,527.17l-47.53-.38L3157.66,506a15.83,15.83,0,0,0,8.9-15.18l-4.15-70.74,26.64,65.71a15.85,15.85,0,0,0,14.49,9.9l46.47.57-41.72,20.48a15.84,15.84,0,0,0-8.84,15.15l4.16,70.8L3177,537.06A15.85,15.85,0,0,0,3162.43,527.17Z"/><path class="cls-4" d="M2594.39,1285l-40-21.12,45.22,1.19a15.09,15.09,0,0,0,14.17-8.94l27.45-61.6-6.25,67.2a15.09,15.09,0,0,0,7.91,14.7l39,20.82-44.22-1a15.08,15.08,0,0,0-14.1,8.94l-27.46,61.64,6.24-67.15A15.1,15.1,0,0,0,2594.39,1285Z"/><path class="cls-4" d="M3337.47,1323.83l-29.82.07,26.69-13.29a9.94,9.94,0,0,0,5.49-9.59l-3.07-44.34,17.14,41a10,10,0,0,0,9.15,6.11l29.16.06-26,13.11a10,10,0,0,0-5.44,9.57l3.06,44.38-17.12-41A10,10,0,0,0,3337.47,1323.83Z"/><path class="cls-4" d="M2940.32,299.36l-28.57-17.85,33.52,3.33a11.23,11.23,0,0,0,11-5.86L2980,234.72l-8.29,49.56a11.25,11.25,0,0,0,5.08,11.35l27.85,17.58-32.79-3.11a11.22,11.22,0,0,0-11,5.88l-23.75,44.29,8.28-49.53A11.24,11.24,0,0,0,2940.32,299.36Z"/><path class="cls-4" d="M1749.49,1085.85l-26.27-14.1,29.8,1a10,10,0,0,0,9.38-5.83l18.37-40.48-4.42,44.27a9.93,9.93,0,0,0,5.15,9.72l25.62,13.91-29.14-.83a10,10,0,0,0-9.34,5.82l-18.38,40.51,4.42-44.23A10,10,0,0,0,1749.49,1085.85Z"/><path class="cls-4" d="M4106.68,390.84l-29.74,2.08,25.73-15.06a9.93,9.93,0,0,0,4.83-9.93l-6.05-44,19.87,39.8a9.91,9.91,0,0,0,9.54,5.48l29.09-1.9-25.09,14.84a9.94,9.94,0,0,0-4.79,9.91l6.05,44.07-19.85-39.77A9.94,9.94,0,0,0,4106.68,390.84Z"/><path class="cls-2" d="M2433.76,1666.05q34.18-47.68,7.48-121.44Q2405.78,1614.63,2433.76,1666.05Z"/><path class="cls-2" d="M2400.47,1598.18q24.22-47.68-10-110.42Q2368.11,1555.74,2400.47,1598.18Z"/><path class="cls-2" d="M2364,1531.1q16.11-48.19-24.84-102.37Q2327.57,1495.72,2364,1531.1Z"/><path class="cls-2" d="M2282,1391.79q2.26,57.45,38.64,80.36Q2325.43,1429.31,2282,1391.79Z"/><path class="cls-2" d="M2231.54,1379.22q10.38,47,43.68,60.45Q2272.85,1403.78,2231.54,1379.22Z"/><path class="cls-2" d="M2250.26,1442.36q-15-32.68-62.44-40.84Q2214.37,1441.69,2250.26,1442.36Z"/><path class="cls-2" d="M2301.59,1632.68q52.39,59.33,111.17,52Q2380.75,1635.08,2301.59,1632.68Z"/><path class="cls-2" d="M2360.09,1556.51q-38.51-29.34-100.07-9Q2316.92,1578.4,2360.09,1556.51Z"/><path class="cls-2" d="M2240.59,1505.59q49.5,26.94,87.07,7.84Q2294.18,1487.89,2240.59,1505.59Z"/><path class="cls-2" d="M2286.77,1476.57q-33.51-25.46-87.07-7.84Q2249.23,1495.67,2286.77,1476.57Z"/><path class="cls-2" d="M2450.19,1743c-25.61-90-27.68-82.53-52.08-134.31q-9.87-21-20.79-39.72a409.19,409.19,0,0,0-53.57-70.54q-35-38.54-59.92-50l-1.63-1.72a1.46,1.46,0,0,0-1.67-.87,2.49,2.49,0,0,0-2,.06,4.75,4.75,0,0,0-1.2,1.79,2.55,2.55,0,0,0,.06,2l.64,1.34a5.3,5.3,0,0,0,1.8,1.23v.34l1.5.53q24.1,11.75,58.14,48.94a402,402,0,0,1,52.46,70.2,428.51,428.51,0,0,1,20.8,38.93l1.62,3.48q-35.15-40-106.06-31.62,54.61,45.9,106.06,31.62c23.66,51,25,42,50,129.79Z"/><path class="cls-2" d="M4522.18,1764.89H152c-13.89,0-25.15-6-25.15-13.4h0c0-7.4,11.26-13.4,25.15-13.4H4522.18c13.89,0,25.15,6,25.15,13.4h0C4547.33,1758.89,4536.07,1764.89,4522.18,1764.89Z"/><g id="c"><path class="cls-5" d="M944.66,624l-4-26.73s18.73-2.92,17.73-16.08l-19.69-.23s-10.59-9.71,1.57-39.26c2.82-27.79-15.52-13.85-18-22.64-3.69-13-26.93,13-27.65,40.52-.93,35.58,18,64.35,18,64.35Z"/></g><path d="M1229.63,1690c6.35-17.59,19.93-19.54,19.93-19.54,26.39,37.13,91.22,14.34,89.07,64.56-98.57-.64-139.54,0-139.54,0,.13-11.53,2.08-38.91,4.35-49.63l5.14,1Z"/><path d="M1082.14,1690.93c6.36-17.59,19.94-19.55,19.94-19.55,26.39,37.13,91.21,14.35,89.07,64.56-98.58-.64-139.55,0-139.55,0,.13-11.53,2.08-38.91,4.36-49.62l5.13,1Z"/><path class="cls-6" d="M1295.19,1103.59s16,238,9.5,290.87-29.52,120.73-26.91,295.72c-32.14,8.2-78.69,0-78.69,0s-6.9-197.87,27.07-286.25c-13.82-85.85-58.14-282.47-58.14-282.47Z"/><path class="cls-7" d="M1247.43,1110.09s-32.32,267.16-48.14,317.83-46.67,93.52-75.31,265.9c-33,1.69-72.38-6.89-72.38-6.89s13.06-211.77,64.49-261.5c1.74-87.06-8.31-313.62-8.31-313.62Z"/><path class="cls-2" d="M1122.73,789.21s-2.38,1.84-135.52-21.09a.13.13,0,0,0-.1,0L940,808.3a.14.14,0,0,0,0,.19c35.11,38.82,186.45,62.56,186.45,62.56Z"/><polygon class="cls-2" points="1179.32 760.03 1226.1 752.49 1272.49 762.14 1224.71 818.38 1179.32 760.03"/><path class="cls-5" d="M1196.5,787.36c18.5,14.45,38.08,20.63,58.44,6l2.81-72-61-.73Z"/><path class="cls-2" d="M1286.27,786.56h0L1272,782l.55-19.83-36.62,33.67-10.82,2.47-10.69-3-35-35.29-.35,19.83-12.15,3.3h0l-51.44,7.06V1018.9l-19.2,105.77c60.22,15.65,149.92,16.5,214.08,3.24l-10.6-96.37,20.42-232Z"/><path class="cls-8" d="M1227.26,823.77s-6.43,139.85-17,211.44l18.73,22.66s18.62-17.64,23.67-20.83c11.46-126.2-9.2-212.61-9.2-212.61Z"/><polygon class="cls-9" points="1215.5 799.45 1235.23 794.35 1249.67 800.12 1243.51 824.43 1226.05 824.37 1215.5 799.45"/><path class="cls-10" d="M1235.23,794.35s-15.89,21-30.35,29.39l-37.14-39.39L1179.16,760Z"/><path class="cls-10" d="M1235.23,794.35s12.57,18.27,28.94,30.36l28.93-36.25-20.61-26.31Z"/><path class="cls-2" d="M907.69,619.83c21.16-4.88,32.26-6.93,48.21-5.41,27,116,49.88,160.9,35.59,192.1-11.91,26-41.28,21.05-53.83-.48C921.11,777.63,913.84,675,907.69,619.83Z"/><path class="cls-2" d="M1320.08,799.58c31.55,1.17,68.52,149,68.52,149l61.58-65.71,24.56,57.92s-80.27,102.31-115,91.88c-32.46-9.74-49-126.38-49-126.38Z"/><path class="cls-7" d="M1177.66,718c-30,3.57-45.74-34.79-45.74-34.79-18.4-3-15.3-21.36-15.3-21.36-8.73-2.68-20.36-12-16.61-28.71,3.17-14.1,17-13.44,18.78-29.95,1.43-13.25-8.08-45.74,34.22-48.25,0,0,1-24.63,26.46-30.51,31.15-7.21,38.85,11.51,52.51,14.87,15.25,3.76,48-10.27,52.31,25,0,0,21.78.51,31.78,16.36,9.33,14.77,3.86,33.64-2.41,40.57,0,0,17.45,6,21.46,22.5,2.69,11.09-1.63,25.42-12.68,32.37a32.12,32.12,0,0,1-13.7,4.84c-7.14,1.16-7.59,20.25-13.87,23.94-10.09,5.92-21,10.1-32.18,13.41Z"/><path class="cls-5" d="M1293.12,644.71c3.46,51.8-25,95.88-63.5,98.45s-72.58-37.33-76-89.13,27.35-85.25,65.89-87.83S1289.66,592.91,1293.12,644.71Z"/><path d="M1195.33,671.34a7.43,7.43,0,1,1,6.92-7.91A7.43,7.43,0,0,1,1195.33,671.34Z"/><path d="M1254.43,667.39a7.43,7.43,0,1,1,6.92-7.91A7.42,7.42,0,0,1,1254.43,667.39Z"/><path class="cls-7" d="M1266.55,652.43a3.59,3.59,0,0,1-3.18-1.54c-2-3-4.38-4.67-7-5.07-4.46-.67-8.62,2.55-8.66,2.58a3.57,3.57,0,0,1-4.46-5.57c.26-.21,6.54-5.19,14.11-4.08,4.65.69,8.63,3.41,11.85,8.09a3.57,3.57,0,0,1-.92,5A3.67,3.67,0,0,1,1266.55,652.43Z"/><path class="cls-7" d="M1180.35,658.55a3.57,3.57,0,0,1-3.17-5.6c4.29-6.16,9.26-9.68,14.77-10.48a17.34,17.34,0,0,1,12.53,3.22,3.57,3.57,0,0,1-4.43,5.59,10.28,10.28,0,0,0-7.16-1.73c-3.45.53-6.76,3.05-9.85,7.48A3.59,3.59,0,0,1,1180.35,658.55Z"/><path class="cls-11" d="M1232.2,671.21c10,6.27,13.23,8.91,17.08,11-2,8.73-15.12,13.88-19,13.15,9-5.23,10-11.57,10-11.57Z"/><path class="cls-5" d="M1166,662.55c7.19,10.75,6.57,23.78-1.39,29.11s-20.25,1-27.45-9.79-6.57-23.77,1.39-29.11S1158.83,651.81,1166,662.55Z"/><path class="cls-11" d="M1158.93,682.92a2.39,2.39,0,0,1-2.41-3.15c1.43-4.13,1.25-7.36-.53-9.61-2.74-3.47-8.72-4.19-13-3.77a2.38,2.38,0,1,1-.48-4.73c5.74-.58,13.27.58,17.21,5.55,2,2.48,3.77,6.94,1.29,14.11A2.39,2.39,0,0,1,1158.93,682.92Z"/><path class="cls-10" d="M1203.06,707.34a2.33,2.33,0,0,1,2.22-3.67,165.54,165.54,0,0,0,43.87,1,2.33,2.33,0,0,1,2,3.76c-3.87,5-11.81,12.51-24.35,12.23S1206.71,712.49,1203.06,707.34Z"/><path class="cls-7" d="M1129.1,617.15,1211.54,548l93.35,45.31-10.1,66.89c-3-30.75-21.63-20.45-31.56-29.26s-14.64-23.1-37.64-10.05c0,0-19.13-12.62-28.45,5.88-7.2,14.3-17.42,11.79-27.54,12.73-11.93,1.11-8.86,12.66-16.17,12.43Z"/><path class="cls-4" d="M1128.16,404.92a21.72,21.72,0,0,0-4.81-8.19c-17-24.54-56.07-10.07-112.9,6.36-9.5,2.75-7.6-10-12-35.42-2.83-16.51-20.73-37.59-38-32.16-28.41,8.94,6,22.65-1.81,85.74-4.14,33.71-39.35,26.64-30,56.26l21.22,67.42c3.63,11.53,8.25,22.25,25.11,19,16.35-3.2,16.32,9.11,39.1,1.94l114-35.88a22.05,22.05,0,0,0,14.45-27.6,21.7,21.7,0,0,0-8.4-11.3,21.62,21.62,0,0,0-3.26-32.94,21.77,21.77,0,0,0-5.54-34.46,21.81,21.81,0,0,0,2.79-18.72Z"/><path class="cls-12" d="M1059.35,449.62l54.36-17.11a22.2,22.2,0,0,0,14.87-16,5.75,5.75,0,0,0-4.31-6.93,5.81,5.81,0,0,0-7,4.31,10.52,10.52,0,0,1-7.06,7.58L1054.58,439a10.44,10.44,0,1,1-6.27-19.91l37.19-11.71a5.77,5.77,0,1,0-3.46-11l-37.2,11.71a22,22,0,0,0-14.45,27.59A21.8,21.8,0,0,0,1043,449.3a21.72,21.72,0,0,0,11.1,30.53A21.83,21.83,0,0,0,1066.84,511a21.71,21.71,0,0,0-1,15.56,22,22,0,0,0,27.65,14.33l34.65-10.9A22.23,22.23,0,0,0,1143,514a5.76,5.76,0,0,0-4.3-6.94,5.82,5.82,0,0,0-7,4.31,10.59,10.59,0,0,1-7.08,7.59L1090,529.83a10.44,10.44,0,1,1-6.27-19.91l41.1-12.94a22.2,22.2,0,0,0,14.88-16,5.79,5.79,0,0,0-11.27-2.63,10.42,10.42,0,0,1-7.07,7.6l-44.62,14a10.44,10.44,0,1,1-6.27-19.91L1121.6,464a22.21,22.21,0,0,0,14.88-16,5.76,5.76,0,0,0-4.3-6.94,5.82,5.82,0,0,0-7,4.31,10.41,10.41,0,0,1-7.08,7.59l-52.51,16.53a10.44,10.44,0,1,1-6.27-19.92Z"/><path class="cls-13" d="M960.91,573.92l-35.49,11.17a9.33,9.33,0,0,1-11.7-6.1l-33.2-105.47a9.32,9.32,0,0,1,6.1-11.7l35.49-11.18a9.34,9.34,0,0,1,11.7,6.1L967,562.21A9.33,9.33,0,0,1,960.91,573.92Z"/><path class="cls-5" d="M934.3,582.88c4.77-1.78,7.74-2.63,8.43-9.9s.13-16.54,6.2-13.52,10.33,17.34,9.31,23.21C951.24,586.89,934.3,582.88,934.3,582.88Z"/><path class="cls-10" d="M907.69,619.83l-4.29,26.32,66.36-7.32-14.42-25.4S928.74,613,907.69,619.83Z"/><path class="cls-4" d="M1617.74,733.14a21.78,21.78,0,0,0-7.41-5.95c-24.64-16.89-56,10.51-103.28,46.06-7.9,5.94-10.66-6.69-23.75-28.87-8.51-14.42-32.73-27.77-46.92-16.58-23.38,18.46,13.61,19.07,28.78,80.8,8.1,33-27.32,38.88-8.09,63.26l43.79,55.48c7.49,9.48,15.62,17.86,30.21,8.79,14.14-8.8,18.49,2.72,37.24-12.07l93.8-74a22,22,0,0,0,3.71-30.93,21.69,21.69,0,0,0-11.87-7.58,21.63,21.63,0,0,0-14.75-29.64,21.76,21.76,0,0,0-17.42-30.24,21.8,21.8,0,0,0-4-18.49Z"/><path class="cls-12" d="M1569.3,799.37,1614,764.06a22.21,22.21,0,0,0,8.23-20.21,5.79,5.79,0,0,0-11.47,1.56,10.56,10.56,0,0,1-3.91,9.6l-45.81,36.15a10.44,10.44,0,1,1-12.93-16.39l30.61-24.15a5.77,5.77,0,1,0-7.15-9.06L1541,765.72a22,22,0,0,0-3.72,30.92,21.81,21.81,0,0,0,16.66,8.23,21.72,21.72,0,0,0,21.22,24.59A21.83,21.83,0,0,0,1598.08,854a21.74,21.74,0,0,0,4.57,14.9,22.05,22.05,0,0,0,30.95,3.58l28.51-22.5a22.24,22.24,0,0,0,8.24-20.22,5.79,5.79,0,0,0-11.47,1.55A10.58,10.58,0,0,1,1655,841l-28.51,22.5a10.44,10.44,0,1,1-12.93-16.39l33.82-26.69a22.21,22.21,0,0,0,8.23-20.22,5.79,5.79,0,0,0-11.47,1.55,10.41,10.41,0,0,1-3.91,9.61l-36.72,29a10.44,10.44,0,1,1-12.94-16.39l42.07-33.2a22.23,22.23,0,0,0,8.24-20.21,5.77,5.77,0,0,0-6.49-5,5.83,5.83,0,0,0-5,6.5,10.41,10.41,0,0,1-3.91,9.61l-43.21,34.11a10.44,10.44,0,1,1-12.94-16.39Z"/><path class="cls-13" d="M1521.44,950.53l-29.21,23.05a9.34,9.34,0,0,1-13.11-1.54l-68.5-86.8a9.33,9.33,0,0,1,1.54-13.11l29.21-23a9.34,9.34,0,0,1,13.11,1.54l68.5,86.8A9.34,9.34,0,0,1,1521.44,950.53Z"/><path class="cls-5" d="M849.2,1684.27l23.27-91.64-57.73-8c-2,43.34-5.23,86-4.94,97.57Z"/><path class="cls-5" d="M711.45,1584.16H651.17c2,14.44,9.89,92.66,9.89,92.66,5.09,11.55,50,8.92,50,2.41C707.67,1665.15,711.16,1586,711.45,1584.16Z"/><path class="cls-9" d="M810,1620l59.44,8.78,41.22-246.49c-8.49-93.54-90.84-292.55-90.84-292.55L727,1122.21,724.75,1210l111.78,189.25C822,1435.83,812,1554.17,810,1620Z"/><path class="cls-8" d="M764.06,1096.3c-.85-5.78-1.13-7.58-5.94-10.47L669,1060.55l-21.23,20.94c-20.09,73-7.64,174.45,8.21,255-23.2,69.71-14.13,213.41-4.79,281h63.39c3.68-45.15,2.53-128.89,2.81-169.34h0c8.21-32.51,16.13-67.18,23.2-103.66,9.06-46.59,20.38-91.74,23.49-134C766.89,1170.34,767.74,1127.36,764.06,1096.3Z"/><path class="cls-7" d="M806.41,835.75c34.22-7.26,108.32-33.61,81.33-85.21S844.22,717,864.13,661.62s-14.49-105.9-54.74-99.87-54.44,36-100.77,21.51-91.86,24.46-79.31,65.39,17.62,60.49-2,79.48-98,31.56-73.65,86.88,39.14,54.18,24.64,78.83,6.53,57.87,50.7,59.81,85.9-9.1,108.6-55.58S806.41,835.75,806.41,835.75Z"/><path class="cls-5" d="M686.08,682.08c-4.73,44.63,19.84,83.82,54.89,87.54s67.31-29.44,72-74.07-19.84-83.83-54.9-87.54S690.82,637.45,686.08,682.08Z"/><path class="cls-5" d="M696,735.49l55.34,34.3s4.91,24.46,7.36,32.4c5.06,16.37-14.32,23.53-30.7,13.33a114.31,114.31,0,0,1-27-23.83Z"/><path class="cls-7" d="M827.22,676.27c-16.21-1.1-28.07-12.07-38.39-29C768.35,690.41,687,702.87,682,693.76c3.56-31.42,11.2-79.85,70.87-95.06C799.73,586.75,827.22,676.27,827.22,676.27Z"/><path d="M794.79,699.44a6.13,6.13,0,1,0,2.75-8.22A6.13,6.13,0,0,0,794.79,699.44Z"/><path d="M746.46,694.07a6.63,6.63,0,1,0,3-8.9A6.63,6.63,0,0,0,746.46,694.07Z"/><path class="cls-7" d="M810.59,691.39a2.39,2.39,0,0,0,.67-.35,2.31,2.31,0,0,0,.43-3.24,16.19,16.19,0,0,0-15.38-6.13,2.31,2.31,0,0,0,.88,4.53A11.55,11.55,0,0,1,808,690.61,2.31,2.31,0,0,0,810.59,691.39Z"/><path class="cls-11" d="M783.51,707.92c1.63,4.54,2.84,9,4.93,12.18a2.43,2.43,0,0,1-.6,3.28c-4.27,3.11-12.73,3.43-17.77,3.31a.65.65,0,0,1-.17-1.27c6-1.8,9.05-3.73,10.5-4.89a2.89,2.89,0,0,0,1.08-2.4c-.09-2.12-.24-6.44-.09-9.89A1.09,1.09,0,0,1,783.51,707.92Z"/><path class="cls-5" d="M700.87,701.48c6.58,8.25,6.44,19.31-.31,24.69S683,729.23,676.42,721s-6.44-19.31.31-24.7S694.3,693.23,700.87,701.48Z"/><path class="cls-11" d="M694.14,719.26a2.38,2.38,0,0,0,.82-.67c3.19-4.26,3.49-9,.8-12.79a11.11,11.11,0,0,0-12.18-4.19A2.31,2.31,0,1,0,685,706a6.56,6.56,0,0,1,7,2.49c1.5,2.09,1.24,4.69-.74,7.32a2.3,2.3,0,0,0,2.87,3.45Z"/><path class="cls-14" d="M822.62,877.89l-15.43-64.4C798.6,808.76,757.76,799,757.76,799l-4.83,15.71-45.52-23L654,799.83c-8.89,38.57-1.81,50.31.86,96.32,1.48,21.66.81,74.61,5.56,112.17-19.57,44.32-31.65,86-31.95,98.82,0,0,142.6,31.94,147.35,31.94L786.46,1111l20.46,22.33c3.85-2,26.68-29.06,26.68-29.06-9.19-34.51-14.32-89.6-14.32-89.6Z"/><path class="cls-15" d="M700.38,784.45,669.89,797.4c2.69,30.64,78.69,48.53,78.69,48.53l4.35-31.26Z"/><path class="cls-15" d="M752.93,814.67l13.58,18.41s15.56-18.63,9.24-29.79-20.32-14.09-20.32-14.09Z"/><path class="cls-11" d="M766.25,750.54a23.49,23.49,0,0,1-4.43-.42C751,748,744.92,739,744.67,738.56a2.58,2.58,0,0,1,4.31-2.83h0c0,.07,5.19,7.68,13.86,9.33,5.65,1.07,11.67-.59,17.88-4.93a2.58,2.58,0,1,1,3,4.23C777.79,748.47,772,750.54,766.25,750.54Z"/><path class="cls-4" d="M1013.51,850a26.78,26.78,0,0,0-3.76-11.08c-14.45-33.85-65.15-26.1-137.81-20.42-12.15,1-6.67-14-5.6-45.71.69-20.62-15.67-50.51-37.81-48.25-36.51,3.72,1.53,28.81-23.52,103-13.38,39.64-54.1,22.35-50.22,60.41l8.83,86.62c1.51,14.81,4.42,28.9,25.59,29.11,20.51.2,17.42,15.06,46.68,12.08l146.46-14.94a27.17,27.17,0,0,0,24.31-29.7,26.76,26.76,0,0,0-7.33-15.73,26.64,26.64,0,0,0,4.27-40.56,26.81,26.81,0,0,0,1.88-43,26.86,26.86,0,0,0,8-21.89Z"/><path class="cls-12" d="M919.37,886.84l69.84-7.12a27.37,27.37,0,0,0,21.92-15.57,7.13,7.13,0,0,0-13-6,13,13,0,0,1-10.41,7.39l-71.51,7.29a12.86,12.86,0,1,1-2.61-25.59l47.78-4.87A7.11,7.11,0,1,0,960,828.27l-47.79,4.87a27.18,27.18,0,0,0-24.31,29.7,26.89,26.89,0,0,0,11.88,19.56,26.74,26.74,0,0,0,5.79,39.6,26.9,26.9,0,0,0,7.59,40.7,26.76,26.76,0,0,0-5.1,18.52,27.16,27.16,0,0,0,29.8,24.17l44.51-4.54a27.34,27.34,0,0,0,21.93-15.56,7.08,7.08,0,0,0-3.46-9.43,7.16,7.16,0,0,0-9.48,3.45,13,13,0,0,1-10.43,7.4l-44.51,4.54a12.86,12.86,0,1,1-2.61-25.58l52.81-5.39a27.34,27.34,0,0,0,21.92-15.57,7.13,7.13,0,0,0-12.94-6,12.84,12.84,0,0,1-10.42,7.41L927.83,952a12.87,12.87,0,1,1-2.61-25.6l65.67-6.7a27.33,27.33,0,0,0,21.93-15.56,7.08,7.08,0,0,0-3.47-9.43,7.16,7.16,0,0,0-9.48,3.45,12.81,12.81,0,0,1-10.42,7.4L922,912.43a12.86,12.86,0,1,1-2.61-25.59Z"/><path class="cls-13" d="M769.67,1012.32l-45.6,4.65a11.49,11.49,0,0,1-12.6-10.27L697.65,871.18a11.49,11.49,0,0,1,10.27-12.6l45.6-4.65a11.48,11.48,0,0,1,12.6,10.27l13.82,135.52A11.49,11.49,0,0,1,769.67,1012.32Z"/><path class="cls-5" d="M810.7,1017c-8.58-1.31-17.86-6.2-24.81-1.23L774.8,995.64c19.32-19.93,54.78-20.48,58.31-20,9.18,1.15,13.57,1.12,14,2.48s.93,9.85-12.48,8.61c-16.83-1.56-8.76,13.9,27.21,8.57,9-1.34,23.81,6.09,16.83,11C871,1011.59,849.76,1022.94,810.7,1017Z"/><path class="cls-5" d="M636.4,965c-13.35,4.53-21.16,46.49-17.44,49.72,57,22.91,169.66.58,169.66.58l9.72-20.81S711.44,986.22,636.4,965Z"/><path class="cls-5" d="M616.63,839.38c-8.76,37.85-6.66,164.5,2.33,175.29l45.74-31s13.6-127.15,15.12-148.81C682.52,797.38,630.8,777.56,616.63,839.38Z"/><path class="cls-15" d="M616.63,839.38c-8.76,37.85-19.09,144.81-10.1,155.6l65.23-30.86s6.54-107.58,8.06-129.24C682.52,797.38,630.8,777.56,616.63,839.38Z"/><path class="cls-16" d="M601.73,994.85l70-30.73s4.85,0,3.45,5.58c0,0,11.17,2.07,13.45,8.4l-48.5,51.84s-16.13-1.5-20.68-14.81C619.22,1015,602.59,1010,601.73,994.85Z"/><path id="c-2" data-name="c" class="cls-5" d="M993.8,828.1a6.23,6.23,0,0,1-.94-1.83c-.1.07-.18.15-.28.23-5.66,4.29-12.75,4.48-15.83.42a6.89,6.89,0,0,1-1.1-2.2c-4.31,1.38-8.55.66-10.75-2.25a7.16,7.16,0,0,1-1.4-4c-4.21,1.66-8.8.84-11.26-2.4-3.08-4.07-1.66-10.34,3.18-14s11.25-3.34,14.33.72a8,8,0,0,1,1.49,3.43c5.32-3.17,11.39-3,14.17.69a6.66,6.66,0,0,1,1.09,2.2c4.31-1.38,8.56-.66,10.76,2.24a7.18,7.18,0,0,1,1.38,3.69c3.67-1.65,7.78-1,10,1.84,2.6,3.44,1.4,8.73-2.69,11.83S996.4,831.54,993.8,828.1Z"/><path class="cls-7" d="M835.15,1682.79c6-15.85,19-17.61,19-17.61,25.08,33.46,86.69,12.93,84.65,58.18-93.68-.58-132.62,0-132.62,0,.13-10.39,2-35.06,4.14-44.72l4.88.86Z"/><path class="cls-10" d="M806.13,1722.12H938.8a0,0,0,0,1,0,0V1730a5.47,5.47,0,0,1-5.47,5.47H811.6a5.47,5.47,0,0,1-5.47-5.47v-7.86A0,0,0,0,1,806.13,1722.12Z"/><path class="cls-7" d="M721.81,1723.8s-7.52-28.06-8.19-31.66c-.75-4.1-3-13.79-3.41-18.76-.11-1.22-13-9.12-22.89-9.1-13.35,0-25.53,7.76-25.77,9.22-1.58,9.36-1.63,20.37-4.18,29.49-1.9,6.78-7.06,22.59-7.06,22.59Z"/><path class="cls-10" d="M721.8,1721.62c-1.75,5.57-23.37-.85-39.15-.85-13.25,0-30.39,5.14-32.34,3.14-3.31,5.85-.58,18-.58,18s13.8.71,30.36,0,35.7.34,42.9-1.8C727.54,1732.48,721.8,1721.62,721.8,1721.62Z"/><g id="c-3" data-name="c"><polygon id="v-2" class="cls-5" points="2887.3 729.05 2887.26 729.05 2856.82 729.16 2849.93 795.11 2849.93 801.07 2885.47 819.83 2923.36 801.28 2917.24 729.16 2887.3 729.05"/><path class="cls-5" d="M2970.94,697.31c-18.74,46.82-63.74,72.85-100.51,58.14S2819,690.84,2837.77,644s63.74-72.85,100.51-58.13S2989.68,650.49,2970.94,697.31Z"/><path d="M2853.76,659.39a6.89,6.89,0,1,1-1.72-9.59A6.89,6.89,0,0,1,2853.76,659.39Z"/><path d="M2905.36,680.44a7.46,7.46,0,1,1-1.87-10.37A7.45,7.45,0,0,1,2905.36,680.44Z"/><path class="cls-11" d="M2864.22,670.38c-9.31,7.34-20.95,16.2-20.95,16.2s-.12,11.23,13,16.09c-4.75-4.3-8.92-10-4-16.65S2864.22,670.38,2864.22,670.38Z"/><path class="cls-6" d="M2918.93,676a3.13,3.13,0,0,0,.8-.1,3.43,3.43,0,0,0,2.55-4.14c-1.21-5-6.25-14.59-16.73-14.64a3.44,3.44,0,0,0,0,6.88c7.76,0,10.05,9.27,10.07,9.36A3.44,3.44,0,0,0,2918.93,676Z"/><path class="cls-6" d="M2861,644.82a2.8,2.8,0,0,0,1.44-.4,2.87,2.87,0,0,0,1-3.92c-.13-.21-3.14-5.25-8.83-6.3-3.89-.72-7.9.55-11.94,3.78a2.86,2.86,0,1,0,3.58,4.47c2.68-2.14,5.14-3,7.32-2.62a8.22,8.22,0,0,1,4.92,3.57A2.88,2.88,0,0,0,2861,644.82Z"/><path class="cls-6" d="M2996.53,662.34c15.85-45.12-22.76-71.06-22.76-71.06s10.36-.93,11.6-15.47a38.29,38.29,0,0,1-24.08-.52c-51.46-18.63-86.89-18.38-86.89,3.64,0,7.83-35.2,2.91-32.35,55.63,4.73-4.94,13.16-25.84,24.63-28s1.12,13.18,25.1,16.47c24.19,3.32,42-2.55,56.77,11.09,11.56,11.9,14.43,72.47,12.67,76.11C2965.25,701.86,2989.57,682.17,2996.53,662.34Z"/><path class="cls-6" d="M2830.68,670.38s-2.19,27.47,1.78,36c4.12-11,13,.66,21.28,1.76,20.1,2.65,56.34-4,59.93,26.09,24.55,7.77,47.55-44.78,47.55-44.78,1.41,58.71-41.55,92.05-103.38,82.28C2817.11,765.27,2813.33,708.55,2830.68,670.38Z"/><path class="cls-11" d="M2873,726.67a52.4,52.4,0,0,0,12.4-4.86,2.29,2.29,0,1,0-2.16-4c-9.51,5.08-18,6.53-25.34,4.3a23.9,23.9,0,0,1-13.19-10.44,2.29,2.29,0,0,0-4.06,2.13,28.16,28.16,0,0,0,15.83,12.67A30.94,30.94,0,0,0,2873,726.67Z"/><path class="cls-5" d="M2961.8,689.8c-10.34,5.81-14.87,17.38-10.11,25.84s17,10.61,27.32,4.81,14.87-17.38,10.12-25.84S2972.14,684,2961.8,689.8Z"/><path class="cls-11" d="M2963.37,715.15a2.53,2.53,0,0,1-.79-.89c-2.84-5.26-2.37-10.63,1.25-14.35a12.48,12.48,0,0,1,14.23-2.6,2.59,2.59,0,1,1-2.34,4.62,7.41,7.41,0,0,0-8.18,1.6c-2,2.07-2.15,5-.39,8.27a2.6,2.6,0,0,1-3.78,3.35Z"/><path d="M2831.75,1669.79c-26.92,37.14-93,14.35-90.84,64.58,100.53-.64,142.31,0,142.31,0-.14-11.54-2.12-38.92-4.44-49.64Z"/><path d="M2990.27,1669.79c-26.91,37.14-93,14.35-90.83,64.58,100.52-.64,142.3,0,142.3,0-.13-11.54-2.12-38.92-4.43-49.64Z"/><path class="cls-6" d="M2786,1102s-29.15,246.63-22.52,299.55,42.94,112.2,40.28,287.25c32.77,8.2,80.25,0,80.25,0s7-197.94-27.6-286.35c14.08-85.87,59.29-282.57,59.29-282.57Z"/><path class="cls-7" d="M2847.24,1109.27s33,267.25,49.09,317.94,38.14,89.1,67.35,261.55c33.68,1.68,74.49,4.45,74.49,4.45s-4.55-218.74-57-268.49c-1.77-87.09,8.48-313.73,8.48-313.73Z"/><g id="v"><path id="h-5" class="cls-8" d="M2999.17,806s-57.24-20-76.33-10.85c-59.31,28.56-72.91,0-72.91,0-20.81-4.61-69.95-4.61-69.95-4.61-6.22,83-16.53,348.51-16.53,348.51s63.11,16.54,122.81,17c59.7-.39,120.46-16.3,120.46-16.3s-3.19-116.06-5.84-159.19C3001.75,932.14,2999.17,869.68,2999.17,806Z"/></g><g id="c-4" data-name="c"><path class="cls-5" d="M3031.61,1059.44l-10.88,13.44s-4-18.33-16.58-15.86v19.64s-7.1,11.32-37,3c-27.14.46-11.59,16.56-19.8,20-12.1,5,15.67,24.5,42.29,22,34.44-3.17,36.74-10.94,36.74-10.94l20.41-14.73Z"/></g><path class="cls-9" d="M2999.17,806c52.29,22.5,116.46,74.35,155.95,156.48,13.54,28.17-50.84,33.86-63.67,22.75s-92.28-94-92.28-94Z"/><path class="cls-9" d="M3023.84,1067.21c45.74-61.51,66.18-110.2,80.93-117.7,19.75-10,52.22-9.54,52.21,24.83s-125.48,138.51-125.48,138.51Z"/><polygon class="cls-9" points="2779.98 790.5 2554.48 710.22 2519.34 763.32 2774.16 889.37 2779.98 790.5"/></g><path class="cls-5" d="M2182.59,778.69c4.51,12.84,45.09,20,48.17,16.33,21.54-55.3-1.15-163.77-1.15-163.77l-20.2-9.18S2202.36,706,2182.59,778.69Z"/><path class="cls-5" d="M2081.57,886.5c37.84-12.08,145-79.87,149.79-93.41l-44.82-24s-122.1,54.24-141.93,64.23C2010.23,850.52,2019.83,906.34,2081.57,886.5Z"/><path class="cls-7" d="M2110.06,681.79c2.85-38.8-8.37-73.07-39.3-90.53-31.35-17.69-70.63-.34-70.63-.34h0s-33.25-11.83-63.38,21.36-7.34,62.4-19.67,86.61c-7.3,14.33-44.41,17.29-34.83,64,2.77,13.46,19,22.53,32.68,23.43,24.1,1.58,46.55-7.74,56.32,1.58,32.19,30.7,103.53,19.6,113.52-8.48,3.09-8.71,67.27,8.14,60.87-51.17C2142.39,698.17,2107.51,716.46,2110.06,681.79Z"/><path class="cls-14" d="M2113.67,1003.91c0-32.43,28.11-81,14.63-113.77-9.81-26.33-26.21-70.55-46.28-77.92-9.48-3.49-19.21-5.91-31-9.17,0,0,3.67,21.58-10.2,22.69-26.71,2.14-40.75-32.1-40.75-32.1-14.4-1.38-80,20-83,30.57.15,42.48,37.3,99.65,48.59,145.59,4.44,49.61-6.16,76.1-6.23,81.74,0,0,93.79,31.34,156.78-3.34C2116.14,1048.2,2113.67,1025.81,2113.67,1003.91Z"/><path class="cls-5" d="M2038.38,765.59l-41.37-6.2,2.11,34.19s11.32,37.76,34.84,38.29,17-28.82,17-28.82Z"/><path class="cls-5" d="M1958.73,710.06c10.68,44.61,47.74,74,82.77,65.58s54.77-51.35,44.09-95.95-47.74-74-82.77-65.58S1948.05,665.46,1958.73,710.06Z"/><path d="M2069.18,691.4A6.26,6.26,0,1,0,2072,683,6.26,6.26,0,0,0,2069.18,691.4Z"/><path d="M2020,703.54a6.78,6.78,0,1,0,3-9.09A6.78,6.78,0,0,0,2020,703.54Z"/><path class="cls-7" d="M2012.47,697.93a2.42,2.42,0,0,0,1.09-1.12c3.4-7.34,12.58-8.76,12.67-8.78a2.36,2.36,0,0,0-.66-4.67c-.48.07-11.8,1.77-16.29,11.46a2.36,2.36,0,0,0,3.19,3.11Z"/><path class="cls-7" d="M2082.84,682.32a2.28,2.28,0,0,0,.63-.45,2.38,2.38,0,0,0,0-3.34,16.58,16.58,0,0,0-16.44-4,2.36,2.36,0,0,0,1.53,4.46,11.85,11.85,0,0,1,11.59,2.93A2.35,2.35,0,0,0,2082.84,682.32Z"/><path class="cls-11" d="M2065.15,705c3.43,3.53,6.45,7.18,9.73,9.24a2.49,2.49,0,0,1,.82,3.31c-2.65,4.7-10.39,8.57-15.14,10.59a.66.66,0,0,1-.69-1.11c4.79-4.2,6.85-7.29,7.71-9a3,3,0,0,0,0-2.68c-1-1.94-2.94-5.9-4.26-9.18A1.11,1.11,0,0,1,2065.15,705Z"/><path class="cls-5" d="M1975.58,710.35c8.52,6.62,11,17.64,5.6,24.6s-16.71,7.25-25.22.63-11-17.64-5.6-24.61S1967.07,703.72,1975.58,710.35Z"/><path class="cls-11" d="M1970.74,732.93a2.38,2.38,0,0,0,.83-.69c3.27-4.35,3.58-9.24.82-13.07a11.36,11.36,0,0,0-12.45-4.28,2.36,2.36,0,0,0,1.48,4.48,6.75,6.75,0,0,1,7.14,2.55c1.53,2.13,1.26,4.79-.76,7.48a2.36,2.36,0,0,0,2.94,3.53Z"/><path class="cls-10" d="M2026.42,740.59a1.87,1.87,0,0,1,1.72-3,133.42,133.42,0,0,0,35.41,0,1.88,1.88,0,0,1,1.73,3c-3,4.1-9.31,10.31-19.43,10.31S2029.45,744.69,2026.42,740.59Z"/><path class="cls-7" d="M1957.86,706.12c41.82-5.6,100.33-48.2,105.13-70.07-8.09-26.26-51.19-39.46-75.52-27.3S1940.15,673.07,1957.86,706.12Z"/><path class="cls-5" d="M2077.11,1635.14c-2.77-27.63,11.49-237.91,11.49-237.91,40.31-184.87,24.48-317.2,24.48-317.2l-69.3,4.87-27.31,104.46,13,174.46s-4.87,13.43-7.43,24.17c-13.92,58.24-.06,127.84,8.51,174.23,4,21.49,10.14,66.67,10.31,76.94l-17.41,22.5s63,69.73,72.7,70.17c18.83.85,13.28-17.81,13.28-17.81C2083.5,1687.43,2077.9,1643.05,2077.11,1635.14Z"/><path class="cls-8" d="M2022.33,1686.37l3.47,44.8,8,.37,4.07-41.61c21.43,5.47,36.79,44.37,36.79,44.37,14.76,5.29,52.29,8.92,65.65,2,3.22-13.09-31-22.26-31-22.26-3.1,3.66-21.38,6.47-27.87,2.54-23.9-20.35-35.56-49.94-40.65-77.46C2040.82,1639.16,2003.05,1641.79,2022.33,1686.37Z"/><path class="cls-5" d="M2053.68,1093.48,1956.06,1080c-37.35,84.49-49.52,231.59-59.66,284-40.69,68.22-53.61,275.13-53.61,275.13l-17.41,22.5s63,69.73,72.7,70.17c18.84.85,13.29-17.81,13.29-17.81-25.9-26.59-30.95-61.92-32.62-69.69-2.52-11.69,79-241.22,79-241.22l8.71-21.78c99.58-164.48,115.92-288.83,115.92-288.83Z"/><path class="cls-8" d="M1824.3,1686.37l3.47,44.8,8,.37,4.08-41.61c21.43,5.47,36.78,44.37,36.78,44.37,14.77,5.29,52.29,8.92,65.65,2,3.22-13.09-31-22.26-31-22.26-3.09,3.66-21.37,6.47-27.86,2.54-23.91-20.35-35.56-49.94-40.66-77.46C1842.79,1639.16,1805,1641.79,1824.3,1686.37Z"/><path class="cls-14" d="M1872.19,1354.43c9.74-32.62,5.71-262.53,91.77-326l147.9,12c34.23,55.4,21.67,199.55,10.15,318.19C2052.37,1383.49,1997,1393.47,1872.19,1354.43Z"/><path class="cls-4" d="M2746.89,408.46a55,55,0,0,0-12.1-20.87c-42.93-62.53-142.23-26.31-286.75,14.66-24.16,6.85-19.15-25.59-29.87-90.09-7-42-52.14-95.72-96-82.17-72.27,22.33,14.79,57.6-5.73,217.69-11,85.54-100.26,67.12-77,142.44l53,171.45c9.06,29.32,20.67,56.61,63.52,48.45,41.54-7.91,41.31,23.36,99.23,5.46l289.9-89.59A56,56,0,0,0,2782.19,656,55.16,55.16,0,0,0,2761,627.2a54.93,54.93,0,0,0-7.84-83.69A55.27,55.27,0,0,0,2739.55,456a55.34,55.34,0,0,0,7.34-47.49Z"/><path class="cls-12" d="M2571.6,521l138.23-42.73a56.35,56.35,0,0,0,38-40.35,14.7,14.7,0,0,0-28.6-6.79,26.73,26.73,0,0,1-18,19.16l-141.54,43.74A26.5,26.5,0,1,1,2544,443.43l94.58-29.23a14.65,14.65,0,1,0-8.65-28l-94.6,29.23a56,56,0,0,0-37.07,69.87,55.35,55.35,0,0,0,31.93,34.7,55.13,55.13,0,0,0,27.77,77.67,55.44,55.44,0,0,0,31.85,79.18,55.13,55.13,0,0,0-2.79,39.48,56,56,0,0,0,70,36.76l88.11-27.23a56.36,56.36,0,0,0,38-40.34,14.61,14.61,0,0,0-10.83-17.66,14.77,14.77,0,0,0-17.75,10.83,26.84,26.84,0,0,1-18.06,19.18l-88.11,27.23a26.5,26.5,0,1,1-15.65-50.64l104.53-32.31a56.38,56.38,0,0,0,38-40.35,14.7,14.7,0,0,0-28.59-6.83,26.44,26.44,0,0,1-18,19.19l-113.48,35.07a26.51,26.51,0,1,1-15.66-50.65l130-40.18a56.38,56.38,0,0,0,38-40.34,14.69,14.69,0,0,0-28.58-6.83,26.47,26.47,0,0,1-18.07,19.18l-133.54,41.27A26.51,26.51,0,1,1,2571.6,521Z"/><path class="cls-13" d="M2320,835.32l-90.26,27.9a23.69,23.69,0,0,1-29.63-15.64l-82.9-268.24a23.68,23.68,0,0,1,15.64-29.63l90.26-27.9a23.71,23.71,0,0,1,29.64,15.64l82.9,268.24A23.69,23.69,0,0,1,2320,835.32Z"/><path class="cls-5" d="M2306.12,830.53c-9.41.57-20.39-2.5-26.63,4.36l-16.37-18.84c16-25.58,53.49-34.26,57.35-34.6,10-.88,14.65-1.91,15.44-.57s3.23,10.25-11.3,12c-18.22,2.19-6.12,16.76,30.86,2.89,9.25-3.47,26.68,1,20.38,7.8C2368.9,811,2349,827.92,2306.12,830.53Z"/><path class="cls-5" d="M2115.87,886.28c-8.8,12.53,11.28,54.32,16.62,54.76,64.69-16.52,149.06-108.35,149.06-108.35l-4.84-24.48S2195.28,856.76,2115.87,886.28Z"/><path class="cls-5" d="M1941.93,888c38.88,22,176.76,58.75,191.6,52.36l-14.42-55.37S1981,825.53,1957.62,816.78C1917.14,801.53,1878.37,852.11,1941.93,888Z"/><path class="cls-2" d="M4188.37,1696.88c-11.54,5.91-23.56,8.1-29.11,0-4.8-7,12.43-18.85,29.11-25.75v-29c-9.84,6.32-19.92,10.9-29.11,11.5-14.86,1-14.74-7.49,10.63-22a136.43,136.43,0,0,0,18.48-12.49v-80.68c-17.25,27.73-52.64,81.13-64.79,73.55-17-10.46,59.39-77.87,63.6-100,2.55-13.48-25.8-70.64-25.8-70.64s-49.16,116.77-72.79,108.22c-11.37-4.09,57.26-105.55,47.14-124s-38.47-33.61-38.47-33.61-23.37,89.32-35.6,79c-9.84-8.3,21.12-66.92,14.73-90.61a63,63,0,0,0-36.45-42.34s-15.27,53.9-33,42.81c-6.95-4.36,17.79-42.62,15.57-59.55-23.75,1.27-44.35.89-59.86-11.5-.32,13.12-18.6,28.45-44.54,44.71,9.43,21.9,57.46,30.1,51.06,46.24-5.3,13.4-61.21-23.53-61.21-23.53s-20.24,26.67-10.12,54.06c7.94,21.26,59.89,42.83,51.15,53.5-10.82,13.18-67.75-36.12-66.31-31.39,11,36-4.62,79.74-4.62,79.74,25.51,66.51,127.82,83.74,113.67,99.68-12.63,14.17-110.43-54.1-110.43-54.1l11.44,47.58s53.33,53.17,123.51,68.6c-36.2,17.73-113.49-27.72-113.49-27.72s11.26,39.91,35.45,72.3h250.14Zm-269.73-279.07c4-5.2,53.27,17.15,46.4,30S3909.56,1429.41,3918.64,1417.81Zm80,155.4c-4.19,12.69-38.33-.24-57.5-12.29-24.62-15.47-37.32-33.81-29.34-42.12,8.73-9.09,25.39,8.43,48,19.2C3986.53,1550.81,4002.64,1560.94,3998.59,1573.21Zm3.06-62.65c-4.84,11.44-36-1.52-33.41-14.17C3970,1488.09,4006.49,1499.12,4001.65,1510.56Zm43.11,139c-5,13.49-38.86-2.45-33.23-14.68,4.37-9.49,38.23,1.2,33.23,14.68Zm-11.42-202.74c-13.47-4.53,8.52-48.19,20.75-41s-7.45,45.46-20.75,41Zm22.27-56.45a6.66,6.66,0,1,1,8.42-4.23,6.66,6.66,0,0,1-8.42,4.23l-.07,0Z"/><polygon class="cls-3" points="3999.32 1411.55 4107.71 1739.5 4122.31 1739.5 3999.32 1411.55"/><polygon class="cls-3" points="3995.09 1593.96 4074.42 1611.78 4075.03 1620.47 3995.09 1593.96"/><polygon class="cls-3" points="4050.91 1549.12 4091.71 1472.58 4047.29 1539.44 4050.91 1549.12"/><polygon class="cls-3" points="4092.02 1670.72 4143.22 1621.18 4091.23 1656.61 4092.02 1670.72"/><path class="cls-2" d="M4350.13,1646.86q-35-43.52-13.54-115Q4374,1596.5,4350.13,1646.86Z"/><path class="cls-2" d="M4378.17,1580.59q-25.55-44,3.69-105.48Q4406.67,1538.55,4378.17,1580.59Z"/><path class="cls-2" d="M4409.27,1514.9q-17.85-44.94,18.2-98.6Q4442,1479.36,4409.27,1514.9Z"/><path class="cls-2" d="M4479.82,1378.18q.89,54.71-32.47,78.42Q4440.55,1416.13,4479.82,1378.18Z"/><path class="cls-2" d="M4527.15,1363.56q-7.39,45.21-38.33,59.76Q4489.18,1389.08,4527.15,1363.56Z"/><path class="cls-2" d="M4512.69,1424.55q12.57-31.85,57.18-42.11Q4546.77,1422,4512.69,1424.55Z"/><path class="cls-2" d="M4474,1608.15q-46.68,59.16-102.91,55.35Q4398.87,1614.62,4474,1608.15Z"/><path class="cls-2" d="M4414.35,1538.85q35-29.91,94.62-13.85Q4456.55,1557.37,4414.35,1538.85Z"/><path class="cls-2" d="M4525.22,1484.14q-45.61,28.21-82.33,12.06Q4473.35,1470.15,4525.22,1484.14Z"/><path class="cls-2" d="M4479.8,1459q30.49-26,82.33-12Q4516.5,1475.17,4479.8,1459Z"/><path class="cls-2" d="M4338.57,1720.81c19.59-86.88,22-79.9,42.4-130.41q8.26-20.48,17.66-38.84a389.51,389.51,0,0,1,47.18-69.88q31.23-38.48,54.31-50.7l1.45-1.72a1.39,1.39,0,0,1,1.54-.91,2.37,2.37,0,0,1,1.9,0,4.36,4.36,0,0,1,1.24,1.64,2.39,2.39,0,0,1,.05,1.91l-.54,1.31a5.15,5.15,0,0,1-1.64,1.26v.32l-1.4.59q-22.29,12.43-52.67,49.59a382.11,382.11,0,0,0-46.14,69.49,407.55,407.55,0,0,0-17.72,38.1l-1.35,3.39q31.29-39.9,99.13-35.66-49.48,46.52-99.13,35.66c-19.79,49.74-21.57,41.28-40.64,126Z"/><path class="cls-5" d="M3940.25,624.17s.59,32.85,4,59.59c0,0,27.73-36.37,27.72-36.4-2.54-10.69-5.46-31-4.66-42.78C3967.48,601.53,3910.85,599.22,3940.25,624.17Z"/><path d="M4168.42,1669.53c-26,34.73-90,13.42-87.86,60.39,97.23-.6,137.64,0,137.64,0-.13-10.79-2.05-36.4-4.29-46.42Z"/><path d="M4313.89,1670.44c-26,34.73-90,13.42-87.86,60.39,97.24-.6,137.65,0,137.65,0-.13-10.79-2.05-36.4-4.3-46.42Z"/><path class="cls-6" d="M4123.41,1139.34s-15.79,222.58-9.38,272.07,29.13,112.93,26.55,276.61c31.7,7.67,77.62,0,77.62,0s6.81-185.08-26.7-267.75c13.63-80.3,57.35-264.22,57.35-264.22Z"/><path class="cls-7" d="M4183.4,1145.42s31.88,249.89,47.48,297.29,31.32,78.94,59.57,240.19c32.57,1.57,86.11,2.08,86.11,2.08s-12.88-198.09-63.61-244.6c-1.72-81.43,8.2-293.35,8.2-293.35Z"/><path class="cls-5" d="M4313.23,736.6c-17.28,43.17-58.78,67.17-92.69,53.6s-47.39-59.57-30.11-102.75,58.77-67.17,92.68-53.6S4330.51,693.42,4313.23,736.6Z"/><path d="M4205.17,701.62a6.35,6.35,0,1,1-1.58-8.84A6.35,6.35,0,0,1,4205.17,701.62Z"/><path d="M4252.75,721a6.88,6.88,0,1,1-1.72-9.57A6.87,6.87,0,0,1,4252.75,721Z"/><path class="cls-11" d="M4214.82,711.76c-8.59,6.77-19.33,14.94-19.33,14.94s-.1,10.35,12,14.84c-4.38-4-8.22-9.26-3.66-15.36S4214.82,711.76,4214.82,711.76Z"/><path d="M4265.27,716.9a3.16,3.16,0,0,1-3.08-2.43c-.09-.34-2.22-8.6-9.29-8.63a3.17,3.17,0,1,1,0-6.34c9.66,0,14.31,8.85,15.42,13.5a3.14,3.14,0,0,1-3.08,3.9Z"/><path d="M4211.83,688.19a2.67,2.67,0,0,1-2.28-1.29,7.61,7.61,0,0,0-4.58-3.32c-2-.35-4.26.46-6.71,2.43a2.64,2.64,0,1,1-3.3-4.13c3.72-3,7.42-4.15,11-3.49,5.25,1,8,5.62,8.14,5.82a2.63,2.63,0,0,1-.94,3.61A2.6,2.6,0,0,1,4211.83,688.19Z"/><path d="M4301.17,741.1c-12.49-40.17,3.31-61.52,3.31-61.52-10.73-2.15-14.9,1.57-14.9,1.57-5.85-12-1.32-20.63-1.32-20.63-22.17-8.64-33.21,5.71-53.22,10.55-27.39,6.63-61.23-4.3-64.4-37.74a5.71,5.71,0,0,1,8.91-5.27,25.11,25.11,0,0,0,14.92,4.36,26.86,26.86,0,0,1-6-15.43,5.7,5.7,0,0,1,9.42-4.44c5.7,4.74,16.27,9.21,35.1,5.69,12.54-2.35,41.25-22.44,59.13-18.51,14.61,3.2,26.21,15.64,31.2,33.45,0,0,35.93,3.72,39.53,43.26,3.54,38.85-41.45,68.66-41.45,68.66Z"/><path class="cls-5" d="M4296.27,734.4c-9.51,5.39-13.65,16.07-9.23,23.86s15.7,9.73,25.21,4.34,13.65-16.08,9.24-23.87S4305.79,729,4296.27,734.4Z"/><path class="cls-11" d="M4297.81,757.77a2.41,2.41,0,0,1-.73-.82c-2.64-4.84-2.23-9.79,1.1-13.23a11.52,11.52,0,0,1,13.12-2.46,2.39,2.39,0,0,1-2.15,4.28,6.79,6.79,0,0,0-7.53,1.5c-1.85,1.92-2,4.62-.34,7.62a2.4,2.4,0,0,1-3.47,3.11Z"/><path class="cls-10" d="M4197.46,755.34a2,2,0,0,1,2.14-3.05,143.64,143.64,0,0,0,38,3.39,2,2,0,0,1,1.57,3.38c-3.65,4.1-11,10.17-21.83,9.2S4200.32,760,4197.46,755.34Z"/><path class="cls-6" d="M4146.29,809.8s-4.86-2.12-127.69-31.82a.12.12,0,0,0-.1,0L3972,812.53a.14.14,0,0,0,0,.18c30.34,38.42,169,68.68,169,68.68l5.23-71.58Z"/><polygon class="cls-2" points="4202.67 808.3 4246.8 804.18 4289.5 816.09 4241.39 865.59 4202.67 808.3"/><path class="cls-5" d="M4218,831c18,14.77,23.4,25,59.87,5.24l5.73-58.75-62.2-4.9Z"/><path class="cls-2" d="M4300.83,839.74h0l-13.08-5.18,1.75-18.47-36.28,29.13L4243,846.85l-9.79-3.42-30.52-35.13-1.56,18.49-11.54,2.32h0L4148,835.84l-4.95,231-16.42,78.59c55.22,18.37,117,22.95,177.68,14.58l-2-78.89,43.13-225.75Z"/><polygon class="cls-7" points="4235 870.19 4208.93 1046.55 4223.37 1066.61 4242.19 1052.15 4248.59 871.65 4235 870.19"/><polygon class="cls-7" points="4233.45 849.37 4242.98 846.85 4252.68 851.09 4248.58 872 4234.91 870.78 4233.45 849.37"/><path class="cls-7" d="M4202.06,810.3l-7,212.94-28.2,137.19s-44.6-4.5-72-30.57L4130,1026.59l15.23-217.14Z"/><polygon class="cls-17" points="4202.06 810.3 4195.06 1020.39 4162.6 859.31 4202.06 810.3"/><path class="cls-7" d="M4292.84,823.41l-57.91,345.38s76.84,9.44,108.44-11.34l-17.15-113.54,21-192.75Z"/><polygon class="cls-17" points="4292.84 823.41 4258.99 1025.84 4319.6 873.11 4292.84 823.41"/><path class="cls-6" d="M3927.51,642.25c19.28-6.43,29.43-9.32,44.42-9.32,35.44,105.62,60.7,145.41,50.17,175.73-8.79,25.28-36.58,23.26-50.17,4.32C3954,788,3938.13,693.06,3927.51,642.25Z"/><path class="cls-4" d="M4206.66,1305.32a19,19,0,0,1-.27-8.38c1.14-26.34,37.1-33.94,87.26-48.47,8.39-2.43.94-11.07-7.77-32.07-5.68-13.66-2.25-37.83,13.17-41.91,25.43-6.72,6.24,19.72,41.77,63.15,19,23.21,41.93,1.34,48.94,27.84l15.94,60.32c2.72,10.32,4.32,20.5-9.82,26-13.7,5.32-7.88,14.5-28.26,19.89l-102,26.95a19.46,19.46,0,0,1-23.8-13.78,19.13,19.13,0,0,1,.94-12.4,19.11,19.11,0,0,1-13.1-26.13,19.21,19.21,0,0,1-12.1-28.33,19.23,19.23,0,0,1-10.91-12.66Z"/><path class="cls-12" d="M4279.09,1306.25l-48.64,12.85a19.6,19.6,0,0,1-18.63-4.9,5.11,5.11,0,0,1,7.19-7.27,9.28,9.28,0,0,0,8.84,2.32l49.8-13.15a9.22,9.22,0,1,0-4.71-17.82l-33.27,8.79a5.09,5.09,0,1,1-2.61-9.85l33.29-8.79a19.45,19.45,0,0,1,23.79,13.78,19.24,19.24,0,0,1-3,16.11,19.17,19.17,0,0,1,6.11,28,19.28,19.28,0,0,1,5.18,29.22,19.16,19.16,0,0,1,8.1,11.13,19.46,19.46,0,0,1-13.89,23.73l-31,8.2a19.61,19.61,0,0,1-18.63-4.91,5.08,5.08,0,0,1-.06-7.2,5.13,5.13,0,0,1,7.23-.07,9.33,9.33,0,0,0,8.86,2.33l31-8.2a9.21,9.21,0,1,0-4.71-17.81l-36.77,9.72a19.64,19.64,0,0,1-18.64-4.91,5.11,5.11,0,0,1,7.17-7.28,9.2,9.2,0,0,0,8.86,2.34l39.93-10.55a9.22,9.22,0,1,0-4.71-17.83l-45.74,12.09a19.6,19.6,0,0,1-18.63-4.9,5.11,5.11,0,0,1,7.17-7.28,9.22,9.22,0,0,0,8.86,2.33l47-12.41a9.22,9.22,0,1,0-4.71-17.83Z"/><path class="cls-13" d="M4411.15,1352.62l31.76-8.39a8.23,8.23,0,0,0,5.86-10.07l-24.94-94.37a8.22,8.22,0,0,0-10.06-5.86l-31.76,8.39a8.23,8.23,0,0,0-5.86,10.07l24.94,94.37A8.23,8.23,0,0,0,4411.15,1352.62Z"/><g id="c-5" data-name="c"><path class="cls-5" d="M4403.53,1204.21l.58,25.28s-18-.54-18.67,11.78l16.94.53s10.31,13.31-4.47,39.3c-5.89,25.45,12.76,14.68,14,23.14,1.89,12.48,26.53-8.92,30.44-34.35,5.06-32.9-1.65-36.85-1.65-36.85l-7.45-25Z"/></g><path class="cls-6" d="M4347.18,851.16c29.38,3.06,101.87,184.23,101.87,184.23l-4.77,182.88-47.59-7.69-10.79-156.11-50.17-98Z"/><path class="cls-10" d="M4243,846.85s-16.43,16.59-31.53,20.83l-17.76-47,9-12.4Z"/><path class="cls-10" d="M4243,846.85A79.1,79.1,0,0,0,4270.3,873l25.92-43.26-6.72-13.61Z"/><path class="cls-5" d="M3531.82,536.77c-.51,8.38,1.76,17.93-1.16,25.93l18.68,9.85c22.79-14.22,25.9-45.13,26.2-48.56.78-8.91,1.7-13.05.51-13.75s-9.13-2.88-10.69,10c-2,16.24-14.92,5.46-2.57-27.47,3.1-8.25-.92-23.77-6.95-18.16C3549.2,480.85,3534.15,498.62,3531.82,536.77Z"/><polygon class="cls-5" points="3687.33 1657.13 3684.7 1684.19 3707.33 1691.06 3725.51 1671.65 3728.5 1660.48 3687.33 1657.13"/><polygon class="cls-5" points="3616.65 1680.06 3613.5 1655.46 3661.62 1652.23 3661.03 1679.96 3616.65 1680.06"/><path class="cls-6" d="M3655.69,649.63c-26.32-23.93-73-22.38-80.16,15.1s-4.71,62.41-51.35,56.61c-37.14-4.61-75.33,28.74-75.31,81.16,0,67.06,46.5,40.94,35.74,74.07s-17.68,66.73,30.26,67.81,85.15-39.09,79.52-93.6,29.28-34.52,39.43-61.48C3648.25,751,3655.69,649.63,3655.69,649.63Z"/><path class="cls-15" d="M3759.62,1110.93s34.74,220,25.37,314.24-56.49,235.31-56.49,235.31l-41.17-3.35s2.59-14.46,1.27-69.91S3679,1453.63,3711,1416.66c-4-72.09-49.36-305.73-49.36-305.73Z"/><path class="cls-15" d="M3588.78,1103.53c-18,64.69-19,244-4.08,347.52s28.8,204.42,28.8,204.42l48.12.68V1404.84c0-44.37,12-181.15,12-181.15l15-112.76Z"/><ellipse class="cls-5" cx="3681.9" cy="724.21" rx="58.23" ry="78.28"/><path class="cls-5" d="M3659.22,786.46v83.19s27.73,14.78,51.76,0c-3.7-18.49-5.89-77.38-5.89-77.38Z"/><path class="cls-18" d="M3609.62,831.34h138S3772.4,887,3769,934.61s-9.42,177.24-9.42,177.24S3642,1123.3,3588,1106.62a1923.24,1923.24,0,0,1,1.66-204.71C3591.62,870.15,3609.62,831.34,3609.62,831.34Z"/><path class="cls-14" d="M3659.22,831.34c-3.51-1.66-34.7-2.9-34.7-2.9s-47.9-99.9-64.62-129.61c-11.39-47.71-10.56-126.28-10.56-126.28l-18.68-9.85s-31.28,93.74-23.44,137.08c2.06,11.44,61.06,164.39,61.06,164.39s-14.42,181.52-21.81,224.47c51.49,11.51,85,2.95,85,2.95Z"/><path class="cls-14" d="M3707.11,831.34l26.2,260.25s21.52,6.92,67.73-6.82c1.85-55-17.81-227.77-17.81-227.77s41.19-68,66.15-168.33c-1.85-37.79-18.25-124.43-18.25-124.43l-47.86-2.55,17,122.36s-58.73,128.13-64.77,146.63C3715.17,829.19,3707.11,831.34,3707.11,831.34Z"/><path class="cls-7" d="M3619.8,724.21c32.14-4.11,62-22,78.91-45.17,10.91,27.06,41.43,45.17,41.43,45.17s22.87-51.75-18.73-79.67C3681.73,617.91,3587.06,636.1,3619.8,724.21Z"/><path d="M3657.4,740.92a6.19,6.19,0,1,1,6.19-6.19A6.19,6.19,0,0,1,3657.4,740.92Z"/><path d="M3706.73,740.92a6.19,6.19,0,1,1,6.19-6.19A6.19,6.19,0,0,1,3706.73,740.92Z"/><path class="cls-7" d="M3717.64,729.15a3,3,0,0,1-2.57-1.45c-1.52-2.58-3.37-4.13-5.5-4.6-3.67-.81-7.3,1.64-7.34,1.67a3,3,0,0,1-3.39-4.88c.23-.17,5.72-3.95,11.95-2.61,3.82.83,7,3.31,9.4,7.38a3,3,0,0,1-2.55,4.49Z"/><path class="cls-7" d="M3645.66,729.45a2.94,2.94,0,0,1-1.85-.65,3,3,0,0,1-.46-4.18c3.9-4.87,8.23-7.53,12.85-7.89a14.48,14.48,0,0,1,10.23,3.38,3,3,0,0,1-4,4.4,8.51,8.51,0,0,0-5.86-1.84c-2.89.25-5.78,2.16-8.6,5.67A3,3,0,0,1,3645.66,729.45Z"/><path class="cls-11" d="M3688,742.85c8,5.77,10.5,8.14,13.59,10.07-2.13,7.14-13.34,10.69-16.53,9.87,7.81-3.85,8.91-9.06,8.91-9.06Z"/><path class="cls-5" d="M3632.37,730.25c6.67,8.45,7,19.32.74,24.26s-16.75,2.11-23.43-6.35-7-19.31-.74-24.25S3625.69,721.8,3632.37,730.25Z"/><path class="cls-11" d="M3626.51,748.51a2.07,2.07,0,0,1-.77-.15,2,2,0,0,1-1-2.6c1.41-3.35,1.44-6,.09-8-2.08-3-7-4-10.59-3.85a2,2,0,0,1-.13-4c4.8-.17,11,1.21,14,5.56,1.49,2.17,2.75,6,.29,11.8A2,2,0,0,1,3626.51,748.51Z"/><path class="cls-10" d="M3666.45,773.36a1.81,1.81,0,0,1,1.91-2.72,148.9,148.9,0,0,0,16.8,2.64,151.94,151.94,0,0,0,17,.38,1.8,1.8,0,0,1,1.39,3c-3.25,3.65-9.77,9.05-19.43,8.19S3669,777.53,3666.45,773.36Z"/><path class="cls-8" d="M3707.87,1688.06c5.63-14.77,17.64-16.41,17.64-16.41,23.37,31.16,80.74,12,78.84,54.19-87.25-.54-123.5,0-123.5,0,.11-9.68,1.83-32.66,3.85-41.65l4.54.8Z"/><path class="cls-10" d="M3680.85,1724.68h123.55a0,0,0,0,1,0,0V1732a5.09,5.09,0,0,1-5.09,5.09H3685.94a5.09,5.09,0,0,1-5.09-5.09v-7.32A0,0,0,0,1,3680.85,1724.68Z"/><path class="cls-8" d="M3671.61,1725.94s-6.86-25.59-7.46-28.88c-.69-3.73-2.7-12.57-3.12-17.1-.1-1.12-11.88-8.32-20.87-8.31-12.18,0-23.28,7.08-23.51,8.41-1.44,8.54-1.48,18.58-3.81,26.9-1.73,6.19-6.44,20.6-6.44,20.6Z"/><path class="cls-10" d="M3671.61,1724c-1.6,5.08-21.32-.79-35.71-.78-12.09,0-27.72,4.68-29.5,2.86-3,5.34-.53,16.4-.53,16.4s12.59.65,27.69,0,32.56.31,39.14-1.64C3676.85,1733.86,3671.61,1724,3671.61,1724Z"/><path class="cls-4" d="M4035.83,424.45a39.24,39.24,0,0,0-2-17.12c-10.41-53.23-85.86-57.65-192.31-71.79-17.8-2.36-5.31-22.23,6-67.6,7.34-29.5-7-77.61-39.64-81.16-53.76-5.86-6.65,42-65.56,141.21-31.48,53-84.85,15.58-91,71.61l-13.9,127.55c-2.38,21.81-2.52,43,27.92,49.82,29.5,6.6,20.48,27.06,63.56,31.76l215.66,23.51a40,40,0,0,0,44.16-35.33A39.42,39.42,0,0,0,3983,572a39.26,39.26,0,0,0,18.61-57.14,39.51,39.51,0,0,0,15.93-61.32,39.56,39.56,0,0,0,18.3-29.08Z"/><path class="cls-12" d="M3888.85,448.56l102.83,11.21a40.31,40.31,0,0,0,36.37-15.7,10.45,10.45,0,0,0-2.11-14.66,10.55,10.55,0,0,0-14.73,2.09,19.08,19.08,0,0,1-17.27,7.44l-105.3-11.48a18.95,18.95,0,1,1,4.11-37.67l70.36,7.67a10.47,10.47,0,1,0,2.27-20.82L3895,369A39.69,39.69,0,0,0,3862,436.13a39.4,39.4,0,0,0-3.83,58.84,39.63,39.63,0,0,0-1.58,61,39.47,39.47,0,0,0-13,25.12,40,40,0,0,0,35.51,44l65.54,7.15a40.32,40.32,0,0,0,36.39-15.69,10.44,10.44,0,0,0-2.09-14.66,10.56,10.56,0,0,0-14.73,2.07,19.18,19.18,0,0,1-17.3,7.45l-65.54-7.14a18.95,18.95,0,1,1,4.11-37.67l77.76,8.47a40.29,40.29,0,0,0,36.38-15.69,10.51,10.51,0,0,0-16.82-12.6,18.88,18.88,0,0,1-17.29,7.47L3881,545a19,19,0,1,1,4.11-37.69l96.7,10.55a40.29,40.29,0,0,0,36.38-15.69,10.5,10.5,0,0,0-16.81-12.59,18.94,18.94,0,0,1-17.3,7.45l-99.34-10.83a19,19,0,1,1,4.11-37.68Z"/><path class="cls-13" d="M3637.35,583.67l-67.15-7.33c-12.12-1.32-18.83-9.68-17.82-19l21.76-199.54a16.94,16.94,0,0,1,18.67-15l67.15,7.32a17,17,0,0,1,15,18.68l-21.76,199.54C3652.2,577.65,3643.83,584.37,3637.35,583.67Z"/><path class="cls-4" d="M1197.9,1018.33l44.36.35-39.91,19.37a14.79,14.79,0,0,0-8.31,14.17l3.88,66-24.87-61.34a14.79,14.79,0,0,0-13.52-9.23l-43.37-.54,38.93-19.12a14.77,14.77,0,0,0,8.25-14.14l-3.88-66.08,24.85,61.3A14.8,14.8,0,0,0,1197.9,1018.33Z"/><path class="cls-4" d="M1728.09,311l37.33,19.71-42.2-1.1a14.08,14.08,0,0,0-13.23,8.34l-25.62,57.49,5.83-62.72a14.07,14.07,0,0,0-7.38-13.72l-36.42-19.43,41.27.89a14.08,14.08,0,0,0,13.16-8.35l25.64-57.53-5.83,62.67A14.08,14.08,0,0,0,1728.09,311Z"/><path class="cls-4" d="M1034.52,274.75l27.83-.06-24.91,12.4a9.27,9.27,0,0,0-5.12,9l2.86,41.39-16-38.32a9.28,9.28,0,0,0-8.54-5.7l-27.21-.06,24.3-12.24a9.26,9.26,0,0,0,5.08-8.92L1010,230.76l16,38.29A9.27,9.27,0,0,0,1034.52,274.75Z"/><path class="cls-4" d="M1405.21,1231l26.66,16.67-31.29-3.11a10.48,10.48,0,0,0-10.27,5.47l-22.15,41.31,7.74-46.26a10.5,10.5,0,0,0-4.74-10.59l-26-16.41,30.6,2.9a10.46,10.46,0,0,0,10.22-5.48l22.17-41.34-7.73,46.23A10.47,10.47,0,0,0,1405.21,1231Z"/><path class="cls-4" d="M2516.69,496.87,2541.21,510l-27.81-.92a9.29,9.29,0,0,0-8.76,5.44l-17.15,37.78,4.13-41.31a9.28,9.28,0,0,0-4.8-9.08l-23.92-13,27.2.78a9.29,9.29,0,0,0,8.71-5.44L2516,446.49l-4.12,41.28A9.28,9.28,0,0,0,2516.69,496.87Z"/><path class="cls-4" d="M316.56,1145.57l27.77-1.94-24,14.06a9.27,9.27,0,0,0-4.51,9.26l5.64,41.11-18.54-37.15a9.29,9.29,0,0,0-8.9-5.12l-27.15,1.78,23.41-13.85a9.26,9.26,0,0,0,4.47-9.25l-5.64-41.13,18.53,37.12A9.24,9.24,0,0,0,316.56,1145.57Z"/><path class="cls-10" d="M3210.34,1291.54a31.53,31.53,0,1,1-31.52-31.53A31.52,31.52,0,0,1,3210.34,1291.54Z"/><path class="cls-10" d="M1481.49,1341.77a24.6,24.6,0,1,1,0-34.79A24.59,24.59,0,0,1,1481.49,1341.77Z"/><path class="cls-10" d="M3228.17,1206.33a17,17,0,1,1-17,17,17,17,0,0,1,17-17Zm0-7.24a24.21,24.21,0,1,0,24.2,24.2,24.21,24.21,0,0,0-24.2-24.2Z"/><path class="cls-10" d="M1736.78,542.55a24.15,24.15,0,1,1-24.15,24.15,24.17,24.17,0,0,1,24.15-24.15Zm0-10.31a34.46,34.46,0,1,0,34.45,34.46,34.46,34.46,0,0,0-34.45-34.46Z"/><path class="cls-10" d="M141.55,642.25a21.68,21.68,0,1,1-21.68,21.68,21.71,21.71,0,0,1,21.68-21.68Zm0-9.25a30.94,30.94,0,1,0,30.94,30.93A30.93,30.93,0,0,0,141.55,633Z"/></g></g></svg>